<svg id="Слой_1" data-name="Слой 1" xmlns="http://www.w3.org/2000/svg" width="768.19" height="204.8" viewBox="0 0 768.19 204.8"><defs><style>.cls-1{fill:#e1e7ec;}</style></defs><title>bg-footer</title><polygon class="cls-1" points="21.5 150.53 21 150.53 21 104.55 55.38 93.79 55.52 94.27 21.5 104.91 21.5 150.53"/><polygon class="cls-1" points="21.28 157.98 21.22 157.48 61.23 153 61.5 151.19 62 151.27 61.67 153.46 61.48 153.48 21.28 157.98"/><path class="cls-1" d="M3,154.5l-.43-28,9.92-3.31v29.33Zm.1-27.65.41,27,8.5-1.78v-28.2Z" transform="translate(0 0.02)"/><polygon class="cls-1" points="14 152.14 14 122.98 20.95 120.41 21.12 120.88 14.5 123.32 14.5 151.55 21 150.55 26 149.95 26 113.03 21.09 114.21 20.97 113.72 26.5 112.4 26.5 150.4 21.06 151.05 14 152.14"/><polygon class="cls-1" points="60.57 143.35 63 139.16 63 99.24 56.6 100.57 56.5 100.08 63.5 98.62 63.5 139.3 61.53 142.71 104.11 136.38 104.19 136.88 60.57 143.35"/><polygon class="cls-1" points="56 142.92 56 100.53 56.5 100.53 56.5 142.34 61.32 141.68 61.38 142.18 56 142.92"/><rect class="cls-1" x="56.44" y="107.41" width="6.82" height="0.5" transform="translate(-25 18.39) rotate(-14.47)"/><rect class="cls-1" x="56.36" y="116.36" width="6.89" height="0.5" transform="translate(-25.47 17.12) rotate(-13.44)"/><rect class="cls-1" x="56.46" y="124.61" width="6.67" height="0.5" transform="translate(-26.56 16.67) rotate(-13)"/><rect class="cls-1" x="56.46" y="132.22" width="6.67" height="0.5" transform="translate(-28.27 16.87) rotate(-13)"/><rect class="cls-1" x="56.52" y="140.35" width="6.08" height="0.5" transform="translate(-22.23 11.68) rotate(-9.43)"/><path class="cls-1" d="M57.2,141c0-3.79-.19-37.08.31-38.48s5-2.46,5.48-2.56l.1.49c-1.8.38-4.79,1.32-5.12,2.24s-.37,23.46-.29,38.31Z" transform="translate(0 0.02)"/><rect class="cls-1" x="21.04" y="120.51" width="5.22" height="0.5" transform="translate(-33.7 11.91) rotate(-16.7)"/><rect class="cls-1" x="21.19" y="128.16" width="4.95" height="0.5" transform="translate(-30.45 9.6) rotate(-14.04)"/><rect class="cls-1" x="21.21" y="134.85" width="5" height="0.5" transform="translate(-26.44 7.45) rotate(-11.49)"/><rect class="cls-1" x="21.48" y="142.67" width="5.04" height="0.5" transform="translate(-30.72 8.75) rotate(-12.65)"/><path class="cls-1" d="M22.3,149.91h-.5c0-1.32.5-32.33.7-33.63.23-1.49,3.23-1.24,3.57-1.21v.5c-.74-.07-2.9-.08-3,.79C22.8,117.62,22.3,149.59,22.3,149.91Z" transform="translate(0 0.02)"/><polygon class="cls-1" points="54 152.61 54 144.16 56 143.36 56 90.35 105.67 73.49 105.83 73.97 56.5 90.71 56.5 143.7 54.5 144.5 54.5 152.04 112.08 144.21 111.9 142.15 112.4 142.11 112.62 144.65 112.38 144.68 54 152.61"/><polygon class="cls-1" points="19.51 158.1 19.3 151.42 20.98 149.85 21.32 150.21 19.8 151.64 19.99 157.55 22.73 157.28 22.77 157.78 19.51 158.1"/><path class="cls-1" d="M28,146.58l.3-39.07h.3l-.12-.39,15-4.61-.1,41.23h-.2Zm.8-39L28.5,146l14.4-2.65.1-40.14Z" transform="translate(0 0.02)"/><path class="cls-1" d="M68,139l.42-38.6h.19l18.9-4.7v39.76h-.2Zm.91-38.21L68.5,138.4,87,135V96.27Z" transform="translate(0 0.02)"/><polygon class="cls-1" points="105.5 132.53 105 132.53 105 68.64 156.7 50.54 156.5 122.61 193.26 116.19 195.07 115.99 195.13 116.48 193.33 116.68 156 123.21 156 122.91 156.2 51.24 105.5 69 105.5 132.53"/><path class="cls-1" d="M161.77,69.67l-5.67-1.21,31.4-10,.17.47ZM158,68.36l3.7.79L182,60.73Z" transform="translate(0 0.02)"/><polygon class="cls-1" points="157.01 62.17 156.88 61.69 188.55 53.19 187.8 58.76 187.3 58.7 187.95 53.87 157.01 62.17"/><polygon class="cls-1" points="163.5 60.53 163 60.53 163 52.24 156.6 50.97 156.7 50.48 163.5 51.82 163.5 60.53"/><rect class="cls-1" x="162" y="69.53" width="0.5" height="2"/><path class="cls-1" d="M161,119l-.1-47.28.17-.06L192.5,60.35l-.61,52.26h-.2Zm.4-46.93.1,46.32,29.9-6.2L192,61.05Z" transform="translate(0 0.02)"/><polygon class="cls-1" points="115.64 133.25 115.75 131.01 116.25 131.04 116.17 132.65 157 125.43 157 122.97 162 121.04 162 118.53 162.5 118.53 162.5 121.39 157.5 123.31 157.5 125.85 157.29 125.88 115.64 133.25"/><rect class="cls-1" x="161.92" y="120.05" width="14.67" height="0.5" transform="translate(-10.73 16.77) rotate(-5.49)"/><path class="cls-1" d="M106,132.5v-.29l.2-49.69,8.3-2.34L114,131.43Zm.7-49.6-.2,49,7-.93L114,80.82Z" transform="translate(0 0.02)"/><rect class="cls-1" x="106.47" y="90.06" width="8.07" height="0.5" transform="translate(-21.86 36.97) rotate(-17.3)"/><rect class="cls-1" x="106.4" y="100.92" width="7.98" height="0.5" transform="translate(-22.76 32.69) rotate(-15.28)"/><rect class="cls-1" x="106.12" y="111.06" width="8.15" height="0.5" transform="translate(-24.01 30.57) rotate(-14.25)"/><rect class="cls-1" x="106.44" y="122.31" width="7.54" height="0.5" transform="translate(-27.3 31.71) rotate(-14.58)"/><path class="cls-1" d="M103.91,143.49l-.42-9.4,2.7-2.08.3.4-2.5,1.92.38,8.6,89.53-12.46c1.3-.29,37.31,1.42,38.85,1.5v.5c-10.42-.5-37.69-1.74-38.73-1.51Z" transform="translate(0 0.02)"/><path class="cls-1" d="M107.2,131.51c0-.42-.2-42.44-.2-45.8,0-3.61,6.57-3.75,6.85-3.75v.5c-.06,0-6.35.13-6.35,3.25,0,3.36.2,45.38.2,45.8Z" transform="translate(0 0.02)"/><polygon class="cls-1" points="105.73 70.36 105.57 69.89 157.03 51.87 163.59 53.08 163.5 53.57 157.07 52.39 105.73 70.36"/><rect class="cls-1" x="54.28" y="82.96" width="52.75" height="0.5" transform="translate(-22.27 29.99) rotate(-18.54)"/><rect class="cls-1" x="20.42" y="99.86" width="35.77" height="0.5" transform="translate(-28.51 16.31) rotate(-17.62)"/><polygon class="cls-1" points="0.55 118.06 0.35 117.6 21.05 109.1 21.25 109.56 0.55 118.06"/><path class="cls-1" d="M387.61,204.78c-51,0-102.58-1.24-154.06-3.71C93.42,194.34,1.1,180.62.21,180.48H0V117.24l20.87-8.57.19.46L.5,117.57V180c5,.74,96.24,14,233.08,20.55,129.27,6.2,326.85,7.55,534.09-21.25,0-5.56-.13-111.6-.89-114.47-2.06-4.34-36.86-2.57-55-1l-30.06,3.31h0L628,52.36v-21l-20.27-5.93L543.15,38.57l-.09,3.9h-.5l.1-4.3h.2L607.75,24.9h.06L628.5,31V52l53.29,14.64,30-3.3c2.16-.19,52.74-4.45,55.48,1.34.82,3,.92,110.3.92,114.86v.22H768c-91.56,12.73-188.9,20.7-289.31,23.66Q433.52,204.78,387.61,204.78Z" transform="translate(0 0.02)"/><polygon class="cls-1" points="196.5 176.53 196 176.53 196 12.18 160.5 28.48 160.5 50.53 160 50.53 160 28.16 196.5 11.4 196.5 176.53"/><polygon class="cls-1" points="248.91 47.28 238.79 45.44 239.29 21.24 195.71 13.17 195.79 12.68 239.8 20.82 239.3 45.02 249 46.78 248.91 47.28"/><path class="cls-1" d="M248.41,58.35l-.51-28.51.16-.06,59.87-23,15.76,3.76.52,13.62L309.4,26l.1,13.16-.18.06Zm0-28.17.49,27.49L309,38.73l-.1-13.24,14.79-1.8-.48-12.78L308,7.27Z" transform="translate(0 0.02)"/><rect class="cls-1" x="308.5" y="6.98" width="0.5" height="19.53" transform="translate(-0.45 15.88) rotate(-2.94)"/><path class="cls-1" d="M249.7,127.51v-.3l.3-69.7h.5l-.3,69.4,60.41-10.15c.15,0,13-.93,25.72-1.54,26-1.24,26.09-.06,26.16.51s.23,2-36,7.52c-9.75,1.2-11.55.61-11.62.59l.17-.47c.07,0,1.88.55,11.39-.61,30.37-4.61,35.32-6.36,35.58-7-1-1.5-32,.11-51.33,1.5Z" transform="translate(0 0.02)"/><path class="cls-1" d="M258.7,202.31c0-.65-.2-64.53-.3-67.49-.08-2.34-6.64-6.05-9.16-7.28L248.1,127l27,2.1,25.64-4.3.08.49-25.7,4.3-24.52-1.9c2.49,1.32,8.25,4.65,8.33,7.15.1,3,.3,66.86.3,67.51Z" transform="translate(0 0.02)"/><path class="cls-1" d="M274.64,202.73c-.21-.1-.26-.13-.06-36.91.1-18.31.23-36.61.23-36.61h.5c-.17,24.88-.45,72.22-.31,73.24h-.23Z" transform="translate(0 0.02)"/><path class="cls-1" d="M261,202.21h-.5c0-.59.3-59.07,0-65.69-.29-6.34-11-9-11.11-9.07l.12-.49c.46.11,11.19,2.82,11.49,9.53S261,201.62,261,202.21Z" transform="translate(0 0.02)"/><rect class="cls-1" x="301" y="118.53" width="0.5" height="85"/><rect class="cls-1" x="308" y="117.53" width="0.5" height="86"/><path class="cls-1" d="M361.1,204.51,361,116l.13-.07c.73-.41,1.45-3.92.53-7.54-32.49-1.66-52.76,2-53,2l-59.5,10.2-.08-.49,59.5-10.2c.2,0,20.6-3.69,53.26-2H362v.17c.92,3.39.44,7.34-.59,8.2l.1,88.27Z" transform="translate(0 0.02)"/><path class="cls-1" d="M28.3,163l-.1-6h.5l.09,5.42,166.42-20.17,20.79.65.7-84.28,16.8,1.85V144l-17-.54v.08H216v-.09l-20.76-.66Zm188.2-20.06,16.5.52V60.93l-15.8-1.75Z" transform="translate(0 0.02)"/><rect class="cls-1" x="224.34" y="113.35" width="0.5" height="16.33" transform="translate(89.56 338.26) rotate(-86.49)"/><rect class="cls-1" x="224.36" y="109.99" width="0.5" height="16.34" transform="translate(91.59 334.33) rotate(-86.14)"/><rect class="cls-1" x="224.34" y="98.74" width="0.5" height="16.33" transform="translate(104.13 324.55) rotate(-86.49)"/><rect class="cls-1" x="224.45" y="97.35" width="0.5" height="16.33" transform="translate(105.63 323.35) rotate(-86.49)"/><rect class="cls-1" x="224.24" y="86.21" width="0.5" height="16.24" transform="translate(110.42 309.48) rotate(-84.86)"/><rect class="cls-1" x="225.15" y="87.06" width="0.5" height="16.13" transform="translate(105.96 308.66) rotate(-83.66)"/><rect class="cls-1" x="224.51" y="76.02" width="0.5" height="16.09" transform="translate(117.4 298.7) rotate(-83.93)"/><rect class="cls-1" x="224.51" y="73.52" width="0.5" height="16.09" transform="translate(119.89 296.46) rotate(-83.93)"/><rect class="cls-1" x="224.56" y="62.09" width="0.5" height="16.03" transform="translate(127.19 284.44) rotate(-82.83)"/><rect class="cls-1" x="224.55" y="60.08" width="0.5" height="16.05" transform="translate(126.51 281.47) rotate(-82.12)"/><path class="cls-1" d="M120,126.12l.4-44.67,28.11-8.39L147.7,121h-.2Zm.9-44.3-.39,43.7,26.71-5L148,73.7Z" transform="translate(0 0.02)"/><polygon class="cls-1" points="160.34 47.86 160.16 47.4 195.72 32.77 239.09 39.28 239.01 39.78 195.78 33.29 160.34 47.86"/><polygon class="cls-1" points="163.74 52.96 163.56 52.5 195.62 40.47 195.69 40.48 248.89 48.58 248.81 49.08 195.68 40.99 163.74 52.96"/><rect class="cls-1" x="240.97" y="56.76" width="0.5" height="17.1" transform="translate(139.97 293.81) rotate(-81.25)"/><polygon class="cls-1" points="216.81 69.88 195.76 66.78 192.2 67.57 192.1 67.08 195.74 66.27 195.79 66.28 216.89 69.38 216.81 69.88"/><rect class="cls-1" x="240.99" y="63.64" width="0.5" height="17.14" transform="matrix(0.13, -0.99, 0.99, 0.13, 138.68, 302.21)"/><polygon class="cls-1" points="216.72 88.28 195.32 85.98 191.88 86.48 191.81 85.98 195.31 85.48 216.78 87.78 216.72 88.28"/><rect class="cls-1" x="240.95" y="82" width="0.5" height="17.02" transform="translate(122.97 319.42) rotate(-83.25)"/><polygon class="cls-1" points="216.63 94.78 195.63 92.98 191.68 93.48 191.62 92.98 195.62 92.48 216.67 94.28 216.63 94.78"/><polygon class="cls-1" points="249.52 97.78 232.72 95.58 232.78 95.08 249.58 97.28 249.52 97.78"/><polygon class="cls-1" points="216.63 113.58 195.53 111.88 191.47 112.28 191.43 111.78 195.53 111.38 216.67 113.08 216.63 113.58"/><rect class="cls-1" x="240.95" y="106.46" width="0.5" height="16.73" transform="translate(112.16 348.75) rotate(-86.57)"/><rect class="cls-1" x="205.78" y="109.12" width="0.5" height="20.65" transform="translate(71.95 316.29) rotate(-85.84)"/><rect class="cls-1" x="240.78" y="113.34" width="0.5" height="16.62" transform="translate(106.52 355.78) rotate(-86.9)"/><rect class="cls-1" x="245.57" y="126.71" width="0.5" height="26.12" transform="translate(97.64 380.63) rotate(-88.02)"/><rect class="cls-1" x="267.75" y="134.1" width="0.5" height="14.31" transform="translate(117.48 404.18) rotate(-88)"/><rect class="cls-1" x="267.7" y="139.76" width="0.5" height="14.2" transform="translate(115.47 411.68) rotate(-88.79)"/><polygon class="cls-1" points="148.72 79.77 148.58 79.29 156.83 76.77 160.88 77.28 160.82 77.78 156.87 77.28 148.72 79.77"/><path class="cls-1" d="M148.85,74.11" transform="translate(0 0.02)"/><polygon class="cls-1" points="148.31 96.87 148.19 96.39 156.64 94.48 161.08 95.08 161.02 95.58 156.66 94.98 148.31 96.87"/><polygon class="cls-1" points="148.1 103.27 148 102.78 156.64 100.98 160.88 101.48 160.82 101.98 156.66 101.48 148.1 103.27"/><polygon class="cls-1" points="147.98 120.28 147.92 119.78 156.62 118.78 161.19 117.59 161.31 118.07 156.71 119.27 147.98 120.28"/><rect class="cls-1" x="114.01" y="125.48" width="6.68" height="0.5" transform="translate(-17.51 19.02) rotate(-8.62)"/><rect class="cls-1" x="113.96" y="110.45" width="6.79" height="0.5" transform="translate(-22.82 30.87) rotate(-13.66)"/><rect class="cls-1" x="113.96" y="103.96" width="6.89" height="0.5" transform="translate(-21.01 30.16) rotate(-13.44)"/><rect class="cls-1" x="114.37" y="82.36" width="6.77" height="0.5" transform="translate(-20.43 42.69) rotate(-18.93)"/><rect class="cls-1" x="114.13" y="88.96" width="6.74" height="0.5" transform="translate(-19.57 34.67) rotate(-15.5)"/><polygon class="cls-1" points="89.7 134.02 90 95.64 105.78 91.09 105.92 91.57 90.5 96.02 90.2 133.44 105.71 130.98 105.79 131.48 89.7 134.02"/><polygon class="cls-1" points="24.48 150.89 25.96 149.26 26.34 149.6 25.82 150.17 53.81 145.58 53.89 146.08 24.48 150.89"/><rect class="cls-1" x="54.02" y="143.72" width="5.25" height="0.5" transform="translate(-18.59 8.81) rotate(-7.62)"/><path class="cls-1" d="M103.85,134.21" transform="translate(0 0.02)"/><rect class="cls-1" x="103.82" y="133.61" width="6.94" height="0.5" transform="translate(-13.02 11.59) rotate(-5.82)"/><rect class="cls-1" x="19.52" y="151.01" width="3.73" height="0.5" transform="translate(-20.15 4.27) rotate(-7.73)"/><rect class="cls-1" x="86.79" y="97.52" width="3.52" height="0.5" transform="translate(-22.1 25.98) rotate(-14.85)"/><rect class="cls-1" x="87.02" y="113.02" width="2.94" height="0.5" transform="translate(-17.97 16.72) rotate(-9.79)"/><rect class="cls-1" x="87.03" y="119.36" width="3.06" height="0.5" transform="translate(-21.86 19.85) rotate(-11.38)"/><rect class="cls-1" x="63.07" y="136.81" width="5.55" height="0.5" transform="translate(-30.28 19.27) rotate(-13.55)"/><rect class="cls-1" x="87.02" y="132.01" width="2.94" height="0.5" transform="translate(-21.2 17) rotate(-9.79)"/><rect class="cls-1" x="63.11" y="117.7" width="5.71" height="0.5" transform="translate(-21.58 15.02) rotate(-11.16)"/><polygon class="cls-1" points="63.1 124.88 63 124.38 68.7 123.19 68.8 123.68 63.1 124.88"/><rect class="cls-1" x="87" y="101.86" width="3.1" height="0.5" transform="translate(-23.36 26.34) rotate(-14.96)"/><rect class="cls-1" x="62.97" y="107.36" width="5.97" height="0.5" transform="translate(-23.38 18.47) rotate(-13.55)"/><rect class="cls-1" x="63.08" y="102.95" width="5.97" height="0.5" transform="translate(-22.34 18.37) rotate(-13.55)"/><polygon class="cls-1" points="148.82 73.47 148.68 72.99 156.62 70.58 161.71 70.88 195.73 58.87 217.09 62.08 217.01 62.58 195.77 59.39 161.79 71.38 156.68 71.08 148.82 73.47"/><rect class="cls-1" x="193" y="131.53" width="0.5" height="11"/><polygon class="cls-1" points="182.3 144.14 182 132.54 182.5 132.52 182.8 144.12 182.3 144.14"/><polygon class="cls-1" points="171.2 145.53 171 134.53 171.5 134.52 171.7 145.52 171.2 145.53"/><polygon class="cls-1" points="162.2 146.53 162 135.53 162.5 135.52 162.7 146.52 162.2 146.53"/><polygon class="cls-1" points="152.6 147.64 152.4 136.64 152.9 136.62 153.1 147.62 152.6 147.64"/><rect class="cls-1" x="144.24" y="137.62" width="0.5" height="11" transform="translate(-3.84 4.01) rotate(-1.56)"/><rect class="cls-1" x="136.34" y="138.82" width="0.5" height="10.7" transform="translate(-3.97 3.89) rotate(-1.6)"/><polygon class="cls-1" points="128.3 150.54 127.9 139.84 128.4 139.82 128.8 150.52 128.3 150.54"/><rect class="cls-1" x="120.6" y="141.01" width="0.5" height="10.51" transform="translate(-5.48 4.73) rotate(-2.18)"/><rect class="cls-1" x="111.5" y="145.25" width="0.5" height="7.93" transform="translate(-8.74 6.98) rotate(-3.43)"/><rect class="cls-1" x="106.6" y="145.3" width="0.5" height="7.91" transform="translate(-7.41 5.62) rotate(-2.9)"/><rect class="cls-1" x="101.39" y="146.11" width="0.5" height="7.72" transform="translate(-5.91 4.21) rotate(-2.29)"/><polygon class="cls-1" points="96.3 154.54 96 146.64 96.5 146.62 96.8 154.52 96.3 154.54"/><polygon class="cls-1" points="91.5 155.04 91.3 147.34 91.8 147.32 92 155.02 91.5 155.04"/><polygon class="cls-1" points="87.5 155.54 87.3 147.84 87.8 147.82 88 155.52 87.5 155.54"/><polygon class="cls-1" points="82.6 156.14 82.4 148.44 82.9 148.42 83.1 156.12 82.6 156.14"/><rect class="cls-1" x="78" y="149.53" width="0.5" height="7"/><rect class="cls-1" x="73.06" y="149.51" width="0.5" height="8" transform="translate(-1.92 0.96) rotate(-0.72)"/><polygon class="cls-1" points="69.1 157.53 69 150.53 69.5 150.52 69.6 157.52 69.1 157.53"/><rect class="cls-1" x="65" y="150.53" width="0.5" height="8"/><polygon class="cls-1" points="63.4 158.53 62.9 158.52 63 151.52 63.5 151.53 63.4 158.53"/><rect class="cls-1" x="60" y="153.53" width="0.5" height="6"/><polygon class="cls-1" points="56.8 159.43 56.3 159.43 56.4 153.82 56.9 153.83 56.8 159.43"/><polygon class="cls-1" points="53.2 159.73 53.1 154.14 53.6 154.12 53.7 159.73 53.2 159.73"/><polygon class="cls-1" points="49.5 160.14 49.4 154.64 49.9 154.62 50 160.12 49.5 160.14"/><rect class="cls-1" x="46" y="155.53" width="0.5" height="5"/><polygon class="cls-1" points="42.2 161.14 42.1 155.53 42.6 155.52 42.7 161.12 42.2 161.14"/><rect class="cls-1" x="38.71" y="155.81" width="0.5" height="5.7" transform="translate(-5.54 1.49) rotate(-2.01)"/><polygon class="cls-1" points="35.1 162.53 35 156.53 35.5 156.52 35.6 162.52 35.1 162.53"/><rect class="cls-1" x="31.69" y="156.61" width="0.5" height="5.8" transform="translate(-5.46 1.22) rotate(-1.97)"/><path class="cls-1" d="M43.79,144.16l.2-32.72-1.21.32-.13-.48,1.85-.49v.07l10.2-2.93-.21,34.63Zm.7-32.79-.2,32.2,9.7-1.46.2-33.53Z" transform="translate(0 0.02)"/><rect class="cls-1" x="43.04" y="116.41" width="1.53" height="0.5" transform="translate(-21.95 10.83) rotate(-11.27)"/><rect class="cls-1" x="42.85" y="142.1" width="1.53" height="0.5" transform="translate(-26.98 11.29) rotate(-11.27)"/><rect class="cls-1" x="26.22" y="146.16" width="1.55" height="0.5" transform="matrix(0.97, -0.26, 0.26, 0.97, -36.88, 11.95)"/><rect class="cls-1" x="26.13" y="130.51" width="1.63" height="0.5" transform="translate(-23.51 7.18) rotate(-10.56)"/><rect class="cls-1" x="26.14" y="135.21" width="1.53" height="0.5" transform="translate(-26.2 8) rotate(-11.38)"/><rect class="cls-1" x="42.94" y="126.31" width="1.53" height="0.5" transform="translate(-23.89 11.01) rotate(-11.27)"/><polygon class="cls-1" points="42.82 132.87 42.68 132.39 44.38 131.89 44.52 132.37 42.82 132.87"/><rect class="cls-1" x="26.21" y="115.7" width="1.68" height="0.5" transform="translate(-33.46 13.43) rotate(-17.41)"/><rect class="cls-1" x="26.23" y="120.46" width="1.75" height="0.5" transform="translate(-26.89 9.42) rotate(-13.22)"/><rect class="cls-1" x="0.17" y="155.11" width="19.61" height="0.5" transform="translate(-27.43 4.27) rotate(-10.23)"/><path class="cls-1" d="M21.1,120.61" transform="translate(0 0.02)"/><rect class="cls-1" x="-0.26" y="123.47" width="21.92" height="0.5" transform="translate(-39.97 10.37) rotate(-19.14)"/><rect class="cls-1" x="12.48" y="126.42" width="2.21" height="0.5" transform="translate(-39.35 10.81) rotate(-18.43)"/><rect class="cls-1" x="12.5" y="136.97" width="2.28" height="0.5" transform="translate(-35.68 8.47) rotate(-15.28)"/><polygon class="cls-1" points="12.61 141.27 12.49 140.78 14.7 140.28 14.8 140.77 12.61 141.27"/><path class="cls-1" d="M12.65,151.21" transform="translate(0 0.02)"/><rect class="cls-1" x="12.63" y="150.41" width="2.02" height="0.5" transform="translate(-22.22 3.72) rotate(-8.54)"/><path class="cls-1" d="M399.7,204.51,399,32.45,364.28,43.06h0c-35.51-3.29-52.09,1.67-60.06,4.06-1,.29-1.82.55-2.55.74-6.42,1.58-50.84,14.67-51.29,14.8l-.14-.48c.45-.13,44.88-13.22,51.31-14.8.71-.19,1.56-.44,2.53-.73,8-2.39,24.63-7.37,60.2-4.08l35.22-10.8v.34l.7,172.4Z" transform="translate(0 0.02)"/><rect class="cls-1" x="379.35" y="37.51" width="0.5" height="167" transform="translate(-0.5 1.61) rotate(-0.24)"/><rect class="cls-1" x="329.56" y="75.26" width="66" height="0.5" transform="matrix(0.01, -1, 1, 0.01, 284.2, 437.5)"/><rect class="cls-1" x="261.26" y="59.49" width="0.5" height="59" transform="translate(-0.75 2.26) rotate(-0.49)"/><rect class="cls-1" x="243.63" y="85.75" width="61" height="0.5" transform="translate(187.08 359.82) rotate(-89.78)"/><path class="cls-1" d="M287.75,51.51" transform="translate(0 0.02)"/><rect class="cls-1" x="257.14" y="82.25" width="62" height="0.5" transform="translate(204.53 370.34) rotate(-89.78)"/><rect class="cls-1" x="269.06" y="79.26" width="64" height="0.5" transform="matrix(0.01, -1, 1, 0.01, 219.19, 379.96)"/><rect class="cls-1" x="279.57" y="76.76" width="65" height="0.5" transform="matrix(0.01, -1, 1, 0.01, 232.6, 388.49)"/><rect class="cls-1" x="328.95" y="42.53" width="0.5" height="66"/><rect class="cls-1" x="347.15" y="41.51" width="0.5" height="66" transform="translate(-0.33 1.6) rotate(-0.26)"/><polygon class="cls-1" points="249.82 71.67 249.68 71.19 300.98 56.29 311.89 53.79 328.52 51.78 346.75 51.48 362.92 52.48 380.18 47.69 398.68 42.19 398.82 42.67 380.32 48.17 362.98 52.98 362.94 52.98 346.73 51.98 328.55 52.28 311.98 54.28 301.11 56.77 249.82 71.67"/><polygon class="cls-1" points="249.71 84.17 249.59 83.69 260.99 80.69 274.39 77.49 300.99 70.49 311.51 68.68 328.52 66.48 346.74 65.98 362.93 67.18 398.89 58.39 399.01 58.87 362.97 67.68 346.73 66.48 328.56 66.98 311.58 69.18 301.09 70.98 274.51 77.97 261.11 81.17 249.71 84.17"/><polygon class="cls-1" points="249.6 96.77 249.5 96.29 300.9 84.79 311.5 82.49 329.03 80.78 347.25 80.48 362.23 81.18 398.89 72.79 399.01 73.27 362.27 81.68 362.24 81.68 347.24 80.98 329.05 81.28 311.57 82.98 301 85.27 249.6 96.77"/><polygon class="cls-1" points="249.6 108.38 249.5 107.88 300.9 97.78 311.5 95.78 328.92 93.98 347.04 93.28 362.46 94.18 398.91 88.18 398.99 88.68 362.49 94.68 347.04 93.78 328.96 94.48 311.58 96.28 301 98.27 249.6 108.38"/><rect class="cls-1" x="313.97" y="124.19" width="85.36" height="0.5" transform="translate(-13.35 48.41) rotate(-7.62)"/><rect class="cls-1" x="314.21" y="137.85" width="85.1" height="0.5" transform="translate(-12.79 39.23) rotate(-6.18)"/><rect class="cls-1" x="333.66" y="167.82" width="65.23" height="0.5" transform="translate(-3.29 7.38) rotate(-1.15)"/><rect class="cls-1" x="274.85" y="133.12" width="26.01" height="0.5" transform="translate(-14.6 37.63) rotate(-7.29)"/><rect class="cls-1" x="293.05" y="132.5" width="0.5" height="24" transform="translate(-0.6 1.25) rotate(-0.24)"/><rect class="cls-1" x="284.06" y="133.51" width="0.5" height="24" transform="translate(-0.61 1.22) rotate(-0.24)"/><rect class="cls-1" x="275.02" y="156.54" width="25.76" height="0.5" transform="translate(-10.33 20.7) rotate(-4.04)"/><path class="cls-1" d="M275.45,174.91" transform="translate(0 0.02)"/><path class="cls-1" d="M595.3,197.51h-.5L595,49.7l-19.78-5.44-21.7,1h0l-145-35.79c-2.45.79-40.83,13.2-44.27,13.69-25.9-2.76-39.53,1-39.67,1l-.14-.48c.14,0,13.85-3.78,39.79-1C367.65,22.17,408.1,9.1,408.47,9h.14l145,35.79,21.7-1h0l20.18,5.55v.19Z" transform="translate(0 0.02)"/><rect class="cls-1" x="553.05" y="45.53" width="0.5" height="155"/><polygon class="cls-1" points="594.9 63.97 574.93 59.48 553.17 60.98 553.13 60.48 574.97 58.98 575 58.99 595 63.49 594.9 63.97"/><polygon class="cls-1" points="594.91 73.98 574.81 70.58 553.37 72.08 553.33 71.58 574.83 70.08 594.99 73.48 594.91 73.98"/><polygon class="cls-1" points="595.01 84.98 574.71 81.78 553.26 82.88 553.24 82.38 574.74 81.28 595.09 84.48 595.01 84.98"/><polygon class="cls-1" points="594.91 94.88 574.71 91.88 553.16 93.08 553.14 92.58 574.74 91.38 594.99 94.38 594.91 94.88"/><polygon class="cls-1" points="594.93 104.48 575.03 102.58 553.36 103.88 553.34 103.38 575.03 102.08 594.97 103.98 594.93 104.48"/><polygon class="cls-1" points="595.02 116.48 574.73 114.38 553.26 115.28 553.24 114.78 574.74 113.88 595.08 115.98 595.02 116.48"/><polygon class="cls-1" points="595.03 128.48 574.53 126.58 553.36 127.38 553.34 126.88 574.54 126.08 595.07 127.98 595.03 128.48"/><polygon class="cls-1" points="594.74 139.48 574.53 138.28 553.16 138.88 553.14 138.38 574.54 137.78 594.76 138.98 594.74 139.48"/><polygon class="cls-1" points="594.84 150.28 574.84 149.28 552.75 149.28 552.75 148.78 574.85 148.78 594.86 149.78 594.84 150.28"/><polygon class="cls-1" points="594.74 161.78 574.74 161.08 553.75 161.28 553.75 160.78 574.75 160.58 594.76 161.28 594.74 161.78"/><polygon class="cls-1" points="553.75 172.28 553.75 171.78 574.85 171.78 595.04 171.38 595.05 171.88 574.85 172.28 553.75 172.28"/><rect class="cls-1" x="563.95" y="60.53" width="0.5" height="139"/><rect class="cls-1" x="587.15" y="62.48" width="0.5" height="135" transform="translate(-0.29 1.36) rotate(-0.13)"/><path class="cls-1" d="M309.6,31.65l-.1-.49c.31-.07,31.51-6.66,54.4-2.3l-.09.49C341,25,309.91,31.59,309.6,31.65Z" transform="translate(0 0.02)"/><polygon class="cls-1" points="553.2 63.97 407.95 34.79 398.8 36.77 398.7 36.29 407.95 34.27 408 34.28 553.3 63.48 553.2 63.97"/><polygon class="cls-1" points="553.4 71.18 408.05 42.78 398.8 44.48 398.7 43.98 408.05 42.28 408.1 42.28 553.5 70.69 553.4 71.18"/><polygon class="cls-1" points="553.21 87.48 408.26 64.28 398.8 66.37 398.7 65.88 408.24 63.78 408.29 63.78 553.29 86.98 553.21 87.48"/><polygon class="cls-1" points="553.22 93.78 539.31 91.78 539.38 91.28 553.28 93.28 553.22 93.78"/><polygon class="cls-1" points="518.31 88.78 500.01 86.08 500.09 85.58 518.39 88.28 518.31 88.78"/><polygon class="cls-1" points="477.21 82.88 454.91 79.58 454.99 79.08 477.29 82.38 477.21 82.88"/><polygon class="cls-1" points="426.61 75.58 407.95 72.78 398.79 74.18 398.71 73.68 407.95 72.28 407.99 72.28 426.69 75.08 426.61 75.58"/><polygon class="cls-1" points="553.42 110.68 539.02 109.18 539.08 108.68 553.48 110.18 553.42 110.68"/><rect class="cls-1" x="508.82" y="96.47" width="0.5" height="18.29" transform="translate(353.84 601.84) rotate(-84.35)"/><polygon class="cls-1" points="476.82 102.48 454.63 100.28 454.68 99.78 476.87 101.98 476.82 102.48"/><polygon class="cls-1" points="426.32 97.28 408.06 95.28 398.79 96.68 398.71 96.18 408.05 94.78 408.08 94.78 426.38 96.78 426.32 97.28"/><rect class="cls-1" x="545.76" y="109.16" width="0.5" height="14.47" transform="translate(377.35 648.61) rotate(-84.45)"/><polygon class="cls-1" points="518.13 113.98 500.02 112.18 500.07 111.68 518.17 113.48 518.13 113.98"/><rect class="cls-1" x="465.44" y="97.42" width="0.5" height="22.3" transform="translate(313.7 561.97) rotate(-84.59)"/><polygon class="cls-1" points="362.79 110.18 362.71 109.68 398.81 103.78 408.02 102.78 426.27 104.58 426.23 105.08 408.02 103.28 398.88 104.28 362.79 110.18"/><rect class="cls-1" x="545.72" y="126.19" width="0.5" height="14.53" transform="translate(378.97 670.13) rotate(-86.45)"/><rect class="cls-1" x="508.75" y="122.2" width="0.5" height="17.92" transform="translate(352.43 632.96) rotate(-87.12)"/><rect class="cls-1" x="465.3" y="117.53" width="0.5" height="22.24" transform="translate(309.91 585.91) rotate(-86.65)"/><polygon class="cls-1" points="426.13 126.58 408.23 125.48 399.07 126.28 399.03 125.78 408.23 124.98 426.17 126.08 426.13 126.58"/><rect class="cls-1" x="545.74" y="133.81" width="0.5" height="14.62" transform="translate(375.17 678.58) rotate(-86.86)"/><rect class="cls-1" x="508.74" y="130.26" width="0.5" height="17.82" transform="translate(344.24 640.49) rotate(-87.1)"/><rect class="cls-1" x="465.05" y="125.75" width="0.5" height="22.13" transform="translate(303.44 594.03) rotate(-86.89)"/><polygon class="cls-1" points="426.24 134.98 407.94 133.98 399.17 134.78 399.13 134.28 407.93 133.48 426.26 134.48 426.24 134.98"/><polygon class="cls-1" points="553.75 158.58 408.05 156.28 399.26 156.68 399.24 156.18 408.04 155.78 553.75 158.08 553.75 158.58"/><polygon class="cls-1" points="553.75 164.28 407.95 163.28 399.75 163.38 399.75 162.88 407.95 162.78 553.75 163.78 553.75 164.28"/><path class="cls-1" d="M454.49,143.46h-.24c-.23,0-27.2-1.09-28-1.31-.29-.1-.56-.19-.31-36.67.12-17.94.32-36.09.33-36.28v-.28h.28l28.92,3.83v34.82Zm-28-1.77c2,.22,24.83,1.16,27.46,1.26l1-35.35V73.23L426.8,69.5c-.27,24.14-.7,69.32-.25,72.19Z" transform="translate(0 0.02)"/><path class="cls-1" d="M500.5,144.89l-24.5-.72v-.25L477,76l23.48,3.41Zm-24-1.21,23.5.69V79.84l-22.49-3.27Z" transform="translate(0 0.02)"/><path class="cls-1" d="M538.78,146.26l-21.78-.1.72-63,21.78,3.07v.22l-.61,55Zm-21.28-.6,20.79.1.1-4.35L539,86.63,518.21,83.7Z" transform="translate(0 0.02)"/><rect class="cls-1" x="594.86" y="65.1" width="12.79" height="0.5" transform="translate(-2.28 104.37) rotate(-9.9)"/><polygon class="cls-1" points="594.8 72.68 594.7 72.18 607.2 69.78 607.3 70.27 594.8 72.68"/><polygon class="cls-1" points="594.99 88.48 594.91 87.98 607.31 85.78 607.39 86.27 594.99 88.48"/><polygon class="cls-1" points="594.99 95.78 594.91 95.28 607.11 93.38 607.19 93.88 594.99 95.78"/><rect class="cls-1" x="594.87" y="110.71" width="12.46" height="0.5" transform="translate(-10.01 97.66) rotate(-9.21)"/><rect class="cls-1" x="594.7" y="117.19" width="12.5" height="0.5" transform="translate(-10.12 78.4) rotate(-7.4)"/><polygon class="cls-1" points="594.77 134.18 594.73 133.68 607.03 132.78 607.07 133.28 594.77 134.18"/><polygon class="cls-1" points="594.77 140.48 594.73 139.98 606.93 139.18 606.97 139.68 594.77 140.48"/><rect class="cls-1" x="600.5" y="150.06" width="0.5" height="12" transform="translate(439.66 755.5) rotate(-89.52)"/><polygon class="cls-1" points="606.75 162.48 594.75 162.28 594.75 161.78 606.75 161.98 606.75 162.48"/><rect class="cls-1" x="521.21" y="110.75" width="171" height="0.5" transform="translate(493.38 717.3) rotate(-89.78)"/><path class="cls-1" d="M609.5,196.51H609l.4-135.31L681,78.06l43-3.5c4.27-.28,41.74-2.58,43.55,1.85l-.46.19c-1.42-3.47-31.56-2.29-43-1.54l-43,3.5h0L610,61.83Z" transform="translate(0 0.02)"/><polygon class="cls-1" points="582.3 46.27 582.2 45.79 607.76 40.47 607.81 40.49 628.01 45.79 627.89 46.27 607.74 40.99 582.3 46.27"/><polygon class="cls-1" points="628.29 52.77 607.54 47.78 594.99 49.78 594.91 49.28 607.56 47.27 628.41 52.29 628.29 52.77"/><path class="cls-1" d="M711.2,186.51l-.2-74.84h.24l23.2-1.2c3.24-.07,31.66-.65,33.39,1.07l-.35.35c-1.19-1.19-20.4-1.21-33-.93l-23,1.19.2,74.36Z" transform="translate(0 0.02)"/><path class="cls-1" d="M735.5,184.51H735V134h.25l20.7-.2c.38,0,9.49-.39,11.53.83l-.26.43c-1.91-1.15-11.17-.77-11.26-.76l-20.46.2Z" transform="translate(0 0.02)"/><path class="cls-1" d="M680.43,87.76h0l-70.9-15.1.1-.49,70.86,15.09,42-3.5c1.61-.08,39.43-2,44.92.42l-.2.46c-5.38-2.35-44.29-.4-44.69-.38Z" transform="translate(0 0.02)"/><path class="cls-1" d="M680.56,96l-71-12.3.09-.49,71,12.3,53.15-2.2c1.25-.07,30.6-1.78,33.63-.17l-.23.44c-2.32-1.24-22.84-.39-33.37.23Z" transform="translate(0 0.02)"/><path class="cls-1" d="M680.26,104.66l-70.75-10.5.07-.49,70.7,10.5,54-2.2c3.19-.17,31.26-1.65,33.28.16l-.33.37c-1.41-1.27-20.46-.72-32.92,0Z" transform="translate(0 0.02)"/><polygon class="cls-1" points="680.96 113.28 609.62 104.48 609.68 103.98 680.98 112.78 711 111.69 710.7 76.53 711.2 76.53 711.5 112.17 680.96 113.28"/><polygon class="cls-1" points="680.36 122.08 609.43 115.58 609.47 115.08 680.37 121.58 711.04 120.78 711.06 121.28 680.36 122.08"/><rect class="cls-1" x="618.18" y="118.63" width="0.5" height="18.26" transform="translate(440.32 733.64) rotate(-85.29)"/><path class="cls-1" d="M669.7,176.26l-42.7-.51v-.25l.3-56.77h.27l41.92,3.72Zm-42.2-1,41.7.49-.2-52.82-41.2-3.66Z" transform="translate(0 0.02)"/><rect class="cls-1" x="618.38" y="129.65" width="0.5" height="18.33" transform="translate(446.25 748.96) rotate(-86.87)"/><polygon class="cls-1" points="627.75 149.58 609.75 149.28 609.75 148.78 627.75 149.08 627.75 149.58"/><rect class="cls-1" x="618.22" y="151.86" width="0.5" height="18.01" transform="translate(433.66 772.64) rotate(-87.77)"/><polygon class="cls-1" points="627.75 171.38 608.75 171.28 608.75 170.78 627.75 170.88 627.75 171.38"/><polygon class="cls-1" points="680.76 132.48 669.43 131.48 669.47 130.98 680.77 131.98 711.24 130.68 711.26 131.18 680.76 132.48"/><polygon class="cls-1" points="680.56 142.48 669.14 141.98 669.16 141.48 680.56 141.98 711.04 141.28 711.06 141.78 680.56 142.48"/><polygon class="cls-1" points="680.46 152.28 669.54 152.08 669.55 151.58 680.46 151.78 711.04 150.98 711.06 151.48 680.46 152.28"/><rect class="cls-1" x="669.75" y="161.78" width="41" height="0.5"/><rect class="cls-1" x="669.75" y="169.78" width="41" height="0.5"/><rect class="cls-1" x="734.86" y="74.47" width="0.5" height="36" transform="translate(-0.75 6.18) rotate(-0.48)"/><rect class="cls-1" x="735" y="133.53" width="0.5" height="4"/><path class="cls-1" d="M767.56,142.14c-4.6-1.76-31.73-.79-32-.78v-.5c1.12,0,27.5-1,32.2.82Z" transform="translate(0 0.02)"/><rect class="cls-1" x="549.37" y="129.76" width="133" height="0.5" transform="matrix(0.01, -1, 1, 0.01, 481.03, 744.86)"/><rect class="cls-1" x="556.56" y="129.75" width="131" height="0.5" transform="translate(489.67 751.58) rotate(-89.78)"/><rect class="cls-1" x="601.56" y="91.76" width="53" height="0.5" transform="translate(533.64 719.73) rotate(-89.78)"/><path class="cls-1" d="M635.05,67.71" transform="translate(0 0.02)"/><rect class="cls-1" x="608.9" y="93.26" width="52.01" height="0.5" transform="translate(531.44 726.9) rotate(-89.1)"/><rect class="cls-1" x="617.15" y="94.26" width="50" height="0.5" transform="translate(545.18 736.32) rotate(-89.78)"/><rect class="cls-1" x="649" y="70.53" width="0.5" height="50"/><rect class="cls-1" x="631.43" y="96.76" width="49" height="0.5" transform="translate(551.26 751.79) rotate(-89.33)"/><rect class="cls-1" x="638.43" y="97.76" width="47" height="0.5" transform="translate(556.19 758.78) rotate(-89.33)"/><rect class="cls-1" x="668" y="75.53" width="0.5" height="47"/><rect class="cls-1" x="615.45" y="133.75" width="115" height="0.5" transform="translate(536.37 806.46) rotate(-89.78)"/><rect class="cls-1" x="690.44" y="77.57" width="0.5" height="111" transform="matrix(1, -0.01, 0.01, 1, -1.05, 5.57)"/><rect class="cls-1" x="700.95" y="76.53" width="0.5" height="112"/><path class="cls-1" d="M711.55,76" transform="translate(0 0.02)"/><rect class="cls-1" x="723" y="75.53" width="0.5" height="36"/><polygon class="cls-1" points="748.4 182.53 747.9 182.53 748 133.53 748.5 133.53 748.4 182.53"/><rect class="cls-1" x="730.15" y="92.25" width="36" height="0.5" transform="translate(652.78 840.31) rotate(-89.78)"/><path class="cls-1" d="M755.75,74.21" transform="translate(0 0.02)"/><rect class="cls-1" x="732.1" y="157.25" width="48" height="0.5" transform="translate(595.7 913.01) rotate(-89.78)"/><rect class="cls-1" x="755.8" y="76.62" width="0.5" height="36"/><rect class="cls-1" x="761.09" y="133.56" width="0.5" height="47" transform="translate(-0.65 3.21) rotate(-0.24)"/><rect class="cls-1" x="760.8" y="76.64" width="0.5" height="36"/><path class="cls-1" d="M393.05,18a1.55,1.55,0,1,1,1.55-1.55h0A1.55,1.55,0,0,1,393.05,18Zm0-2.6a1,1,0,1,0,1.05,1v0a1,1,0,0,0-1-1.05Z" transform="translate(0 0.02)"/><path class="cls-1" d="M377.55,22.76A1.75,1.75,0,1,1,379.3,21a1.75,1.75,0,0,1-1.75,1.76Zm0-3A1.25,1.25,0,1,0,378.8,21h0A1.25,1.25,0,0,0,377.55,19.76Z" transform="translate(0 0.02)"/><path class="cls-1" d="M361.25,27.46A1.75,1.75,0,1,1,363,25.71,1.75,1.75,0,0,1,361.25,27.46Zm0-3a1.25,1.25,0,1,0,1.25,1.25A1.25,1.25,0,0,0,361.25,24.46Z" transform="translate(0 0.02)"/><path class="cls-1" d="M346,26.46a1.75,1.75,0,1,1,1.75-1.75A1.75,1.75,0,0,1,346,26.46Zm0-3a1.25,1.25,0,1,0,1.25,1.25A1.25,1.25,0,0,0,346,23.46Z" transform="translate(0 0.02)"/><path class="cls-1" d="M328.45,27.66a2,2,0,1,1,1.95-2v0A2,2,0,0,1,328.45,27.66Zm0-3.4a1.45,1.45,0,1,0,1.45,1.45,1.45,1.45,0,0,0-1.45-1.45Z" transform="translate(0 0.02)"/><path class="cls-1" d="M177,58.76a1.25,1.25,0,1,1,1.25-1.25A1.25,1.25,0,0,1,177,58.76Zm0-2a.75.75,0,1,0,.75.75A.75.75,0,0,0,177,56.76Z" transform="translate(0 0.02)"/><path class="cls-1" d="M170,61a1.25,1.25,0,1,1,1.25-1.25A1.25,1.25,0,0,1,170,61Zm0-2a.75.75,0,1,0,.75.75A.75.75,0,0,0,170,59Z" transform="translate(0 0.02)"/><path class="cls-1" d="M162.55,63.36A1.45,1.45,0,1,1,164,61.91h0A1.45,1.45,0,0,1,162.55,63.36Zm0-2.4a.95.95,0,1,0,1,1,1,1,0,0,0-1-1Z" transform="translate(0 0.02)"/><path class="cls-1" d="M154,56a1.25,1.25,0,1,1,1.25-1.25A1.25,1.25,0,0,1,154,56Zm0-2a.75.75,0,1,0,.75.75A.75.75,0,0,0,154,54Z" transform="translate(0 0.02)"/><path class="cls-1" d="M143,59.76a1.25,1.25,0,1,1,1.25-1.25A1.25,1.25,0,0,1,143,59.76Zm0-2a.75.75,0,1,0,.75.75h0A.75.75,0,0,0,143,57.76Z" transform="translate(0 0.02)"/><path class="cls-1" d="M114.35,69.66a1.25,1.25,0,1,1,1.25-1.25A1.25,1.25,0,0,1,114.35,69.66Zm0-2a.75.75,0,1,0,.75.75A.75.75,0,0,0,114.35,67.66Z" transform="translate(0 0.02)"/><path class="cls-1" d="M114.35,69.66a1.25,1.25,0,1,1,1.25-1.25A1.25,1.25,0,0,1,114.35,69.66Zm0-2a.75.75,0,1,0,.75.75A.75.75,0,0,0,114.35,67.66Z" transform="translate(0 0.02)"/><path class="cls-1" d="M132,63.46a1.25,1.25,0,1,1,1.25-1.25A1.25,1.25,0,0,1,132,63.46Zm0-2a.75.75,0,1,0,.75.75A.75.75,0,0,0,132,61.46Z" transform="translate(0 0.02)"/><path class="cls-1" d="M122.1,66.86a1.25,1.25,0,1,1,1.25-1.25A1.25,1.25,0,0,1,122.1,66.86Zm0-2a.75.75,0,1,0,.75.75A.75.75,0,0,0,122.1,64.86Z" transform="translate(0 0.02)"/><path class="cls-1" d="M107.45,72a1.25,1.25,0,1,1,1.25-1.25A1.25,1.25,0,0,1,107.45,72Zm0-2a.75.75,0,1,0,.75.75A.75.75,0,0,0,107.45,70Z" transform="translate(0 0.02)"/><path class="cls-1" d="M103.35,78a1.15,1.15,0,1,1,1.15-1.15A1.15,1.15,0,0,1,103.35,78Zm0-1.8a.65.65,0,1,0,.65.65.65.65,0,0,0-.65-.65h0Z" transform="translate(0 0.02)"/><path class="cls-1" d="M94.85,80.66A1.15,1.15,0,1,1,96,79.51a1.15,1.15,0,0,1-1.15,1.15Zm0-1.8a.65.65,0,1,0,.65.65.65.65,0,0,0-.65-.65Z" transform="translate(0 0.02)"/><path class="cls-1" d="M86.55,83.06a1,1,0,1,1,1.05-.95,1,1,0,0,1-1.05.95Zm0-1.4a.46.46,0,1,0,.55.45A.51.51,0,0,0,86.55,81.66Z" transform="translate(0 0.02)"/><path class="cls-1" d="M71.36,88.56a1.15,1.15,0,0,1-1-.75,1.2,1.2,0,0,1,0-.92,1,1,0,0,1,1.31-.52l.07,0a1.2,1.2,0,0,1,.57.64,1.1,1.1,0,0,1-.55,1.45A1,1,0,0,1,71.36,88.56Zm-.13-1.77a.48.48,0,0,0-.17,0,.5.5,0,0,0-.27.27.7.7,0,0,0,0,.53.56.56,0,1,0,1-.4h0a.71.71,0,0,0-.33-.37.55.55,0,0,0-.23,0Z" transform="translate(0 0.02)"/><path class="cls-1" d="M78.95,85.69a.9.9,0,0,1-.69-.3A1,1,0,0,1,78.42,84h0a1,1,0,0,1,1.41,0h0a.9.9,0,0,1,.22.66,1.13,1.13,0,0,1-1.11,1Zm-.2-1.33a.46.46,0,1,0,.6.67.6.6,0,0,0,.21-.41.4.4,0,0,0-.09-.29.51.51,0,0,0-.71,0Z" transform="translate(0 0.02)"/><path class="cls-1" d="M64.69,90.57h-.17a1.11,1.11,0,0,1-.67-.4,1,1,0,1,1,1.4.22A.88.88,0,0,1,64.69,90.57ZM64.49,89a.39.39,0,0,0-.25.08.51.51,0,0,0,0,.71.6.6,0,0,0,.36.22.4.4,0,0,0,.33-.08.51.51,0,0,0,0-.71A.59.59,0,0,0,64.49,89Z" transform="translate(0 0.02)"/><path class="cls-1" d="M57.28,93.07H57.1a1.11,1.11,0,0,1-.67-.4h0a1,1,0,0,1,.08-1.41.91.91,0,0,1,.73-.18,1.13,1.13,0,0,1,.92,1.14.9.9,0,0,1-.33.68A.88.88,0,0,1,57.28,93.07Zm-.18-1.53a.39.39,0,0,0-.25.08.51.51,0,0,0,0,.71h0a.6.6,0,0,0,.36.22.42.42,0,0,0,.33-.08.41.41,0,0,0,.14-.31.63.63,0,0,0-.5-.62Z" transform="translate(0 0.02)"/><path class="cls-1" d="M49.53,98.57h-.17a1.11,1.11,0,0,1-.67-.4,1,1,0,1,1,1.4.22A.88.88,0,0,1,49.53,98.57ZM49.33,97a.39.39,0,0,0-.25.08.51.51,0,0,0,0,.71.6.6,0,0,0,.36.22.4.4,0,0,0,.33-.08.51.51,0,0,0,0-.71A.59.59,0,0,0,49.33,97Z" transform="translate(0 0.02)"/><path class="cls-1" d="M43.33,100.55a1.09,1.09,0,0,1-.84-.41h0a1,1,0,0,1,.08-1.41.9.9,0,0,1,.73-.18,1.11,1.11,0,0,1,.67.4,1,1,0,0,1-.08,1.41A.88.88,0,0,1,43.33,100.55Zm-.45-.73a.46.46,0,1,0,.7-.57.6.6,0,0,0-.36-.22.42.42,0,0,0-.33.08.51.51,0,0,0,0,.71Z" transform="translate(0 0.02)"/><path class="cls-1" d="M37.58,102.31h-.17a1.11,1.11,0,0,1-.67-.4,1,1,0,0,1,.08-1.41.91.91,0,0,1,.73-.18,1.13,1.13,0,0,1,.91,1.2.9.9,0,0,1-.33.61A.88.88,0,0,1,37.58,102.31Zm-.2-1.52a.39.39,0,0,0-.25.08.51.51,0,0,0,0,.71.6.6,0,0,0,.36.22.39.39,0,0,0,.48-.35.6.6,0,0,0-.14-.43.61.61,0,0,0-.36-.22Z" transform="translate(0 0.02)"/><path class="cls-1" d="M31.16,104.25H31a1.11,1.11,0,0,1-.67-.4,1,1,0,1,1,1.4.22A.88.88,0,0,1,31.16,104.25Zm-.2-1.53a.4.4,0,0,0-.25.08.51.51,0,0,0,0,.71.61.61,0,0,0,.36.22.4.4,0,0,0,.33-.08.51.51,0,0,0,0-.71.59.59,0,0,0-.43-.22Z" transform="translate(0 0.02)"/><path class="cls-1" d="M25.21,105.94a.92.92,0,0,1-.76-.37.9.9,0,0,1-.14-.74,1.1,1.1,0,0,1,.44-.64,1,1,0,1,1,1.11,1.54h0A1.12,1.12,0,0,1,25.21,105.94Zm.19-1.47a.62.62,0,0,0-.36.12.6.6,0,0,0-.24.35.41.41,0,0,0,.06.33.51.51,0,0,0,.71,0h0a.51.51,0,0,0,.18-.69A.42.42,0,0,0,25.4,104.47Z" transform="translate(0 0.02)"/><path class="cls-1" d="M91.51,172.08l-.41-14.29h.23l96.18-11.53-.21,18.51Zm.1-13.85L92,171.54l94.81-7.26.19-17.49Z" transform="translate(0 0.02)"/><polygon class="cls-1" points="66 87.53 65.9 75.18 77.29 69.12 77.6 83.22 77.1 83.24 76.81 69.94 66.4 75.48 66.5 87.53 66 87.53"/><polygon class="cls-1" points="99.5 75.94 99 75.92 99.09 72.25 76.52 69.78 76.58 69.28 99.61 71.81 99.5 75.94"/><rect class="cls-1" x="574.85" y="44.53" width="0.5" height="154"/><rect class="cls-1" x="619.5" y="128.75" width="123" height="0.5" transform="translate(549.39 809.53) rotate(-89.78)"/><polygon class="cls-1" points="409 204.53 408.5 9.13 364.5 22.74 364.3 42.53 363.8 42.53 364 22.37 364.18 22.32 409 8.46 409 8.79 409.5 204.53 409 204.53"/><path class="cls-1" d="M19.35,111.26a.65.65,0,1,1,.65-.65.65.65,0,0,1-.65.65Zm0-.8a.15.15,0,0,0-.15.15h0c0,.16.3.16.3,0a.15.15,0,0,0-.15-.15Z" transform="translate(0 0.02)"/><path class="cls-1" d="M16.1,112.56a.65.65,0,1,1,.65-.65.65.65,0,0,1-.65.65Zm0-.8a.15.15,0,0,0-.15.15h0c0,.16.3.16.3,0A.15.15,0,0,0,16.1,111.76Z" transform="translate(0 0.02)"/><path class="cls-1" d="M12.35,114a.65.65,0,1,1,.65-.65.65.65,0,0,1-.65.65Zm0-.8a.15.15,0,0,0-.15.15h0c0,.17.3.17.3,0a.15.15,0,0,0-.1-.18h0Z" transform="translate(0 0.02)"/><rect class="cls-1" x="227.08" y="114.34" width="0.5" height="63.02" transform="translate(76.13 369.68) rotate(-88.64)"/><polygon class="cls-1" points="196.5 198.53 196 198.53 196 174.78 196.25 174.78 259.75 174.48 259.75 174.98 196.5 175.28 196.5 198.53"/><polygon class="cls-1" points="314.5 203.53 314 203.53 314.2 116.53 314.7 116.53 314.5 203.53"/><rect class="cls-1" x="262.25" y="58.49" width="0.5" height="59" transform="translate(-0.74 2.27) rotate(-0.49)"/><rect class="cls-1" x="245.58" y="84.76" width="61" height="0.5" transform="translate(190.01 360.78) rotate(-89.78)"/><rect class="cls-1" x="257.58" y="81.76" width="63" height="0.5" transform="translate(205.96 370.79) rotate(-89.78)"/><rect class="cls-1" x="270.01" y="79.26" width="64" height="0.5" transform="matrix(0.01, -1, 1, 0.01, 220.13, 380.91)"/><rect class="cls-1" x="280.57" y="76.76" width="65" height="0.5" transform="matrix(0.01, -1, 1, 0.01, 233.59, 389.49)"/><rect class="cls-1" x="330" y="42.53" width="0.5" height="65"/><rect class="cls-1" x="348.2" y="42.52" width="0.5" height="65" transform="translate(-0.45 2.15) rotate(-0.35)"/><polygon class="cls-1" points="346.5 204.53 346 119.53 346.5 119.53 347 204.53 346.5 204.53"/><rect class="cls-1" x="333.16" y="121.49" width="0.5" height="83" transform="translate(-0.6 1.25) rotate(-0.21)"/><polygon class="cls-1" points="324.2 153.53 323.7 153.53 324 123.53 324.5 123.53 324.2 153.53"/><rect class="cls-1" x="314.26" y="151.33" width="85.2" height="0.5" transform="translate(-9.55 24.84) rotate(-3.93)"/><rect class="cls-1" x="329.47" y="74.76" width="65" height="0.5" transform="matrix(0.01, -1, 1, 0.01, 284.12, 436.4)"/><rect class="cls-1" x="381.31" y="37.48" width="0.5" height="167" transform="translate(-0.44 1.42) rotate(-0.21)"/><polygon class="cls-1" points="347.5 204.53 347 119.53 347.5 119.53 348 204.53 347.5 204.53"/><rect class="cls-1" x="334.16" y="121.49" width="0.5" height="83" transform="translate(-0.6 1.25) rotate(-0.21)"/><rect class="cls-1" x="310.18" y="138.25" width="30" height="0.5" transform="translate(185.43 463.17) rotate(-89.78)"/><rect class="cls-1" x="316.6" y="124.55" width="0.5" height="31"/><polygon class="cls-1" points="360.2 204.53 360 116.53 360.5 116.53 360.7 204.53 360.2 204.53"/><rect class="cls-1" x="565.05" y="59.53" width="0.5" height="140"/><rect class="cls-1" x="586" y="61.53" width="0.5" height="136"/><rect class="cls-1" x="575.95" y="59.53" width="0.5" height="139"/><rect class="cls-1" x="549.37" y="129.76" width="133" height="0.5" transform="matrix(0.01, -1, 1, 0.01, 481.03, 744.86)"/><rect class="cls-1" x="557.56" y="129.75" width="131" height="0.5" transform="translate(490.67 752.58) rotate(-89.78)"/><rect class="cls-1" x="603.05" y="92.25" width="52" height="0.5" transform="translate(534.14 721.22) rotate(-89.78)"/><rect class="cls-1" x="609.9" y="93.26" width="52.01" height="0.5" transform="translate(532.42 727.89) rotate(-89.1)"/><rect class="cls-1" x="618.11" y="94.26" width="50" height="0.5" transform="translate(546.13 737.27) rotate(-89.78)"/><rect class="cls-1" x="650" y="71.53" width="0.5" height="49"/><rect class="cls-1" x="632.43" y="96.76" width="49" height="0.5" transform="translate(552.25 752.79) rotate(-89.33)"/><rect class="cls-1" x="639.43" y="97.76" width="47" height="0.5" transform="translate(557.18 759.78) rotate(-89.33)"/><rect class="cls-1" x="667" y="75.53" width="0.5" height="47"/><polygon class="cls-1" points="674.2 190.53 673.7 190.53 674 76.53 674.5 76.53 674.2 190.53"/><rect class="cls-1" x="542.46" y="128.75" width="135" height="0.5" transform="translate(478.62 738.48) rotate(-89.78)"/><rect class="cls-1" x="624.95" y="134.25" width="112" height="0.5" transform="translate(543.84 814.96) rotate(-89.78)"/><rect class="cls-1" x="691.44" y="77.56" width="0.5" height="111" transform="matrix(1, -0.01, 0.01, 1, -1.05, 5.58)"/><polygon class="cls-1" points="701.3 187.53 700.8 187.53 701 76.53 701.5 76.53 701.3 187.53"/><rect class="cls-1" x="712.16" y="75.48" width="0.5" height="36" transform="translate(-0.76 5.99) rotate(-0.48)"/><rect class="cls-1" x="723" y="75.53" width="0.5" height="36"/><rect class="cls-1" x="735.86" y="74.47" width="0.5" height="36" transform="translate(-0.75 6.19) rotate(-0.48)"/><rect class="cls-1" x="747" y="74.53" width="0.5" height="36"/><rect class="cls-1" x="754.8" y="76.62" width="0.5" height="36"/><rect class="cls-1" x="761.8" y="76.64" width="0.5" height="36"/><rect class="cls-1" x="747" y="133.53" width="0.5" height="49"/><polygon class="cls-1" points="755.2 181.53 754.7 181.53 755 133.53 755.5 133.53 755.2 181.53"/><polygon class="cls-1" points="761.1 180.53 761 133.53 761.5 133.53 761.6 180.53 761.1 180.53"/><path class="cls-1" d="M767.56,161.74c-4.6-1.76-31.73-.8-32-.78v-.5c1.12,0,27.5-1,32.2.82Z" transform="translate(0 0.02)"/><path class="cls-1" d="M767.46,151.94c-4.6-1.76-31.73-.79-32-.78v-.5c1.12,0,27.5-1,32.2.82Z" transform="translate(0 0.02)"/><path class="cls-1" d="M751.85,164.51" transform="translate(0 0.02)"/><path class="cls-1" d="M767.46,171.54c-4.6-1.76-31.83-.5-32.1-.48v-.5c1.12-.05,27.61-1.28,32.3.52Z" transform="translate(0 0.02)"/><path class="cls-1" d="M767.56,161.74c-4.6-1.76-31.73-.8-32-.78v-.5c1.12,0,27.5-1,32.2.82Z" transform="translate(0 0.02)"/><rect class="cls-1" x="275.01" y="157.93" width="25.76" height="0.5" transform="translate(-9.87 19.5) rotate(-3.81)"/><rect class="cls-1" x="274.92" y="150.13" width="25.86" height="0.5" transform="translate(-9.36 19.48) rotate(-3.81)"/><rect class="cls-1" x="275.03" y="158.45" width="25.76" height="0.5" transform="translate(-10.47 20.7) rotate(-4.04)"/><polygon class="cls-1" points="287.6 203.53 287 158.53 287.5 158.53 288.1 203.53 287.6 203.53"/><rect class="cls-1" x="288.03" y="158.91" width="0.5" height="44" transform="translate(-1.79 2.91) rotate(-0.57)"/><rect class="cls-1" x="289.26" y="158.5" width="0.5" height="45" transform="translate(-2 3.27) rotate(-0.64)"/><polygon class="cls-1" points="286.4 202.53 286 159.53 286.5 159.53 286.9 202.53 286.4 202.53"/><rect class="cls-1" x="314.34" y="156.35" width="19.23" height="0.5" transform="translate(-7.8 17.31) rotate(-3.02)"/><rect class="cls-1" x="314.33" y="155.83" width="19.02" height="0.5" transform="translate(-6.94 15.34) rotate(-2.68)"/><rect class="cls-1" x="293.05" y="132.5" width="0.5" height="24" transform="translate(-0.6 1.25) rotate(-0.24)"/><rect class="cls-1" x="284.06" y="133.51" width="0.5" height="24" transform="translate(-0.61 1.22) rotate(-0.24)"/><rect class="cls-1" x="316.6" y="124.55" width="0.5" height="31"/><polygon class="cls-1" points="320.1 203.53 320 156.53 320.5 156.53 320.6 203.53 320.1 203.53"/><rect class="cls-1" x="318.89" y="156.53" width="0.5" height="47" transform="translate(-0.75 1.36) rotate(-0.24)"/><rect class="cls-1" x="318" y="156.53" width="0.5" height="47"/><polygon class="cls-1" points="317.2 203.53 316.7 203.53 317 157.53 317.5 157.53 317.2 203.53"/><rect class="cls-1" x="274.74" y="176.03" width="11.9" height="0.5" transform="translate(-4.37 7.18) rotate(-1.45)"/><rect class="cls-1" x="289.75" y="175.78" width="11" height="0.5"/><rect class="cls-1" x="274.76" y="176.7" width="12" height="0.5" transform="translate(-1.38 2.23) rotate(-0.45)"/><rect class="cls-1" x="289.76" y="176.71" width="11" height="0.5" transform="translate(-1.72 2.92) rotate(-0.56)"/><rect class="cls-1" x="314.75" y="175.78" width="3" height="0.5"/><rect class="cls-1" x="314.5" y="174.42" width="0.5" height="3" transform="translate(129.47 485.27) rotate(-88.28)"/><rect class="cls-1" x="320.76" y="175.7" width="13" height="0.5" transform="translate(-1.37 2.6) rotate(-0.45)"/><rect class="cls-1" x="320.55" y="176.16" width="13.01" height="0.5" transform="translate(-5.35 10.33) rotate(-1.79)"/><path class="cls-1" d="M376,3.61c-3.8.4-6.9,3.5-6.9,7s3.1,5.9,6.9,5.5a8.19,8.19,0,0,0,6.4-4.7l-3-.1a4.65,4.65,0,0,1-3.3,2.3,3.32,3.32,0,0,1-3.8-2.6l10.5-1.2v-.7C382.85,5.71,379.85,3.21,376,3.61Zm-3.4,5.3a4.47,4.47,0,0,1,3.6-2.7,3.41,3.41,0,0,1,3.6,1.9Z" transform="translate(0 0.02)"/><polygon class="cls-1" points="363.75 17.03 363.75 17.43 367.25 17.03 367.25 4.83 363.75 5.13 363.75 17.03"/><path class="cls-1" d="M365.45,0a2.15,2.15,0,0,0-2,2,1.77,1.77,0,0,0,1.82,1.71h.18a2.15,2.15,0,0,0,2-2A1.72,1.72,0,0,0,365.73,0Z" transform="translate(0 0.02)"/><polygon class="cls-1" points="342.15 10.13 334.55 11.03 334.55 4.03 330.75 4.43 330.75 21.53 334.55 21.03 334.55 14.13 342.15 13.23 342.15 20.13 346.05 19.63 346.05 2.93 342.15 3.33 342.15 10.13"/><path class="cls-1" d="M358.05,6.41a6.66,6.66,0,0,0-3.5-.6,7.6,7.6,0,0,0-6.8,7.2,5.75,5.75,0,0,0,6.8,5.7,7.8,7.8,0,0,0,3.4-1.3V18l3.4-.4V5.31l-3.4.3v.8Zm-3.3,9.6a3.28,3.28,0,0,1-3.9-3.3,4.4,4.4,0,0,1,3.9-4.2,3.33,3.33,0,0,1,3.9,3.3,4.31,4.31,0,0,1-3.9,4.19Z" transform="translate(0 0.02)"/><path class="cls-1" d="M390.1,1.31a7.41,7.41,0,0,0-5.7,6.8v6.7l3.4-.4V7.61a3.51,3.51,0,0,1,3-3.3Z" transform="translate(0 0.02)"/><path class="cls-1" d="M366.25,29.51" transform="translate(0 0.02)"/><path class="cls-1" d="M259.1,36.81l.1,1.7h-.1a1.68,1.68,0,0,0-.7-.9,2.4,2.4,0,0,0-1.2,0,2.07,2.07,0,0,0-1,.6,3.59,3.59,0,0,0-.7,1,3.34,3.34,0,0,0-.3,1.5,3.09,3.09,0,0,0,.2,1.1c.2.3.4.5.7.5a2.16,2.16,0,0,0,1.1-.1,3.13,3.13,0,0,0,1-.5,3.53,3.53,0,0,0,.9-1.1h.1a4.49,4.49,0,0,1-1,1.3,4.68,4.68,0,0,1-1.4.8,2.33,2.33,0,0,1-2.2-.2,1.68,1.68,0,0,1-.6-1.4,2.82,2.82,0,0,1,.4-1.5,4.49,4.49,0,0,1,1.1-1.3,2.75,2.75,0,0,1,1.5-.8,2.46,2.46,0,0,1,1.2-.1h.3c.1,0,.1-.1.2-.1s.1-.2.2-.3Z" transform="translate(0 0.02)"/><path class="cls-1" d="M264.1,36.11c0-.3-.1-.5-.2-.5a2.64,2.64,0,0,0-.7.1v-.1l2.5-.8v.1c-.4.1-.6.2-.7.4a1.29,1.29,0,0,0-.1.7v3.2c0,.3,0,.5.1.6s.3,0,.7-.1v.1l-2.5.8v-.1a1.4,1.4,0,0,0,.7-.4c.1-.1.1-.3.1-.7v-2.9l-2.7,3.9v.4a.35.35,0,0,0,.2.1,1.76,1.76,0,0,0,.6-.1v.1l-2.5.8v-.1c.4-.1.6-.2.7-.4a1.29,1.29,0,0,0,.1-.7v-3.2c0-.3,0-.5-.1-.6s-.3,0-.7.1v-.1l2.5-.8V36c-.4.1-.6.2-.7.4a1.29,1.29,0,0,0-.1.7V40Z" transform="translate(0 0.02)"/><path class="cls-1" d="M271,33.11l.1,1.2-.2.1c0-.2-.1-.3-.1-.4s-.2-.2-.3-.2a1.76,1.76,0,0,0-.6.1l-.8.3v3.9c0,.3,0,.5.1.5a.45.45,0,0,0,.5,0l.2-.1v.1l-2.4.8v-.2l.2-.1a1,1,0,0,0,.5-.4c.1-.1.1-.3.1-.6v-3.9l-.7.2a3.93,3.93,0,0,1-.6.2c-.1.1-.3.2-.4.4a1.42,1.42,0,0,0-.2.6l-.2.1.1-1.2Z" transform="translate(0 0.02)"/><path class="cls-1" d="M275.65,32.41c0-.3-.1-.5-.2-.5a2.64,2.64,0,0,0-.7.1v-.1l2.5-.8v.1c-.4.1-.6.2-.7.4a1.29,1.29,0,0,0-.1.7v3.2c0,.3,0,.5.1.6s.3,0,.7-.1v.1l-2.5.8v-.1a1.4,1.4,0,0,0,.7-.4c.1-.1.1-.3.1-.7v-2.9l-2.7,3.9v.4a.35.35,0,0,0,.2.1,1.76,1.76,0,0,0,.6-.1v.1L271.1,38v-.1c.4-.1.6-.2.7-.4a1.29,1.29,0,0,0,.1-.7V33.6c0-.3,0-.5-.1-.6s-.3,0-.7.1V33l2.5-.8v.1c-.4.1-.6.2-.7.4a1.29,1.29,0,0,0-.1.7v2.9Z" transform="translate(0 0.02)"/><path class="cls-1" d="M283.1,34.21l-2.2-3.5v3.4c0,.3,0,.5.1.5a.45.45,0,0,0,.5,0l.2-.1v.1l-2,.6h0l.2-.1a1,1,0,0,0,.5-.4c.1-.1.1-.3.1-.6v-3.3a.75.75,0,0,0-.1-.5c0-.1-.1-.1-.2-.1a1.09,1.09,0,0,0-.5.1v-.1l1.6-.5,2.1,3.3,2-4.6,1.6-.5V28l-.2.1a1,1,0,0,0-.5.4c-.1.1-.1.3-.1.6v3.3c0,.3,0,.5.1.5a.45.45,0,0,0,.5,0l.2-.1v.1l-2.4.8v-.1l.2-.1a1,1,0,0,0,.5-.4c.1-.1.1-.3.1-.6V29.2l-2.2,5Z" transform="translate(0 0.02)"/><path class="cls-1" d="M290.45,26.71a2.45,2.45,0,0,1,1.9.1,1.82,1.82,0,0,1,.8,1.6,3.72,3.72,0,0,1-.8,2.2,3.52,3.52,0,0,1-2,1.4,2.3,2.3,0,0,1-2-.1,1.69,1.69,0,0,1-.8-1.7,3.52,3.52,0,0,1,.9-2.3A5.1,5.1,0,0,1,290.45,26.71Zm-.1.3a2.73,2.73,0,0,0-1.2.9,3.17,3.17,0,0,0-.6,2,2.06,2.06,0,0,0,.6,1.7,1.23,1.23,0,0,0,1.2.1,2.56,2.56,0,0,0,1.3-1,2.85,2.85,0,0,0,.5-1.9,1.93,1.93,0,0,0-.6-1.7,1.15,1.15,0,0,0-1.2-.11Z" transform="translate(0 0.02)"/><path class="cls-1" d="M297.1,24.91l-1.8.6v1.4a6.56,6.56,0,0,1-.4,2.9,2,2,0,0,1-1.2,1,.45.45,0,0,1-.5,0c-.1-.1-.2-.1-.2-.3a.37.37,0,0,1,.1-.3c.1-.1.2-.2.3-.2h.6a1.44,1.44,0,0,0,.6-.7,5.6,5.6,0,0,0,.2-2.1v-1.1c0-.3,0-.5-.1-.6s-.3,0-.7.1v-.1l4.6-1.5v.1c-.4.1-.6.2-.7.4a1.29,1.29,0,0,0-.1.7v3.2c0,.3,0,.5.1.6s.3,0,.7-.1V29l-2.5.8v-.1c.4-.1.6-.2.7-.4a1.29,1.29,0,0,0,.1-.7V24.9Z" transform="translate(0 0.02)"/><path class="cls-1" d="M303.05,23l-1.8.6V25a6.56,6.56,0,0,1-.4,2.9,2,2,0,0,1-1.2,1,.45.45,0,0,1-.5,0c-.1-.1-.2-.1-.2-.3a.37.37,0,0,1,.1-.3c.1-.1.2-.2.3-.2h.6a1.44,1.44,0,0,0,.6-.7,5.6,5.6,0,0,0,.2-2.1V24.2c0-.3,0-.5-.1-.6s-.3,0-.7.1v-.1l4.6-1.5v.1c-.4.1-.6.2-.7.4a1.29,1.29,0,0,0-.1.7v3.2c0,.3,0,.5.1.6s.3,0,.7-.1v.1l-2.5.8v-.1c.4-.1.6-.2.7-.4a1.29,1.29,0,0,0,.1-.7V23Z" transform="translate(0 0.02)"/></svg>