<svg id="Слой_1" data-name="Слой 1" xmlns="http://www.w3.org/2000/svg" width="551.18" height="407.27" viewBox="0 0 551.18 407.27"><defs><style>.cls-1{fill:#47c5ff;}.cls-2{fill:none;stroke:#47c5ff;stroke-miterlimit:10;stroke-width:2px;}</style></defs><title>slide-4</title><path class="cls-1" d="M443.66,259.89c-10.08,0-20.81-1.43-30.69-5.58l.77-1.84c30.91,13,70.34-1.32,70.73-1.46l.69,1.88A135.26,135.26,0,0,1,443.66,259.89Z"/><path class="cls-1" d="M445.88,340.2c-.78-1-7.61-9.86-8.37-12.13l0-.17c-4.28-28.94-11.1-34.46-13.35-36.28a3.58,3.58,0,0,1-1-1.08l-.09-.18v-.2C420.61,255,395,229,394.77,228.74l1.41-1.41c.26.26,26.22,26.61,28.76,62.38l.43.35c2.64,2.14,9.66,7.81,14.05,37.44.61,1.59,5.22,7.84,8,11.46Z"/><path class="cls-1" d="M440,346.25a33,33,0,0,1-10.06-1.86l.62-1.9c7.83,2.54,11.6,1.62,12.08,1.48.64-.37,5.25-3.13,5.44-6.62a1.55,1.55,0,0,0-.49-1.41c-1.13-1-3.93-.64-4.82-.46l-.42-2c.45-.1,4.45-.89,6.54.89a3.54,3.54,0,0,1,1.19,3c-.27,4.85-6.3,8.17-6.56,8.31l-.12.06A10.49,10.49,0,0,1,440,346.25Z"/><path class="cls-1" d="M438.22,344.26a19.81,19.81,0,0,1-9.16-2.34l.92-1.78c6.16,3.2,11.78,2.28,14.72.51.42-.25.91-.63.91-1,0-.7-1.21-1.7-1.86-2.07l1-1.73c.29.17,2.84,1.7,2.86,3.78a3.21,3.21,0,0,1-1.88,2.77A14.84,14.84,0,0,1,438.22,344.26Z"/><path class="cls-1" d="M396.69,385c-14.11,0-30.8-1-31-1-.41,0-8.34-1.13-8.9-6.45a12.32,12.32,0,0,1,0-3.41,3.69,3.69,0,0,1,1.42-2.52c1-2.25,5-8.08,10.58-8.66a13.53,13.53,0,0,1,4-3.4,3.85,3.85,0,0,1,1.41-2.11,4.75,4.75,0,0,1,4-.54c4.2,1,14.55,6.86,15,7.11.63.39,2.55,1.73,2.17,3.28a2.38,2.38,0,0,1-1.42,1.63,3,3,0,0,1-2.72-.29l-1.21-.72L376,361a1.61,1.61,0,0,0-1-.19l-.21-.21-.05.57-.73.16a11.1,11.1,0,0,0-3.61,3l-.22.65-.67,0c-5.16.21-9,6.45-9.48,7.77l-.17.52-.53.13a2.11,2.11,0,0,0-.46,1.11,10.56,10.56,0,0,0,0,2.85c.39,3.74,7,4.7,7.11,4.7s16.73,1,30.78,1c13.88,0,20.17-1.87,20.23-1.89.25-.08,25.36-7.74,32-10.82,3.31-1.54,4.4-2.38,4.75-2.73v-.14c0-.12-1-12.17-1.45-19.57-.45-6.9-3.49-9.67-3.52-9.69l1.31-1.51c.15.13,3.71,3.26,4.21,11.08.43,6.74,1.27,17.32,1.42,19.24a1.27,1.27,0,0,1,.16.64c0,.9-.75,2.06-6,4.51-6.75,3.13-31.2,10.6-32.24,10.92C417.24,383.11,410.92,385,396.69,385Zm-20.78-26.13a4.45,4.45,0,0,1,.94.33l14.24,7,1.28.76a1.08,1.08,0,0,0,.93.16.4.4,0,0,0,.22-.21,4,4,0,0,0-1.23-1.14c-.07,0-10.51-6-14.43-6.88A3.59,3.59,0,0,0,375.91,358.88Z"/><path class="cls-1" d="M389.45,367.38c-11.92,0-14.6-7.12-14.7-7.42l1.88-.68c.09.25,2.39,6.1,12.82,6.1Z"/><path class="cls-1" d="M396.84,366.21a4.28,4.28,0,0,1-2.1-.64,36.26,36.26,0,0,0-5.81-2.08l.54-1.93a39,39,0,0,1,6.26,2.27c1.25.71,1.6.34,2-.37.2-.33-.27-.71-.39-.8-2.27-1.2-8.52-4.2-11.07-4.2a5.94,5.94,0,0,1-4.75-2.49,4,4,0,0,0-.66-.66c-.34,0-1.1.07-1.37.46a1.75,1.75,0,0,0,0,1.34l-1.87.71a3.68,3.68,0,0,1,.24-3.18,3.51,3.51,0,0,1,3.11-1.32,2.9,2.9,0,0,1,2.07,1.33,4,4,0,0,0,3.24,1.81c3.53,0,11.2,4,12.06,4.46l.09.05a2.64,2.64,0,0,1,1,3.52A3.05,3.05,0,0,1,396.84,366.21Z"/><path class="cls-1" d="M396.88,361l-1.83-.81a.82.82,0,0,0,0-.68,4.06,4.06,0,0,0-1.92-1.62l-.24-.15c-3.5-2.88-7.95-5.94-9-5.86-.79.35-1.35,2.22-1.49,3.07l-2-.31c.06-.38.63-3.71,2.77-4.63,1.83-.79,6.88,2.86,10.83,6.1a5.79,5.79,0,0,1,2.85,2.66A2.83,2.83,0,0,1,396.88,361Z"/><path class="cls-1" d="M386.73,357.59c-2-2.58-4-1.56-4.27-1.44l-1-1.73c1.26-.74,4.32-1.28,6.84,1.94Z"/><path class="cls-1" d="M402.07,361.82a3.44,3.44,0,0,1-2.47-1c-.71-.71-4-2-6.12-2.65l.61-1.91c.92.29,5.61,1.83,6.92,3.14a1.49,1.49,0,0,0,1.18.42,1.69,1.69,0,0,0,1.17-.55c.16-.22.19-.33.18-.35s-.11-.37-1.17-1.13c-6.4-4.34-14.52-4.17-14.6-4.16l-.06-2c.35,0,8.85-.2,15.8,4.52a4.25,4.25,0,0,1,2,2.47,2.41,2.41,0,0,1-.56,1.86,3.66,3.66,0,0,1-2.63,1.35Z"/><path class="cls-1" d="M406.27,358.06a2.45,2.45,0,0,1-1.49-.53c-.65-.49-3.92-2.32-6-3.48l-7-1.66,1.63-1.28c.06,0,6.21-4.73,14,.44,1.11.88,2.68,2.14,1.55,4.42a3.45,3.45,0,0,1-2.16,2A2.22,2.22,0,0,1,406.27,358.06Zm-9.35-6.5,2.66.67c.55.3,5.4,3,6.4,3.7.14.1.25.15.33.13s.5-.32.83-1,.36-.87-.94-1.91C402.32,350.58,399,350.87,396.92,351.56Z"/><rect class="cls-1" x="400.03" y="354.04" width="2" height="1.99" transform="translate(-74.08 107.75) rotate(-14.02)"/><rect class="cls-1" x="393.39" y="352.13" width="2" height="1.71" transform="translate(-134.08 382.27) rotate(-45)"/><path class="cls-1" d="M390.29,376.91c-11.3,0-24.25-.77-31.65-3.8l.76-1.85c13.94,5.72,50,3,52.3,2.84,6.37-2.09,18.46-6.09,19.38-6.46a10.13,10.13,0,0,0,1.94-4.69,3,3,0,0,0-.08-1.58,170.09,170.09,0,0,1-20.69-13.5l1.22-1.58a167,167,0,0,0,20.62,13.43l.17.09.13.15c.95,1.1.74,3,.41,4.35-.45,1.85-1.67,4.68-3,5.2S413,375.78,412.21,376l-.23,0C411.2,376.14,401.57,376.91,390.29,376.91Z"/><path class="cls-1" d="M378.91,369.06c-7.93-1.24-10.11-4.2-10.33-4.54l1.65-1.12s1.92,2.58,9,3.68Z"/><path class="cls-1" d="M442.23,351.21a10.94,10.94,0,0,1-2.58-.28l-.12,0c-.77-.32-7.59-3.19-8.82-3.93l-.42-.25-.06-.48c-.61-4.85-2.92-5.16-2.95-5.16l.15-2c.16,0,3.76.36,4.71,6.39,1.43.72,5.43,2.44,8.09,3.55a8.79,8.79,0,0,0,9.68-4.15c.35-.7.4-2.33-1.55-5.73l-.18-.32,1.79-.89.12.22c.71,1.25,2.89,5,1.57,7.68A10.54,10.54,0,0,1,442.23,351.21Z"/><path class="cls-1" d="M412.47,381.33l-.66-1.89L441.4,369c10-2,11.94-4.19,12-4.22L455,366c-.32.46-2.46,2.84-13.11,5Z"/><path class="cls-1" d="M402.31,351.45l-.14-2c.07,0,7.05-.61,22-8.81,13-7.13,13.3-10.51,13.29-10.86l0-.17-.24-1.45,2-.33.22,1.35c.43,1.26.18,5.32-14.25,13.21C409.71,350.85,402.6,351.43,402.31,351.45Z"/><path class="cls-1" d="M394,352.9c-.48,0-11.83-.3-15.7-4.68l-.25-.28v-.38c0-2,.62-13.46.71-15.28l-18.5-44.7L337.1,233.74c-.49-.93-12.75-24.58-5.67-39,2.65-5.37,7.65-8.73,14.87-10,30.38-5.26,68.32-7,68.7-7h.13c.27,0,27.14,2.41,38.08,2.65l0,2c-10.74-.23-36.63-2.52-38.15-2.65-1.81.08-38.73,1.85-68.38,7-6.56,1.14-11.07,4.13-13.42,8.89-6.64,13.48,5.56,37,5.68,37.22l23.21,53.91,18.68,45.13v.23c0,.13-.65,12-.72,15,3,2.88,11,3.68,14,3.74Z"/><path class="cls-1" d="M370.21,363.68A21.47,21.47,0,0,1,358.28,351c-7-19,7.21-48.49,7.82-49.74l1.8.88c-.14.3-14.42,30-7.73,48.17A19.54,19.54,0,0,0,371,361.85Z"/><path class="cls-1" d="M453.76,351.39l-.66-1.89,35.49-12.31,15.32-4.24c1.37-2.91,9.7-21.59,8.4-44-1-11.82-11-16.37-13.32-17.29l-12,9-.18.05-21.73,6-.54-1.93,21.55-6,12.58-9.37.49.16c.14,0,13.92,4.72,15.17,19.21,1.45,24.88-8.69,45.24-8.8,45.45l-.2.39-16.12,4.46Z"/><path class="cls-1" d="M529.79,362.35a8,8,0,0,1-5.66-2c-4-3.67-3.16-10.88-3.13-11.19l0-.13,1.52-5.75s1.68-3.57.14-4.49a11.31,11.31,0,0,1-4-4.55l-.37-.82.77-.46s3.83-2.29,5.13-5.55c.19-.48.76-1.92,2-1.81s2,1.5,2.53,4.15l.09.45L523.67,337l0,0c2.49,1.5,1.61,5.06.67,7L523,349.42c-.07.68-.54,6.62,2.51,9.43,1.53,1.41,3.78,1.83,6.69,1.25,10.5-2.1,15.06-17.35,16.84-26.26.74-3.71-1.07-11.76-5.37-23.94l-.14-.4c-1.46-4.15-4.5-24.9-4.63-25.78-.51-3.85-2.6-14.25-6.15-17.27-24.58-1.36-29.11,2-29.9,3.5a1.59,1.59,0,0,0,.16,1.67l-1.56,1.25A3.57,3.57,0,0,1,501,269c2.12-4.13,12.93-5.68,32.13-4.58l.3,0,.24.18c5.11,3.83,7.07,18.17,7.15,18.78,0,.2,3.14,21.43,4.54,25.39l.14.4c1.65,4.67,6.67,18.88,5.45,25-1.88,9.39-6.77,25.5-18.41,27.83A14.25,14.25,0,0,1,529.79,362.35Zm-8.88-28.23a10.26,10.26,0,0,0,1.23,1.61l4.58-6a10.62,10.62,0,0,0-.58-1.73l-.07.16A14.73,14.73,0,0,1,520.91,334.12Z"/><path class="cls-1" d="M524.37,343.93,523,342.48a49.29,49.29,0,0,1,6.94-5.45c.74-.43.79-.7.79-.7s-.16-.27-.36-.43l-6.5,3.14-.87-1.8,7.44-3.59.44.22c.18.09,1.79.94,1.84,2.4a2.9,2.9,0,0,1-1.78,2.49A48.45,48.45,0,0,0,524.37,343.93Z"/><path class="cls-1" d="M524.39,357.57a7.37,7.37,0,0,1-2.52-.4l.72-1.87c.2.07,5,1.76,9.71-4.5,5.78-7.62,11.2-16,8.52-27.17s-5.74-23-6.21-24.85c-1.06-1.13-2.81-2.55-3.61-2.49-.08,0-.13,0-.21.14-.65,1-2.54,4.9-4.37,8.7-3,6.21-4.36,9-4.93,9.56l-.21.21c-2.05,2.08-4.18,4-5.81,3.71a1.84,1.84,0,0,1-1.38-1l1.79-.89a.3.3,0,0,0-.1,0c.22,0,1.12-.14,4.08-3.14l.21-.22c.47-.56,2.83-5.45,4.54-9,1.95-4,3.78-7.86,4.51-8.94a2.21,2.21,0,0,1,1.73-1c2.2-.15,4.88,2.74,5.4,3.33l.16.18.06.24c0,.13,3.42,13.18,6.28,25.13S540,344,533.9,352C530.39,356.65,526.74,357.57,524.39,357.57Z"/><path class="cls-1" d="M513.31,299.54v-2a8,8,0,0,0,3-.55c1.22-1.42,5.74-14.51.51-21.26l-1.05-1.36c-2.3-3-4.15-5.32-5-5.31s-2,2.05-2.41,2.72c-.74,1.22-1.54,2.37-2.71,2.27s-1.53-1.09-1.93-2a3.75,3.75,0,0,0-.69-1.19,1.65,1.65,0,0,0-.66.42l-1.31-1.51a2.76,2.76,0,0,1,2.41-.86c1.15.25,1.67,1.4,2.08,2.32.08.19.2.44.3.63a7.09,7.09,0,0,0,.81-1.13c1.34-2.21,2.48-3.59,4-3.67,1.95-.13,3.56,2,6.73,6.08l1,1.36c3.66,4.73,3,11.75,2.31,15.51s-2.18,8-3.31,8.65A9.64,9.64,0,0,1,513.31,299.54Zm3-2.51Z"/><path class="cls-1" d="M546.9,318.82h-2a98.22,98.22,0,0,0-4.26-11.43c-1.72-3.93-3.15-12.67-3.21-13v-.12c-.71-17.61-7-28.39-7.1-28.5l1.71-1c.27.45,6.64,11.27,7.38,29.39.13.77,1.51,9,3.06,12.5C543.76,309.53,546.9,317.45,546.9,318.82Z"/><path class="cls-1" d="M509.08,326.06a1.84,1.84,0,0,1-.46-.06,2,2,0,0,1-1.34-1.35l1.92-.55-1,.27.94-.3-.11,0s.28,0,.88-.63c1.48-1.48,4.36-7.6,5.35-9.84l1.63-3a3.4,3.4,0,0,0-1.59,1.06c-1.22,1.71-4.27,5.24-4.4,5.39l-1.51-1.31s3.12-3.61,4.29-5.24c1.44-2,4.71-2.32,5.08-2.35l1.84-.14-3.55,6.45c-.34.78-3.72,8.36-5.72,10.37A3.57,3.57,0,0,1,509.08,326.06Z"/><path class="cls-2" d="M520.31,317.13"/><path class="cls-1" d="M519.31,335.23a4.4,4.4,0,0,1-2-1.1,2.71,2.71,0,0,1-1.67-.59,4,4,0,0,1-1.32-2.18,3.43,3.43,0,0,1-1.48-2.66,2.05,2.05,0,0,1-1.89-1.24,3.38,3.38,0,0,1-1.55-2.86h2s0,1,.76,1.23l.68.23v.62a4.69,4.69,0,0,0,.93.07h1v1c0,.88.24,1.84.65,1.92l.8.16v.82a2.12,2.12,0,0,0,.65,1.32.81.81,0,0,0,.76.13l1.24-.31v1.09a3.67,3.67,0,0,0,1,.44Z"/><path class="cls-1" d="M514.58,328.58l-1.11-1.66c1.35-.9,5-3.56,6.2-5.21.95-2.11,1-3,.92-3.22a3.31,3.31,0,0,0-1.75,1.1c-.23,1.2-3.87,5.3-6,7.64l-1.47-1.35c2.48-2.7,5.31-6.06,5.56-6.79.2-1,1.79-2.17,3-2.49a2,2,0,0,1,2.18.54c.81,1,.61,2.66-.66,5.48l-.08.14C519.84,325.07,514.8,328.44,514.58,328.58Z"/><path class="cls-2" d="M518.62,324.86"/><path class="cls-1" d="M518.6,333.53l-1.41-1.41,6.32-6.32a4.46,4.46,0,0,0-.58-2,3,3,0,0,0-1.52,1.31,67.08,67.08,0,0,1-5.46,6l-1.41-1.41a65.22,65.22,0,0,0,5.16-5.6,4.6,4.6,0,0,1,3.18-2.28,1.9,1.9,0,0,1,1.62.75c.73,1,1.48,3.6.63,4.45Z"/><path class="cls-1" d="M524.4,330.48l-1.9-.63,0-.08a1.1,1.1,0,0,0-.29-.05v-2a2.5,2.5,0,0,1,2,.89A2,2,0,0,1,524.4,330.48Z"/><path class="cls-1" d="M513.46,322.15l-.79-1.84,1.59-.68c.7-.49,1.92-1.13,2.8-.48s.49,2.16.33,2.64l-1.84-.61-.21.14-.19.11Z"/><path class="cls-1" d="M520.74,326l-1.55-.67a2,2,0,0,0-.33,0l-.49-1.94a2.34,2.34,0,0,1,2.25.49A1.86,1.86,0,0,1,520.74,326Z"/><path class="cls-1" d="M523.48,338.27l-1-1.71c2.8-1.68,2.47-3.14,2.45-3.21l1.91-.6C526.85,332.87,527.74,335.71,523.48,338.27Z"/><path class="cls-1" d="M514.3,295.55l-2-.3c2.49-16.51-7.36-20-7.78-20.15l.62-1.9C505.28,273.24,517,277.3,514.3,295.55Z"/><path class="cls-1" d="M463.4,331.73l-1.6-1.2L477,310.25c.06-.11,11-17.54,13.35-26.93,1-3.86.26-4.42.25-4.42-.17-.11-.67,0-1.27.33a2.72,2.72,0,0,1,.69.8,3.61,3.61,0,0,1-.23,3.5c-1.62,2.83-3.76,4.57-5.34,4.38a1.78,1.78,0,0,1-1.27-.75c.06,3.6-.34,8.63-2.66,11.73-1.51,2-5.31,5.81-7.4,4.73-1-.5-1.19-1.67-.63-3.46a17,17,0,0,1,2-4.46,16.33,16.33,0,0,0,1.39-2.63,18,18,0,0,1,1.48-2.76c.63-1,.73-1.15.42-2.08l1.9-.63a3.72,3.72,0,0,1-.63,3.79,16.11,16.11,0,0,0-1.33,2.48,18.22,18.22,0,0,1-1.53,2.91,15.12,15.12,0,0,0-1.82,4,4.11,4.11,0,0,0-.21,1,12.38,12.38,0,0,0,4.74-4.09c2.62-3.5,2.48-10.75,2-14.48-.14-1.07-.19-2.36.7-2.88a1.43,1.43,0,0,1,1.61.17,2.85,2.85,0,0,1,1.1,2.58c-.13.52-.07.78.24,1.94.07.26.15.56.23.9.5-.08,1.93-1,3.25-3.34a1.87,1.87,0,0,0,.25-1.56,1.65,1.65,0,0,0-1.15-.57l-2.38-.21,1.81-1.55c.53-.45,3.25-2.63,5.09-1.5,1.35.84,1.55,2.94.63,6.61-2.43,9.7-13.19,26.85-13.65,27.57Z"/><path class="cls-1" d="M449.15,334.86,448,333.2C471,318,472.7,302.94,472.71,302.79l2,.19C474.64,303.63,472.94,319.09,449.15,334.86Z"/><path class="cls-1" d="M527.71,347a12.17,12.17,0,0,1-5.21-1.24l.93-1.77s3.74,1.92,7.1.45c3.7-1.85,4.46-2.92,5.06-4.12l1.79.89c-.88,1.76-2.1,3.08-6,5A9.09,9.09,0,0,1,527.71,347Z"/><path class="cls-1" d="M396.51,230.48c-.1-.09-10-8.79-14.32-9.92a52.93,52.93,0,0,1-13.58-5.69c-2.92-1.95-14.35-12-14.83-12.39l1.32-1.5c.12.1,11.81,10.36,14.62,12.23a51.56,51.56,0,0,0,13,5.42c4.76,1.25,14.71,10,15.13,10.36Z"/><path class="cls-1" d="M399.6,237.52c-.32,0-.61,0-.82,0-2-.16-5.45-1.37-8.47-2.44a44.79,44.79,0,0,0-4.44-1.44,46.31,46.31,0,0,0-9.94-.95c-4.84,0-7.5,0-14.25-3.75l1-1.75c6.29,3.5,8.48,3.5,13.28,3.5a48.17,48.17,0,0,1,10.34,1,15.71,15.71,0,0,1,1.6.44l-.08,0c-2.72-1.08-5.81-2.32-8.79-3.31-5.55-1.85-6.37-2.82-8.79-5.68-.55-.65-1.2-1.41-2-2.32-4-4.45-15.72-7.75-16.94-7.88l.05-2c.9,0,13.74,3.4,18.37,8.54.83.93,1.49,1.7,2.05,2.37,2.33,2.75,2.89,3.41,7.9,5.08,3,1,6.15,2.25,8.9,3.35a43.51,43.51,0,0,0,6,2.15h.17a5.54,5.54,0,0,0,1.29,0,5.23,5.23,0,0,1,4.26,1c1.15,1,2.15,2,1.69,3.15C401.56,237.36,400.47,237.52,399.6,237.52Zm-5.19-3.18a22.88,22.88,0,0,0,4.52,1.14,7,7,0,0,0,.73,0,9.76,9.76,0,0,0-.73-.69,3.36,3.36,0,0,0-2.77-.51,7.33,7.33,0,0,1-1.74,0Z"/><path class="cls-1" d="M407.59,243h-2c0-.41-1.62-.84-3.05-1.21l-1.77-.48c-2.44-.7-3-1.39-3.35-2.59a1.56,1.56,0,0,0-.29-.65,1.19,1.19,0,0,1-.12-1.47c.37-.52.79-1.12,6.54.87l-.65,1.89c-1.17-.41-2.53-.82-3.52-1.06.11.34.32.62,1.94,1.09l1.74.47C405.58,240.53,407.59,241.06,407.59,243Z"/><path class="cls-1" d="M407.68,245.87l-10.87-4.1-15.06-4.06c-3.67-.56-5.63-1.51-5.82-2.81-.13-.87.46-1.61,1.73-2.21,4.17-2.08,16.18,3.91,17.54,4.6l-.89,1.74,3.11.84,11,4.13Zm-29.5-11.2a15.39,15.39,0,0,0,3.93,1.07l.11,0L394.12,239c-4.81-2.42-13.12-5.71-15.57-4.49Z"/><path class="cls-1" d="M395.48,233.14c-2.14,0-3.81-1.49-5.57-3.07a20.5,20.5,0,0,0-3.38-2.62c-1.55-.89-2.36-1.89-2.4-3a2.58,2.58,0,0,1,1.13-2.11l.55-.37,6.11,4-1.09,1.68-4.59-3a3.6,3.6,0,0,0,1.29,1,22.38,22.38,0,0,1,3.72,2.86c1.54,1.37,2.86,2.56,4.24,2.56Z"/><path class="cls-1" d="M313.48,114c-2.9,0-9.71-4.76-13.73-7.77l-.56-.42.2-.67c.31-1,7.57-24.83,12.17-32.57,4.36-7.34,14.55-27,15.37-28.58.5-2,.8-5.06-.07-6.06a1.07,1.07,0,0,0-1.06-.31l-.22-2a3,3,0,0,1,2.79,1c1.91,2.22.61,7.4.46,8l-.08.2c-.11.21-10.93,21.12-15.48,28.78C309.23,80.37,302.75,101,301.51,105c4.61,3.41,10,6.78,11.64,7,.67-4.45,8.78-28.57,17.7-45.69C339.47,49.73,337.62,45,337.6,45l1.79-.9c.27.52,2.39,5.56-6.76,23.14-9.27,17.8-17.3,42.49-17.51,45.25a1.57,1.57,0,0,1-.92,1.36A1.73,1.73,0,0,1,313.48,114Z"/><path class="cls-1" d="M313.62,124.41l-9.44-10.19v-.39a11.69,11.69,0,0,1,.32-2.43,11.8,11.8,0,0,1-6.44-2.33l-1.18-.88,4.39-2.7,1,1.7-1.76,1.08c1.28.68,3.29,1.48,5.06,1l1.91-.54-.7,1.86a10.92,10.92,0,0,0-.64,2.9l8.89,9.59Z"/><path class="cls-1" d="M329.06,190.54l-.91-1.78c.45-.23,11.11-5.65,15.85-5.9,3.12-.16,25.31-16,38.57-25.88l.29-.22.37,0c22.25,1.39,50.29-6.53,51.75-6.95,2.58-1.12,6.1-3.32,6.1-4.61,0-10.12-29.14-42.22-29.44-42.55l-.14-.16-2.39-7.16c-2.42-1.87-23.9-17.87-49.08-16.75-26.38,1.17-42,32.44-42.12,32.76L314.2,119l2.8-12.58c.23-1,5.84-24.5,20.18-29.93l2.37-.85c13.49-4.85,25.14-9,43.72-2.3,12.64,4.58,20,9.85,23.6,13.06l-1.38-4.5c-15.22-10.86-56-37.56-66.17-34L338.65,46c13.38-4.71,66,32.82,68.28,34.42l.28.2,4.32,14.15-3.31-4.23c-.07-.08-6.87-8.57-25.63-15.37-17.91-6.49-29.24-2.42-42.36,2.3l-2.36.84c-10.87,4.12-16.56,20.35-18.32,26.3,6.12-9.46,20.18-27.1,40.39-28C387.26,75.4,410.37,93.79,410.6,94l.23.18,2.44,7.32c2.5,2.76,29.82,33.12,29.82,43.74,0,3.16-6.14,5.95-7.37,6.47l-.11,0c-.29.08-29.1,8.4-52.13,7.06-4.71,3.52-34.72,25.81-39.37,26.06C339.78,185.08,329.16,190.48,329.06,190.54Z"/><path class="cls-1" d="M312.61,212.59a2,2,0,0,1-1.15-.33c-.88-.62-.89-1.75-.9-2.76,0-.66,0-1.48-.29-1.77-.95-1-10.51-5.35-19.23-9l-.16-.08c-.51-.33-12.63-8.25-15.37-16.21l-.09-.25,0-.26c1.82-9.57,13.54-16.87,16-18.31v0l.26-.12.13-.07,1.73-1.3L307,141.3h0s2.88-5.65,7.37-21c4.53-15.5,23.73-19.14,26-19.51,1.58-.85,12.24-5.6,26.69,11.42l-1.52,1.29c-14.25-16.78-24.21-11-24.31-10.9l-.17.11-.2,0c-.2,0-20.19,3.24-24.54,18.12-4.56,15.61-7.44,21.2-7.56,21.43l-13.66,21.24-.13.1a7.83,7.83,0,0,1,1.94,1.09c.1.08,9.9,8,10.84,8.67.18.13,1.15.79,2.39,1.62,8.31,5.6,17.07,11.61,19,13.72a3.91,3.91,0,0,1,1.35,3.36,4.45,4.45,0,0,1-2.11,2.89c-2.07,3.1-10.93,16.11-14.37,17.34A4.08,4.08,0,0,1,312.61,212.59ZM291.89,197c4.4,1.82,18.37,7.69,19.85,9.41a4.3,4.3,0,0,1,.83,3.11,6,6,0,0,0,.07,1.11,2.4,2.4,0,0,0,.66-.16c2.24-.8,9.47-10.7,13.51-16.76l.14-.21.22-.12a2.65,2.65,0,0,0,1.31-1.56,2.11,2.11,0,0,0-.82-1.68C325.59,187.87,314,180,309,176.67c-1.52-1-2.26-1.52-2.47-1.68-1-.73-10.49-8.39-10.89-8.71,0,0-1.76-1.35-3.05-.94-2,1.17-13.24,8.11-15.09,16.74C280.07,189,290.89,196.31,291.89,197Z"/><path class="cls-1" d="M193.63,229.28h-.25l-.22-.12c-.34-.18-8.31-4.57-9.87-8.74-.58-1.54-.89-1.63-1.41-1.77a4.23,4.23,0,0,1-2.87-2.44c-.58-1.15.17-2.53.77-3.64l.21-.38c-2.55-3.6-1.72-7,2.44-10.08l1.19,1.61c-4.71,3.49-2.87,6.08-2,7.33a1.77,1.77,0,0,1,.46,1,3.2,3.2,0,0,1-.55,1.43,6.07,6.07,0,0,0-.75,1.77c.69,1.17,1.09,1.28,1.6,1.42,1,.28,1.9.67,2.77,3,1,2.76,6.37,6.23,8.68,7.53a.71.71,0,0,0,.42-.25,7.42,7.42,0,0,1,4.81-2.61,10.38,10.38,0,0,1,1.94,0c2.07.12,3.82.12,4.25-1,1-2.76,5.52-4.08,6.9-4.42,1.2-.91,6-1.73,26.55,1.6,26.45,4.29,33.95,2.9,49.83-1,15.43-3.74,22.57-12.37,22.64-12.46l1.55,1.26c-.3.38-7.64,9.24-23.72,13.14s-23.79,5.33-50.62,1c-19.4-3.14-23.85-2.4-24.77-2.09l0,.25-.64.14c-1.94.42-5.23,1.68-5.79,3.23-1,2.66-4.14,2.48-6.24,2.36a10.07,10.07,0,0,0-1.56,0,5.71,5.71,0,0,0-3.41,1.74A2.86,2.86,0,0,1,193.63,229.28Z"/><path class="cls-1" d="M180.08,205.22c0-.17-.48-4.2,1.9-6.71a6.79,6.79,0,0,1,5.61-1.89c1.06-.06,12.6-.64,20.21,1.7a33,33,0,0,0,6.95-1.28,113.29,113.29,0,0,1,22.77-3.56c8-.36,13.53-2.91,19.42-5.6s11.72-5.37,20.15-6l.14,2c-8.07.58-13.86,3.24-19.46,5.81-5.8,2.66-11.8,5.41-20.16,5.78a111.5,111.5,0,0,0-22.4,3.5c-3.43.83-5.92,1.43-7.65,1.32l-.24,0c-7.47-2.33-19.56-1.65-19.68-1.65h-.12a4.92,4.92,0,0,0-4.09,1.27c-1.71,1.81-1.37,5.07-1.37,5.1Z"/><path class="cls-1" d="M186.49,223.51a4.72,4.72,0,0,1-1.77-4.48c.16-.47.12-1.82-.53-2.21-1.75-1.05-2.27-4.59-1.31-6.2.15-.26-.4-1.26-1.06-1.92l1.41-1.41c.42.42,2.43,2.57,1.36,4.36-.47.78-.06,3,.62,3.46,1.72,1,1.76,3.48,1.4,4.55a3.05,3.05,0,0,0,1.13,2.28Z"/><rect class="cls-1" x="295.37" y="85.99" width="2" height="15.13" transform="translate(88.26 324.37) rotate(-65.48)"/><path class="cls-1" d="M438.75,312.91l-1.06-1.69c.23-.14,23.12-14.65,25.88-25.48,2.34-10,13.21-24.62,18.44-31.66.82-1.11,1.51-2,2-2.72l.14-.19.21-.11c16.85-8.89,26.27-20.57,28-34.74,3.16-25.86-20.33-53.1-29.65-61.42-4.82-4.3-9.15-9.61-14.16-15.76-11.78-14.45-27.92-34.25-66.16-61.92-52.81-38.22-63.17-32-63.27-31.89l-.67.56-.61-.61s-4.78-4.3-9-7.85c-3-1.19-12.1,5.05-17.17,9.32l-.15.12-.18.06c-1.38.47-2.73-1.86-3.62-3.64-.74-1.41-1.74-3.65-3-6.47-2.83-6.34-6.71-15-11.2-22.18-6-9.52-27.56-16.33-44.22-10.69C232.92,9.48,223.95,29.76,221.9,42c-.65,3.93-.17,6.69,1.44,8.22,2.15,2,5.77,1.27,5.8,1.26l.35-.08.32.16c1,.51,4.93,8.12,5.13,9.94.29,1.62,2.68,7.82,4.39,9a3.6,3.6,0,0,0,1.32.2c2.65.12,5.17.85,6.83,8.39.84,3.84,1.91,6.18,3.16,6.95.93.57,2,.29,3.33,0l.76-.19a3.76,3.76,0,0,1,3,.41c1.48,1,1.84,2.84,2,3.85v0a7.55,7.55,0,0,0,1.76-.11,6.7,6.7,0,0,1,2.07-.09l.74.15.06.75c.07.84.43,1,2.43,1.08a8.25,8.25,0,0,1,3,.5,7.38,7.38,0,0,1,3,2.86,11,11,0,0,0,2.53,2.8,4,4,0,0,0,3.2.5c2.57-.43,5.41-2.12,6.47-3.83,2-3.18,11.76-14.16,12.18-14.63l1.49,1.33c-.1.11-10.1,11.32-12,14.34-1.37,2.22-4.66,4.23-7.84,4.76a5.83,5.83,0,0,1-4.75-.89,12.71,12.71,0,0,1-2.94-3.23A5.76,5.76,0,0,0,269,94.22a6.78,6.78,0,0,0-2.28-.33c-1.43-.06-3.51-.14-4.16-2l-.79.1c-1.37.19-3.66.5-4-1.41l0-.12c-.14-.72-.4-2.06-1.17-2.56a1.84,1.84,0,0,0-1.46-.13l-.72.18c-1.51.38-3.22.82-4.87-.2s-3.07-3.71-4.06-8.22c-1.46-6.66-3.24-6.74-5-6.82a4.94,4.94,0,0,1-2.27-.49c-2.71-1.81-5.11-9.07-5.33-10.37v-.16c-.05-1-2.93-6.53-4-8.09-1.36.18-4.66.34-7-1.86-2.13-2-2.82-5.38-2.05-10C222.06,29,231.45,7.86,248.6,2.06c16.07-5.44,39.56.38,46.56,11.52,4.56,7.26,8.47,16,11.33,22.42,1.25,2.79,2.23,5,3,6.37a11.84,11.84,0,0,0,1.45,2.37c3.32-2.73,14.26-11.27,18.86-9.09l.21.14c3.48,2.9,7.31,6.3,8.68,7.52C341.91,42,355.7,41,403.55,75.6c38.46,27.83,54.69,47.74,66.54,62.28,5.16,6.33,9.24,11.33,13.94,15.53,11.86,10.58,33.45,37.4,30.3,63.15-1.81,14.79-11.51,27-28.84,36.15-.48.67-1.13,1.54-1.88,2.56-5.15,6.93-15.85,21.35-18.1,30.94C462.54,297.83,439.72,312.3,438.75,312.91ZM259.8,90.21h0Z"/><path class="cls-1" d="M264.4,91.25l-2-.21c0-.11.32-2.83,3.7-5.95,3.34-2.83,3.75-3.62,3.8-3.75a.44.44,0,0,0,0,.14h2c0,.68-.34,1.63-4.46,5.11C264.7,89.12,264.41,91.23,264.4,91.25Z"/><path class="cls-1" d="M266,93.61,264.72,92a14.54,14.54,0,0,0,3.58-4.71l1.82.84A16.32,16.32,0,0,1,266,93.61Z"/><path class="cls-2" d="M258.82,90.65"/><path class="cls-1" d="M254.67,87a1.17,1.17,0,0,1-.69-.23c-1.19-.83-.14-2.8.37-3.61,1-1.67,3-1.67,4.23-1.65.24,0,.56,0,.74,0,.52-.8.36-1.24.31-1.39-.4-1.16-2.54-2-3.26-2.21l.54-1.93c.39.11,3.8,1.13,4.61,3.48a3.57,3.57,0,0,1-.7,3.38c-.46.69-1.34.68-2.26.68-1.19,0-2.11,0-2.53.71-.12.2-.22.38-.3.54l1,.75C256.37,85.92,255.56,87,254.67,87Zm4.56-5.35,0,0Z"/><path class="cls-1" d="M281.14,59.39h-.23a2.28,2.28,0,0,1-1.68-1,20.33,20.33,0,0,0-12.43-9,52.2,52.2,0,0,0-7.22-1.08c-3.77-.35-5.84-.54-6.81-5a5.08,5.08,0,0,0-4.56-3.8,6.17,6.17,0,0,0-6.36,3.31c-3,6.26-11.67,10.65-12,10.83l-.9-1.79c.08,0,8.42-4.27,11.14-9.92a8.13,8.13,0,0,1,8.41-4.42,7.07,7.07,0,0,1,6.27,5.36c.66,3,1.33,3.09,5,3.43a54.79,54.79,0,0,1,7.48,1.12,22.31,22.31,0,0,1,13.66,9.85.27.27,0,0,0,.2.11.26.26,0,0,0,.18,0l2.42-2.42a.52.52,0,0,0,0-.52c-3.46-2.83-9-8.92-6-17.22l1.89.67c-2.4,6.79,1.66,11.94,5.48,15.07a2.47,2.47,0,0,1,.07,3.41l-2.41,2.41A2.22,2.22,0,0,1,281.14,59.39Z"/><path class="cls-1" d="M290.31,53.78a3.08,3.08,0,0,1-.5,0l.33-2c.31.05.64,0,1-.55a5.43,5.43,0,0,0,.25-4.12c-.83-1-1-3.79-1.25-7.56-.06-1-.1-1.85-.17-2.36v-.12c0-.64-1.88-3.45-4.56-4.75a4.27,4.27,0,0,0-4.71.23,3.51,3.51,0,0,0-1.56,2.57c-.21,2.57,2.38,5.33,2.41,5.36l-1.45,1.38c-.13-.14-3.24-3.43-3-6.9a5.47,5.47,0,0,1,2.35-4,6.31,6.31,0,0,1,6.89-.38c3,1.48,5.5,4.73,5.57,6.42.07.57.12,1.44.17,2.45.1,1.87.32,5.76.82,6.42,1,1.25,1,4.59-.09,6.37A2.9,2.9,0,0,1,290.31,53.78Z"/><path class="cls-1" d="M289.22,44s-.48-3.14-1-6.53c-.33-2.32-3.5-3.79-4.41-4.17-.61.15-2.16.69-2.3,2.19-.16,1.75,2.2,4.22,3,4.95l-1.31,1.51c-.41-.36-4-3.56-3.72-6.64.25-2.72,2.87-3.83,4.22-4l.25,0,.24.08c.22.08,5.41,1.94,6,5.87.48,3.37,1,6.51,1,6.51Z"/><path class="cls-1" d="M286.61,48.81A3,3,0,0,1,284,47.08a10.64,10.64,0,0,1-.48-1.64,4.1,4.1,0,0,0-.28-.93l1.42-1.4a3.73,3.73,0,0,1,.8,1.89,8.94,8.94,0,0,0,.38,1.34.87.87,0,0,0,.46.38,5.59,5.59,0,0,1,1-4.08l.34-.64c.16-.59.25-1.33-.11-1.7-.67-.67-2.73-.47-4-.12l-.55-1.92c.42-.12,4.19-1.13,6,.63.86.86,1.06,2.12.6,3.75l-.07.17c-.14.27-.28.53-.42.79-.64,1.18-1,1.89-.72,2.83a1.72,1.72,0,0,1-1,2.26A2,2,0,0,1,286.61,48.81Zm-.23-1.69Z"/><path class="cls-1" d="M286.73,51a1.63,1.63,0,0,1-.37,0c-1.57-.36-3.19-3.44-3.82-4.75l1.81-.86c.83,1.74,2,3.49,2.48,3.67a.44.44,0,0,0-.38.08l1.25,1.56A1.53,1.53,0,0,1,286.73,51Z"/><path class="cls-1" d="M321.21,56.42c-2.21-1.77-9.27-8.2-10.68-9.48-1.75-.23-9.68-1.55-12.73-6.46a11.57,11.57,0,0,0-8.17-5.08l.17-2a13.48,13.48,0,0,1,9.7,6C302.36,44,311,45,311.08,45l.33,0,.24.22c.08.08,8.45,7.73,10.81,9.61Z"/><path class="cls-1" d="M245.46,70.68l-.69,0c-.41,0-2.47-.21-2.94-1.67s1.29-3,1.88-3.49a65.86,65.86,0,0,1,9.53-5.67c.7-.42,1.45-.82,2.25-1.21l0,.05c2-1,3.44-1.67,3.61-1.75l.85,1.81c-.05,0-2.68,1.26-5.8,2.86-6.32,3.77-8.42,8.41-8.44,8.46Zm-1.7-2.33a1.81,1.81,0,0,0,.5.19,17.94,17.94,0,0,1,1.26-1.93L245,67A3.91,3.91,0,0,0,243.76,68.36Z"/><path class="cls-1" d="M254.07,69.76,253,68.09a5.94,5.94,0,0,0,1.27-2.3,34.87,34.87,0,0,1-4.65,2.6l-.82-1.82s4.66-2.12,6.67-4.34L258,59.3l-.91,3.82C256.84,64.4,255.71,68.66,254.07,69.76Z"/><path class="cls-1" d="M253.9,69a3.68,3.68,0,0,1-2.69-2L252.91,66a3,3,0,0,0,1,1.06.27.27,0,0,0-.15,0l.89,1.79A1.73,1.73,0,0,1,253.9,69Z"/><path class="cls-1" d="M248.11,70a2.21,2.21,0,0,1-.86-1.93c.12-2.17,2.87-4.7,8.44-7.73l1,1.76c-6.56,3.58-7.31,5.51-7.39,6,0,.2,0,.28,0,.3l-.62.78Z"/><path class="cls-1" d="M208.49,212.9a2.4,2.4,0,0,1-.94-1.65c-.29-2.21,2-5.22,2.45-5.8l1.57,1.24c-.92,1.17-2.17,3.29-2,4.31a.4.4,0,0,0,.16.31Z"/><rect class="cls-1" x="238.88" y="137.48" width="78" height="2" transform="translate(138.59 415.95) rotate(-89.83)"/><rect class="cls-1" x="278" y="222.48" width="2" height="60"/><rect class="cls-1" x="278" y="288.48" width="2" height="17"/><path class="cls-1" d="M94.33,371.73a17.58,17.58,0,0,1-3.51-.26L5.53,348.28a3.55,3.55,0,0,1-2.52-3V74.54c-.06-.11-.11-.22-.16-.32a4.63,4.63,0,0,0-1-1.6,4.77,4.77,0,0,1-1.79-3l0-.2V63.82H.15c.77-4.34,4.8-5,8.12-4.83,4.31.27,29.86,1.28,52.41,2.17l22.68.9,7,.29,1.94.09c.21,0,.42,0,.63.05H234v2H92v-.06c-3.55-.17-17.11-.7-31.36-1.27C38,62.27,12.48,61.26,8.14,61c-5.7-.36-6,2.56-6.09,3.65a2.34,2.34,0,0,1-.05.31V69.3A2.84,2.84,0,0,0,3,71a5.81,5.81,0,0,1,1.63,2.25H5V345.08a1.56,1.56,0,0,0,1,1.26l85.25,23.18a17.62,17.62,0,0,0,3.36.21l69.7-5.55.16,2-69.78,5.55Z"/><path class="cls-1" d="M91.89,75.65l-1.38,0L3.11,73.45l0-2,86.16,2.14a3.37,3.37,0,0,1,.46-2.29,2.07,2.07,0,0,1,1.72-.82l147.5.24v2L91.5,72.48a.33.33,0,0,0-.12,0,3.15,3.15,0,0,0,.11,1.83Z"/><polygon class="cls-1" points="91.52 370.48 89.52 370.48 90 209.44 90 74.48 92 74.48 92 209.44 91.52 370.48"/><path class="cls-1" d="M106.38,126.53c-3.19,0-5.58,0-6.74-.12-6.7-.48-9.18-.72-9.2-.73l.2-2s2.49.25,9.15.72c6.36.45,52.75-.62,57.05-.72,3.06-2.21,30.85-20.75,74.44-1.21H278v2H230.84l-.2-.09c-45-20.25-72.58.86-72.85,1.08l-.26.21h-.33C155.48,125.73,121.74,126.53,106.38,126.53Z"/><rect class="cls-1" x="166.92" y="71.33" width="2" height="48.06" transform="translate(-2.34 4.25) rotate(-1.44)"/><path class="cls-1" d="M12.39,356.71h0c-2.84,0-5.37-3-7.73-9l1.86-.73c2.63,6.72,4.82,7.75,5.89,7.76h0c2,0,3.83-3.26,4.31-4.4l1.84.77C18.3,351.65,16.08,356.71,12.39,356.71Z"/><path class="cls-1" d="M93,378.08h-.13c-2.91-.08-5.38-2.84-7.57-8.43l1.86-.73c1.81,4.63,3.81,7.11,5.77,7.16H93c2.61,0,5.1-4.15,5.84-5.77l1.82.84C100.29,371.86,97.3,378.08,93,378.08Z"/><rect class="cls-1" x="94.61" y="63.3" width="2" height="86.81" transform="translate(-5.79 5.48) rotate(-3.19)"/><rect class="cls-1" x="60.13" y="333.51" width="73.13" height="2" transform="translate(-244.21 405.44) rotate(-85.63)"/><rect class="cls-1" x="359.83" y="173.51" width="2" height="14.89" transform="translate(82.47 473.28) rotate(-73.03)"/><path class="cls-1" d="M443.75,318.32l-1.41-1.41a165.24,165.24,0,0,0,13.43-15.59c1.44-1.92,2.44-3.3,3.16-4.28,1.94-2.67,2.14-3,3.33-2.83a2.72,2.72,0,0,0,.89,0,1.73,1.73,0,0,1,1.4.29,69.43,69.43,0,0,0-.76-8.31l2-.34c.13.76,3.13,18.84-3,28.71-1.44,2.31-2.43,3.47-3.56,2.94-.76-.36-2-1,2.48-14.65,1.12-2.8,1.85-5.72,1.69-6.64a4.76,4.76,0,0,1-1.27,0c-.25.26-.8,1-1.52,2s-1.73,2.37-3.18,4.3A167.51,167.51,0,0,1,443.75,318.32ZM464.43,301c-.29.91-.62,1.77-.9,2.48a102.43,102.43,0,0,0-3,10.69l.47-.73C463.16,310.05,464.1,305.46,464.43,301Z"/><path class="cls-1" d="M446.24,323l-1.07-1.69,1-.61c2.24-1.38,4.36-2.69,8.71-7.66,3.74-4.27,3.16-5,2.12-6.25-.25-.3-.51-.62-.75-1l1.66-1.11c.2.31.42.57.63.83,1.89,2.32,2,4.06-2.16,8.83-4.55,5.2-6.89,6.64-9.16,8Z"/><path class="cls-1" d="M506.12,192.25c-1.85-3.94-9.13-10.19-15.12-14.33-4.12-2.85-13.2-4.77-22-6.63-4.18-.88-8.12-1.72-11.52-2.64-4.44-1.21-6.45-2.52-6.53-4.24-.08-2,2.54-3,3.06-3.21l.37-.13.36.15c.2.08,20.32,8.43,32.38,10.56C499.8,174,506.65,186,506.93,186.5l-1.74,1a18.12,18.12,0,0,1,2.73,3.92Zm-19.21-18.5a23.31,23.31,0,0,1,5.23,2.52,76.11,76.11,0,0,1,13,11.17C504.7,186.63,498.17,175.79,486.92,173.75ZM454.39,163.2c-.77.36-1.42.88-1.41,1.11,0,0,.18,1.07,5.05,2.4,3.34.91,7.26,1.74,11.41,2.62l3.76.8C464.52,167.32,456.3,164,454.39,163.2Z"/><path class="cls-1" d="M510.88,205.35a3.64,3.64,0,0,1-1.7-.6c-2.83-1.67-3.06-1.9-4.13-4.12-.46-1-1.15-2.39-2.5-4.69l-.67-1.14c-3.19-5.47-3.8-6.52-8.7-8.36a12.47,12.47,0,0,1,2.08,1.9c.72.75,1.7,1.79,3.27,3.22L497.18,193c-1.61-1.48-2.62-2.54-3.36-3.32-1.85-1.94-2-2.05-6.58-3.21a33.72,33.72,0,0,0-4.71-.87c-1.9-.23-2.44-.36-4.88-2.48-.41-.35-1.5-1.3-.9-2.32.43-.74,1.16-2,15.89,3.28,6.72,2.4,7.45,3.66,11,9.68l.66,1.13c1.39,2.36,2.1,3.85,2.58,4.83.86,1.78.87,1.8,3.23,3.19-.26-.75-.71-1.75-1-2.45a11.86,11.86,0,0,1-1.33-3.86c0-1.17,0-4.28-11.89-12.71-10.79-7.64-14.44-7.31-14.48-7.31-.28,0-7.26,1.21-18.39-.24-6.9-.9-8-2.1-8.18-3.26-.2-1.37,1.31-2.13,1.62-2.27l.21-.07c.44-.09,10.85-2.19,19.76,2.76l-.85,1.52a44.22,44.22,0,0,0,5.5-.43c.38-.08,4.35-.57,16,7.65,11.22,8,12.74,11.71,12.74,14.34a15.13,15.13,0,0,0,1.16,3c1.18,2.65,2,4.4.94,5.32A1.36,1.36,0,0,1,510.88,205.35ZM479.71,182.3a4.27,4.27,0,0,0,3,1.36,35.68,35.68,0,0,1,5,.92l.38.09A75.09,75.09,0,0,0,479.71,182.3Zm-22.81-9.41c.43.3,1.85.94,6.31,1.53a80,80,0,0,0,11.79.69c-7.68-4-16.73-2.57-17.87-2.36Z"/><path class="cls-1" d="M486.31,211.77C473.69,182.31,429,182,428.56,182v-2c.46,0,46.45.35,59.59,31Z"/><path class="cls-1" d="M194.36,110.87a9.34,9.34,0,0,1-9.45-9.21l-.48-21a3.35,3.35,0,0,1,3.17-3.2h12.07a3.14,3.14,0,0,1,3.17,2.93l1,20.48a9.57,9.57,0,0,1-2.62,7A9.35,9.35,0,0,1,194.36,110.87ZM187.6,79.48a1.35,1.35,0,0,0-1.17,1.17l.48,21a7.44,7.44,0,0,0,12.83,4.91,7.46,7.46,0,0,0,2.07-5.56l-1-20.53a1.14,1.14,0,0,0-1.17-1Z"/><path class="cls-1" d="M194.84,108.31c-3.75,0-6.79-3.7-6.79-8.24s3-8.24,6.79-8.24,6.79,3.7,6.79,8.24S198.59,108.31,194.84,108.31Zm0-14.49c-2.64,0-4.79,2.8-4.79,6.24s2.15,6.24,4.79,6.24,4.79-2.8,4.79-6.24S197.48,93.83,194.84,93.83Z"/><path class="cls-1" d="M119.53,112.76a4.76,4.76,0,0,1-4.89-4.62l-.24-5.75a4.76,4.76,0,0,1,4.61-4.9L149.67,97a4.76,4.76,0,0,1,4.88,4.62l.24,5.51a4.76,4.76,0,0,1-4.62,4.91ZM119,99.48a2.79,2.79,0,0,0-2.62,2.86l.24,5.75a2.79,2.79,0,0,0,2.86,2.66l30.64-.72a2.79,2.79,0,0,0,2.65-2.86l-.24-5.51A2.79,2.79,0,0,0,149.69,99Z"/><path class="cls-1" d="M150,111.53l-1.11-1.66s1.67-1.15,1.5-2.68a9.45,9.45,0,0,1,0-1.68c.08-1,.16-2-.4-2.61s-2.28-1.09-4.68-1.09c-7.86,0-26.83.48-27,.48s-1,.11-1.48,1.7c-.77,2.31-.93,2.79-1.84,2.64l-.84-.14v-.86h1l-.84-.5s.15-.33.62-1.75c.92-3.06,3.26-3.1,3.36-3.1s19.15-.48,27-.48c3.1,0,5.05.55,6.15,1.74s1,2.85.92,4.13a7.9,7.9,0,0,0,0,1.31C152.68,109.71,150.11,111.45,150,111.53Z"/><path class="cls-1" d="M218,407.27l-.16,0-54.36-10.82.49-67.94h2l-.48,66.29L217.05,405l1-79.62.9-.08,129.32-12.22L347,389.93l-.85.12Zm2-80-.94,77.87,126-16.94,1.18-72.86Z"/><rect class="cls-1" x="187.08" y="306.11" width="2" height="31.69" transform="translate(-156.64 464.1) rotate(-82.12)"/><polygon class="cls-1" points="217.99 347.11 217.85 347.09 164.49 338.15 164.82 336.18 218.05 345.09 345.87 330.86 346.1 332.85 217.99 347.11"/><polygon class="cls-1" points="217.99 368.12 217.85 368.1 164.49 359.16 164.82 357.19 218.04 366.1 345.87 351.39 346.1 353.37 217.99 368.12"/><rect class="cls-1" x="174.25" y="314.08" width="25.25" height="2" transform="translate(-32.05 21.37) rotate(-6.03)"/><polygon class="cls-1" points="346.18 315.19 306.05 303.18 204.36 314.02 204.15 312.03 306.24 301.14 346.75 313.27 346.18 315.19"/><path class="cls-1" d="M213.57,335.9c-1.34,0-3-1.17-4.39-2.3-9.12-7.39-12.53-26.59-12.67-27.41a20.23,20.23,0,0,1,1.28-8.68c-9,4.54-20.82,12-27.11,27.41a6.38,6.38,0,0,1-4.66,4.22,2.61,2.61,0,0,1-2.77-.93c-1-1.5-.37-4.11,2-8,7.62-12.42,19.92-27.82,35.2-30.64,15.56-2.87,66-7.45,66.49-7.5l35.76-2.17c.32,0,30.34-.59,44,33.71l-1.86.74c-13.09-33-41.73-32.45-42-32.45l-35.71,2.17c-.48,0-50.81,4.61-66.28,7.47-14.56,2.69-26.45,17.65-33.86,29.72-2.82,4.6-2.09,5.76-2.06,5.8s.46.16.75.1a4.37,4.37,0,0,0,3.1-2.8l0-.15c7.7-18.87,23.29-26.28,32.6-30.7h0l.86,1.81h0c-4.38,2.09-3.78,10.52-3.78,10.61s3.41,19.18,11.95,26.1c2,1.6,2.8,1.83,3,1.85.28-.84-.69-4.21-2.13-7.32-9.22-12.29-12.35-21.31-9.29-26.82,3.26-5.88,12.17-5.44,13.28-5.36l82-8.68c.8-.12,20.68-2.83,30.58,9.54,9.62,12,11.63,16.21,11.71,16.38l-1.81.85s-2.06-4.22-11.47-16c-9.19-11.49-28.58-8.84-28.77-8.81l-82.22,8.71h-.1c-.09,0-8.69-.67-11.46,4.33C202,304,202.13,311,213,325.46l.11.18c1.42,3,3.51,8.38,1.59,9.88A1.82,1.82,0,0,1,213.57,335.9Z"/><path class="cls-2" d="M279.35,298.54"/><path class="cls-1" d="M301.58,303.61l-.52-1.93c4.6-1.24,6.43-11.11,6.75-14.81l2,.17C309.75,287.64,308.45,301.76,301.58,303.61Z"/><path class="cls-1" d="M313,304.93l-1.08-1.68c1.73-1.11,1.24-8.84-.19-15.36l2-.43C314.19,290,316.74,302.51,313,304.93Z"/><path class="cls-1" d="M221.64,110.25c-2.08,0-3.17-3.05-3.17-6.07s1.09-6.07,3.17-6.07,3.17,3.05,3.17,6.07S223.72,110.25,221.64,110.25Zm0-10.14c-.36.11-1.17,1.59-1.17,4.07s.83,4,1.18,4.07c.34-.08,1.16-1.57,1.16-4.07S222,100.21,221.64,100.11Zm0,0Z"/><path class="cls-1" d="M229.37,110.25c-2.08,0-3.17-3.05-3.17-6.07s1.09-6.07,3.17-6.07,3.17,3.05,3.17,6.07S231.45,110.25,229.37,110.25Zm0-10.14c-.36.11-1.17,1.59-1.17,4.07s.83,4,1.18,4.07c.34-.08,1.16-1.57,1.16-4.07S229.72,100.21,229.37,100.11Z"/><path class="cls-1" d="M237.09,110.25c-2.08,0-3.17-3.05-3.17-6.07s1.09-6.07,3.17-6.07,3.17,3.05,3.17,6.07S239.18,110.25,237.09,110.25Zm0-10.14c-.36.11-1.17,1.59-1.17,4.07s.83,4,1.18,4.07c.34-.08,1.17-1.57,1.17-4.07S237.45,100.21,237.09,100.11Z"/><path class="cls-1" d="M248.44,109.52c-2.59,0-4.62-2.88-4.62-6.55s2-6.55,4.62-6.55,4.62,2.88,4.62,6.55S251,109.52,248.44,109.52Zm0-11.11c-1.4,0-2.62,2.13-2.62,4.55s1.23,4.55,2.62,4.55,2.62-2.13,2.62-4.55S249.84,98.41,248.44,98.41Z"/><path class="cls-1" d="M210.7,105.91h-.45c-5.69-.24-7.67-.24-7.68-.24v-2c.08,0,2,0,7.77.24a3.66,3.66,0,0,0,2.86-.75c1.1-1.12,1-3.66.78-6.59,0-.57-.07-1.16-.09-1.75-.12-2.72-.77-3.54-1-3.76a.5.5,0,0,0-.37-.14l-.13,0h-.08l-9.9.24,0-2,9.8-.24a2.47,2.47,0,0,1,1.85.44c1.16.83,1.81,2.62,1.93,5.34,0,.58.06,1.16.09,1.72.2,3.41.37,6.36-1.35,8.11A5.21,5.21,0,0,1,210.7,105.91Z"/><rect class="cls-1" x="203.05" y="98.47" width="7.49" height="2" transform="translate(-3.1 6.72) rotate(-1.85)"/><rect class="cls-1" x="202.56" y="93.15" width="10.14" height="2" transform="translate(-2.19 5) rotate(-1.37)"/><path class="cls-1" d="M177,97.21c-3.19,0-4.38-1.19-4.38-4.38a3.51,3.51,0,0,1,1-2.76,2.72,2.72,0,0,1,1.91-.65l10.08-.48.09,2-10.23.49h-.09a.71.71,0,0,0-.46.17,1.76,1.76,0,0,0-.35,1.25c0,2.11.27,2.38,2.38,2.38,2.61,0,8.59-.24,8.65-.24l.08,2C185.46,97,179.62,97.21,177,97.21Z"/><path class="cls-1" d="M177,106.38c-3.19,0-4.38-1.19-4.38-4.38a3.5,3.5,0,0,1,1-2.76,2.72,2.72,0,0,1,1.92-.65l10.33-.24,0,2-10.46.24h-.07a.71.71,0,0,0-.46.17,1.76,1.76,0,0,0-.35,1.25c0,2.11.27,2.38,2.38,2.38,2.61,0,9.55-.24,9.62-.24l.07,2C186.38,106.15,179.62,106.38,177,106.38Z"/><path class="cls-2" d="M318.94,53.23"/><path class="cls-1" d="M193.39,287.71c-17,0-33.75-7-47.05-19.84l1.39-1.44c12.93,12.43,29.15,19.28,45.67,19.28,32.11,0,60.31-25.1,68.56-61l1.95.45C255.44,262,226.44,287.71,193.39,287.71Z"/><path class="cls-1" d="M262.67,186.21c-7-37.58-36.27-64.86-69.52-64.86-22.88,0-44.49,12.82-57.82,34.3l-1.7-1.05c13.7-22.07,35.95-35.24,59.52-35.24,16.89,0,33.35,6.77,46.35,19.08,12.74,12.06,21.67,28.9,25.13,47.41Z"/><path class="cls-1" d="M256.63,188.6C250.81,151.73,222.89,125,190.25,125v-2c33.63,0,62.38,27.47,68.35,65.31Z"/><path class="cls-2" d="M121.92,202.2"/><path class="cls-1" d="M217.49,275.05l-.87-1.8C235,264.43,249.3,246.08,255,224.16l1.94.5C251.09,247.15,236.36,266,217.49,275.05Z"/><path class="cls-1" d="M188.32,270.32a47.82,47.82,0,0,1-27.37-8.87l1.14-1.64a45.82,45.82,0,0,0,26.23,8.51c23.48,0,43.86-18.71,50.7-46.56l1.94.48C233.9,251,212.74,270.32,188.32,270.32Z"/><path class="cls-1" d="M240.93,194.09c-3.36-32.66-26-57.29-52.61-57.29-16.4,0-31.58,9.16-41.65,25.13L145,160.86c10.45-16.56,26.24-26.06,43.34-26.06,27.66,0,51.13,25.4,54.6,59.09Z"/><path class="cls-1" d="M187.11,264.77a45.31,45.31,0,0,1-22.71-6.17l1-1.74a43.34,43.34,0,0,0,21.72,5.9c16.49,0,31.49-9.24,41.15-25.35l1.71,1C219.95,255.18,204.32,264.77,187.11,264.77Z"/><path class="cls-1" d="M236.82,194.36c-3.59-29.23-25.07-51.27-50-51.27a45.45,45.45,0,0,0-31.18,12.77l-1.37-1.45a47.45,47.45,0,0,1,32.56-13.31c25.89,0,48.22,22.8,51.94,53Z"/><path class="cls-1" d="M186.87,259.94a40.54,40.54,0,0,1-20.8-5.94l1-1.71a38.54,38.54,0,0,0,19.77,5.65c19.5,0,36.67-15.32,42.73-38.13l1.93.51C225.24,244,207.29,259.94,186.87,259.94Z"/><path class="cls-1" d="M231.51,195.06c-2.87-27.71-22.06-48.6-44.64-48.6-13.67,0-26.47,7.67-35.14,21l-1.68-1.09c9-13.95,22.46-21.94,36.81-21.94,23.61,0,43.66,21.66,46.63,50.39Z"/><path class="cls-1" d="M219.19,196.68c-.69-22.74-13.15-43.05-31-50.54l.77-1.84c18.57,7.78,31.53,28.81,32.24,52.32Z"/><path class="cls-1" d="M172.87,256.48H171v-2h1.87c14.92,0,29.13-8.84,38-23.66l1.71,1C203.35,247.27,188.49,256.48,172.87,256.48Z"/><path class="cls-1" d="M216.83,222.68l-2-.39a24.62,24.62,0,0,1,1.26-4L218,219A22.65,22.65,0,0,0,216.83,222.68Z"/><path class="cls-1" d="M223.06,195.74c-1.4-23.07-14.52-42.9-32.66-49.34l.67-1.88c18.88,6.71,32.54,27.24,34,51.1Z"/><path class="cls-1" d="M202.19,249.12,201,247.51c9.18-6.77,15.9-16.69,19.43-28.69l1.92.56C218.7,231.81,211.73,242.09,202.19,249.12Z"/><path class="cls-1" d="M182.55,196l-2-.25a56.19,56.19,0,0,0,.23-6.39c0-14.91-3.79-28.67-10.95-39.78l1.68-1.08c7.37,11.44,11.27,25.57,11.27,40.86A57.48,57.48,0,0,1,182.55,196Z"/><path class="cls-2" d="M88.36,189.4"/><path class="cls-1" d="M172.27,229l-1.71-1c3.14-5.16,6.63-11.25,8.33-18.31l1.94.47C179.07,217.5,175.49,223.75,172.27,229Z"/><path class="cls-2" d="M94.4,190.85"/><path class="cls-1" d="M174.64,238,173,236.86a71.64,71.64,0,0,0,9.52-18.57l1.89.65A73.66,73.66,0,0,1,174.64,238Z"/><path class="cls-1" d="M188.59,197.48l-2-.22a60,60,0,0,0,.23-6.65c0-15.94-4.23-31.27-11.91-43.16l1.68-1.08c7.89,12.21,12.23,27.93,12.23,44.24A62.38,62.38,0,0,1,188.59,197.48Z"/><path class="cls-1" d="M118.3,309.68a7,7,0,0,1-4.93-2.39c-9.25-9.39-15.28-45.86-14.66-88.68.63-43,7.57-79.36,16.87-88.33A7,7,0,0,1,120.5,128c7.34.33,11.92,15.19,14.48,27.6l-2,.4c-3.31-16.07-8-25.8-12.59-26a5.15,5.15,0,0,0-3.46,1.68c-8.81,8.49-15.64,45-16.26,86.92C100.1,260.29,106,297,114.8,305.88a5.07,5.07,0,0,0,3.51,1.8c5.63,0,11.31-13,15.19-34.91l2,.35C133,286.77,127.58,309.68,118.3,309.68Z"/><path class="cls-1" d="M119,309.48H108.4a5.11,5.11,0,0,1-1.84-.39l-.52-.19c-10.17-4.83-17.47-43.73-17-90.49.48-47.19,9.24-86.77,19.95-90.26a4.08,4.08,0,0,1,1.82-.31l8.66-.24.06,2-8.69.24a2.27,2.27,0,0,0-1,.14l-.15.06c-8.54,2.64-18.09,37.19-18.61,88.39-.52,50.43,7.61,84.63,15.8,88.64l.39.13a3.28,3.28,0,0,0,1.17.28H119Z"/><path class="cls-1" d="M125.55,280.71c-9.12,0-14-34.1-14-66.19s4.92-66.19,14-66.19c2.24,0,3.69,1.77,4.6,3.19l13.59,9.3-1.13,1.65-13.94-9.53-.11-.18c-1.34-2.15-2.32-2.43-3-2.43-5.69,0-12,26.36-12,64.19s6.34,64.19,12,64.19c1.18,0,2.39-1.17,3.71-3.58l1.76,1C129.93,278.07,128.18,280.71,125.55,280.71Z"/><path class="cls-1" d="M164.27,255.6a3,3,0,0,1-2-.86c-3.82-3.42-6.08-16.94-6.62-28.84a199.57,199.57,0,0,1,0-22.09c.67-9.22-.59-11.73-.6-11.75l-10.6-16.61c-6.89-10.72-5.95-13.45-4.64-14.58,4.37-3.58,18.78,10.5,25.79,18.45.4.48.78.91,1.15,1.33a27.23,27.23,0,0,1,2.31,2.88c.18.27,4.27,6.67,4.27,18.9s-.51,28.95-2.92,39.58h0c-1.91,8.46-3.07,13.58-6,13.58Zm-22.57-93.34a.85.85,0,0,0-.55.15c-.05,0-1.63,1.59,5,12L156.81,191c.18.3,1.6,3,.88,12.92a197.41,197.41,0,0,0,0,21.84c.68,15,3.58,25.32,6,27.45a1,1,0,0,0,.71.34c1.45,0,3-6.67,4.16-12h0c2.37-10.45,2.87-27,2.87-39.13,0-11.58-3.9-17.74-3.94-17.8A25.77,25.77,0,0,0,165.3,182c-.38-.44-.78-.88-1.17-1.35C152.78,167.76,144.18,162.26,141.69,162.26Z"/><path class="cls-2" d="M129.41,152.22"/><path class="cls-1" d="M124.44,279.79l-1.18-1.62c.7-.51,17.25-12.48,32.5-15.62.36-.06,8.09-1.5,10.09-10.82l2,.42a15.5,15.5,0,0,1-11.68,12.37C141.35,267.57,124.61,279.67,124.44,279.79Z"/><path class="cls-1" d="M120.37,157.31l-1.73-1c2.54-4.36,5.11-6.62,7.65-6.7a4.83,4.83,0,0,1,3.94,2.06l-1.66,1.11.83-.55-.83.56a2.83,2.83,0,0,0-2.24-1.17C124.59,151.68,122.47,153.7,120.37,157.31Z"/><path class="cls-1" d="M150,210c-1.65,0-3.36-1.37-4.59-2.49-5.36-4.89-15.37-4.85-16.54-3.84a11,11,0,0,0-.89.77c-1.7,1.58-4,3.73-12.16,3.09l.16-2c7.26.57,9.13-1.17,10.64-2.56a12.66,12.66,0,0,1,1-.86c2-1.76,13.24-1.46,19.14,3.92,2.28,2.08,3.21,2,3.5,1.92,1.37-.53,1.84-5.76,2.07-8.28.64-7.06-3.58-8.35-3.62-8.36l-33.31-9.17.53-1.93,33.32,9.18c.25.07,5.87,1.78,5.08,10.47-.54,6-1.21,9.13-3.34,10A2.69,2.69,0,0,1,150,210Z"/><path class="cls-1" d="M147.38,188.56a8.18,8.18,0,0,1-2.07-.37c-4.29-1.19-28.24-7.66-28.48-7.72l.52-1.93c.24.07,24.2,6.53,28.5,7.73a9.75,9.75,0,0,0,1.19.27c-.14-.38-.37-.91-.57-1.36-.33-.74-.74-1.66-1.1-2.68-1-2.88-5.67-4-7.37-4.17l-.16,0L118.28,173l.52-1.93,19.48,5.29c.86.11,7.4,1,9,5.48.33.95.71,1.79,1,2.53.75,1.68,1.24,2.79.5,3.65A1.73,1.73,0,0,1,147.38,188.56Z"/><path class="cls-1" d="M170.7,159.5a2.21,2.21,0,1,1,2.21-2.21A2.21,2.21,0,0,1,170.7,159.5Zm0-2.41a.21.21,0,0,0-.21.21c0,.23.41.23.41,0A.21.21,0,0,0,170.7,157.09Z"/><path class="cls-1" d="M177,182.2a2.21,2.21,0,1,1,2.21-2.21A2.21,2.21,0,0,1,177,182.2Zm0-2.41a.21.21,0,0,0-.21.21c0,.23.41.23.41,0A.21.21,0,0,0,177,179.78Z"/><path class="cls-1" d="M172.14,180.26a2.21,2.21,0,1,1,2.21-2.21A2.21,2.21,0,0,1,172.14,180.26Zm0-2.42a.21.21,0,0,0-.21.21c0,.23.41.23.41,0A.21.21,0,0,0,172.14,177.85Z"/><path class="cls-1" d="M176,176.4a2.21,2.21,0,1,1,2.21-2.21A2.21,2.21,0,0,1,176,176.4Zm0-2.42a.21.21,0,0,0-.21.21c0,.23.41.23.41,0A.21.21,0,0,0,176,174Z"/><path class="cls-1" d="M171.18,175.19a2.21,2.21,0,1,1,2.21-2.21A2.21,2.21,0,0,1,171.18,175.19Zm0-2.41a.21.21,0,0,0-.21.21c0,.23.41.23.41,0A.21.21,0,0,0,171.18,172.78Z"/><path class="cls-1" d="M174.8,170.61A2.21,2.21,0,1,1,177,168.4,2.21,2.21,0,0,1,174.8,170.61Zm0-2.41a.21.21,0,0,0-.21.21c0,.23.41.23.41,0A.21.21,0,0,0,174.8,168.19Z"/><path class="cls-1" d="M174.8,170.61A2.21,2.21,0,1,1,177,168.4,2.21,2.21,0,0,1,174.8,170.61Zm0-2.41a.21.21,0,0,0-.21.21c0,.23.41.23.41,0A.21.21,0,0,0,174.8,168.19Z"/><path class="cls-1" d="M167.8,164.81A2.21,2.21,0,1,1,170,162.6,2.21,2.21,0,0,1,167.8,164.81Zm0-2.41a.21.21,0,0,0-.21.21c0,.23.41.23.41,0A.21.21,0,0,0,167.8,162.4Z"/><path class="cls-1" d="M172.87,165.29a2.21,2.21,0,1,1,2.21-2.21A2.21,2.21,0,0,1,172.87,165.29Zm0-2.41a.21.21,0,0,0-.21.21c0,.23.41.23.41,0A.21.21,0,0,0,172.87,162.88Z"/><path class="cls-1" d="M169.73,169.64a2.21,2.21,0,1,1,2.21-2.21A2.21,2.21,0,0,1,169.73,169.64Zm0-2.41a.21.21,0,0,0-.21.21c0,.23.41.23.41,0A.21.21,0,0,0,169.73,167.23Z"/><path class="cls-1" d="M173.11,185.82a2.21,2.21,0,1,1,2.21-2.21A2.21,2.21,0,0,1,173.11,185.82Zm0-2.41a.21.21,0,0,0-.21.21c0,.23.41.23.41,0A.21.21,0,0,0,173.11,183.4Z"/><path class="cls-1" d="M177.46,188.23a2.21,2.21,0,1,1,2.21-2.21A2.21,2.21,0,0,1,177.46,188.23Zm0-2.41a.21.21,0,0,0-.21.21c0,.23.41.23.41,0A.21.21,0,0,0,177.46,185.82Z"/><path class="cls-1" d="M175.52,212.13a2.21,2.21,0,1,1,2.21-2.21A2.21,2.21,0,0,1,175.52,212.13Zm0-2.41a.21.21,0,0,0-.21.21c0,.23.41.23.41,0A.21.21,0,0,0,175.52,209.72Z"/><path class="cls-1" d="M177,206.34a2.21,2.21,0,1,1,2.21-2.21A2.21,2.21,0,0,1,177,206.34Zm0-2.41a.21.21,0,0,0-.21.21c0,.23.41.23.41,0A.21.21,0,0,0,177,203.93Z"/><path class="cls-1" d="M173.59,197.65a2.21,2.21,0,1,1,2.21-2.21A2.21,2.21,0,0,1,173.59,197.65Zm0-2.41a.21.21,0,0,0-.21.21c0,.23.41.23.41,0A.21.21,0,0,0,173.59,195.23Z"/><path class="cls-1" d="M174.08,202.48a2.21,2.21,0,1,1,2.21-2.21A2.21,2.21,0,0,1,174.08,202.48Zm0-2.42a.21.21,0,0,0-.21.21c0,.23.41.23.41,0A.21.21,0,0,0,174.08,200.06Z"/><path class="cls-1" d="M173.59,217.93a2.21,2.21,0,1,1,2.21-2.21A2.21,2.21,0,0,1,173.59,217.93Zm0-2.41a.21.21,0,0,0-.21.21c0,.23.41.23.41,0A.21.21,0,0,0,173.59,215.52Z"/><path class="cls-1" d="M182.68,199.16c-2.58-3.6-6.87-9.49-7.38-10-.18-.18-.41-.44-.66-.75a7.33,7.33,0,0,0-2.77-2.37,2.94,2.94,0,0,0-2.11.14l-1-1.71a4.84,4.84,0,0,1,3.69-.35c1.6.46,2.89,2,3.75,3,.21.25.4.48.55.63.74.74,6.45,8.68,7.59,10.26Z"/><rect class="cls-1" x="174.77" y="184.35" width="2" height="19.04" transform="translate(-83.07 155.36) rotate(-39.34)"/><rect class="cls-1" x="175.13" y="188.46" width="2" height="16.37" transform="translate(-83.06 146.54) rotate(-37.21)"/><path class="cls-1" d="M200.72,229.62c-2.34,0-3.94-3-4.11-3.3l1.77-.92c.48.92,1.56,2.3,2.38,2.22.65,0,1.41-1,2.09-2.62l1.85.77c-1,2.49-2.33,3.79-3.85,3.86Z"/><path class="cls-1" d="M205.59,232.94c-3.34,0-7.12-4.15-7.64-4.73l1.5-1.33c1.6,1.81,5.44,5.11,7.06,3.76l1.38-1.39,1.41,1.41-1.45,1.45A3.44,3.44,0,0,1,205.59,232.94Z"/><path class="cls-1" d="M213.78,232.21a2.75,2.75,0,0,1-.52,0l-1.83-.28a21,21,0,0,1-5.65-2.85,4.17,4.17,0,0,1-1-4.79l1.83.81a2.17,2.17,0,0,0,.46,2.46A18.82,18.82,0,0,0,212,230l1.7.25h0a1.45,1.45,0,0,0,1-.28c.54-.37,1.27-1.28,1.68-3.52a3.2,3.2,0,0,0-.52-2.67c-1.32-1.7-4.33-1.95-4.36-2l.14-2c.16,0,3.92.31,5.79,2.71a5.16,5.16,0,0,1,.91,4.26c-.44,2.4-1.31,4-2.61,4.87A3.47,3.47,0,0,1,213.78,232.21Z"/><path class="cls-1" d="M214.16,227.32c-1.67,0-3.93-1.42-7-4.36l1.39-1.44c4.51,4.36,5.78,3.77,5.83,3.74s.27-.58.22-.93c-.28-.47-2.78-1.6-5.33-2.34l.56-1.92c2.92.85,6.46,2.22,6.74,3.93a2.84,2.84,0,0,1-1.26,3A2.5,2.5,0,0,1,214.16,227.32Z"/><polygon class="cls-1" points="234.4 62.92 173.31 60.48 170.69 60.48 20.01 61.48 19.99 59.48 170.69 58.48 173.35 58.48 234.48 60.92 234.4 62.92"/><rect class="cls-1" x="214" y="321.77" width="2" height="7.62" transform="translate(-145.51 474.77) rotate(-79.04)"/><path class="cls-1" d="M384.1,158.5l-1.38-1.45a71.42,71.42,0,0,0,15.21-24l1.87.71A72.06,72.06,0,0,1,384.1,158.5Z"/><path class="cls-1" d="M139.07,89.93v-.24a2.94,2.94,0,0,0-2.9-2.9,2.79,2.79,0,0,0-2.9,2.9,2.94,2.94,0,0,0,2.9,2.9,3.14,3.14,0,0,0,2.9-1.93l-1.21-.24a1.63,1.63,0,0,1-1.45,1,2.07,2.07,0,0,1-1.69-1.45h4.35Zm-2.9-2.17A1.53,1.53,0,0,1,137.62,89h-3.14A1.82,1.82,0,0,1,136.17,87.76Z"/><rect class="cls-1" x="130.86" y="86.79" width="1.45" height="5.55"/><path class="cls-1" d="M131.58,84.38a1,1,0,1,0,1,1c-.24-.48-.48-1-1-1"/><polygon class="cls-1" points="121.2 84.86 121.2 88 118.06 88 118.06 84.86 116.37 84.86 116.37 92.34 118.06 92.34 118.06 89.2 121.2 89.2 121.2 92.34 122.89 92.34 122.89 84.86 121.2 84.86"/><path class="cls-1" d="M128.2,86.79V87a3.43,3.43,0,0,0-1.45-.48,2.9,2.9,0,0,0,0,5.79,3.43,3.43,0,0,0,1.45-.48v.24h1.45V86.55H128.2Zm-1.45,4.35a1.69,1.69,0,1,1,1.69-1.69A1.65,1.65,0,0,1,126.75,91.14Z"/><path class="cls-1" d="M142.2,86.07a2.87,2.87,0,0,0-2.41,2.9V92.1h1.45V88.72a1.35,1.35,0,0,1,1.21-1.45Z"/></svg>