<svg id="Слой_1" data-name="Слой 1" xmlns="http://www.w3.org/2000/svg" width="679" height="505.9" viewBox="0 0 679 505.9"><defs><style>.cls-1{fill:#47c5ff;}.cls-2{fill:none;stroke:#47c5ff;stroke-miterlimit:10;stroke-width:2.08px;}</style></defs><title>slide-2</title><path class="cls-1" d="M354.72,135.59h-80c-5.65-.07-18.85-.66-19.76-4.77S251,106,252.67,94a12.73,12.73,0,0,0,.13-1.69c.05-1.51.11-3.21,1.53-4.53,1.78-1.64,5.33-2.25,11.5-2h89.1v2.08H265.79c-5.47-.25-8.74.22-10,1.42-.75.69-.81,1.61-.86,3.07a14.72,14.72,0,0,1-.15,1.93c-1.64,11.69,1.49,32.48,2.28,36.05.35,1.57,8.64,3,17.74,3.14h80Z"/><path class="cls-1" d="M354.72,150H273.91c-2.14-.06-12.82-.49-15.12-3.44a2.36,2.36,0,0,1-.53-1.62,8.59,8.59,0,0,0-.73-.52l-.28-.17-.13-.3c-.12-.29-3-7.21-3-19.57h2.08c0,10.53,2.2,17.06,2.72,18.47,1.42.95,1.53,1.48,1.51,1.9l0,.51,0,0c1.25,1.6,8.65,2.51,13.51,2.64h80.78Z"/><path class="cls-1" d="M354.72,148.08H273.91c-2.09,0-12.64-.13-15.11-2.6l1.47-1.47c1.37,1.37,8.8,2,13.63,2h80.81Z"/><path class="cls-1" d="M354.72,146.42H275.81l-.3-.51c-.09-.15-2.21-3.84-2.64-11.3l2.08-.12a28,28,0,0,0,2.1,9.85h77.67Z"/><rect class="cls-1" x="275.71" y="143.08" width="2.63" height="2.08" transform="translate(52.63 361.3) rotate(-71.55)"/><rect class="cls-1" x="277.33" y="135.69" width="4.61" height="2.08" transform="translate(61.42 358.71) rotate(-71.55)"/><path class="cls-2" d="M284.32,134.55"/><rect class="cls-1" x="284.32" y="135.17" width="3.33" height="4.17"/><rect class="cls-1" x="284.95" y="134.34" width="2.08" height="1.88"/><rect class="cls-1" x="285.26" y="135.38" width="3.95" height="2.08" transform="translate(66.91 365.71) rotate(-71.55)"/><rect class="cls-1" x="283.8" y="134.47" width="2.08" height="3.89" transform="translate(-26.12 81.2) rotate(-15.52)"/><rect class="cls-1" x="295.78" y="135.17" width="3.33" height="4.17"/><rect class="cls-1" x="296.4" y="134.34" width="2.08" height="1.88"/><rect class="cls-1" x="296.72" y="135.38" width="3.95" height="2.08" transform="translate(74.74 376.58) rotate(-71.55)"/><rect class="cls-1" x="295.26" y="134.47" width="2.08" height="3.89" transform="translate(-25.7 84.27) rotate(-15.52)"/><polygon class="cls-1" points="310.77 139.34 307.54 139.34 307.12 135.17 310.77 135.17 310.77 139.34"/><rect class="cls-1" x="308.07" y="134.34" width="2.08" height="1.88"/><rect class="cls-1" x="308.31" y="135.38" width="3.89" height="2.08" transform="translate(95.81 398.87) rotate(-74.48)"/><rect class="cls-1" x="306.82" y="134.44" width="2.08" height="3.95" transform="translate(-27.34 104.35) rotate(-18.43)"/><rect class="cls-1" x="318.89" y="135.17" width="3.33" height="4.17"/><rect class="cls-1" x="319.52" y="134.34" width="2.08" height="1.88"/><rect class="cls-1" x="319.83" y="135.38" width="3.95" height="2.08" transform="translate(90.55 398.51) rotate(-71.55)"/><rect class="cls-1" x="318.27" y="134.44" width="2.08" height="3.95" transform="translate(-26.75 107.98) rotate(-18.43)"/><rect class="cls-1" x="336.39" y="135.17" width="3.33" height="4.17"/><rect class="cls-1" x="337.02" y="134.34" width="2.08" height="1.88"/><rect class="cls-1" x="337.26" y="135.38" width="3.89" height="2.08" transform="translate(117.02 426.77) rotate(-74.48)"/><rect class="cls-1" x="335.76" y="134.44" width="2.08" height="3.95" transform="translate(-25.85 113.42) rotate(-18.42)"/><rect class="cls-1" x="347.43" y="135.17" width="3.33" height="4.17"/><rect class="cls-1" x="348.05" y="134.34" width="2.08" height="1.88"/><rect class="cls-1" x="348.37" y="135.38" width="3.95" height="2.08" transform="translate(110.14 425.65) rotate(-71.57)"/><rect class="cls-1" x="346.91" y="134.47" width="2.08" height="3.89" transform="translate(-23.82 98.09) rotate(-15.52)"/><path class="cls-1" d="M354.72,143.92H275.4l1.91-6H327.8l.87,2.92.62-2.92h25.63V140H331l-.4,1.87h24.14Zm-76.47-2.08h48.52l-.54-1.87h-47.4Z"/><path class="cls-1" d="M328.06,138.92H326a15.43,15.43,0,0,1,.69-4.53l2,.73A13.51,13.51,0,0,0,328.06,138.92Z"/><path class="cls-1" d="M331.11,139.31l-1.93-.77c1.75-4.36,1.94-4.55,2.11-4.72l1.47,1.47C332.69,135.45,331.83,137.5,331.11,139.31Z"/><path class="cls-1" d="M354.72,135.59V133.5h80c9.09-.11,17.38-1.58,17.73-3.14.79-3.57,3.92-24.37,2.28-36.08a14.68,14.68,0,0,1-.15-1.91c0-1.45-.12-2.38-.86-3.07-1.3-1.2-4.56-1.66-10-1.42H354.51V85.81h89.14c6.13-.28,9.68.33,11.45,2,1.42,1.31,1.48,3,1.53,4.53a12.68,12.68,0,0,0,.13,1.66c1.68,12-1.37,32.65-2.3,36.85s-14.12,4.71-19.75,4.77Z"/><path class="cls-1" d="M354.51,150v-2.08h80.81c4.83-.13,12.23-1,13.48-2.64l.05-.08-.06-.45c0-.42.08-1,1.51-1.9.52-1.41,2.72-7.94,2.72-18.47h2.08c0,12.36-2.88,19.28-3,19.57l-.13.3-.28.17a8.62,8.62,0,0,0-.73.52,2.36,2.36,0,0,1-.53,1.62c-2.3,2.95-13,3.38-15.09,3.44Z"/><path class="cls-1" d="M435.32,148.08H354.51V146h80.81c4.84,0,12.27-.62,13.64-2l1.47,1.47C448,148,437.41,148.08,435.32,148.08Z"/><path class="cls-1" d="M433.63,146.42H354.72v-2.08h77.67a28,28,0,0,0,2.1-9.85l2.08.12c-.43,7.46-2.55,11.15-2.64,11.3Z"/><rect class="cls-1" x="431.26" y="142.77" width="2.08" height="2.71" transform="translate(-22.18 177.33) rotate(-22.62)"/><rect class="cls-1" x="428.65" y="134.46" width="2.08" height="4.55" transform="translate(-21.03 123.32) rotate(-15.95)"/><path class="cls-2" d="M425.11,134.75"/><rect class="cls-1" x="421.78" y="135.17" width="3.33" height="4.17"/><rect class="cls-1" x="422.41" y="134.34" width="2.08" height="1.88"/><rect class="cls-1" x="421.16" y="134.44" width="2.08" height="3.95" transform="translate(-21.47 140.4) rotate(-18.42)"/><rect class="cls-1" x="422.65" y="135.38" width="3.89" height="2.08" transform="translate(179.57 509.05) rotate(-74.48)"/><rect class="cls-1" x="410.33" y="135.17" width="3.33" height="4.17"/><rect class="cls-1" x="410.95" y="134.23" width="1.89" height="2.08" transform="translate(232 529.73) rotate(-83.67)"/><rect class="cls-1" x="409.7" y="134.44" width="2.08" height="3.95" transform="translate(-22.06 136.78) rotate(-18.42)"/><rect class="cls-1" x="411.19" y="135.38" width="3.89" height="2.08" transform="translate(171.18 498.01) rotate(-74.48)"/><rect class="cls-1" x="398.66" y="135.17" width="3.33" height="4.17"/><rect class="cls-1" x="399.29" y="134.34" width="2.08" height="1.88"/><rect class="cls-1" x="398.14" y="134.47" width="2.08" height="3.89" transform="translate(-21.95 111.8) rotate(-15.52)"/><rect class="cls-1" x="399.6" y="135.38" width="3.95" height="2.08" transform="translate(145.07 474.17) rotate(-71.55)"/><rect class="cls-1" x="387.21" y="135.17" width="3.33" height="4.17"/><rect class="cls-1" x="387.83" y="134.34" width="2.08" height="1.88"/><rect class="cls-1" x="386.58" y="134.44" width="2.08" height="3.95" transform="translate(-23.25 129.58) rotate(-18.43)"/><rect class="cls-1" x="388.07" y="135.38" width="3.89" height="2.08" transform="translate(154.24 475.74) rotate(-74.48)"/><rect class="cls-1" x="369.71" y="135.17" width="3.33" height="4.17"/><rect class="cls-1" x="370.34" y="134.34" width="2.08" height="1.88"/><rect class="cls-1" x="369.19" y="134.47" width="2.08" height="3.89" transform="translate(-23 104.05) rotate(-15.52)"/><rect class="cls-1" x="370.65" y="135.38" width="3.95" height="2.08" transform="translate(125.28 446.71) rotate(-71.55)"/><rect class="cls-1" x="358.68" y="135.17" width="3.33" height="4.17"/><rect class="cls-1" x="359.3" y="134.34" width="2.08" height="1.88"/><rect class="cls-1" x="358.05" y="134.44" width="2.08" height="3.95" transform="translate(-24.71 120.56) rotate(-18.43)"/><rect class="cls-1" x="359.54" y="135.38" width="3.89" height="2.08" transform="translate(133.34 448.24) rotate(-74.48)"/><path class="cls-1" d="M434.24,143.92H354.93v-2.08h24.14l-.4-1.87H354.72v-2.08h25.63l.66,2.92.83-2.92h50.49Zm-51.36-2.08H431.4l-.59-1.87h-47.4Z"/><path class="cls-1" d="M381.59,138.92a13.54,13.54,0,0,0-.56-3.8l2-.73a15.44,15.44,0,0,1,.69,4.53Z"/><path class="cls-1" d="M378.54,139.31c-.72-1.81-1.58-3.86-1.76-4.17l1.59-1.33c.17.17.36.36,2.11,4.72Z"/><path class="cls-1" d="M494.26,390.72H215.59V232.23H494.26Zm-276.59-2.08H492.18V234.31H217.67Z"/><path class="cls-1" d="M500.93,399.05H210.38l-.21-172.66H500.93ZM212.47,397H498.84V228.48H212.26Z"/><rect class="cls-1" x="212.26" y="391.76" width="287.83" height="2.08"/><polygon class="cls-1" points="485.31 401.55 476.35 401.55 476.35 397.8 478.43 397.8 478.43 399.47 483.22 399.47 483.22 397.8 485.31 397.8 485.31 401.55"/><path class="cls-1" d="M445.81,417.1a42.94,42.94,0,0,1-8-1.2c-.46-.14-36.68-11.52-37.47-17.33l2.06-.28c.41,3,24,11.86,35.93,15.6a40.7,40.7,0,0,0,7.54,1.14,27.23,27.23,0,0,0-4.15-2.55L412.39,399l.87-1.89,29.37,13.54c6.55,3.32,6,4.73,5.84,5.34S447.58,417.1,445.81,417.1Z"/><path class="cls-1" d="M264.45,417.09c-1.76,0-2.39-.44-2.64-1.15s-.71-2,5.8-5.32L297,397.07l.87,1.89-29.37,13.54a27.1,27.1,0,0,0-4.12,2.53,41.53,41.53,0,0,0,7.63-1.16c11.89-3.72,35.43-12.62,35.84-15.58l2.06.28c-.79,5.81-37,17.19-37.38,17.31A43.45,43.45,0,0,1,264.45,417.09Z"/><path class="cls-1" d="M165.81,254.51H26.27a2.92,2.92,0,0,1-2.92-2.92V2.92A2.92,2.92,0,0,1,26.27,0H165.19a2.86,2.86,0,0,1,2.92,2.71c0,10.62.1,67.58.21,124.54s.21,113.93.21,124.55A2.68,2.68,0,0,1,165.81,254.51ZM26.27,2.08a.82.82,0,0,0-.83.83V251.6a.82.82,0,0,0,.83.83H165.81a.61.61,0,0,0,.63-.62c0-10.62-.1-67.59-.21-124.55S166,13.33,166,2.71a.82.82,0,0,0-.83-.63Z"/><path class="cls-1" d="M34.11,472.83H33.9c-2.17-.1-4.06-1.69-5.62-4.73a7.39,7.39,0,0,0-2.22.09h0a2.94,2.94,0,0,1-3.08-2.9l.21-198.61,0-.12a3.17,3.17,0,0,1,1.88-2.38l1.83-.69H165.74l1.94,1.46a3,3,0,0,1,1,2.29V465.49a2.92,2.92,0,0,1-2.92,2.92h-2.25c-.63,1.23-2.24,3.78-4.85,4.08-2.24.24-4.5-1.19-6.76-4.28H40.79C39.9,469.5,37.3,472.83,34.11,472.83ZM27.48,466a7.45,7.45,0,0,1,1.75.19l.47.12.21.44c1.25,2.61,2.62,4,4.08,4,2.29.07,4.62-2.94,5.34-4.12l.3-.5H153l.31.45c1.87,2.69,3.63,4,5.13,3.85,1.78-.2,3.1-2.55,3.46-3.44l.26-.65h3.62a.82.82,0,0,0,.83-.83V267.22a.87.87,0,0,0-.32-.72l-1.27-.94H27.11l-1.34.57c-.21.07-.41.37-.54.82L25,465.29a.82.82,0,0,0,.83.83A7.79,7.79,0,0,1,27.48,466Z"/><path class="cls-1" d="M166.44,265.55H25.9L25.65,260A3.35,3.35,0,0,1,29,256.59H163.52a2.92,2.92,0,0,1,2.92,2.92ZM27.89,263.47H164.36v-4a.82.82,0,0,0-.83-.83H29a1.27,1.27,0,0,0-1.25,1.25Z"/><rect class="cls-1" x="28.56" y="252.75" width="2.08" height="5.6" transform="translate(-163.35 85.39) rotate(-41.98)"/><rect class="cls-1" x="159.93" y="254.62" width="5.31" height="2.08" transform="translate(-136.34 206.28) rotate(-48.17)"/><path class="cls-1" d="M101,101.43H92.92a2.81,2.81,0,0,1-2.71-2.71L90,40.41a2.82,2.82,0,0,1,2.71-2.71H101a2.81,2.81,0,0,1,2.71,2.71V98.72A2.81,2.81,0,0,1,101,101.43ZM92.71,39.78a.79.79,0,0,0-.62.63l.21,58.31a.78.78,0,0,0,.62.63H101a.79.79,0,0,0,.63-.62V40.41a.78.78,0,0,0-.63-.63Z"/><path class="cls-1" d="M101,94.76H92.71V89.35H101Zm-6.25-2.08H99V91.43H94.79Z"/><path class="cls-1" d="M101,90.39H92.71V85H101Zm-6.25-2.08H99V87.06H94.79Z"/><path class="cls-1" d="M101,86H92.71V80.6H101Zm-6.25-2.08H99V82.69H94.79Z"/><path class="cls-1" d="M100,100H93.8l-.32-6H100Zm-4.22-2.08h2.14V96H95.68Z"/><path class="cls-1" d="M95.63,80.39a2.08,2.08,0,1,1,2.08-2.08A2.09,2.09,0,0,1,95.63,80.39Zm0-3.12v1h0Z"/><path class="cls-1" d="M98.75,80.39a2.08,2.08,0,1,1,2.08-2.08A2.09,2.09,0,0,1,98.75,80.39Zm0-3.12v1h0Z"/><path class="cls-1" d="M95.63,75.6a2.08,2.08,0,1,1,2.08-2.08A2.09,2.09,0,0,1,95.63,75.6Zm0-3.12v1h0Z"/><path class="cls-1" d="M95.63,72.48a2.08,2.08,0,1,1,2.08-2.08A2.09,2.09,0,0,1,95.63,72.48Zm0-3.12v1h0Z"/><path class="cls-1" d="M95.63,69.36a2.08,2.08,0,1,1,2.08-2.08A2.09,2.09,0,0,1,95.63,69.36Zm0-3.12v1h0Z"/><path class="cls-1" d="M95.63,66.23a2.08,2.08,0,1,1,2.08-2.08A2.09,2.09,0,0,1,95.63,66.23Zm0-3.12v1h0Z"/><path class="cls-1" d="M95.63,63.11A2.08,2.08,0,1,1,97.71,61,2.09,2.09,0,0,1,95.63,63.11Zm0-3.12v1h0Z"/><path class="cls-1" d="M95.63,60.19a2.08,2.08,0,1,1,2.08-2.08A2.09,2.09,0,0,1,95.63,60.19Zm0-3.12v1h0Z"/><path class="cls-1" d="M95.63,57.07A2.08,2.08,0,1,1,97.71,55,2.09,2.09,0,0,1,95.63,57.07Zm0-3.12v1h0Z"/><rect class="cls-1" x="156.65" y="461.95" width="2.08" height="10.42" transform="translate(-315.4 606.03) rotate(-87.71)"/><rect class="cls-1" x="29.19" y="465.91" width="11.04" height="2.08"/><path class="cls-1" d="M517.38,473.62h-1l-323.86-.42L192,415.09H517.38Zm-322.83-2.5,320.75.41V417.17H194.15Z"/><path class="cls-1" d="M192.48,461.33l-.22-34.16,155.2.63,15.85,16.76-32.93,16.35h-.45Zm1.87-32.07.19,30,135.35-.41,30-14.89-13.31-14.07Z"/><path class="cls-1" d="M679,497.77h-1L.68,497.57,0,471.12H679ZM2.71,495.48l674.21.21V473.2H2.14Z"/><path class="cls-1" d="M4.4,505.9V495.48h1l668.77.21v10h-1Zm2.08-8.33v6.25l665.64-.21v-5.83Z"/><path class="cls-1" d="M670,289.08H540.29a6.36,6.36,0,0,1-6.25-6.46V23.54a5.21,5.21,0,0,1,5.21-5.21H668.17a5.21,5.21,0,0,1,5.21,5.21L673.17,286A3.13,3.13,0,0,1,670,289.08ZM539.25,20.41a3.13,3.13,0,0,0-3.12,3.12V282.63a4.28,4.28,0,0,0,4.17,4.37H670a1,1,0,0,0,1-1l.21-262.43a3.13,3.13,0,0,0-3.12-3.12Z"/><path class="cls-1" d="M591.77,364.2c-22.84,0-43.87-.08-52.55-.34a4.4,4.4,0,0,1-3.34-1.15,5.19,5.19,0,0,1-1.62-3.84c0-6,.1-17.82.21-29.75.11-12.13.21-24.35.21-30.65a5.21,5.21,0,0,1,5.21-5.21H667.34a5.21,5.21,0,0,1,5.21,5.21v60.4a5.21,5.21,0,0,1-5.21,5.21l-21.4,0C630.59,364.15,610.57,364.2,591.77,364.2Zm-52.61-2.42c15.91.48,72.79.34,106.78.25l21.4,0a3.13,3.13,0,0,0,3.12-3.12v-60.4a3.13,3.13,0,0,0-3.12-3.12H539.87a3.13,3.13,0,0,0-3.12,3.12c0,6.3-.11,18.54-.21,30.67-.1,11.92-.21,23.74-.21,29.73a3.11,3.11,0,0,0,.94,2.31A2.39,2.39,0,0,0,539.15,361.78Z"/><path class="cls-1" d="M666.5,467.57H540.29a5.21,5.21,0,0,1-5.21-5.21c-.1-7.9-.21-26.33-.31-44.15s-.21-36.24-.31-44.15a4.61,4.61,0,0,1,1.22-3.53,5.38,5.38,0,0,1,4-1.69H666.5a5.21,5.21,0,0,1,5.21,5.21v88.31A5.21,5.21,0,0,1,666.5,467.57ZM539.67,370.94a3.3,3.3,0,0,0-2.45,1,2.61,2.61,0,0,0-.68,2c.11,8,.21,26.42.32,44.24s.21,36.24.31,44.15a3.13,3.13,0,0,0,3.12,3.14H666.5a3.13,3.13,0,0,0,3.12-3.12V374.06a3.13,3.13,0,0,0-3.12-3.12Z"/><rect class="cls-1" x="536.33" y="363.02" width="2.08" height="6.87"/><rect class="cls-1" x="536.23" y="288.25" width="2.08" height="6.25" transform="matrix(1, -0.03, 0.03, 1, -9.37, 17.99)"/><rect class="cls-1" x="669" y="288.25" width="2.08" height="6.25"/><rect class="cls-1" x="668.38" y="363.44" width="2.08" height="6.46"/><path class="cls-1" d="M546.26,472.9h-.08c-3.23-.08-5.19-5-5.4-5.58l1.95-.74c.52,1.37,2.06,4.2,3.5,4.23,1,0,2.33-1.54,3.52-4.28l1.91.83C550,471.09,548.28,472.9,546.26,472.9Z"/><path class="cls-1" d="M660.18,472.9h-.08c-3.23-.08-5.19-5-5.4-5.58l1.95-.74c.52,1.37,2.06,4.2,3.5,4.23,1.1,0,2.33-1.54,3.52-4.28l1.91.83C664,471.09,662.2,472.9,660.18,472.9Z"/><path class="cls-1" d="M607.77,101.43h-7.5a3,3,0,0,1-3.12-3.12V62.9a3,3,0,0,1,3.12-3.12h7.5a3,3,0,0,1,3.12,3.12V98.31A3,3,0,0,1,607.77,101.43Zm-7.5-39.57a.94.94,0,0,0-1,1V98.31a.94.94,0,0,0,1,1h7.5a.94.94,0,0,0,1-1V62.9a.94.94,0,0,0-1-1Z"/><path class="cls-1" d="M604.23,99.35a3.54,3.54,0,1,1,3.54-3.54A3.54,3.54,0,0,1,604.23,99.35Zm0-5a1.46,1.46,0,1,0,1.46,1.46A1.46,1.46,0,0,0,604.23,94.35Z"/><path class="cls-1" d="M607.15,79.56h-6A2,2,0,0,1,599,77.69V66a2,2,0,0,1,2.08-2.08h6A2,2,0,0,1,609.23,66V77.48A2,2,0,0,1,607.15,79.56Zm-6-2.1h6V66h-6Z"/><path class="cls-1" d="M609.23,84.14H599V79.77h10.21Zm-8.12-2.08h6v-.21h-6Z"/><path class="cls-1" d="M609.23,88.1H599V83.73h10.21ZM601.11,86h6v-.21h-6Z"/><path class="cls-1" d="M609.23,91.85H599V87.47h10.21Zm-8.12-2.08h6v-.21h-6Z"/><path class="cls-1" d="M101,33.53h0a1.39,1.39,0,0,0-1.25-1.46,1.2,1.2,0,0,0-1.25,1.25,1.34,1.34,0,0,0,1.25,1.25,1.41,1.41,0,0,0,1.25-.83h-.62c-.21.21-.42.42-.62.42a.55.55,0,0,1-.62-.62H101Zm-1.25-.83c.21,0,.62.21.62.42H99A1.08,1.08,0,0,1,99.79,32.7Z"/><rect class="cls-1" x="97.29" y="32.28" width="0.62" height="2.5"/><path class="cls-1" d="M97.71,31.24a.42.42,0,1,0,.42.42.45.45,0,0,0-.42-.42"/><polygon class="cls-1" points="93.33 31.45 93.33 32.7 91.88 32.7 91.88 31.45 91.04 31.45 91.04 34.78 91.88 34.78 91.88 33.32 93.33 33.32 93.33 34.78 93.96 34.78 93.96 31.45 93.33 31.45"/><path class="cls-1" d="M96.25,32.28h-.62a1.25,1.25,0,0,0,0,2.5.77.77,0,0,0,.62-.21v.21h.62v-2.5Zm-.62,1.87a.83.83,0,1,1,.83-.83A.76.76,0,0,1,95.63,34.16Z"/><path class="cls-1" d="M102.5,32.07a1.32,1.32,0,0,0-1,1.25v1.46h.62V33.32a.55.55,0,0,1,.62-.62Z"/><path class="cls-1" d="M608,53.74h0a1.39,1.39,0,0,0-1.25-1.46,1.2,1.2,0,0,0-1.25,1.25,1.34,1.34,0,0,0,1.25,1.25,1.41,1.41,0,0,0,1.25-.83h-.62c-.21.21-.42.42-.62.42a.55.55,0,0,1-.62-.62H608Zm-1.25-.83c.21,0,.62.21.62.42H605.9A1.08,1.08,0,0,1,606.73,52.9Z"/><rect class="cls-1" x="604.23" y="52.49" width="0.62" height="2.5"/><path class="cls-1" d="M604.65,51.44a.42.42,0,1,0,.42.42.45.45,0,0,0-.42-.42"/><polygon class="cls-1" points="600.27 51.65 600.27 52.9 598.82 52.9 598.82 51.65 597.98 51.65 597.98 54.98 598.82 54.98 598.82 53.53 600.27 53.53 600.27 54.98 600.9 54.98 600.9 51.65 600.27 51.65"/><path class="cls-1" d="M603.19,52.49h-.62a1.25,1.25,0,1,0,0,2.5.76.76,0,0,0,.62-.21V55h.62v-2.5Zm-.62,1.87a.83.83,0,1,1,.83-.83A.76.76,0,0,1,602.56,54.36Z"/><path class="cls-1" d="M609.44,52.28a1.32,1.32,0,0,0-1,1.25V55H609V53.53a.55.55,0,0,1,.62-.62Z"/><path class="cls-1" d="M361,112.05h0a1.75,1.75,0,0,0-1.87-1.87,1.87,1.87,0,0,0,0,3.75,1.65,1.65,0,0,0,1.67-1l-.83-.21c-.21.42-.42.62-.83.62a1.38,1.38,0,0,1-1-.83H361Zm-1.67-1.25a1.15,1.15,0,0,1,1,.62h-1.87A.93.93,0,0,1,359.3,110.8Z"/><rect class="cls-1" x="355.97" y="110.18" width="0.83" height="3.33"/><path class="cls-1" d="M356.38,108.93a.42.42,0,1,0,.42.42c.21-.21,0-.42-.42-.42"/><polygon class="cls-1" points="350.34 109.14 350.34 111.01 348.26 111.01 348.26 109.14 347.22 109.14 347.22 113.72 348.26 113.72 348.26 111.84 350.34 111.84 350.34 113.72 351.39 113.72 351.39 109.14 350.34 109.14"/><path class="cls-1" d="M354.51,110.18h-.83a1.87,1.87,0,0,0,0,3.75c.42,0,.62,0,.83-.21v.21h.83v-3.33h-.83Zm-.83,2.71a1,1,0,1,1,1-1A1.12,1.12,0,0,1,353.68,112.88Z"/><path class="cls-1" d="M363,110a1.82,1.82,0,0,0-1.46,1.87v1.87h.83v-2.08a.9.9,0,0,1,.83-.83Z"/><path class="cls-1" d="M251.62,446.54v-.62a6,6,0,0,0-5.83-5.83,5.69,5.69,0,0,0-5.83,5.83,6,6,0,0,0,5.83,5.83,5.75,5.75,0,0,0,5.42-3.54l-2.5-.42a3.32,3.32,0,0,1-2.92,1.67,3.53,3.53,0,0,1-3.33-2.92h9.16Zm-5.62-4a3.41,3.41,0,0,1,3.12,2.08h-6A2.78,2.78,0,0,1,246,442.58Z"/><rect class="cls-1" x="235.38" y="440.29" width="3.12" height="11.04"/><path class="cls-1" d="M236.84,435.71a1.67,1.67,0,1,0,1.67,1.67,1.79,1.79,0,0,0-1.67-1.67"/><polygon class="cls-1" points="216.84 436.75 216.84 442.79 210.38 442.79 210.38 436.75 207.05 436.75 207.05 451.54 210.38 451.54 210.38 445.5 216.84 445.5 216.84 451.54 220.17 451.54 220.17 436.75 216.84 436.75"/><path class="cls-1" d="M230.38,440.29v.62a4.78,4.78,0,0,0-2.92-.83,5.83,5.83,0,1,0,0,11.66,4.78,4.78,0,0,0,2.92-.83v.62h2.92v-11h-2.92Zm-2.71,9a3.33,3.33,0,1,1,3.33-3.33A3.29,3.29,0,0,1,227.67,449.25Z"/><path class="cls-1" d="M258.08,439.25a6,6,0,0,0-5,5.83v6.25H256v-6.46a2.92,2.92,0,0,1,2.5-2.92Z"/><path class="cls-1" d="M358.05,395.93h0a.76.76,0,0,0-.83-.83.83.83,0,0,0,0,1.67c.42,0,.62-.21.83-.62h-.42c0,.21-.21.21-.42.21a.45.45,0,0,1-.42-.42Zm-.83-.62a.45.45,0,0,1,.42.42h-.83A.45.45,0,0,1,357.22,395.3Z"/><rect class="cls-1" x="355.55" y="395.1" width="0.42" height="1.67"/><path class="cls-1" d="M355.76,394.47a.21.21,0,1,0,.21.21c.21-.21,0-.21-.21-.21"/><polygon class="cls-1" points="352.84 394.47 352.84 395.3 352.01 395.3 352.01 394.47 351.39 394.47 351.39 396.76 352.01 396.76 352.01 395.72 352.84 395.72 352.84 396.76 353.47 396.76 353.47 394.47 352.84 394.47"/><path class="cls-1" d="M354.93,395.1h-.42a.83.83,0,0,0,0,1.67c.21,0,.21,0,.42-.21h.42V395.1Zm-.42,1.25a.42.42,0,1,1,.42-.42A.45.45,0,0,1,354.51,396.35Z"/><path class="cls-1" d="M358.88,394.89c-.42,0-.62.42-.62.83v.83h.42v-1a.45.45,0,0,1,.42-.42Z"/></svg>