<svg id="Слой_1" data-name="Слой 1" xmlns="http://www.w3.org/2000/svg" width="618.84" height="510.43" viewBox="0 0 618.84 510.43"><defs><style>.cls-1{fill:#47c5ff;}.cls-2{fill:none;stroke:#47c5ff;stroke-miterlimit:10;stroke-width:1.49px;}</style></defs><title>slide-1</title><rect class="cls-1" x="0.31" y="49.17" width="148.84" height="1.49" transform="translate(-8.64 16.36) rotate(-11.82)"/><path class="cls-1" d="M616.11,341.77l-.35,0L528,332.49a2.69,2.69,0,0,1-2.46-2.68l-.75-63.73,1.49,0L527,329.8a1.22,1.22,0,0,0,1.15,1.21l87.75,9.25a1.27,1.27,0,0,0,1-.3,1.19,1.19,0,0,0,.4-.9l-.15-44.78-.9-56.42-3.58-124L606.16,11a4.27,4.27,0,0,0-.53-2.54.25.25,0,0,0-.25-.06,737.29,737.29,0,0,0-72.46,17.15,1.31,1.31,0,0,0-1,1.23l.32,9-.6.07c-.24.17-2,1.84-1.67,12.68.44,13,0,50.85,0,51.24l0,2.15-2.91-3.79,0-.17c-2.14-11.05-7.79-35.11-11.92-52.68-2.83-12-4.31-18.35-4.37-19.05-2.29-13.1-10.89-13.82-17.18-14.34-1.18-.1-2.29-.19-3.26-.36l-.28,0-.18-.22c-2.8-3.47-40.94-8.06-97.66-9.43-42.46-1-62.87.37-76.38,1.29-4.25.29-7.93.54-11.35.65C293,2.62,241.72,15.29,241.21,15.41L240.85,14c2.12-.52,52.06-12.85,63.7-11.66,3.3-.11,7-.36,11.2-.65,13.53-.92,34-2.32,76.52-1.3C444.1,1.6,486,5.77,490.83,10.11c.85.13,1.84.22,2.89.3,6.39.53,16,1.34,18.53,15.64.07.74,2.05,9.16,4.34,18.9,4.11,17.49,9.73,41.41,11.89,52.56l.07.09c.09-8.24.36-37.84,0-49-.35-10.16,1.18-13.08,2.22-13.9l-.28-7.89a2.81,2.81,0,0,1,2-2.68A739,739,0,0,1,605.12,6.94a1.74,1.74,0,0,1,1.49.41c1.08,1,1,3.2,1,3.64l6.57,102.77,3.58,124.07.9,56.44.15,44.79a2.7,2.7,0,0,1-.91,2A2.75,2.75,0,0,1,616.11,341.77ZM531.72,35.85h0Z" transform="translate(0 0)"/><path class="cls-1" d="M604.48,338a33.18,33.18,0,0,1-6.94-.84c-1.56-.12-16.58-1.76-32.46-3.49C551,332.1,536.46,330.51,531,330a3.48,3.48,0,0,1-3.05-3.2l-1-61.72,1.49,0,1,61.65a2,2,0,0,0,1.72,1.81c5.46.56,20,2.15,34.09,3.68,15.38,1.67,31.28,3.41,32.45,3.48l.11,0c6.57,1.43,11.39.95,13.92-1.4a7.07,7.07,0,0,0,2-5.68v-.1c0-.6,0-59.87-.15-62.5v-.24l.13-.2a10.79,10.79,0,0,0,.32-11.58l-.12-.18-1.5-90.09-4.33-84-5-63.16c-7.25,1.61-59,13.11-64.45,15.16s-6.44,3.92-6.45,3.94L530.83,35c.1-.24,1.2-2.45,7.29-4.73s63.06-14.87,65.48-15.41l.84-.19,5.14,64.89,4.33,84.06L615,225l.45,28.3a12.29,12.29,0,0,1-.29,12.81c.14,4.79.14,59.34.14,62.3a8.51,8.51,0,0,1-2.52,6.93C610.86,337.08,608.09,338,604.48,338Z" transform="translate(0 0)"/><path class="cls-1" d="M588.84,333.45a75.08,75.08,0,0,1-8.3-.51c-23.22-2.6-41.37-4.24-42.34-4.32-.77,0-6.84-.23-8-9.76s-1.2-25.76-1.2-25.92V264.28h1.49v28.66c0,.17-.13,16.33,1.19,25.72,1.1,8.76,6.46,8.47,6.52,8.46h.12c.18,0,18.64,1.67,42.41,4.33,13.49,1.51,18.81-.61,20.9-2.66a3.54,3.54,0,0,0,1.26-2.64V290.4l-.9-38-1.19-40.9c0-.4.17-38,1.65-53.53A188.19,188.19,0,0,0,603,130L601.08,95,599,66.69c-.83-10-2.42-29.14-2.53-30l-.09-.62.59-.2a6.87,6.87,0,0,0,2.3-1.92L598,19.79c-6.77,1.54-52.38,11.9-59.93,13.54S530,43.16,530,43.24l-1.49-.08c0-.09.58-9.4,9.24-11.29,8.11-1.77,60.22-13.61,60.75-13.73l.83-.19,1.44,16.52-.18.23A10,10,0,0,1,598,37.09c.39,4.13,2.39,28.38,2.48,29.48l2.09,28.37,1.94,34.94a189.87,189.87,0,0,1-.6,28.18c-1.47,15.46-1.64,53-1.64,53.37l1.19,40.88.9,38.07v35.69h0a4.93,4.93,0,0,1-1.63,3.72C600.95,331.59,597.11,333.45,588.84,333.45Z" transform="translate(0 0)"/><path class="cls-1" d="M539.88,63V62.9a7.79,7.79,0,0,1-5.36-2.12c-2.17-2.06-3.33-5.49-3.45-10.18-.14-.74-1.11-6.57,2.21-10.88,2.09-2.71,5.4-4.2,9.84-4.43,3-.43,33.46-6.79,33.77-6.85l.15,0c.53,0,5.22.35,5.37,12.38,0,1,0,1.88.06,2.75.27,10.25-.45,13.59-17.28,15.77-18.2,2.35-21.85,3.12-21.88,3.12Zm37.22-33.13c-2.28.48-30.77,6.42-33.83,6.85-4.05.22-7,1.51-8.8,3.86-3.06,4-1.93,9.68-1.92,9.73l0,.13c.1,4.31,1.1,7.41,3,9.19a6.47,6.47,0,0,0,4.83,1.71h.23L543,61c.11,0,3.65-.77,22-3.14,16.29-2.1,16.22-4.92,16-14.25,0-.87,0-1.79-.06-2.77C580.8,30.88,577.53,30,577.09,29.92Z" transform="translate(0 0)"/><path class="cls-1" d="M533.48,53.4c0-.13-3.49-13.13,8.56-16.88a167.63,167.63,0,0,1,25.51-5.25l.18,1.48a166,166,0,0,0-25.24,5.2c-10.68,3.33-7.7,14.58-7.56,15.06Z" transform="translate(0 0)"/><path class="cls-1" d="M588.08,56a4,4,0,0,1-2.65-.79c-.86-.72-1.31-1.94-1.37-3.73l-.44-6.05a3.69,3.69,0,0,1,.58-2.82,5.05,5.05,0,0,1,4-1.77c.4-.07.9-.2,1.4-.33,1.58-.4,3.38-.85,4.71,0a4,4,0,0,1,1.54,3l.09.68c.61,4.45,1.43,10.54-3.42,11.21l-1.28.19A21.9,21.9,0,0,1,588.08,56ZM592.4,41.5a10.81,10.81,0,0,0-2.43.43c-.53.13-1.08.27-1.6.36-1.5.1-2.47.48-3,1.16a2.18,2.18,0,0,0-.32,1.65l0,.13.45,6.15a3.51,3.51,0,0,0,.83,2.64c.84.7,2.59.43,4.63.12l1.3-.19c3.13-.43,2.84-4.39,2.14-9.52l-.09-.68a2.73,2.73,0,0,0-.89-2A1.9,1.9,0,0,0,592.4,41.5Z" transform="translate(0 0)"/><path class="cls-1" d="M590.37,53.75a5.41,5.41,0,0,1-2.9-.71,4,4,0,0,1-1.76-3.38c-.05-1-.16-1.83-.26-2.56-.21-1.57-.37-2.71.37-3.65.9-1.13,2.8-1.62,8.47-2.18l.15,1.49c-4.23.42-6.81.82-7.45,1.62-.33.42-.25,1.15-.07,2.52.1.73.22,1.63.27,2.69a2.55,2.55,0,0,0,1.07,2.2c1.74,1.11,5.33,0,6.56-.46l.57,1.38A15.1,15.1,0,0,1,590.37,53.75Z" transform="translate(0 0)"/><path class="cls-1" d="M537.39,204.27l-.1-1.49c.34,0,33.89-2.24,46-2.54,10.65-.13,10.68-.75,10.87-4.79l0-.93c.15-5.16,1.92-27,1.94-27.19,3.53-21.66,1.81-44,1.79-44.21-.12-2.07-3-50.39-3-54.84.36-7.11-1.12-9.69-2.42-10.62a3.09,3.09,0,0,0-2.82-.34l-.18.05-7.46,1-50.45,7.16-.21-1.48,57.84-8.2a4.6,4.6,0,0,1,4.13.52c2.36,1.65,3.39,5.65,3.07,11.89,0,4.37,3,54.2,3,54.7,0,.21,1.76,22.72-1.8,44.5,0,.16-1.78,21.92-1.93,27.07l0,.93c-.25,5.22-1.1,6.07-12.33,6.21C571.25,202,537.72,204.24,537.39,204.27Z" transform="translate(0 0)"/><path class="cls-1" d="M585.26,325.48c-11.4,0-46.29-3.25-46.64-3.29l.14-1.49c.35,0,35.18,3.28,46.5,3.28a7.61,7.61,0,0,0,5.86-2.44c4.15-4.53,3.4-13.82,3.4-13.92l-1.2-36.31c0-.45-2.24-46.26-2.54-57.77-.1-3.84-1.11-6.55-3-8.05a6.69,6.69,0,0,0-5.06-1.24h-.11L537.83,207l-.09-1.49,44.74-2.68a8.17,8.17,0,0,1,6.23,1.54c2.26,1.79,3.46,4.88,3.57,9.18.29,11.5,2.51,57.29,2.54,57.75l1.2,36.29c0,.37.81,10-3.78,15A9.05,9.05,0,0,1,585.26,325.48Z" transform="translate(0 0)"/><path class="cls-1" d="M538.72,322c-.22,0-5.38-1-6-11.59-.44-10.06-.89-47.72-.9-48.1l1.49,0c0,.38.45,38,.9,48,.55,9.3,4.71,10.19,4.75,10.19Z" transform="translate(0 0)"/><path class="cls-1" d="M607.86,268.16a4.11,4.11,0,0,1-3.1-1.32c-2.67-2.82-2.12-9.35-2-10.18-.16-1.77.44-5.1,3.79-5.52,3.53-.44,7.79.19,8.81,2l.69,1.24-1.42-.14a34.35,34.35,0,0,0-5.09.15,2.1,2.1,0,0,0-1.63.79,4.35,4.35,0,0,0-.38,3.07l0,.14.15,4.38v.05h0a1.87,1.87,0,0,0,.42,1.26,2.72,2.72,0,0,0,2,.74c3.39.15,4,.12,4.63-.64l1.13,1a3.06,3.06,0,0,1-1.55,1l.64.22c-.11.34-.46,1.38-6.79,1.7Zm.84-15.66a16.21,16.21,0,0,0-2,.13c-2.83.35-2.5,3.81-2.49,4v.16c-.2,1.83-.29,7,1.63,9.07a2.69,2.69,0,0,0,2.21.85c1.25-.06,2.23-.16,3-.26l-1,0a4.1,4.1,0,0,1-3.08-1.28,3.32,3.32,0,0,1-.77-2.32l-.15-4.22a5.79,5.79,0,0,1,.65-4.21,3.54,3.54,0,0,1,2.72-1.4c.86-.07,1.61-.11,2.24-.14A14.2,14.2,0,0,0,608.7,252.5Z" transform="translate(0 0)"/><path class="cls-1" d="M612.35,264.74a2.1,2.1,0,0,1-2.19-3.11l0-.25-1.85-.15-.23-4.12h.79s.6,0,1.61-.08a2.69,2.69,0,0,1,1.92-2.43l.17,0c1.48-.07,4.35.47,4.51,2.94l-1.49.09c-.09-1.45-2.37-1.54-2.86-1.54a1.26,1.26,0,0,0-.73,1.53l.12.78-.78.08c-.69.07-1.26.11-1.67.13l.07,1.28,1.74.15.27,1.86-.1.21c-.13.27-.25.77-.1,1s.38.42,2.06.08a4.68,4.68,0,0,0,1.93-1.26l1.34.67c-.55,1.1-2.42,1.86-2.79,2l-.12,0A7.86,7.86,0,0,1,612.35,264.74Z" transform="translate(0 0)"/><path class="cls-1" d="M612.69,261.92l-2.8-.47.91-4.3,3.23.54-.11.68,2.32-.21.13,1.49h-.11l.09,1.33-2.09.14Zm-1-1.68.78.13.89-.44-1.22.11.19-1.11-.35-.06Z" transform="translate(0 0)"/><path class="cls-1" d="M528.68,191l-1.49,0c0-2.6,1-63.83,1.5-69.75l.07-.25a25.36,25.36,0,0,0,.3-19.53l-.48-1.42,1.42-.47.45,1.34a26.45,26.45,0,0,1-.27,20.57C529.71,128.08,528.69,190.36,528.68,191Z" transform="translate(0 0)"/><path class="cls-1" d="M526.16,107.24h-6V106h0s-.15-3-.44-5.28a3.09,3.09,0,0,1,.71-2.43,2.64,2.64,0,0,1,1.82-.8l5.5-.15,0,1.49-5.52.15a1.17,1.17,0,0,0-.76.34,1.67,1.67,0,0,0-.31,1.26c.25,2,.39,4.34.43,5.12h4.18l2.39-1.12.63,1.35Z" transform="translate(0 0)"/><path class="cls-1" d="M524.41,123.81a2.41,2.41,0,0,1-1.52-.56,2.87,2.87,0,0,1-.93-2.08c-.15-2.21-.44-5.33-.45-5.36l-.29-1.74,5.88.18,2.7,1.59-.76,1.29-2.37-1.4-3.68-.12c0,.12.31,3.23.46,5.45.08,1.17.74,1.25,1,1.25h5v1.49h-5Z" transform="translate(0 0)"/><path class="cls-1" d="M523.57,115.54c-3.7-5.95-.49-9.42-.35-9.57l1.08,1c-.1.11-2.52,2.83.54,7.75Z" transform="translate(0 0)"/><path class="cls-1" d="M530.26,118.08a7.22,7.22,0,0,1-2.47-5.7,39.89,39.89,0,0,0,0-6.26,7.72,7.72,0,0,1,1.36-5.48l1.15,1a6.25,6.25,0,0,0-1,4.38,40.81,40.81,0,0,1,0,6.55,5.74,5.74,0,0,0,2,4.47Z" transform="translate(0 0)"/><path class="cls-1" d="M528.8,102.74c-.63-.52-1.9-1.26-2.65-1.06-.18,0-.45.18-.65.74l-1.4-.52a2.46,2.46,0,0,1,1.67-1.66c1.73-.47,3.76,1.16,4,1.35Z" transform="translate(0 0)"/><path class="cls-1" d="M527.74,121.39a3,3,0,0,1-.57-.06,3.76,3.76,0,0,1-2.61-2.44l1.36-.61c.42.93.93,1.47,1.53,1.59a3.3,3.3,0,0,0,2.35-.93l1,1.08A5.12,5.12,0,0,1,527.74,121.39Z" transform="translate(0 0)"/><path class="cls-1" d="M527,105.6a2.24,2.24,0,1,1,2.24-2.24A2.24,2.24,0,0,1,527,105.6Zm0-3a.75.75,0,1,0,.75.75A.75.75,0,0,0,527,102.61Z" transform="translate(0 0)"/><path class="cls-1" d="M527.49,120.38a2.24,2.24,0,1,1,2.24-2.24A2.24,2.24,0,0,1,527.49,120.38Zm0-3a.75.75,0,1,0,.75.75A.75.75,0,0,0,527.49,117.39Z" transform="translate(0 0)"/><path class="cls-1" d="M524.65,113.06a2.24,2.24,0,1,1,2.24-2.24A2.24,2.24,0,0,1,524.65,113.06Zm0-3a.75.75,0,1,0,.75.75A.75.75,0,0,0,524.65,110.08Z" transform="translate(0 0)"/><path class="cls-2" d="M525.84,111.57" transform="translate(0 0)"/><path class="cls-1" d="M525.1,112.91a2.09,2.09,0,0,1-2.09-2.09,2,2,0,0,1,1.94-2.09v1.49a.61.61,0,0,0,.06,1.19,1.19,1.19,0,0,1,.54-.14v1.49a.43.43,0,0,0,.16,0A1.31,1.31,0,0,1,525.1,112.91Z" transform="translate(0 0)"/><path class="cls-1" d="M527.93,120.08a2.09,2.09,0,0,1-2.09-2.09,2,2,0,0,1,1.94-2.09v1.49a.61.61,0,0,0,.15,1.19h.21a.31.31,0,0,0-.14.07l1.05,1.06A1.41,1.41,0,0,1,527.93,120.08Z" transform="translate(0 0)"/><path class="cls-1" d="M527.34,105.45a2.09,2.09,0,0,1-2.09-2.09,2,2,0,0,1,1.94-2.09v1.49c-.4,0-.45.42-.45.6a.59.59,0,0,0,.6.6.67.67,0,0,0,.37-.23l1.05,1.06A2,2,0,0,1,527.34,105.45Z" transform="translate(0 0)"/><path class="cls-1" d="M530.61,108l-.24,0c-1.1-.22-1.69-1.86-1.69-3.28,0-2.5,1.36-2.8,1.52-2.83l.25,1.47.09,0c-.1.05-.36.4-.36,1.38a3.23,3.23,0,0,0,.42,1.69,1.85,1.85,0,0,0,.09-.19l1.38.57C531.62,107.82,531,108,530.61,108Z" transform="translate(0 0)"/><path class="cls-1" d="M530.48,116.26a1.27,1.27,0,0,1-.56-.13c-1.46-.71-1.09-4-1.08-4.05.21-1,.6-2.16,1.6-2.28s1.72,1.07,1.9,1.44l-1.34.67.67-.33-.67.34a2.47,2.47,0,0,0-.37-.53,3.71,3.71,0,0,0-.32,1,5.37,5.37,0,0,0,.24,2.39,1.71,1.71,0,0,0,.29-.25l1.06,1.06A2,2,0,0,1,530.48,116.26Z" transform="translate(0 0)"/><path class="cls-1" d="M519.9,172.59a4.93,4.93,0,0,1-1.09-.13,23,23,0,0,1-2.42-.73c-2.37-.81-5.05-1.74-11.08-1.19l-.13-1.49c6.34-.58,9.31.44,11.7,1.27a21.82,21.82,0,0,0,2.27.69c.71.16,1.22.12,1.45-.12s.24-1.18.19-1.37l0-.1s-.6-6.27-.89-9.25V160l0-.12c3.55-14.52-3.29-19.52-5.54-21.16-3.88-2.78-9.84-2-9.9-2l-.21-1.48c.27,0,6.61-.9,11,2.22,6.64,4.85,8.65,12.24,6.14,22.6.29,2.88.83,8.52.88,9.09a3.12,3.12,0,0,1-.59,2.71A2.37,2.37,0,0,1,519.9,172.59Z" transform="translate(0 0)"/><path class="cls-1" d="M520.85,171.75a9,9,0,0,1-2.88-.67c-3.07-1.12-9.36-2.19-12.22-1.33l-.43-1.43c3.2-1,9.82.14,13.16,1.36,2.09.76,2.63.55,2.64.55a.43.43,0,0,0-.2.33l1.47.25a1.07,1.07,0,0,1-.53.72A2,2,0,0,1,520.85,171.75Z" transform="translate(0 0)"/><path class="cls-1" d="M513.94,161.84a31.87,31.87,0,0,1-9.36-1.35l.44-1.43a33.15,33.15,0,0,0,15.72.58l.36,1.45A32.65,32.65,0,0,1,513.94,161.84Z" transform="translate(0 0)"/><path class="cls-1" d="M512,161l-1.49-.07c0-.1.45-9.61.75-13.75.28-3.94-2.74-10.46-2.77-10.53l-.73-1.56,1.64.54c.39.13,9.48,3.18,12.26,10.6l-1.4.52c-1.86-5-7-7.84-9.7-9,.93,2.32,2.4,6.53,2.18,9.58C512.41,151.42,512,160.92,512,161Z" transform="translate(0 0)"/><path class="cls-1" d="M504.81,140.06l-1.23-.85c1.44-2.08,4.92-3.76,5.07-3.83l.64,1.35S506,138.3,504.81,140.06Z" transform="translate(0 0)"/><path class="cls-1" d="M505.81,183.69l-.83-1.24a13.73,13.73,0,0,0,2.75-3.4l.32-.49.24-.08c2.64-.88,5-6.42,5.65-8.48l1.42.46c-.11.32-2.58,7.79-6.33,9.34l0,0A13.76,13.76,0,0,1,505.81,183.69Z" transform="translate(0 0)"/><rect class="cls-1" x="505.27" y="172.25" width="3.69" height="1.49" transform="translate(93.05 513.06) rotate(-58.23)"/><path class="cls-1" d="M505.63,177.29l-.77-1.28c1.3-.78,1.63-1.24,1.71-1.4l-.17-.08.37-1.45a1.67,1.67,0,0,1,1.3,1.27C508.21,175.28,507.43,176.21,505.63,177.29Z" transform="translate(0 0)"/><path class="cls-1" d="M505.81,179.36c-.25,0-.44,0-.49,0l.15-1.49a3,3,0,0,0,1.7-.29l.93,1.17A3.83,3.83,0,0,1,505.81,179.36Z" transform="translate(0 0)"/><path class="cls-1" d="M505.51,180.49l-.52-1.4a3.83,3.83,0,0,0,1.14-.62l1.24.83A4.29,4.29,0,0,1,505.51,180.49Z" transform="translate(0 0)"/><path class="cls-2" d="M506.59,179" transform="translate(0 0)"/><path class="cls-1" d="M506.47,196.4l-1.91-1.91,1.05-1.06.48.48c.84-1.56,2.63-4.86,4.17-7.5,2-3.5,2.56-7.82,2.27-8.46a6.64,6.64,0,0,1-1-2.35l1.46-.32a5.34,5.34,0,0,0,.75,1.79c1,1.23-.2,6.7-2.18,10.1s-4.59,8.29-4.61,8.33Z" transform="translate(0 0)"/><path class="cls-1" d="M514,271.14a3.3,3.3,0,0,1-.7-.07,4,4,0,0,1-2.56-2.09l1.3-.74a2.54,2.54,0,0,0,1.58,1.37,2.61,2.61,0,0,0,1.81-.41l.12-.09,2.84-.63s11.66-4.32,18.35-9.85c4-3.27,4.86-6.17,4.91-8a5.28,5.28,0,0,0-1.51-4c-2.54-2.37-1.93-3.79-1.78-4.05l.07-.1c5.38-6.52,3.83-10.67,1.6-13.88a15,15,0,0,1-2.67-7.26v-.09l0-.08s.42-2.49,0-10.87A31.39,31.39,0,0,0,534,196.82a4.16,4.16,0,0,1-2.07-1.43,13.18,13.18,0,0,0-3-2l-.09-.05c-1.18-.85-7.1-5.16-7.74-7.09-.33-1-4.38-4.54-8.11-7.41l.91-1.18c1.33,1,8,6.21,8.61,8.12.36,1.07,4.38,4.33,7.15,6.32.93.49,3,1.67,3.53,2.49a3.35,3.35,0,0,0,1.52.86l.27.08.15.24a31.49,31.49,0,0,1,3.69,14.4c.4,7.78.08,10.56,0,11.11a13.9,13.9,0,0,0,2.4,6.41c2.39,3.44,4.36,8.31-1.61,15.59,0,.18.19,1,1.5,2.2a6.78,6.78,0,0,1,2,5.13c-.07,2.16-1.06,5.5-5.45,9.13-6.89,5.69-18.39,9.95-18.88,10.13l-2.65.6A4.29,4.29,0,0,1,514,271.14Z" transform="translate(0 0)"/><path class="cls-1" d="M514.07,270.09a3.67,3.67,0,0,1-2.58-1.67l1.23-.84-.62.42.62-.42c.24.35.94,1.1,1.44,1,.21,0,.94-.37,1.55-3,1.38-5.94-3-10.3-3.08-10.34l-.76-.73,3.53-1.77.22,0c2.33.28,6.81,2,7.07,6.37.36,6-1.23,8.73-2.63,10l-1-1.1c1.16-1.05,2.47-3.44,2.15-8.81-.23-3.78-4.54-4.76-5.55-4.94l-1.3.65a12.88,12.88,0,0,1,2.8,11c-.59,2.54-1.48,3.89-2.73,4.12A2,2,0,0,1,514.07,270.09Z" transform="translate(0 0)"/><path class="cls-1" d="M514.87,255.16l.49-3.66c-.41-.63-.92-2.14.61-4.85l-1.14-10.14c-.74-1-3.26-5.38,1.39-15l1.34.65c-4.74,9.75-1.5,13.46-1.47,13.49l.16.18,0,.25L517.51,247l-.13.22c-1.55,2.62-.73,3.55-.72,3.56l.24.26-.09.89,6.8-4.95.88,1.21Z" transform="translate(0 0)"/><path class="cls-1" d="M524.44,209l-1.37-.6c2.88-6.52,10.64-12.57,11-12.83l.91,1.18C534.88,196.86,527.16,202.88,524.44,209Z" transform="translate(0 0)"/><path class="cls-1" d="M520.9,243.66c-2.83-2.27-3.2-8.68-3.35-11.42,0-.39,0-.69-.06-.87a21.63,21.63,0,0,1,.87-5.06,44.41,44.41,0,0,0,.92-4.51c.31-2.82,2.91-7.32,4.1-8.51a2.31,2.31,0,0,0-.49-3.78c-1.64-1.13-11.33-2.69-17.44-3.46l.19-1.48c1.59.2,15.63,2,18.09,3.71a4,4,0,0,1,1.9,2.93,4.08,4.08,0,0,1-1.19,3.14c-.92.92-3.39,5.1-3.67,7.62a45.5,45.5,0,0,1-.95,4.69,24.17,24.17,0,0,0-.84,4.56c0,.19,0,.51.06.94.13,2.32.48,8.49,2.79,10.34Z" transform="translate(0 0)"/><path class="cls-1" d="M520.5,245.21c-.08-.09-1.92-2.29-3.59-8.66a13.41,13.41,0,0,1,.4-9,8.87,8.87,0,0,0,.62-2.44c.15-3.08,2.64-9.1,2.74-9.35l.05-.13.1-.1c.73-.77,2.63-3.1,2.63-4.56a.91.91,0,0,0-.27-.7,2.82,2.82,0,0,0-1.78-.49h-.15s-5-.76-8.86-1.65a21.41,21.41,0,0,0-6.9-.44l-.2-1.48a22.65,22.65,0,0,1,7.43.46c3.56.82,8.08,1.53,8.68,1.62a4.21,4.21,0,0,1,2.8.9,2.4,2.4,0,0,1,.74,1.79c0,2.16-2.37,4.86-2.94,5.48-.35.87-2.45,6.14-2.58,8.73a10.09,10.09,0,0,1-.7,2.86,12,12,0,0,0-.37,8.11c1.56,6,3.26,8,3.28,8.07Z" transform="translate(0 0)"/><path class="cls-1" d="M519.07,220.56,505.26,218l.27-1.47,11.89,2.21c-.11-2.16-.11-7.28,2.08-9.47l1.05,1.06c-1.88,1.88-1.77,7.31-1.58,9.25Z" transform="translate(0 0)"/><path class="cls-1" d="M525,240.93c-3.58,0-4.09-2.77-4.09-2.8l-1.19-6.71,1.47-.26,1.19,6.72c0,.2.48,2,3.63,1.48a64.1,64.1,0,0,0,9-1.92l.13,0h.14c1.5.12,3.9.05,4.57-.45,0,0,2.17-2,.84-4.42l1.31-.72a5.17,5.17,0,0,1-1.2,6.29c-1.32,1-4.56.86-5.49.79a63.46,63.46,0,0,1-9.1,1.93A8.17,8.17,0,0,1,525,240.93Z" transform="translate(0 0)"/><path class="cls-1" d="M539.87,253.22c-1.59-2.22-6.52-7.9-10.2-7.46-5.31.65-6.47-1.52-6.59-1.77l-.43-.93,1-.13c.13,0,1.5-.13,8.56.9,3.63.53,4.92-.17,5.37-.63a1.24,1.24,0,0,0,.35-.74c-.54-.65-1.55-2-.92-3.29.83-1.64,3.8-1.51,4.39-1.47l-.11,1.49c-1.07-.07-2.68.11-3,.65-.12.25,0,.87.89,1.85l.13.16,0,.2a2.62,2.62,0,0,1-.76,2.19c-.9.92-2.46,1.35-4.65,1.26a28,28,0,0,1,7.07,6.84Z" transform="translate(0 0)"/><path class="cls-1" d="M534,244.32a7.83,7.83,0,0,1-2.54-.39c-1.59-.57-5.29-.49-6.57-.41l-.09-1.36-2.2,0v-1.49a78.23,78.23,0,0,0,9-.43c.75-.16,4.58-.9,6.09.31a1.64,1.64,0,0,1,.63,1.31,1.91,1.91,0,0,1-.91,1.6A6.15,6.15,0,0,1,534,244.32ZM528.84,242a12,12,0,0,1,3.07.5,6.17,6.17,0,0,0,4.55-.26c.27-.19.27-.33.27-.38a.16.16,0,0,0-.08-.15c-.58-.47-2.7-.47-4.84,0A22.59,22.59,0,0,1,528.84,242Z" transform="translate(0 0)"/><path class="cls-1" d="M520.84,228.54l-1-1.08c.17-.17,4.39-4.12,12.42-2.89a2.31,2.31,0,0,0,1.87-.49c1.14-.84,2.57-3,2.95-8.68l1.49.1c-.34,5.05-1.55,8.36-3.62,9.82a3.75,3.75,0,0,1-3,.7C524.74,224.94,520.88,228.51,520.84,228.54Z" transform="translate(0 0)"/><path class="cls-1" d="M525.48,220.23a1.51,1.51,0,0,1-.79-.21c-1.22-.73-.78-2.79-.62-3.41l.06-.21.16-.15s3.88-3.63,4.71-6.95c.92-3.67,4.86-9.54,5-9.79l1.24.83c0,.06-4,5.9-4.82,9.32s-4.18,6.75-5,7.52a2.71,2.71,0,0,0,0,1.55h0c.16,0,1.08-.11,3.72-2.63,6-5.86,5.76-8.41,5.75-8.44l1.46-.29c.07.32.49,3.28-6.18,9.8C528.09,219.25,526.57,220.23,525.48,220.23Z" transform="translate(0 0)"/><path class="cls-1" d="M527.52,255.47a17.55,17.55,0,0,1-6.17-1.25,5.18,5.18,0,0,0-2.93-.15.32.32,0,0,0,.1-.24H517a1.18,1.18,0,0,1,.54-1c1-.7,3.37-.38,4.35,0l.11.05c1.12.64,6.55,1.78,7.76.57-.1-.44-2-1.4-2.86-1.86-1.57-.81-2.56-1.34-2.93-2a1.32,1.32,0,0,1,0-1.3c.59-1.09,2.83-1.38,3.76-1.45l.24,0,.21.13a39.81,39.81,0,0,0,6.5,3.34,8,8,0,0,0-4.55-3.47c-2.3-.52-4.45,0-7.16.69-.87.22-1.79.45-2.78.66-.7.13-2.11.39-2.51-.55-.13-.32-.49-1.17,2.37-3.18l.22-.15,2.21.17-.12,1.49-1.67-.13a12,12,0,0,0-1.14.95l.34-.06c1-.21,1.86-.43,2.71-.65,2.79-.7,5.21-1.3,7.89-.69,3,.81,5.33,3.34,5.72,4.8a1.36,1.36,0,0,1-.28,1.38c-.37.37-1.14,1.15-8.32-3.2a6.29,6.29,0,0,0-2.25.58,11.65,11.65,0,0,0,2.26,1.36c1.77.91,3.44,1.78,3.65,2.95a1.45,1.45,0,0,1-.4,1.27A4.75,4.75,0,0,1,527.52,255.47Z" transform="translate(0 0)"/><path class="cls-1" d="M526.42,254.68a5.24,5.24,0,0,1-1.72-.3c-2.09-.75-4.72-1.91-4.83-2l.61-1.36s2.69,1.19,4.73,1.92a3.57,3.57,0,0,0,1.5.19,6.16,6.16,0,0,0-.67-.28c-3.71-1.59-3.18-4-3.16-4.15l1.46.33-.73-.17.73.15c0,.06-.21,1.39,2.25,2.45,1.6.58,2.27,1.32,2,2.17C528.3,254.36,527.42,254.68,526.42,254.68Z" transform="translate(0 0)"/><path class="cls-1" d="M512.61,255.23a9.07,9.07,0,0,1-2-2.9,6.17,6.17,0,0,0-1-2.46,8.59,8.59,0,0,1-1.36-2.34l0-.11a4.28,4.28,0,0,0-.55-1.43,4.5,4.5,0,0,1-.94-3.25,2.12,2.12,0,0,0-.17-.89,2.15,2.15,0,0,0-.3.33l-1.18-.91c.94-1.22,1.74-1.05,2.13-.84a2.76,2.76,0,0,1,1,2.73,3.61,3.61,0,0,0,.57,1.77,5,5,0,0,1,.93,2.09,7,7,0,0,0,1,1.79,7.78,7.78,0,0,1,1.4,3.22,9.38,9.38,0,0,0,1.61,2.18Z" transform="translate(0 0)"/><path class="cls-1" d="M493.27,267.42a1.62,1.62,0,0,1-1.55-.74c-.55-1,.26-2.29.52-2.67l.17-.17,6.71-5,.17,0s1.57-.39,5-3.55c3.32-2.94.76-6.47.65-6.62l1.2-.89a6.25,6.25,0,0,1-.85,8.62c-3.19,2.94-5,3.68-5.54,3.86l-6.35,4.76a2.44,2.44,0,0,0-.39,1h.38c1.66-.11,4.8-2.2,5.88-3l.13-.07,2.84-1.34,3-1.49.67,1.33-3,1.49-2.79,1.32c-.65.47-4.3,3.08-6.6,3.24Z" transform="translate(0 0)"/><path class="cls-1" d="M495.59,274.07a1.35,1.35,0,0,1-.84-.27c-1-.75-.41-2.54-.21-3.07l0-.13L496,269l5.34-6.83,1.18.92L497.17,270l-1.28,1.42a3.47,3.47,0,0,0-.21,1.19,5,5,0,0,0,1.81-1,49.93,49.93,0,0,0,7.06-5.88l.09-.08c.91-.68,2.49-1.85,2.8-2l.26-.08c.27-.07,1.31-.4,2.22-.71l.47,1.42c-1.46.49-2.06.67-2.35.74s-1.45,1-2.47,1.8a50.75,50.75,0,0,1-7.24,6A5.5,5.5,0,0,1,495.59,274.07Z" transform="translate(0 0)"/><path class="cls-1" d="M496.74,277.75a1.49,1.49,0,0,1-.76-.19,1.77,1.77,0,0,1-.74-1.84c.17-2.59,2.78-4.25,2.89-4.31l.79,1.26s-2.07,1.33-2.19,3.15a.94.94,0,0,0,0,.48,3.39,3.39,0,0,0,.82-.36c.29-.33,1.49-1.67,2.12-2.55a67.6,67.6,0,0,1,5.49-5.2l3.48-2.57.89,1.2-3.43,2.54a64.23,64.23,0,0,0-5.21,4.91c-.76,1.07-2.23,2.69-2.29,2.75l-.14.12A3.54,3.54,0,0,1,496.74,277.75Z" transform="translate(0 0)"/><path class="cls-1" d="M499.06,279.76a1.37,1.37,0,0,1-.62-.14c-1.06-.52-1-2.15-1-2.69L499,277c0,1.07.16,1.3.16,1.3l.26-.16c.14-.37.45-1.18,1-2.38s5.1-6.41,6.05-6.41l3.27-.84a23.31,23.31,0,0,1,2.76-1.66c.35-.12,2.68-1,3.55-1.33l.53,1.39c-.13,0-3.15,1.2-3.61,1.35-.25.1-1.5.88-2.51,1.56l-.23.1c-2.33.61-3.18.81-3.52.88-.78.57-4.34,4.24-4.95,5.57-.72,1.58-1,2.46-1,2.46l-.07.2-.16.14A2.5,2.5,0,0,1,499.06,279.76Z" transform="translate(0 0)"/><polygon class="cls-1" points="506.27 282.33 506 280.86 517.44 278.74 516.74 269.56 518.23 269.44 519.02 279.96 506.27 282.33"/><path class="cls-1" d="M505.68,442l-1.47-.25,1.94-11.49c1.39-15.94,4-46.49,4-47.64,0-1.6,5.94-32.89,7.06-36.07,1-2.76,2.75-10.88,2.94-11.77L520,309.36l-1.18-22.92-3.64-6.26,1.29-.75,3.82,6.58v.18l1.19,23.14.15,25.64,0,.08c-.08.37-2,9-3,12s-7,34.29-7,35.58c0,1.51-3.87,45.94-4,47.83Z" transform="translate(0 0)"/><path class="cls-1" d="M293,282.05l-1.34-72.25.6-37.2v-37L293.42,88l3.43-50.29c0-.66-.28-6.06,3.27-9.18,2.32-2,5.69-2.62,10-1.7,6.63.57,26.59-1.34,26.79-1.36l63.36-.15,69.46,4.33,22.06,2.23c1.12-.06,12.55-.3,14.91,16s5.79,38.43,5.82,38.65l3.89,40.5,1,12.7-1.49.12-1-12.69-3.88-40.44c0-.18-3.46-22.24-5.82-38.63C503,32.4,492,33.33,491.88,33.34h-.15l-22.09-2.24-69.38-4.33L337,26.93c-.76.08-20.23,1.94-27.09,1.34-3.93-.82-6.86-.37-8.81,1.34-3.14,2.76-2.78,8-2.77,8v.11L294.91,88l-1.19,47.59v37l-.6,37.18L294.47,282Z" transform="translate(0 0)"/><rect class="cls-1" x="518.68" y="171.57" width="1.49" height="11.96" transform="translate(-8.21 26.14) rotate(-2.86)"/><rect class="cls-1" x="516.74" y="171.13" width="1.49" height="10.6" transform="translate(-4.77 14.65) rotate(-1.62)"/><rect class="cls-1" x="520.32" y="171.86" width="1.49" height="13.61" transform="translate(-10.62 34.66) rotate(-3.77)"/><path class="cls-1" d="M289.54,281.32l-.15-3.73-1.19-43.45.15-35.85.45-41.06,1.34-63.6c0-.41,3-37.11,3.88-54.66.3-5.86,2.12-10,5.42-12.25,4.55-3.12,10.28-1.59,11.25-1.3l43.76-1.49h50.78L443.49,26l27.64,2.39,21.61,2.24c1,0,12.81-.1,15,13s6.53,42.86,6.57,43.16l4.33,44.07L520,142.68l-1.48.17-1.34-11.79-4.33-44c0-.27-4.35-30.11-6.56-43.09-2.1-12.3-13.08-11.8-13.55-11.77h-.06L471,29.91l-27.6-2.39-38.19-2.09H354.48l-44,1.5-.13,0c-.06,0-5.81-1.85-10.08,1.08-2.89,2-4.5,5.72-4.77,11.09-.89,17.57-3.85,54.29-3.88,54.66l-1.34,63.55-.45,41-.15,35.82,1.19,43.42.15,3.72Z" transform="translate(0 0)"/><path class="cls-1" d="M514.65,138.66l-5.82-57.77-3.72-20.54-2.69-15.53c-.05-.52-1.23-11.31-16.11-10.88l0-1.49c16.33-.47,17.62,12,17.63,12.18l2.68,15.46,3.73,20.59,5.83,57.83Z" transform="translate(0 0)"/><polygon class="cls-1" points="296.07 64.54 295.85 63.06 398.1 47.98 485.43 34.7 485.65 36.17 398.33 49.46 296.07 64.54"/><path class="cls-1" d="M509.58,136.26l-2.69-30.75-6.41-41.6c0-.13-4.18-18.37-5.22-23.25-.94-4.45-8.05-4.93-11.06-4.93a9.12,9.12,0,0,1-5.52-1.67L453.52,31.7l-60.11-2.09-61.33-.45-23.72.45,0-1.49,23.73-.45,61.37.45,60.18,2.09,25.67,2.42.19.17a7.45,7.45,0,0,0,4.72,1.45c3.38,0,11.35.6,12.52,6.11,1,4.86,5.18,23.09,5.22,23.28l6.43,41.7,2.69,30.8Z" transform="translate(0 0)"/><path class="cls-1" d="M506.3,43.92l-2.45-14.7-4-.66c-14.62-1.73-42.55-5-43.35-5.07h0c-.43,0-54.72-3.08-60.91-3.43H336l-39.74,2.71-3.14-3.87,52-1.23,22-.3,0,1.19h28.65c.64,0,60,3.41,60.92,3.43.44,0,33.42,3.89,43.51,5.08l5,.84,2.63,15.75ZM296.15,20.32l.74.91,20.78-1.42Z" transform="translate(0 0)"/><polygon class="cls-1" points="287.15 282.36 285.51 232.5 285.51 198.59 286.7 126.48 287.15 102.3 289.09 67.64 294.02 19.69 295.51 19.84 290.58 67.76 288.64 102.35 288.2 126.51 287 198.61 287 232.48 288.64 282.31 287.15 282.36"/><rect class="cls-1" x="286.42" y="30.44" width="18.48" height="1.49" transform="translate(231.22 321.42) rotate(-83.5)"/><polygon class="cls-1" points="505.13 29.11 503.86 28.33 504.43 27.41 440.54 21.25 440.68 19.77 506.95 26.15 505.13 29.11"/><path class="cls-1" d="M519.28,98.22C515.3,62.87,505.08,27.34,505,27l1.43-.42c.1.36,10.36,36,14.36,71.48Z" transform="translate(0 0)"/><rect class="cls-1" x="524.2" y="124.2" width="1.49" height="65.94" transform="translate(-8.34 31.16) rotate(-3.37)"/><path class="cls-1" d="M348.52,126.77c-.11-.62-10.94-61.83-15.62-72.37-4.53-10.19-35.29-10.75-35.6-10.75l0-1.49c1.31,0,32,.58,36.95,11.64C339,64.5,349.54,124,350,126.52Z" transform="translate(0 0)"/><path class="cls-1" d="M349,120.78,341.5,70.48c0-.21-3-20.64-4.17-26.07-1.06-4.75-8.18-5.08-8.26-5.08L297.7,37.08l.11-1.49,31.35,2.24c.32,0,8.33.39,9.63,6.25,1.19,5.49,4.07,25.34,4.19,26.18l7.46,50.3Z" transform="translate(0 0)"/><path class="cls-1" d="M404.79,93.49c-2.73-15-8.49-44.23-10.79-47.8-3-4.63-8.67-7.47-20.29-10.13-12.17-2.79-74-3.7-74.63-3.71l0-1.49c2.55,0,62.62.93,74.94,3.75,12,2.76,18,5.78,21.21,10.77,3,4.7,10.68,46.56,11,48.34Z" transform="translate(0 0)"/><path class="cls-1" d="M288.28,104.59l-5.75-.36-1.64-.34c-.14-.06-3.39-1.46-2.83-4.27.52-1.68,1.3-2.61,2.34-2.84,1.59-.35,3,1.12,3.13,1.29l-1.11,1c-.24-.26-1.07-1-1.7-.83-.47.1-.9.72-1.21,1.75-.27,1.39,1.55,2.33,1.91,2.5l1.36.27,4.15.25c.09-1.07.23-3.13.23-4.88s-.9-2-1.12-2.09l-7.37.15,0-1.49,7.53-.15h.07c.84.14,2.42,1.06,2.42,3.57s-.29,5.61-.3,5.74Z" transform="translate(0 0)"/><path class="cls-1" d="M279.09,115.19a2.42,2.42,0,0,1,.71-1.93c1.28-1.27,3.83-1.12,4.12-1.1l3.59.3-.12,1.49-3.58-.3c-.54,0-2.27,0-3,.68a.94.94,0,0,0-.27.77Z" transform="translate(0 0)"/><path class="cls-1" d="M283.42,122.53c-1.61,0-3.21-.06-3.31-.07l.06-1.49s3.71.14,5.43,0c.83-.07,1.09-.36,1.11-.5l1.49,0c0,.07,0,1.73-2.48,1.94C285.1,122.51,284.26,122.53,283.42,122.53Z" transform="translate(0 0)"/><path class="cls-1" d="M285.37,113.2l-1.2-.88c3.31-4.5.33-7.87.2-8l1.1-1S289.42,107.7,285.37,113.2Z" transform="translate(0 0)"/><path class="cls-1" d="M284.32,110.22a2.24,2.24,0,1,1,2.24-2.24A2.24,2.24,0,0,1,284.32,110.22Zm0-3a.75.75,0,1,0,.75.75A.75.75,0,0,0,284.32,107.24Z" transform="translate(0 0)"/><path class="cls-1" d="M281.18,102.46a2.24,2.24,0,1,1,2.24-2.24A2.24,2.24,0,0,1,281.18,102.46Zm0-3a.75.75,0,1,0,.75.75A.75.75,0,0,0,281.18,99.48Z" transform="translate(0 0)"/><path class="cls-1" d="M281.63,102.16a2.09,2.09,0,0,1-2.09-2.09A2,2,0,0,1,281.48,98v1.49a.61.61,0,0,0,.06,1.19,1.2,1.2,0,0,1,.54-.14V102a.43.43,0,0,0,.15,0A1.31,1.31,0,0,1,281.63,102.16Z" transform="translate(0 0)"/><path class="cls-1" d="M284.76,110.08a2.09,2.09,0,0,1-2.09-2.09,2,2,0,0,1,1.94-2.09v1.49c-.4,0-.45.42-.45.6a.59.59,0,0,0,.6.6.65.65,0,0,0,.37-.23l1.06,1.05A2,2,0,0,1,284.76,110.08Z" transform="translate(0 0)"/><path class="cls-1" d="M281.78,117.84A2.24,2.24,0,1,1,284,115.6,2.24,2.24,0,0,1,281.78,117.84Zm0-3a.75.75,0,1,0,.75.75A.75.75,0,0,0,281.78,114.85Z" transform="translate(0 0)"/><path class="cls-1" d="M282.08,117.54a2.09,2.09,0,0,1-2.09-2.09,2,2,0,0,1,1.94-2.09v1.49c-.4,0-.45.42-.45.6a.59.59,0,0,0,.6.6.67.67,0,0,0,.37-.23l1.05,1.06A2,2,0,0,1,282.08,117.54Z" transform="translate(0 0)"/><path class="cls-1" d="M282.1,119.18a4.62,4.62,0,0,1-2.57-.9l.92-1.18-.46.59.46-.59a2.91,2.91,0,0,0,2,.56,2.21,2.21,0,0,0,1.43-1.11l1.26.8a3.62,3.62,0,0,1-2.44,1.79A3.22,3.22,0,0,1,282.1,119.18Z" transform="translate(0 0)"/><path class="cls-1" d="M157,369.54a2.52,2.52,0,0,1-1.56-.56,2.71,2.71,0,0,1-1-1.75l-.75-4.77-1.8-47-.6-56-1.64-53.87-1.19-88.08-1.19-41.94c0-.57,0-55.19.15-61.69.07-3,.73-4.91,2-5.69A2.46,2.46,0,0,1,151.47,8c3.72.26,94.63,6.6,114.68,7.9,3.13.17,4.36,7.4,4.57,8.85.1.74,10.3,73.68,9.86,101.78.59,13.52,5.62,90.67,5.67,91.44l1.49,37.34-1.49.06L284.77,218c0-.76-5.08-77.92-5.67-91.5.44-28-9.74-100.85-9.85-101.58-.45-3-1.77-7.49-3.18-7.57C245.69,16,152.2,9.53,151.26,9.46L151,9.4a.93.93,0,0,0-.82.11c-.44.29-1.19,1.25-1.26,4.45-.15,6.48-.15,61.08-.15,61.63L150,117.52l1.19,88.08,1.64,53.88.6,56,1.79,46.85.74,4.69a1.11,1.11,0,0,0,1.25,1l42-2.4.08,1.49-41.95,2.39Z" transform="translate(0 0)"/><path class="cls-1" d="M159.61,364.15h-.71c-3.94-.14-5.22-2.45-5.34-3.65l1.48-.17c0,.09.34,2.2,3.91,2.33,4.24.15,30.41-1.48,30.68-1.49l10.91-.45.06,1.49-10.9.45C188.69,362.71,165.46,364.15,159.61,364.15Z" transform="translate(0 0)"/><path class="cls-1" d="M172,353.7a13.76,13.76,0,0,1-10.28-3.94c-5-5.14-4.72-13.37-4.7-13.71l-1-41.6-.6-57.33c0-.22-.3-21.89-1.29-27-4.31-5.69-1.21-15.37-.79-16.58l.15-4.07L153,139l-.9-57c0-.32-.15-31-.45-50.46-.09-5.95,1.61-10.35,5-13.09,5.89-4.69,14.72-2.81,15.67-2.59l35,1.94,48.22,3c.45,0,11.09.83,13.38,17.81C271.15,55,273.1,81,273.12,81.21l.45,10.47c-.19,2.22,0,4.85.56,5.23,1.45,1,1.77,8.28,1.82,12.55,0,.27.31,3.29-1.63,3.72-.3.26-.4,2.19-.17,3.95l4.93,62.74,2.39,50.93,1.19,39.12.45,11.94-1.49.06L281.18,270,280,230.86,277.6,180l-4.92-62.67c-.2-1.51-.49-5.16,1.33-5.56.42-.09.55-1.35.46-2.18-.07-5-.55-10.71-1.2-11.43-1.55-1-1.3-5.22-1.19-6.48l-.45-10.35c0-.24-2-26.12-4.17-42.48-2.12-15.7-11.59-16.5-12-16.52l-48.22-3-35.21-2c-.09,0-8.94-2.11-14.46,2.29-3.05,2.44-4.56,6.44-4.47,11.9.3,19.48.45,50.16.45,50.46l.9,57,.45,50.46-.19,4.44c0,.1-3.54,10.13.63,15.41l.11.14,0,.17c1,4.94,1.35,26.54,1.36,27.46l.6,57.32,1,41.64c0,.13-.28,8,4.29,12.66,2.33,2.39,5.57,3.55,9.58,3.48,15.19-.3,28.07-.74,28.2-.75l.05,1.49c-.13,0-13,.45-28.22.75Z" transform="translate(0 0)"/><path class="cls-1" d="M168.47,352.06c-1.81,0-2.1-.22-2.23-.31l.9-1.19-.45.6.3-.68s1.06.31,6.65-.21c7.43-.66,7.26-4.43,7-10.67l0-.49a3.87,3.87,0,0,0-1.31-2.92c-1.66-1.37-4.39-1-4.41-1s-3.85.16-6.07.16-3.07-2.42-3.13-3.7c0-.42.3-37.44.45-43.2.11-4.47-1.33-5.6-1.67-5.81l-5.52-.15,0-1.49,5.88.18c.3.09,2.92,1.09,2.76,7.3-.15,5.75-.44,42.75-.45,43.13,0,0,.14,2.23,1.64,2.23,2.2,0,5.9-.15,5.94-.15s3.31-.45,5.49,1.33a5.3,5.3,0,0,1,1.85,4l0,.5c.29,6.14.54,11.44-8.32,12.23C171.24,352,169.57,352.06,168.47,352.06Z" transform="translate(0 0)"/><path class="cls-1" d="M171.71,352.08c-.53,0-.87,0-.92,0l.15-1.49s3.64.33,5.58-1.38a3.68,3.68,0,0,0,1.21-2.82c.1-3.85-.65-6.6-2.18-8a5.26,5.26,0,0,0-4.43-1c-2.82.37-4.74.09-5.72-.83a1.88,1.88,0,0,1-.65-1.45v-1.89c0-.43.15-42.27.15-44.63,0-2.55-1.23-3.73-3.88-3.73a4.26,4.26,0,0,1-4.33-4.48h1.49a2.83,2.83,0,0,0,2.84,3c3.47,0,5.37,1.86,5.37,5.22,0,2.36-.15,44.21-.15,44.64v1.94a.55.55,0,0,0,.24.36c.39.31,1.48.78,4.44.39a6.66,6.66,0,0,1,5.63,1.35c1.89,1.68,2.79,4.75,2.68,9.11a5.16,5.16,0,0,1-1.72,3.91C175.74,351.86,173.1,352.08,171.71,352.08Z" transform="translate(0 0)"/><path class="cls-1" d="M170.61,351a1,1,0,0,1-.37-.07c-.63-.25-.86-1-1-1.58a59,59,0,0,1-.32-7v0l.15-2.69c.08-.48.48-2.5,1.94-2.5l.41,0c1-.1,3.41-.35,4.05,2.71a34.06,34.06,0,0,1,.61,6.27,4.07,4.07,0,0,0,.18,1.26,1.1,1.1,0,0,1,.61.57,1.78,1.78,0,0,1-.09,1.4l-.26,1-5.64.65A1,1,0,0,1,170.61,351Zm-.19-8.67a56.6,56.6,0,0,0,.28,6.67,3.14,3.14,0,0,0,.13.46l4.51-.52.08-.25,0-.11c-.75-.45-.87-1.75-.87-2.54a33.14,33.14,0,0,0-.58-6c-.34-1.64-1.19-1.67-2.44-1.55-.22,0-.41,0-.56,0a2.67,2.67,0,0,0-.46,1.17Z" transform="translate(0 0)"/><path class="cls-1" d="M174.11,343.09s-2.67-.15-3.39-.15H170l-.07-.67a5.25,5.25,0,0,1,.95-4.18,2.89,2.89,0,0,1,2-1v1.49a1.44,1.44,0,0,0-1,.51,3.43,3.43,0,0,0-.6,2.35c1.06,0,2.69.13,2.78.13Z" transform="translate(0 0)"/><path class="cls-1" d="M172.51,349.51H171V348c-.52-.75-.81-2.22-.89-4.41l0-.78h4.66v1.49h-3.09a8.37,8.37,0,0,0,.55,2.84,1.1,1.1,0,0,1,.63,1.06,1,1,0,0,1-.33.67Z" transform="translate(0 0)"/><rect class="cls-1" x="172.66" y="347.65" width="3.59" height="1.49" transform="translate(-14.44 7.61) rotate(-2.4)"/><path class="cls-1" d="M173.13,348.33a3.16,3.16,0,0,1-1.65-.6l-.14-.1-.08-.15a2.32,2.32,0,0,1,.52-3.06h0a2.16,2.16,0,0,1,2-.25,2.13,2.13,0,0,1,.92,2.06,2,2,0,0,1-.9,1.94A1.54,1.54,0,0,1,173.13,348.33Zm-.63-1.72a1.33,1.33,0,0,0,.67.22,1.46,1.46,0,0,0,.09-.61c0-.61-.13-.75-.14-.75a1.11,1.11,0,0,0-.49.18C172.29,345.91,172.4,346.38,172.5,346.61Z" transform="translate(0 0)"/><path class="cls-1" d="M172.93,342.59a2.13,2.13,0,0,1-1.33-.54,2.09,2.09,0,0,1-.66-2.58l0,0c.12-.21.79-1.26,1.73-1.26h0a1.54,1.54,0,0,1,1.33,1c.81,1.63.61,2.22-.19,3l-.18.17A1.27,1.27,0,0,1,172.93,342.59Zm-.66-2.43a.48.48,0,0,0,.06.48,1.1,1.1,0,0,0,.53.44,1.66,1.66,0,0,0,.24-.26s0-.22-.36-1l-.08-.14A2,2,0,0,0,172.27,340.17Z" transform="translate(0 0)"/><path class="cls-1" d="M238.89,57.05c-15.36,0-35.28-.25-36.54-.27L196,56.33c-.41-.06-8.59-1.37-8.75-7.74-.28-5.52-.43-11.67-.45-12.21s-.46-4.74,2.26-7.68c1.82-2,4.59-2.87,8.23-2.67,10.93.59,40.76,2.67,41.06,2.69l13.1,1A9.08,9.08,0,0,1,261,37.7c1.32,7.79,1.78,9.95,1.79,10l0,.11c.17,2.88-1.06,8.47-6.95,9C253.59,57,246.85,57.05,238.89,57.05ZM196.37,27.5c-2.74,0-4.81.75-6.18,2.22-2.36,2.55-1.87,6.47-1.87,6.51v.08c0,.06.15,6.48.45,12.22.13,5.16,7.35,6.31,7.43,6.32l6.21.44c.42,0,46.72.59,53.32,0,5.7-.51,5.62-6.69,5.59-7.37-.08-.4-.56-2.76-1.78-10a7.51,7.51,0,0,0-8-6.7h-.12l-13.14-1c-.29,0-30.12-2.1-41-2.69Z" transform="translate(0 0)"/><path class="cls-1" d="M225.08,55.59l-22.13-.45c-.1,0-14.55.49-15.8-11.12l1.48-.16c1.11,10.23,14.17,9.79,14.3,9.78l22.14.45c.14,0,18.14-.59,26.57-.45,3.22.06,5.53-1.2,6.85-3.72a9.9,9.9,0,0,0,1.05-3.85c0-.3-.25-1.9-1-7.24-.81-5.52-8.12-6.82-8.19-6.84l-14.1-.89-43.58-2.39.08-1.49,43.59,2.39,14.19.9c.42.07,8.54,1.52,9.5,8.1.89,6.06,1,7.28,1,7.33V46a11.3,11.3,0,0,1-1.22,4.57c-1.1,2.11-3.41,4.62-8.19,4.52C243.22,55,225.26,55.58,225.08,55.59Z" transform="translate(0 0)"/><path class="cls-1" d="M172.4,56.48c-2.37,0-4.72-.36-6.29-1.87-1.28-1.23-1.89-3.09-1.82-5.54-.1-.62-.61-4.33,1.21-6.57a4.69,4.69,0,0,1,3.7-1.69,64.89,64.89,0,0,1,10,.46,6.12,6.12,0,0,1,4.37,6.61c0,.58-.06,1.12-.08,1.64-.16,3.79-.27,6.53-5.57,6.68-.66,0-1.38.07-2.13.13C174.7,56.39,173.55,56.48,172.4,56.48ZM171,42.28l-1.8,0a3.22,3.22,0,0,0-2.58,1.13c-1.26,1.56-1.07,4.46-.89,5.45V49c-.07,2.07.37,3.54,1.36,4.49,1.85,1.78,5.39,1.52,8.51,1.29.77-.06,1.52-.11,2.2-.13,3.91-.11,4-1.41,4.12-5.25,0-.52,0-1.08.08-1.67a4.58,4.58,0,0,0-3.17-5.05h0A65,65,0,0,0,171,42.28Z" transform="translate(0 0)"/><path class="cls-1" d="M177,54.55c-4.15,0-8.34-.15-8.39-.15l.05-1.49s4.21.15,8.33.15c2.92,0,3.13-1.17,3.36-4.85,0-.38,0-.77.08-1.17.12-3.1-3.34-3.37-3.49-3.38s-1.38,0-6.26-.3c-4.31-.12-4.87,3.25-4.89,3.39l-1.48-.21s.72-4.84,6.43-4.67c4.85.29,6.23.3,6.25.3,1.8.12,5.07,1.31,4.92,5,0,.42-.05.81-.08,1.18C181.63,51.65,181.45,54.55,177,54.55Z" transform="translate(0 0)"/><path class="cls-1" d="M269.24,70.28l-1.49-19.7a1.44,1.44,0,0,0-.05-.32,2.77,2.77,0,0,1-.09-.54c-.08-.41-.2-1-.34-1.82-.66-3.58-2-11-3.35-14.89-1.76-5-7.83-5.76-7.89-5.77l-7.9-.75-31-2.39c-.23,0-23.9-1.49-28.6-1.49a3.75,3.75,0,0,0-2.94,1,2.4,2.4,0,0,0-.5,1.74c.17.82,0,3.42-.59,7.39-.79,5.64-6.54,6.59-9.47,6.31-.1,0-12.33-.74-15.5-.3a4.39,4.39,0,0,1-4.85-3.09l0-.16-.3-8.21,1.49-.05.29,8.11a2.86,2.86,0,0,0,3.22,1.92c3.29-.45,15.28.27,15.79.3.31,0,7.09.6,7.87-5s.62-6.83.61-6.87a3.88,3.88,0,0,1,.81-3,5.1,5.1,0,0,1,4.09-1.51c4.75,0,27.73,1.43,28.71,1.49L248.25,25l7.92.75c.3,0,7.07.87,9.14,6.77,1.37,4,2.7,11.22,3.41,15.11.15.81.27,1.46.35,1.85v.15a1.46,1.46,0,0,0,.05.27,2.55,2.55,0,0,1,.1.63l1.49,19.65Z" transform="translate(0 0)"/><path class="cls-2" d="M163.1,18" transform="translate(0 0)"/><path class="cls-1" d="M173.28,36.78c-14.73-.15-15.14-.43-15.36-.57l.83-1.24-.41.62.24-.7c.81.19,9.44.35,14.69.4,0,0,4.62-.18,5.23-3a50.07,50.07,0,0,0,.58-9.08V20.06h1.49V23.2a50.45,50.45,0,0,1-.61,9.41C179.1,36.57,173.51,36.77,173.28,36.78Z" transform="translate(0 0)"/><path class="cls-1" d="M263.61,32.09c-2.34-7-15.31-7.55-15.44-7.55L226.79,23l-35.22-1.94c-8-.14-9.09-.91-9.37-1.34a16.32,16.32,0,0,0-4.4-.9l-9-.15,0-1.49,9.11.15c1.8.18,4.81.61,5.5,1.47h0c.73.39,4.8.7,8.24.76l35.26,1.94L248.24,23c.55,0,14.11.56,16.78,8.57Z" transform="translate(0 0)"/><path class="cls-1" d="M171.6,33h-.13c-1.15-.06-2.13-.82-2.9-2.27l-.08-.14v-.16c-.3-4.75-.3-10.88-.3-10.94v-.52l.49-.18c.57-.21,5.59-1.93,7,1,1.27,2.54.06,9.53-.08,10.32l0,.15-.09.13C175.33,30.61,173.68,33,171.6,33ZM170,30.15c.49.86,1,1.32,1.58,1.34,1,.06,2.21-1.26,2.65-1.87.37-2.13,1.05-7.5.19-9.23-.64-1.28-3.31-.8-4.7-.39C169.68,21.58,169.73,26.3,170,30.15Z" transform="translate(0 0)"/><path class="cls-1" d="M170.19,31a2.83,2.83,0,0,1-1-2.53c0-.53-.15-2.91-.15-4.26a3.46,3.46,0,0,1,1.14-2.55L170,20.21h3.85V21.7h-2.12l.1.67-.41.26a2,2,0,0,0-.84,1.61c0,1.46.15,4.26.15,4.29v.14l0,.13h0s-.1.51.57,1.18Z" transform="translate(0 0)"/><rect class="cls-1" x="171.99" y="23.64" width="1.49" height="4.93" transform="translate(141.4 197.97) rotate(-88.26)"/><rect class="cls-1" x="172.06" y="25.21" width="1.49" height="4.48" transform="translate(139.61 199.25) rotate(-88.09)"/><path class="cls-1" d="M175.94,23.79h-1.49a1.3,1.3,0,0,0-.43-1.08,4.23,4.23,0,0,0-2.87-.43l-.26-1.47c.27,0,2.67-.44,4.09.75A2.79,2.79,0,0,1,175.94,23.79Z" transform="translate(0 0)"/><path class="cls-1" d="M172.68,26.2l-.23,0c-.52,0-2.22-.29-2.46-1.49v-.15a3,3,0,0,1,.82-2.19A1.48,1.48,0,0,1,172,22a2.18,2.18,0,0,1,2,1.58,2.23,2.23,0,0,1-1.09,2.5Zm-1.21-1.79a3.24,3.24,0,0,0,.84.25.65.65,0,0,0,.23-.66.67.67,0,0,0-.63-.5h-.15A1.49,1.49,0,0,0,171.47,24.41Z" transform="translate(0 0)"/><path class="cls-1" d="M172,31.71l-.1,0a2.51,2.51,0,0,1-2.1-2.74l0-.11a2.21,2.21,0,0,1,1-1.37,1.28,1.28,0,0,1,.85-.11,2.65,2.65,0,0,1,2,.41,1.88,1.88,0,0,1,.68,1.55,2.36,2.36,0,0,1-2.17,2.38Zm-.72-2.56a1,1,0,0,0,.78,1,.84.84,0,0,0,.72-.88c0-.29-.09-.36-.12-.38a1.38,1.38,0,0,0-.91-.08l-.21,0-.12,0A1.35,1.35,0,0,0,171.31,29.15Z" transform="translate(0 0)"/><path class="cls-1" d="M174.64,208.48c-1.87,0-7.1-.73-8.54-8.7-.46-2.12-1-2.61-1.43-3.08-1-.95-1.55-1.85-1.72-6.43-.29-7.81-2.81-55.93-2.84-56.41l-.75-57.51V63.87a6,6,0,0,1,1.38-4.9c2.18-2.54,6.51-3.58,12.86-3.08,12.21.59,88.44,1,89.21,1,.28,0,7,.14,7.61,12.5.59,11.64,1.78,25.36,1.79,25.5l0,.24-.12.21c-.28.47-6.74,11.56,2,20.13l.2.19,0,.28c.44,5.48.89,21.82.9,22l2.54,44.76L278.94,198a6.12,6.12,0,0,1-1.37,4.79c-2.42,3-7.48,4.56-15,4.56-17.4,0-53.8.89-54.17.9h-19l-14.14.15A5.81,5.81,0,0,1,174.64,208.48ZM160.87,76.33l.75,57.47c0,.46,2.54,48.58,2.84,56.41.16,4.32.68,4.83,1.28,5.42s1.29,1.27,1.84,3.85c1.5,8.32,7.27,7.52,7.52,7.48h.11l14.18-.15h19c.35,0,36.76-.9,54.19-.9,8.84,0,12.43-2.18,13.88-4a4.58,4.58,0,0,0,1.06-3.59l0-.11-1.19-15.37L273.72,138c0-.18-.44-16-.87-21.65-8.58-8.69-3.05-19.85-2.13-21.55-.16-1.85-1.22-14.48-1.77-25.32s-5.9-11.08-6.13-11.08c-.77,0-77-.46-89.3-1-5.79-.45-9.81.44-11.63,2.57a4.51,4.51,0,0,0-1,3.68l0,.17Z" transform="translate(0 0)"/><path class="cls-1" d="M197.93,339.09c-4.35,0-12.23-1-16.22-8-1.19-2-2.19-3.62-3.07-5-3.12-5-4.28-6.82-4.64-13.67-.44-8.43-.6-50.81-.6-51.24,0-.19-.18-5.38,3.15-8.8a10.11,10.11,0,0,1,7.76-2.85c10.6.29,17.65,0,17.72,0,.31,0,8.08-.74,7.94-12.38-.29-12.34-1.18-19.7-1.19-19.77a5.78,5.78,0,0,1,1.53-4.24c2.12-2.43,6.07-3.69,11.75-3.76,13.28-.3,32.36-.3,32.55-.3l11.56-.15a6.27,6.27,0,0,1,4.83,1.21c2.41,1.83,3.72,5.39,3.91,10.56.44,12.7,1.19,60.88,1.19,61.37l-1.49,0c0-.49-.75-48.65-1.19-61.34-.16-4.62-1.3-7.87-3.29-9.4a4.73,4.73,0,0,0-3.7-.94l-.16,0-11.64.15c-.2,0-19.26,0-32.54.3-6.49.07-9.35,1.79-10.61,3.21a4.32,4.32,0,0,0-1.2,3.12c0,.07.9,7.49,1.2,19.92.16,13.1-9.26,13.89-9.35,13.9s-7.18.3-17.83,0a8.74,8.74,0,0,0-6.65,2.39c-2.88,2.95-2.73,7.68-2.73,7.73,0,.45.15,42.8.6,51.19.34,6.46,1.37,8.1,4.42,13,.88,1.41,1.89,3,3.09,5.06,5.07,8.87,17.63,7.12,17.76,7.1l.22,1.48A22.34,22.34,0,0,1,197.93,339.09Z" transform="translate(0 0)"/><path class="cls-1" d="M185.14,223.67c-1.77,0-4.43-.6-4.71-2.89s-.3-5.82-.3-7.56a8.51,8.51,0,0,1,.17-2.12l.43-1.44A2.29,2.29,0,0,1,181.8,208c.82-.42,2.21-.57,4.74-.57,4.72-.15,14,0,14,0h0a2.8,2.8,0,0,1,1.89.9,5.81,5.81,0,0,1,1.23,4.35,37.1,37.1,0,0,0,.29,7,2.58,2.58,0,0,1-.74,2c-1,1.11-3,1.64-5.69,1.58a82.79,82.79,0,0,0-12.13.44Zm7.15-14.84c-2.07,0-4.15,0-5.72.07-2.72,0-3.68.2-4,.37a.77.77,0,0,0-.33.53l0,.21-.45,1.49a7.48,7.48,0,0,0-.12,1.73c0,1.71.14,5.24.3,7.41.2,1.62,3.38,1.55,3.41,1.55a83.8,83.8,0,0,1,12.31-.45c2.93.09,4.08-.63,4.5-1.06a1.2,1.2,0,0,0,.39-.83,37.36,37.36,0,0,1-.3-7.25c.12-3.58-1.59-3.71-1.66-3.71S196.41,208.83,192.29,208.83Z" transform="translate(0 0)"/><path class="cls-1" d="M185.67,222.33c-1.21,0-3.46-.53-3.46-2.54,0-1.67-.13-7-.15-7.54a2.79,2.79,0,0,1,.59-2.18,3.06,3.06,0,0,1,2.55-.88l14.9-.45a2.35,2.35,0,0,1,1.71.64,2.75,2.75,0,0,1,.7,2.25,40.85,40.85,0,0,0,.15,7,3.29,3.29,0,0,1-.72,2.49,3.67,3.67,0,0,1-3,1c-4-.15-13.14.15-13.23.15ZM185,210.68a1.59,1.59,0,0,0-1.17.37,1.35,1.35,0,0,0-.23,1v.11c0,.24.15,5.85.15,7.63,0,1,1.92,1,1.94,1,.35,0,9.3-.3,13.31-.15a2.27,2.27,0,0,0,1.87-.53,1.8,1.8,0,0,0,.35-1.29,41.5,41.5,0,0,1-.16-7.35,1.46,1.46,0,0,0-.25-1.06.86.86,0,0,0-.6-.22l-15,.45H185Z" transform="translate(0 0)"/><path class="cls-1" d="M199.08,221h-1.49v-6.12a1,1,0,0,0-.32-.86,2.65,2.65,0,0,0-1.8-.35h-.1l-12.54.15,0-1.49,12.49-.15a4,4,0,0,1,2.94.7,2.51,2.51,0,0,1,.84,2Z" transform="translate(0 0)"/><rect class="cls-1" x="197.05" y="210.91" width="4.96" height="1.49" transform="translate(-90.98 196.9) rotate(-43.78)"/><path class="cls-1" d="M159.14,259.09a6.48,6.48,0,0,1-.75,0l.17-1.48a3.15,3.15,0,0,0,2.63-.7c1.5-1.36,1.46-4.19,1.46-4.22L163,218l-.43-8.38c-6.19-8-2.07-14.76-1.08-16.16l-.27-2.7-.6-11.38L158,107.71l-1.19-46.28c0-.62.08-5.93,2.71-7l.55,1.39c-1.34.54-1.77,4-1.77,5.58l1.19,46.26,2.54,71.65.6,11.33.33,3.26-.2.24c-.22.27-5.34,6.68,1.05,14.73l.15.19.46,8.9-.3,34.68c0,.12.06,3.5-1.94,5.33A4.39,4.39,0,0,1,159.14,259.09Z" transform="translate(0 0)"/><path class="cls-1" d="M159.84,261.54a7.72,7.72,0,0,1-1.36-.11l.28-1.47a6.54,6.54,0,0,0,4.85-1.13c1.35-1.12,2-3,2-5.6,0-8.84-.44-20.45-.45-20.57-.08-.71-.41-4.55,1-5.93,1.08-1.08,1.72-3.17,1.72-5.59-.15-2.6-.74-9.12-.74-9.19l-.3-6.75,1.49-.07.3,6.72s.6,6.58.75,9.25c0,2.89-.79,5.32-2.16,6.69-.64.64-.7,3.22-.53,4.77,0,.17.45,11.81.45,20.68,0,3.07-.87,5.34-2.58,6.76A7.39,7.39,0,0,1,159.84,261.54Z" transform="translate(0 0)"/><polygon class="cls-1" points="197.33 376.07 179.95 373.51 174.27 368.74 175.23 367.6 180.59 372.09 197.55 374.6 197.33 376.07"/><path class="cls-1" d="M173.72,384.59a16.09,16.09,0,0,1-2.68-.16l-.11,0a19.15,19.15,0,0,1-5.82-1.72c-2.42-1.61-2.49-11.3-2.45-14.23l1.49,0c-.07,5.62.58,12.17,1.76,13a18.27,18.27,0,0,0,5.29,1.51l.1,0a15.54,15.54,0,0,0,2.55.14l22.51-.89.06,1.49-22.54.9Z" transform="translate(0 0)"/><path class="cls-1" d="M172.94,411.92a7,7,0,0,1-5.81-2.7,7.82,7.82,0,0,1-1.19-3.33c-.18-2.32-.66-8-1.06-12.65-.28-3.32-.52-6.15-.59-7-.37-2.8,3.07-3.86,3.22-3.91l.43,1.43-.21-.71.22.71s-2.37.75-2.16,2.32c.07.84.31,3.67.59,7,.4,4.69.88,10.34,1.06,12.61a6.31,6.31,0,0,0,.92,2.63,5.58,5.58,0,0,0,5,2.06c5.45-.29,22.21-1.48,22.38-1.49l.11,1.49c-.17,0-16.94,1.2-22.4,1.49Z" transform="translate(0 0)"/><path class="cls-1" d="M142.79,409.18c-7.21,0-13.29-15-13.87-34.37-.28-9.17.75-17.84,2.89-24.42,2.22-6.82,5.43-10.63,9-10.74H141c7.21,0,13.29,15,13.87,34.37s-4.65,34.94-11.93,35.16Zm-1.78-68h-.12c-2.89.09-5.68,3.63-7.66,9.71-2.09,6.42-3.09,14.91-2.82,23.91.54,17.92,6.2,32.92,12.38,32.93h.12c6.23-.19,11-15.58,10.48-33.62S147.19,341.14,141,341.14Z" transform="translate(0 0)"/><path class="cls-1" d="M149.41,403.39c-5.47-.83-9.59-13.92-9.59-30.44,0-11.72,2.28-22.61,5.8-27.74l1.23.85c-3.31,4.82-5.54,15.63-5.54,26.89,0,16.57,4.3,28.36,8.32,29Z" transform="translate(0 0)"/><path class="cls-1" d="M146.19,405.44a7.59,7.59,0,0,1-4.84-1.74c-6-4.76-8-18.27-8.69-28.76-.67-12.35,1.82-23.55,6.34-28.54a7.34,7.34,0,0,1,5.12-2.71h1.08v1.49h-1a5.92,5.92,0,0,0-4,2.22c-4.2,4.64-6.6,15.67-6,27.45.92,14.4,3.81,24.24,8.13,27.68a6.11,6.11,0,0,0,5,1.33,4.25,4.25,0,0,0,.52-.18,5.4,5.4,0,0,1,.77-.25l.36,1.45a4,4,0,0,0-.58.19,5.29,5.29,0,0,1-.77.25A8.72,8.72,0,0,1,146.19,405.44Z" transform="translate(0 0)"/><path class="cls-1" d="M143.46,419.54c-9.48,0-18.42-19.64-20.06-44.3-1.69-25.45,4.58-46,14.27-46.77,6.45-.46,12.92,8.16,16.9,22.49l-1.44.4c-3.72-13.4-9.76-21.79-15.35-21.4-8.71.7-14.5,21-12.89,45.18C126.48,399,135.13,418.59,143.8,418s14.49-21,12.89-45.18a30.17,30.17,0,0,0-.26-3.49l0-.36,1.48-.17,0,.36a31.3,31.3,0,0,1,.26,3.61c1.68,25.4-4.58,45.94-14.27,46.72Z" transform="translate(0 0)"/><path class="cls-1" d="M145.46,424c-5.83,0-11.74-7.44-15.91-20.09l1.42-.47c4,12.15,9.71,19.43,14.91,19,4.09-.26,7.67-5.32,10.08-14.23l1.44.39c-2.6,9.58-6.65,15-11.42,15.33Z" transform="translate(0 0)"/><path class="cls-1" d="M125.63,352.28l-1.48-.16c1.74-16,6.92-26.18,13.53-26.64,6.21-.45,12.36,7.23,16.88,21.11l-1.42.46c-4.16-12.79-10-20.48-15.36-20.09C132,327.37,127.26,337.31,125.63,352.28Z" transform="translate(0 0)"/><path class="cls-1" d="M136.38,327.21l-.58-1.38c.35-.15,8.78-3.65,16.79-2.74l-.17,1.48C144.81,323.71,136.46,327.18,136.38,327.21Z" transform="translate(0 0)"/><path class="cls-1" d="M156,424.42c-6.17,0-11.56-.39-12-.42l.11-1.49c.22,0,22.26,1.59,28.42-1.56,6-3.07,7.51-10.16,7.52-10.23l1.46.29c-.06.32-1.64,7.86-8.3,11.27C169.8,424,162.45,424.42,156,424.42Z" transform="translate(0 0)"/><path class="cls-1" d="M182.17,421.77a16.83,16.83,0,0,1-6.11-1.73l.67-1.33s3.43,1.71,5.74,1.56c2.53,0,13.17-.74,13.28-.75l.1,1.49c-.44,0-10.8.75-13.34.75Z" transform="translate(0 0)"/><path class="cls-1" d="M154.77,424.13l-.94-1.16c.07-.06,7-5.74,8.24-13,1.34-7.76,2.09-12.23,2.09-12.23l1.47.25s-.75,4.48-2.09,12.25S155.07,423.89,154.77,424.13Z" transform="translate(0 0)"/><path class="cls-1" d="M159.77,424.26l-.49-1.41.25.71-.25-.7c.06,0,6.51-2.44,8.77-13.18l1.46.31C167.06,421.6,160.06,424.16,159.77,424.26Z" transform="translate(0 0)"/><path class="cls-2" d="M165.49,423.4" transform="translate(0 0)"/><path class="cls-1" d="M157.13,420.57h-3.28a5.62,5.62,0,0,1-5-2.82l1.35-.63-.68.32.67-.32a4.16,4.16,0,0,0,3.69,2h3.25Z" transform="translate(0 0)"/><path class="cls-1" d="M156.42,419.13c-4.81,0-6-2.61-6.09-2.73l1.36-.62c0,.09,1.13,2.2,5.83,1.81l.12,1.49C157.21,419.11,156.8,419.13,156.42,419.13Z" transform="translate(0 0)"/><path class="cls-1" d="M159.59,417s-1.34-.14-3.5-.14a5,5,0,0,1-3.92-2.3l1.27-.79a3.52,3.52,0,0,0,2.65,1.59,36.36,36.36,0,0,1,3.66.15Z" transform="translate(0 0)"/><path class="cls-1" d="M157,414.75a5.61,5.61,0,0,1-4.08-2.09l1.18-.91a4,4,0,0,0,3.09,1.5c2.24-.15,3.29-.15,3.33-.15v1.49s-1.05,0-3.23.15Z" transform="translate(0 0)"/><path class="cls-1" d="M154.53,423c-.07,0-1.85-.16-3.5-.46a4.86,4.86,0,0,1-3.21-2.32l1.31-.72a3.4,3.4,0,0,0,2.16,1.57c1.6.29,3.35.44,3.37.44Z" transform="translate(0 0)"/><path class="cls-1" d="M160.48,411.91l-3.88-.45a4.38,4.38,0,0,1-2.82-2.2l1.33-.67-.67.33.67-.34a2.87,2.87,0,0,0,1.72,1.4l3.82.44Z" transform="translate(0 0)"/><path class="cls-1" d="M161.76,407.73a18.66,18.66,0,0,1-4.53-.63c-1.27-.36-1.92-.81-2.08-1.43a1.07,1.07,0,0,1,.26-1l1.06,1.06a.42.42,0,0,0,.08-.52,2.52,2.52,0,0,0,1.09.47,17.33,17.33,0,0,0,4.12.57Z" transform="translate(0 0)"/><path class="cls-1" d="M161.65,395.28c-3.32,0-4.22-1.07-4.39-1.32l1.21-.87s.93,1,4.86.61l.14,1.49C162.8,395.25,162.19,395.28,161.65,395.28Z" transform="translate(0 0)"/><path class="cls-1" d="M160.22,398.93c-2.49,0-3.37-.87-3.5-1l1.09-1s1.28,1.14,5.71.09l.34,1.45A16,16,0,0,1,160.22,398.93Z" transform="translate(0 0)"/><path class="cls-1" d="M159.89,404c-2.91,0-3.83-1.08-4-1.24l1.17-.92s1.32,1.37,6.42.19l.34,1.45A17.84,17.84,0,0,1,159.89,404Z" transform="translate(0 0)"/><path class="cls-1" d="M160.39,385.63a4.55,4.55,0,0,1-2.31-.4l.79-1.27-.4.63.36-.65s1.2.56,5.16-.23l.29,1.46A20.25,20.25,0,0,1,160.39,385.63Z" transform="translate(0 0)"/><path class="cls-1" d="M158.5,380.71l-.06-1.49a33.78,33.78,0,0,0,4.72-.41l.47,1.42A33.45,33.45,0,0,1,158.5,380.71Z" transform="translate(0 0)"/><rect class="cls-1" x="158.14" y="373.1" width="5.15" height="1.49" transform="translate(-62.61 33.68) rotate(-10.02)"/><path class="cls-1" d="M141.17,328.89a3.38,3.38,0,0,1,.74-2.54c1-1.28,2.84-2,5.46-2.22l.11,1.49c-2.16.16-3.68.73-4.4,1.65a2,2,0,0,0-.45,1.36Z" transform="translate(0 0)"/><path class="cls-1" d="M142.66,330.05a3.68,3.68,0,0,1,.87-2.62c1.07-1.33,3-2.14,5.62-2.39l.14,1.49c-2.22.21-3.81.85-4.6,1.84a2.3,2.3,0,0,0-.55,1.51Z" transform="translate(0 0)"/><path class="cls-1" d="M144.61,331.32a3,3,0,0,1,.6-2.37c1-1.31,2.91-2.07,5.75-2.27l.1,1.49c-3,.21-4.17,1-4.65,1.67a1.58,1.58,0,0,0-.34,1.15Z" transform="translate(0 0)"/><path class="cls-1" d="M146.24,332.87s-.31-3.72,5.28-4.4l.18,1.48c-4.08.49-4,2.69-4,2.78Z" transform="translate(0 0)"/><path class="cls-1" d="M148.31,334.87l-1.47-.26c0-.13.59-3.22,5.39-4l.25,1.47C148.79,332.67,148.33,334.78,148.31,334.87Z" transform="translate(0 0)"/><path class="cls-1" d="M140.71,328.13l-1.48-.21a4.84,4.84,0,0,1,4.4-4.07l.13,1.49A3.37,3.37,0,0,0,140.71,328.13Z" transform="translate(0 0)"/><path class="cls-1" d="M149.93,337.06l-1.42-.47c.05-.16,1.37-4,4.58-4.67l.31,1.46C151,333.88,149.94,337,149.93,337.06Z" transform="translate(0 0)"/><path class="cls-1" d="M150.92,338.84l-1.3-.74a6.41,6.41,0,0,1,3.78-2.9l.31,1.46A5,5,0,0,0,150.92,338.84Z" transform="translate(0 0)"/><path class="cls-1" d="M152.64,342.21l-1.46-.32c.12-.55.81-3.27,2.52-3.27v1.49C153.44,340.11,152.88,341.13,152.64,342.21Z" transform="translate(0 0)"/><path class="cls-1" d="M161.71,389.83a6.84,6.84,0,0,1-3.49-.87l.8-1.26a6,6,0,0,0,4.62.36l.41,1.44A8.51,8.51,0,0,1,161.71,389.83Z" transform="translate(0 0)"/><path class="cls-1" d="M144.25,408.93c-6.78,0-12.77-14.36-13.69-33-.7-14.24,1.82-27.1,6.28-32a6,6,0,0,1,4.13-2.21c6.7-.33,12.67,13.32,13.92,31.74v1.24H153.4v-1.19c-1.15-17-6.69-30.59-12.35-30.3A4.57,4.57,0,0,0,138,345c-4.21,4.64-6.58,17.07-5.9,30.94,1,19.17,7.18,31.79,12.35,31.53l.07,1.49Z" transform="translate(0 0)"/><rect class="cls-1" x="62.79" y="285.06" width="1.49" height="124.58" transform="translate(-288.89 325.36) rotate(-76.06)"/><path class="cls-1" d="M115.32,303.88a3.93,3.93,0,0,1-.72-.06l-8.9-1L0,289.05l.19-1.48L105.88,301.3l8.95,1c.24,0,4.73.76,7.73-7,2.21-5.71,7.7-12.35,14.55-13.4,5.41-.84,10.64,1.85,15.54,8l-1.17.93c-4.55-5.68-9.31-8.19-14.15-7.44-6.69,1-11.67,8-13.38,12.46C121.16,303.1,117,303.88,115.32,303.88Z" transform="translate(0 0)"/><path class="cls-1" d="M123.82,356.79c-.1-.16-10.26-16.23-3.52-39.87,3.33-11.69,9.13-18.56,15.91-18.84,6.52-.27,12.56,5.65,16.55,16.25l-1.4.53c-3.69-9.81-9.36-15.52-15.1-15.28-6,.25-11.44,6.89-14.54,17.76-6.54,23,3.24,38.5,3.34,38.65Z" transform="translate(0 0)"/><path class="cls-1" d="M125.09,348.75c-.08-.19-7.49-19.15-.46-38.6,2.33-6.44,5.6-10.21,9.72-11.21,6-1.44,11.42,3.54,11.65,3.75l-1,1.09s-5.09-4.65-10.29-3.39c-3.6.87-6.51,4.32-8.66,10.26-6.83,18.9.37,37.35.44,37.53Z" transform="translate(0 0)"/><path class="cls-1" d="M116.09,333.19c-.06-.48-1.49-11.72.32-18.5.63-2.37.15-3,0-3.08-.57-.43-2.18.19-2.92.63l-.22.13L9.56,299.65l.18-1.48,103.21,12.66c.75-.4,3-1.44,4.35-.4,1,.76,1.18,2.28.55,4.65-1.73,6.5-.29,17.81-.28,17.92Z" transform="translate(0 0)"/><rect class="cls-1" x="2.76" y="60.74" width="146.64" height="1.49" transform="translate(-10.89 16.7) rotate(-11.7)"/><path class="cls-1" d="M75,298.46c-.73,0-.74-.36-.75-1.87l-.59-66.34C73,151.5,95.13,58.14,95.35,57.21l1.45.35c-.22.93-22.36,94.12-21.62,172.68.57,64.75.6,67.38.6,67.47l-.74.76Z" transform="translate(0 0)"/><path class="cls-1" d="M59.6,206.08c-.37,0-.6,0-.61,0l-55.16-.44v-1.49l55.23.45c.47,0,9.81.81,11.2-10.24C73.22,150.84,84.89,89,88.19,75.27c1.39-5.77.45-7.55-.23-8.1-1-.82-2.73,0-2.75,0l-.17.06L29.8,78.71l-.3-1.46L84.65,65.77c.48-.21,2.65-1.05,4.24.22s2,4.53.75,9.62c-3.18,13.21-15,76.08-17.89,118.85C70.39,205.31,62,206.08,59.6,206.08Z" transform="translate(0 0)"/><rect class="cls-1" x="7.18" y="82.31" width="82.42" height="1.49" transform="translate(-14.25 10.14) rotate(-10.44)"/><rect class="cls-1" x="14.32" y="113.36" width="67.98" height="1.49" transform="translate(-16.97 8.79) rotate(-8.85)"/><rect class="cls-1" x="33.02" y="121.79" width="47.16" height="1.49" transform="translate(-16.15 8.84) rotate(-7.82)"/><path class="cls-1" d="M21.61,204l0-1.49c.14,0,14.54-.3,31.81-.3C69.51,202.18,70,196,70,195.91h1.49c0,.32-.21,7.76-18.06,7.76C36.13,203.67,21.75,204,21.61,204Z" transform="translate(0 0)"/><rect class="cls-1" x="9.77" y="186.13" width="61.72" height="1.49" transform="translate(-8.52 2.06) rotate(-2.62)"/><rect class="cls-1" x="34.87" y="183.07" width="37.03" height="1.49" transform="translate(-4.43 1.35) rotate(-1.39)"/><rect class="cls-1" x="25.9" y="175.83" width="46.17" height="1.49" transform="translate(-7.35 2.21) rotate(-2.4)"/><path class="cls-1" d="M94.41,90.72,93,90.32s.78-2.9,3.27-17.1c1.18-6.76,3-10.6,5.37-11.42a3,3,0,0,1,2.56.31L147.44,54l.28,1.47-44,8.28-.27-.25a1.5,1.5,0,0,0-1.42-.24c-1,.37-3,2.19-4.36,10.26C95.2,87.83,94.44,90.61,94.41,90.72Z" transform="translate(0 0)"/><rect class="cls-1" x="85.88" y="103.51" width="62.64" height="1.49" transform="translate(-14.12 18.47) rotate(-8.5)"/><rect class="cls-1" x="84.43" y="113.73" width="64.49" height="1.49" transform="translate(-14.56 17.03) rotate(-7.86)"/><rect class="cls-1" x="84.7" y="171.28" width="65" height="1.49" transform="translate(-7.75 5.55) rotate(-2.62)"/><path class="cls-1" d="M89.21,205.46a8.16,8.16,0,0,1-6.33-2.71c-4.38-4.87-3.41-14.58-3.36-15l6.42-66.72,1.49.14L81,187.92c0,.1-.95,9.47,3,13.84A6.64,6.64,0,0,0,89.21,204c10.62,0,60.4-.3,60.9-.3v1.49C149.62,205.17,99.84,205.46,89.21,205.46Z" transform="translate(0 0)"/><path class="cls-1" d="M99.07,201.58c-7.4,0-12.49-1.68-15.12-5a8.52,8.52,0,0,1-1.73-6.82l1.45.34-.73-.17.73.17a7,7,0,0,0,1.46,5.58c2.31,2.88,7.13,4.41,13.94,4.41,18.44,0,50.12-.74,50.44-.75l0,1.49C149.22,200.84,117.52,201.58,99.07,201.58Z" transform="translate(0 0)"/><rect class="cls-1" x="84.09" y="182.47" width="65.93" height="1.49" transform="translate(-9.78 6.63) rotate(-3.11)"/><rect class="cls-1" x="91.87" y="180.38" width="57.83" height="1.49" transform="translate(-8.28 5.8) rotate(-2.66)"/><path class="cls-1" d="M87.87,182a2.31,2.31,0,0,1-1.6-.81c-1.83-1.87-3.74-7.59-2.43-24.17l1.49.12c-1.76,22.22,2.51,23.37,2.56,23.38l0,1.49Z" transform="translate(0 0)"/><path class="cls-1" d="M74.46,307.32a16.41,16.41,0,0,1-.47-3.93c0-2.45,2.58-5.4,2.88-5.72l1.11,1c-.69.77-2.5,3.13-2.5,4.73a15.16,15.16,0,0,0,.42,3.54Z" transform="translate(0 0)"/><path class="cls-1" d="M73.27,307.61c-.36,0-.51-.07-.61-.79h0c-.07-.52-.11-1.38-.17-2.8-.17-3.81,3.6-6.37,3.76-6.48l.83,1.24S73.86,301,74,304c.1,2.37.13,2.74.14,2.8l-.61.07h.62l-.73.79Z" transform="translate(0 0)"/><path class="cls-1" d="M84.31,353.34c-5.94-2.34-8.83-11.58-8.95-12l0-.1c0-.12-2-12.18-2.4-17.67s2.88-16.25,3-16.71l1.42.45c0,.11-3.38,10.82-3,16.14s2.23,16.61,2.37,17.5c.23.7,3,9,8.05,11Z" transform="translate(0 0)"/><path class="cls-1" d="M114.74,311.3h-1.49v-3.43a10,10,0,0,1,1.63-5.36l1.22.87a8.6,8.6,0,0,0-1.35,4.49Z" transform="translate(0 0)"/><path class="cls-1" d="M111.24,312.08c-.05-.11-.22-.44-.38-3.13s2.89-6.36,3-6.5l1.13,1c-.77.89-2.76,3.61-2.65,5.44a16.84,16.84,0,0,0,.26,2.63Z" transform="translate(0 0)"/><path class="cls-1" d="M123.44,359.69c-7.35-4.76-8.59-13.09-9.91-21.9-.18-1.22-.37-2.45-.57-3.68-1.65-10,1.52-22.9,1.65-23.44l1.45.36c0,.13-3.23,13.11-1.63,22.84.2,1.24.39,2.48.57,3.71,1.27,8.47,2.47,16.47,9.25,20.87Z" transform="translate(0 0)"/><path class="cls-1" d="M119.65,315.48l-1.46-.29c1.76-8.8,5.33-14.89,10.6-18.1a17.5,17.5,0,0,1,13-2l-.41,1.44a16.28,16.28,0,0,0-11.86,1.87C124.65,301.36,121.32,307.12,119.65,315.48Z" transform="translate(0 0)"/><path class="cls-1" d="M144.15,221c-3.11,0-67.88-1.18-68.53-1.19h-.73V213a2.28,2.28,0,0,1,.48-1.79c.87-1.11,2.72-1.64,5.51-1.57,5.89.15,41.57,0,41.92,0l19.69-.45s3.21-.49,5,1.14a3.82,3.82,0,0,1,1.15,3.24C148.48,217.9,148.08,221,144.15,221Zm-67.77-2.67c7.21.13,64.86,1.18,67.77,1.18,2.3,0,2.83-1.06,3-6a2.4,2.4,0,0,0-.66-2.07c-1-1-3.13-.87-3.85-.75l-19.8.46c-.37,0-36.07.15-42,0-3-.08-4,.59-4.3,1a.82.82,0,0,0-.19.6l0,.2Z" transform="translate(0 0)"/><path class="cls-1" d="M144.47,220.93c-1.2-.48-1.5-1.73-1.81-5.26A8.15,8.15,0,0,1,145,209.4l1,1.09-.51-.54.51.54a6.74,6.74,0,0,0-1.86,5.06c.24,2.72.48,3.84.88,4Z" transform="translate(0 0)"/><rect class="cls-1" x="75.63" y="214.12" width="67.77" height="1.49"/><path class="cls-1" d="M76.25,212.61l-1-1.15a4.37,4.37,0,0,1,2.57-.92l66.13.3v1.49L77.87,212A2.87,2.87,0,0,0,76.25,212.61Z" transform="translate(0 0)"/><path class="cls-1" d="M76.36,219.35,74.9,219c.13-.63.68-2.68,2.07-2.68l66.58.6v1.49L77,217.85A4,4,0,0,0,76.36,219.35Z" transform="translate(0 0)"/><rect class="cls-1" x="76.75" y="215.17" width="2.39" height="1.49" transform="translate(-142.39 280.29) rotate(-86.44)"/><path class="cls-1" d="M179.08,505.81h-.2c-3.45-.34-5.66-6.2-5.18-13.63.66-7.59,3.64-12.94,7.05-12.79,1.1.13,2.56.78,3.63,3.12l-1.36.62a3.46,3.46,0,0,0-2.4-2.25h-.07c-2.09,0-4.74,4.31-5.36,11.42-.45,6.92,1.6,11.81,3.81,12,1.79.06,4.1-2.88,5-8.78l1.48.23C184.54,501.91,182,505.81,179.08,505.81Z" transform="translate(0 0)"/><path class="cls-1" d="M177.88,506.1a6.55,6.55,0,0,1-4.55-2.45c-2.31-2.69-3.45-7.09-3.06-11.79.63-7.58,4.86-13.25,9.6-12.92a6.16,6.16,0,0,1,3.22,1.81l.35.3-1,1.13-.36-.31a5,5,0,0,0-2.38-1.45c-3.8-.25-7.42,4.92-8,11.56-.35,4.24.68,8.34,2.7,10.69a5.09,5.09,0,0,0,3.47,1.94,6.26,6.26,0,0,0,2.06-.55l.55,1.39A7.38,7.38,0,0,1,177.88,506.1Z" transform="translate(0 0)"/><path class="cls-1" d="M180.36,502.38l-.31,0c-2.85-.36-4.48-4.82-3.8-10.39.43-3.58,1.87-6.71,3.75-8.17a3.51,3.51,0,0,1,2.61-.84,2.74,2.74,0,0,1,1.14.37l-.67,1.33a1.87,1.87,0,0,0-.56-.22,2.11,2.11,0,0,0-1.6.53c-1.55,1.21-2.8,4-3.18,7.18-.59,4.88.84,8.52,2.49,8.72,1.15.12,2.53-1.15,3.4-3.14l1.37.6C183.88,500.87,182.13,502.38,180.36,502.38Z" transform="translate(0 0)"/><path class="cls-1" d="M180.86,499.41a2.15,2.15,0,0,1-.43,0c-2.25-.37-3.63-3.69-3.13-7.55.34-2.6,1.38-4.78,2.78-5.83a3,3,0,0,1,2.19-.64,1.25,1.25,0,0,1,.92.37l-1.05,1.06a.28.28,0,0,0,.15.07h-.18a1.49,1.49,0,0,0-1.13.35c-1.05.79-1.92,2.69-2.2,4.83-.41,3.12.68,5.68,1.92,5.88a1.66,1.66,0,0,0,1.71-1.14l1.42.47A3.15,3.15,0,0,1,180.86,499.41Z" transform="translate(0 0)"/><path class="cls-1" d="M186.62,473.26c-3.42-.34-5.63-6.2-5.15-13.63.66-7.59,3.64-13,7.05-12.79s5.19,6.3,5.19,11.94h-1.49c0-6-2-10.35-3.78-10.45-2.19-.12-4.86,4.23-5.48,11.41-.45,6.92,1.6,11.81,3.81,12Z" transform="translate(0 0)"/><path class="cls-1" d="M186.49,473.56a7.61,7.61,0,0,1-5.1-2.88A15.91,15.91,0,0,1,178,459.17c.63-7.57,4.86-13.24,9.6-12.92a5.22,5.22,0,0,1,3.68,2.39l-1.19.9a3.68,3.68,0,0,0-2.62-1.8c-3.86-.28-7.43,4.92-8,11.56a14.4,14.4,0,0,0,3,10.42,6.15,6.15,0,0,0,4.07,2.36Z" transform="translate(0 0)"/><path class="cls-1" d="M186.84,469.47c-2.39-1-3.5-5-2.83-10.19.43-3.57,1.87-6.7,3.74-8.17a3.54,3.54,0,0,1,2.61-.84c1.35.23,2.08,1.48,2.67,2.65l-1.33.67c-.61-1.22-1.06-1.76-1.55-1.84a2.06,2.06,0,0,0-1.48.54c-1.55,1.21-2.8,4-3.18,7.18-.55,4.28.26,7.91,1.94,8.63Z" transform="translate(0 0)"/><path class="cls-1" d="M187,466c-1.78-.89-2.56-3.59-2-7a8.83,8.83,0,0,1,2.87-5.84,2.83,2.83,0,0,1,2.17-.61c1.65.21,3,3,3,5.21h-1.49c0-1.78-1.1-3.66-1.73-3.74a1.39,1.39,0,0,0-1.06.33,7.59,7.59,0,0,0-2.28,4.85c-.4,2.68.11,4.94,1.24,5.51Z" transform="translate(0 0)"/><path class="cls-1" d="M195.47,500.73h-.16c-2.83-.18-4.86-4-5.19-9.66l1.49-.09c.27,4.74,1.82,8.13,3.78,8.25h.08c2.13,0,4.78-4.31,5.4-11.41a16,16,0,0,0-.14-4.57l1.46-.29a17.42,17.42,0,0,1,.16,5C201.71,495.41,198.83,500.73,195.47,500.73Z" transform="translate(0 0)"/><path class="cls-1" d="M194,501.18c-3.35-.33-5.87-3.09-7-7.58l1.45-.36c1,3.9,3,6.19,5.62,6.45a4.93,4.93,0,0,0,2.17-.6l.89,1.2A6.31,6.31,0,0,1,194,501.18Z" transform="translate(0 0)"/><path class="cls-1" d="M196.6,497.31h-.28c-2.15-.36-3.61-2.61-4-6l1.49-.15c.27,2.68,1.29,4.48,2.66,4.71,1.06.1,2.47-1.2,3.54-3.33l1.33.67C200.08,495.78,198.3,497.31,196.6,497.31Z" transform="translate(0 0)"/><path class="cls-1" d="M197.23,494.48a2.22,2.22,0,0,1-.36,0,3.77,3.77,0,0,1-2.81-2.71l1.4-.53c.23.6.74,1.63,1.65,1.76.5.08,1-.43,1.71-1.23l1.15,1A3.88,3.88,0,0,1,197.23,494.48Z" transform="translate(0 0)"/><path class="cls-1" d="M263.52,472.47c-1.69-1.52-2.79-5-2.79-8.91,0-5.62,2.05-9.85,4.78-9.85s5.08,4.65,5.08,10.15h-1.49c0-4.8-2-8.66-3.58-8.66s-3.28,3.43-3.28,8.36c0,3.38.94,6.59,2.29,7.8Z" transform="translate(0 0)"/><path class="cls-1" d="M263.75,470.62c-1.18-1.35-1.83-3.75-1.83-6.76,0-3.84,1.31-7.91,3.73-7.91,1.4,0,2.45,1.88,3.08,3.46l-1.39.55c-.75-1.88-1.48-2.52-1.7-2.52-.89,0-2.24,2.56-2.24,6.42,0,2.61.53,4.72,1.46,5.78Z" transform="translate(0 0)"/><path class="cls-1" d="M257.15,509.83c-3.55,0-5.67-6.75-5.67-13.29s2.12-13.29,5.67-13.29c1.14,0,2.79.7,4.13,4.05l-1.39.55c-.79-2-1.79-3.11-2.74-3.11-2,0-4.18,5-4.18,11.79s2.21,11.79,4.18,11.79c1.63,0,3.58-3.26,4-8.72l1.49.13C262.17,505.78,259.95,509.83,257.15,509.83Z" transform="translate(0 0)"/><path class="cls-1" d="M258.19,506.7c-2.76,0-4.93-4.33-4.93-9.85,0-5.71,2.07-9.85,4.93-9.85a3.54,3.54,0,0,1,2.47,1.26l-1.05,1.06c-.59-.59-1-.83-1.41-.83-1.66,0-3.43,3.36-3.43,8.36,0,4.79,1.81,8.36,3.43,8.36,2.09,0,2.77-3.33,3-5.31l1.48.16C262.06,505.55,259.9,506.7,258.19,506.7Z" transform="translate(0 0)"/><path class="cls-1" d="M258.49,505.51c-2.42,0-3.73-4.08-3.73-7.91s1.31-7.91,3.73-7.91a2.11,2.11,0,0,1,1.57.67L259,491.4a.62.62,0,0,0-.52-.23c-.89,0-2.24,2.56-2.24,6.42s1.35,6.42,2.24,6.42c.54,0,1.5-1.15,2-3.71l1.47.26C261.38,503.61,260.06,505.51,258.49,505.51Z" transform="translate(0 0)"/><path class="cls-1" d="M271.9,504.64a2.61,2.61,0,0,1-1.55-.54c-1.68-1.23-3-4.69-3.49-9.26l1.48-.16c.45,4,1.58,7.27,2.89,8.22a1,1,0,0,0,.85.23c1.93-.43,4-4.26,4-11.66s-1.94-11.94-3.73-11.94h-.19a.32.32,0,0,0,.12-.08l-1.06-1.06a1.55,1.55,0,0,1,1.13-.37c3.61,0,5.22,6.75,5.22,13.44,0,7.26-2,12.41-5.21,13.12A2.5,2.5,0,0,1,271.9,504.64Z" transform="translate(0 0)"/><path class="cls-1" d="M273.57,501.77c-2.45,0-4.19-3.41-4.76-6.58l1.47-.27c.55,3,2,5.36,3.3,5.36,1.58,0,2.69-3.56,2.69-8.66s-1.05-8.21-2.69-8.21h-.15v-1.49h.15c2.7,0,4.18,3.45,4.18,9.7C277.75,498.07,276.22,501.77,273.57,501.77Z" transform="translate(0 0)"/><path class="cls-1" d="M273.72,500.43c-1.64,0-3-2.48-3.42-4.94l1.47-.28c.46,2.46,1.58,3.72,2,3.72.89,0,2.24-2.56,2.24-6.42,0-3.23-.9-5.6-1.79-6.27l.9-1.19c1.45,1.09,2.39,4,2.39,7.46C277.45,496.35,276.14,500.43,273.72,500.43Z" transform="translate(0 0)"/><path class="cls-1" d="M262.47,477.25a6.48,6.48,0,0,1-1.28-.13,3.8,3.8,0,0,1-2.58-1.84c-7.2-12.16-1-22.09.33-24,2.1-3.16,6.55-1.23,6.73-1.15l-.6,1.36s-3.48-1.5-4.9.63c-1.24,1.75-7,11-.28,22.34a2.35,2.35,0,0,0,1.57,1.14,5.7,5.7,0,0,0,2.14,0l.25,1.47A8.38,8.38,0,0,1,262.47,477.25Z" transform="translate(0 0)"/><path class="cls-1" d="M254.84,510.43a6.26,6.26,0,0,1-2.15-.36,5.92,5.92,0,0,1-3.39-3.37c-2.56-5.75-1.64-12.15-1.25-14.89.48-3.33,2.83-7.46,4.76-8.34s4.79-.13,5.12,0l-.36,1.45c-.76-.19-3-.57-4.14,0-1.34.61-3.47,4.21-3.9,7.19-.37,2.61-1.25,8.71,1.14,14.07a4.5,4.5,0,0,0,2.53,2.57,6.88,6.88,0,0,0,4.68-.4l.65,1.34A9.23,9.23,0,0,1,254.84,510.43Z" transform="translate(0 0)"/><path class="cls-1" d="M270,504.91a6,6,0,0,1-3.62-1.12c-2.74-2-3-6-3-6.15l1.49-.08s.22,3.44,2.4,5a5.46,5.46,0,0,0,4.73.55l.37,1.45A9.64,9.64,0,0,1,270,504.91Z" transform="translate(0 0)"/><polygon class="cls-1" points="176.78 481.16 175.4 480.59 177.75 474.87 178.63 465.13 180.12 465.27 179.17 475.34 176.78 481.16"/><path class="cls-1" d="M181.32,480h-1.49c0-1.37.15-2.71.15-2.77l0-.15c.53-1.58,1.22-2.41,2.11-2.53a2,2,0,0,1,1.67.71l2.53.27-.16,1.48-3.19-.33-.19-.29c-.12-.17-.37-.37-.46-.36s-.48.31-.87,1.45C181.42,477.75,181.32,478.88,181.32,480Z" transform="translate(0 0)"/><path class="cls-1" d="M182.66,497.78a2.34,2.34,0,0,1-1.93-.85c-1.55-1.93.14-6.54.33-7.06l5.63-14.08c.08-1.51.8-14.5,2-18.55.31-1,.84-2.22,1.94-2.22h0c1.34,0,2.17,2.05,2.46,2.94l-1.42.47a5.07,5.07,0,0,0-1-1.89,3.09,3.09,0,0,0-.54,1.13c-1.15,4-1.9,18.18-1.91,18.32l-.05.24-5.67,14.18c-.67,1.76-1.29,4.67-.56,5.58.07.09.26.33.93.29,2.3-1.71,7.81-6.23,7.87-6.28l.28-.23,7.69,1.69a1.54,1.54,0,0,0,1.31-1.54l1.49.11a3,3,0,0,1-2.78,2.93h-.11l-7.22-1.59c-1.2,1-5.84,4.77-7.81,6.21l-.15.11-.19,0A4,4,0,0,1,182.66,497.78Z" transform="translate(0 0)"/><path class="cls-1" d="M180.73,496.57c-2-2.56,0-7.42,0-7.62l4.87-13v-.61c0-.19,1.21-11.2,1.95-16.52.34-2.47,1-3.77,2.08-4.09a2.12,2.12,0,0,1,2.06.72l-1.12,1,.56-.49-.56.5c-.11-.12-.38-.32-.52-.27s-.66.23-1,2.86c-.74,5.3-1.93,16.29-1.94,16.4v.8l-5,13.26c-.5,1.2-1.5,4.59-.27,6.14Z" transform="translate(0 0)"/><path class="cls-1" d="M184.23,491.42a.87.87,0,0,1-.58-.22c-.4-.36-1-.89,2.24-6.8l1.31.72c-.68,1.23-1.39,2.65-1.85,3.72a22.6,22.6,0,0,0,2.9-4.83l1.37.59c-.08.19-2,4.68-4.42,6.42A1.66,1.66,0,0,1,184.23,491.42Z" transform="translate(0 0)"/><path class="cls-1" d="M192.81,473.29l-1.49-.05a77.79,77.79,0,0,0-.08-8.08,25.76,25.76,0,0,0-.08,7.71l-1.48.2c0-.28-.91-6.84.68-9.85.43-.82.94-.88,1.29-.79C192.22,462.58,193.18,462.83,192.81,473.29Z" transform="translate(0 0)"/><path class="cls-1" d="M196.78,486.92a2.84,2.84,0,0,1-.74-.1l-.17-.07-3.58-2.09.75-1.29,3.49,2a1.43,1.43,0,0,0,.31,0,2.24,2.24,0,0,0-.22-.65,8,8,0,0,0-.77-1.45.67.67,0,0,0,.7.13l-.23-.63h-.81l.62-.8c.71-.16,1.07.46,1.85,2.13.17.37.7,1.5,0,2.28A1.56,1.56,0,0,1,196.78,486.92Z" transform="translate(0 0)"/><path class="cls-1" d="M191.22,484.84a2.81,2.81,0,0,1-1.69-.56c-.86-.64-1.8-2.09-1.35-5.3.51-1.93,1.26-2.91,2.32-3.09,1.66-.27,3.07,1.8,3.22,2l-1.25.82c-.42-.63-1.25-1.46-1.74-1.38-.15,0-.65.23-1.1,1.91-.25,1.83,0,3.25.78,3.81a1.37,1.37,0,0,0,1.39.13.85.85,0,0,0,.55-.61l1.49.11a2.27,2.27,0,0,1-1.42,1.85A2.92,2.92,0,0,1,191.22,484.84Z" transform="translate(0 0)"/><path class="cls-1" d="M191.91,462.91a2.88,2.88,0,0,1-1.82-.57c-.87-.69-1.25-2.24-.32-3.92a2.17,2.17,0,0,1,1.35-1.13,2.24,2.24,0,0,1,1.64.26l.14.08.28.42,1.38.69.25,2.23-.42.24a2.47,2.47,0,0,0-.84.73,1.22,1.22,0,0,1-.94.87A2.61,2.61,0,0,1,191.91,462.91Zm-.3-4.18-.12,0a.77.77,0,0,0-.41.4c-.61,1.09-.29,1.85-.06,2l.08.07a1.84,1.84,0,0,0,1,.16,3,3,0,0,1,1.06-1.2l-.05-.48-1-.5-.29-.44A.76.76,0,0,0,191.61,458.72Z" transform="translate(0 0)"/><polygon class="cls-1" points="192.43 462 191.35 460.92 191.13 458.9 192.19 458.05 193.13 459.22 192.7 459.56 192.78 460.23 193.49 460.94 192.43 462"/><rect class="cls-1" x="190.41" y="460.35" width="1.82" height="1.49" transform="translate(-229.92 193.2) rotate(-35.01)"/><rect class="cls-1" x="190.42" y="458.13" width="1.49" height="1.61" transform="matrix(0.37, -0.93, 0.93, 0.37, -305.94, 466.1)"/><path class="cls-1" d="M183.27,496l-1.45-.72-.38-2.88.88-1.54,2.1-.53.15.59.4-.2.27.54,1.31.16.71,2.83-1.45.83-.71.71Zm-.07-1.71.34.17.86-.1.57-.53.55-.32-.19-.75-1.08-.13-.33-.65-.64.16-.31.55Z" transform="translate(0 0)"/><polygon class="cls-1" points="184.95 495.09 183.51 494.19 183 492.4 184.27 491.35 185.23 492.49 184.71 492.93 184.79 493.23 185.74 493.83 184.95 495.09"/><rect class="cls-1" x="182.59" y="491.41" width="1.49" height="1.48" transform="translate(-294.3 273.78) rotate(-45)"/><rect class="cls-1" x="182.5" y="493.49" width="1.82" height="1.49" transform="translate(-250.21 194.42) rotate(-34.98)"/><path class="cls-1" d="M201.62,491.05l-3.24-.7-1.27-1.48.21-2.26,1.37-1.14,2.31.21.22.33,1.15-.23V489l-.75.3Zm-2.43-2,.94.2v-.92l.75-.3v-.37l-.34.07-.38-.57-1-.09-.42.35-.09,1Z" transform="translate(0 0)"/><polygon class="cls-1" points="200.44 489.63 199.23 489.14 199.23 487.32 200.15 486.22 201.29 487.17 200.72 487.86 200.72 488.13 201 488.24 200.44 489.63"/><rect class="cls-1" x="198.59" y="488.41" width="1.59" height="1.49" transform="translate(-272.87 252.5) rotate(-41.21)"/><rect class="cls-1" x="198.26" y="486.28" width="1.49" height="2.03" transform="translate(-325.26 534.29) rotate(-72.91)"/><path class="cls-1" d="M217.32,496.45l-3.48-.22-12.89-12.58,1-1.07,12.49,12.2,1.3.08-.13-4.26c0-.14-.16-1.66-1.49-1.66v-1.49a3.09,3.09,0,0,1,3,3.09Z" transform="translate(0 0)"/><path class="cls-1" d="M216.25,491.32c-.45,0-2.5-.51-9.9-7.05l1-1.12c7.09,6.27,8.92,6.67,9,6.68Z" transform="translate(0 0)"/><rect class="cls-1" x="210.42" y="481.26" width="1.49" height="9.37" transform="translate(-303.51 360.07) rotate(-52.77)"/><path class="cls-1" d="M214.46,497.89a2,2,0,0,1-1.77-.81,3.11,3.11,0,0,1-.12-2.59l1.4.52a1.73,1.73,0,0,0-.05,1.22c.1.14.35.17.55.17,1.56,0,2.62-.09,3-.12.12-.32.37-1.39.12-4.59-.44-5.64-.45-8-.45-8.12h1.49s0,2.44.45,8c.35,4.49-.18,5.53-.68,5.95a.88.88,0,0,1-.64.24A31.69,31.69,0,0,1,214.46,497.89Zm3.49-1.61h0Z" transform="translate(0 0)"/><rect class="cls-1" x="212.22" y="483.56" width="1.49" height="3.43"/><path class="cls-1" d="M248.17,498.64c-2.72-.08-26.64-.75-27.84-.9a4.86,4.86,0,0,1-2.31-.9l.93-1.17-.47.58.46-.59a3.5,3.5,0,0,0,1.57.59c.85.11,17,.59,27.69.89Z" transform="translate(0 0)"/><rect class="cls-1" x="233.26" y="472.35" width="1.49" height="31.38" transform="translate(-264.6 698.58) rotate(-87.27)"/><path class="cls-1" d="M248.31,481.92h-.15l-47.47-2.23.07-1.49,45.75,2.15c-.83-1.82-1.22-5.2-1.16-10.07.15-11.2-.44-35.7-.45-35.95l.15-31.52-.3-20a31,31,0,0,1,1.84-12.07c2.2-5.72,5.61-18.89,5.65-19l4.18-14.79.89-2.66c.16-1,2.36-14.79-.35-19.13a30.6,30.6,0,0,0-2.32-3l1.13-1a31.12,31.12,0,0,1,2.47,3.25c3.08,4.94.64,19.58.54,20.2l0,.11-.9,2.69-4.17,14.75c-.14.53-3.47,13.38-5.69,19.17a30,30,0,0,0-1.74,11.47l.3,20-.15,31.51c0,.23.59,24.75.45,36-.12,8.81,1.32,10,1.51,10.14l6.4.3-6.28,1.18Z" transform="translate(0 0)"/><rect class="cls-1" x="251.63" y="479.97" width="1.49" height="3" transform="translate(-251.84 684.63) rotate(-84.28)"/><path class="cls-1" d="M254,484.3l-1.47-.28c.06-.34.66-3.36,1.66-4.53.35-.71.88-7.18,1.16-13l1.49.07c-.18,3.79-.69,12.73-1.48,13.83A11.26,11.26,0,0,0,254,484.3Z" transform="translate(0 0)"/><path class="cls-1" d="M257.45,484H256c0-.45.07-4.42,2.42-5.32l.15,0a17.23,17.23,0,0,1,4.72.15l-.26,1.47a16.18,16.18,0,0,0-4.15-.16C257.71,480.63,257.45,483.15,257.45,484Z" transform="translate(0 0)"/><path class="cls-1" d="M259.45,502.33a1.37,1.37,0,0,1-.74-.2c-.49-.27-.91-1.08-1.24-2.41a12.65,12.65,0,0,1,.46-4.72l4.94-13.77,1.41.5-4.93,13.73h0a11.34,11.34,0,0,0-.41,4,4.22,4.22,0,0,0,.54,1.41c.12,0,.54-.13,1.28-1,1.5-1.8,5.41-5.57,5.58-5.73l.16-.15.21,0a4.93,4.93,0,0,1,1.79,0c.88.15,5.21,1.16,5.4,1.2a1.21,1.21,0,0,0,1-.19,3.45,3.45,0,0,0,1-2.57l1.49.11c-.13,1.8-.67,3-1.62,3.7a2.67,2.67,0,0,1-2.18.39h0s-4.42-1-5.29-1.17a3.53,3.53,0,0,0-1,0c-.78.76-4,3.91-5.3,5.45C260.85,502,260,502.33,259.45,502.33Z" transform="translate(0 0)"/><rect class="cls-1" x="272.6" y="479.36" width="1.49" height="6.61" transform="translate(-180.64 163.94) rotate(-25.4)"/><path class="cls-1" d="M264.07,481.83l-1.3-.72a6.73,6.73,0,0,0,.65-2.77l.9-8.44a80.2,80.2,0,0,1,.91-9c.27-1.3.77-2,1.53-2.27a2,2,0,0,1,1.82.55l-1,1.06a.62.62,0,0,0-.34-.18s-.28.13-.5,1.14a81.39,81.39,0,0,0-.88,8.84l-.9,8.4A8,8,0,0,1,264.07,481.83Z" transform="translate(0 0)"/><path class="cls-1" d="M258.76,501.9c-3.22-2.71-.76-8.67-.65-8.92s2.38-7.14,3-8.77,1.61-5.31,1.76-5.85.37-4,1.19-12.77c.57-6,1.71-7.07,2.63-7.31a1.83,1.83,0,0,1,1.86.84l-1.23.85a.7.7,0,0,0-.28-.24s-1,.38-1.5,6c-.9,9.55-1.19,12.83-1.19,12.83l0,.13c0,.18-1.21,4.38-1.81,6s-3,8.72-3,8.79-2.16,5.25.22,7.25Z" transform="translate(0 0)"/><path class="cls-1" d="M262.16,494.64a1,1,0,0,1-.82-.38c-.26-.33-.94-1.2,2.48-6.9l1.28.77a31.78,31.78,0,0,0-2.33,4.6,12.73,12.73,0,0,0,2.34-3.91l1.39.55c-.3.75-1.87,4.54-3.89,5.21A1.55,1.55,0,0,1,262.16,494.64Z" transform="translate(0 0)"/><path class="cls-1" d="M273.84,490.88a3.88,3.88,0,0,1-1.89-.88c-2.94-2.06-2.94-2.06-2.52-2.7l.39-.6.7.41-.19.32.25-.25s.34.27,2,1.42l-1.65-2,1.16-.94L274,488c1.11,1.7.81,2.29.5,2.59A.91.91,0,0,1,273.84,490.88Z" transform="translate(0 0)"/><path class="cls-1" d="M269.69,477.63l-1.49-.08a32.67,32.67,0,0,0-.6-7.86v7.15H266.1v-8.51c.06-1.58.38-2.28,1.06-2.36.89-.1,1.24.94,1.6,2.31A31.35,31.35,0,0,1,269.69,477.63Z" transform="translate(0 0)"/><path class="cls-2" d="M269.69,465.65" transform="translate(0 0)"/><path class="cls-1" d="M271.58,480.35a17.44,17.44,0,0,1-2-5.66c-.15-2.58-.45-8.86-.45-8.86,0-.43,0-.86.08-1.3s.07-.77.07-1.13c0-6.75-2.36-11.79-4.48-11.79s-4.48,4.74-4.48,11.79c0,6.84,2.1,11.12,4.08,11.67l-.4,1.44c-3-.85-5.17-6.24-5.17-13.11,0-7.57,2.57-13.29,6-13.29s6,5.84,6,13.29c0,.39,0,.83-.08,1.26s-.07.77-.07,1.13c0,0,.3,6.24.45,8.76a16.19,16.19,0,0,0,1.84,5Z" transform="translate(0 0)"/><path class="cls-1" d="M270.73,470h-1.49c0-7.44-1.76-9.81-1.78-9.84l1.16-.93C268.71,459.31,270.73,461.89,270.73,470Z" transform="translate(0 0)"/><path class="cls-1" d="M277.22,491H277l.09-1.49a1.45,1.45,0,0,0,1.17-.33,1.88,1.88,0,0,0,.43-1.27V464.16c0-1.93-.46-2.77-.85-3.13a1,1,0,0,0-.72-.31H277l-7.17-.3.06-1.49,7.12.3a2.5,2.5,0,0,1,1.76.65c.92.81,1.38,2.25,1.38,4.27v23.73a3.33,3.33,0,0,1-.86,2.36A2.79,2.79,0,0,1,277.22,491Z" transform="translate(0 0)"/><path class="cls-1" d="M252.92,481.85c-.11-.2-2.79-4.92-2.79-14.85,0-9.73-.3-24.47-.3-24.62l-.15-23.74V381.16a107.69,107.69,0,0,1,3.46-16.33c2.65-8.4,5.19-18.38,5.22-18.48l2.54-8.68c0-.11,1.91-5,1.91-8.6V318.91c0-1.21-.47-4.67-2-5.83l.92-1.17c2.34,1.84,2.52,6.77,2.52,7v10.17c0,3.83-1.91,8.86-2,9.07l-2.52,8.6c0,.07-2.57,10.09-5.23,18.52a107.29,107.29,0,0,0-3.4,16v37.38l.15,23.73c0,.14.3,14.89.3,24.64,0,9.49,2.56,14.06,2.59,14.11Z" transform="translate(0 0)"/><path class="cls-1" d="M203.12,479.55c-2.36-3-2.83-11.7-2.85-12.07l-.3-13.9-.15-24.49.15-21.51c0-.87-.29-21.73.15-28.26s1.95-9.84,2-10L209,349c.1-.22,6.94-15.52,5.49-25.93C213,313,201.71,307.55,201.6,307.5l.63-1.35c.5.23,12.18,5.82,13.71,16.69s-5.29,26-5.58,26.68l-6.84,20.38c0,.11-1.47,3.2-1.9,9.52s-.15,27.94-.15,28.15l-.15,21.51.15,24.47.3,13.87c.12,2.36.81,9,2.53,11.2Z" transform="translate(0 0)"/><rect class="cls-1" x="200.87" y="456.17" width="11.94" height="1.49" transform="translate(-5.67 2.61) rotate(-0.71)"/><polygon class="cls-1" points="212.07 479.38 211.92 437.74 211.62 388.33 211.62 360.71 211.92 341.44 213.41 341.46 213.11 360.72 213.11 388.32 213.41 437.73 213.56 479.38 212.07 479.38"/><path class="cls-1" d="M245.8,400.27l-14.63-.15c-.46,0-10.84-.45-12.65-.76s-2.33-2.41-2.26-3.47l.3-48.47c0-.23.29-22.7,0-26.36a3.72,3.72,0,0,1,1-3.23,3.4,3.4,0,0,1,2.64-.71l33.68-.3c.92,0,5.48.12,5.68,2.48l-1.49.12c-.05-.62-2.29-1.11-4.18-1.11l-33.8.3H220a1.94,1.94,0,0,0-1.46.35,2.37,2.37,0,0,0-.49,2c.3,3.72,0,25.56,0,26.49l-.3,48.51c0,.11-.08,1.76,1,1.95,1.38.23,8.75.58,12.45.74l14.61.15Z" transform="translate(0 0)"/><path class="cls-1" d="M217.14,479.84l-.45-23.59-.15-24.64-.3-22.24L216.1,406a2.64,2.64,0,0,1,.6-1.95,3,3,0,0,1,2.39-.92c2.51,0,26.63.15,26.87.15v1.49c-.24,0-24.36-.15-26.87-.15a1.63,1.63,0,0,0-1.25.4,1.21,1.21,0,0,0-.25.85l.15,3.5.3,22.26.15,24.64.45,23.58Z" transform="translate(0 0)"/><path class="cls-1" d="M261.78,450.58h-1.49l.15-18.66c0-.21.15-20.91,0-24,0-2.36-2.41-2.42-2.69-2.42l-7.36-.45.09-1.49,7.31.45h0a3.9,3.9,0,0,1,4.13,3.88c.15,3.08,0,23.18,0,24Z" transform="translate(0 0)"/><path class="cls-1" d="M266.55,451h-1.49l.15-28.81V390.71l-.3-32.39.3-29.12.15-33.58V284.73c0-.44.15-10.49-9.27-14.85-6.46-3-24.73-5.52-35.2.49a13.47,13.47,0,0,0-7.19,10.84c-.44,12.48-.44,17.05-.44,17.1h-1.49s0-4.64.45-17.19a14.91,14.91,0,0,1,7.93-12c11.06-6.36,29.68-3.74,36.57-.55,10.33,4.78,10.14,16.11,10.14,16.22v10.88l-.15,33.59-.3,29.11.3,32.38v31.5Z" transform="translate(0 0)"/><path class="cls-1" d="M239.56,313.69c-.18,0-13.84-.3-18.71-.45h0c-2,0-3.46-.52-4.23-1.54a3.07,3.07,0,0,1-.52-2.41c0-.67-.13-4.54,0-22.62,0-6.63,1.67-11.24,4.94-14.1,5.73-5,15.53-3.72,25.9-2.37l1.64.21c5.36.69,9.29,2.73,11.66,6.07a15.27,15.27,0,0,1,2.28,11l-.45,15.16-1.49,0,.46-15.36c0-.05,1.1-5.54-2-9.93-2.12-3-5.7-4.81-10.62-5.44l-1.64-.21c-10-1.3-19.51-2.53-24.73,2-2.94,2.56-4.39,6.81-4.43,13-.15,19.91,0,22.54,0,22.64v.13l0,.12a1.56,1.56,0,0,0,.26,1.25c.47.61,1.53.93,3.06.93,4.89.15,18.54.45,18.68.45l16.08-.6.06,1.49Z" transform="translate(0 0)"/><path class="cls-1" d="M205.25,309l-1-1.12,8.49-7.55.48.32a1.14,1.14,0,0,0,.55.19,1.74,1.74,0,0,0,.08-.62,1.1,1.1,0,0,0-.29-.84,1.2,1.2,0,0,0-.45-.25v.68l-9.2,8.28-1-1.11,8.71-7.84v-1.56l.7,0a3.23,3.23,0,0,1,2.26.75,2.55,2.55,0,0,1,.77,1.94,2,2,0,0,1-.88,1.94,1.82,1.82,0,0,1-1.54,0Z" transform="translate(0 0)"/><path class="cls-1" d="M261,307.89l-1.35-.64.26-.55-1-.52,2.9-5.51,0-.77c.13-.45.65-1.94,1.68-2.17a1.4,1.4,0,0,1,1.39.54,3,3,0,0,1,.38,3.23c-.22.52-.6,1.14-1.24,1.14l-.24,0a.88.88,0,0,0-.31,0Zm2.31-7.67,0,.88a3.14,3.14,0,0,1,.56,0,2.32,2.32,0,0,0,.25-1,1.06,1.06,0,0,0-.27-.79l0,0A3.37,3.37,0,0,0,263.27,300.22Z" transform="translate(0 0)"/><rect class="cls-1" x="259.46" y="306.37" width="4.18" height="1.49" transform="translate(-54.78 557.45) rotate(-87.94)"/><path class="cls-1" d="M249,301.12a3.37,3.37,0,0,1-2-.64h0a3.43,3.43,0,0,1-1.39-2.44,4.12,4.12,0,0,1,3.19-4.4,3.39,3.39,0,0,1,4.14,3,4.12,4.12,0,0,1-3.19,4.4A3.71,3.71,0,0,1,249,301.12Zm.57-6.07a2.18,2.18,0,0,0-.45,0,2.63,2.63,0,0,0-2,2.78,2,2,0,0,0,.78,1.4h0a2,2,0,0,0,1.57.31,2.63,2.63,0,0,0,2-2.78,2,2,0,0,0-.78-1.4A1.89,1.89,0,0,0,249.6,295Z" transform="translate(0 0)"/><path class="cls-1" d="M260.34,314.31l-.46-.29a24,24,0,0,0-2.63-1.49,3.62,3.62,0,0,1-3.16-.49A2.79,2.79,0,0,1,253,310a1.86,1.86,0,0,0-.53-1l-.1-.13L247,300.35l1.26-.8,5.33,8.45a3.2,3.2,0,0,1,.9,2,1.33,1.33,0,0,0,.53.89,2.39,2.39,0,0,0,2.1.18l.22-.06.22.07a17.37,17.37,0,0,1,2.69,1.43l1.83-1.5a20.21,20.21,0,0,1-2.72-3.49,15.83,15.83,0,0,1-.7-1.55,7.68,7.68,0,0,0-2.64-3.86,18.28,18.28,0,0,1-4.07-3.91l1.2-.88a17,17,0,0,0,3.69,3.55,9.11,9.11,0,0,1,3.19,4.53,14.9,14.9,0,0,0,.63,1.41,22.31,22.31,0,0,0,3,3.71l.53.53-.83.83Z" transform="translate(0 0)"/><rect class="cls-1" x="252.52" y="295.05" width="1.49" height="5.63" transform="translate(-119.37 179.5) rotate(-32)"/><path class="cls-1" d="M260.13,314.28c-.39-.07-.83-.14-2.91-4.45a15.41,15.41,0,0,0-4.23-5.68l-3.94-3.33,1-1.14L253.9,303s2.52,1.76,4.67,6.22c1.54,3.2,2,3.69,2.08,3.73a.69.69,0,0,0-.89.09l1.05,1.06Z" transform="translate(0 0)"/><path class="cls-1" d="M182.21,300.29a2.69,2.69,0,0,1-1.79-.64,3.85,3.85,0,0,1-1.2-3,3.47,3.47,0,0,1,3.43-3.58,3.68,3.68,0,0,1,2.77,1.33,2.86,2.86,0,0,1,.64,2.4,4.06,4.06,0,0,1-3.26,3.42A3.66,3.66,0,0,1,182.21,300.29Zm.45-5.71a2,2,0,0,0-1.94,2.09,2.43,2.43,0,0,0,.67,1.84,1.34,1.34,0,0,0,1.15.26,2.57,2.57,0,0,0,2.08-2.23,1.4,1.4,0,0,0-.33-1.17A2.18,2.18,0,0,0,182.66,294.58Z" transform="translate(0 0)"/><path class="cls-1" d="M251.89,486.1l-10.3-.45L201,483.56c-.76,0-8.05,0-9.77-.64l-.24-.09-.14-.22a3.3,3.3,0,0,1,.83-4.75l.18-.12h2.46l2.87.3-.12-.31c-1.23-2.92-1.68-10.81-1.7-11.15l.45-22.6-.3-60.74c0-.51.51-11.9,5.13-21,.62-1.87,9.44-29.37,9.53-29.65.15-.48,3.52-11.93-9.22-19.43a17.12,17.12,0,0,1-2.23-1.47l-2.28-.8c-.74.07-4.3.59-6.74,1.17-2.26.56-3-.46-3.93-1.75-.31-.43-.66-.92-1.14-1.47a6.27,6.27,0,0,0-3.05-1.8,12.19,12.19,0,0,1-3.86-2,2.56,2.56,0,0,1-1.1-2.24c.16-2.22,3.36-4.15,3.73-4.36l.75,1.29c-1.12.65-2.92,2.1-3,3.18,0,.22,0,.56.54,1a10.8,10.8,0,0,0,3.43,1.75,7.63,7.63,0,0,1,3.69,2.23c.52.6.91,1.14,1.22,1.58.89,1.24,1.08,1.5,2.36,1.17a65.14,65.14,0,0,1,7.2-1.22l.25,0,2.77,1a15.45,15.45,0,0,0,2.12,1.41c13.8,8.13,9.94,21,9.9,21.18-.37,1.16-9.11,28.39-9.56,29.72l0,.1c-4.5,8.85-5,20.32-5,20.44l.3,60.72-.45,22.56s.45,7.91,1.58,10.59c.41,1,.78,2.05.06,2.59a1.39,1.39,0,0,1-1.64-.23l-2.62-.28h-1.91a1.77,1.77,0,0,0-.35,2.35,64.26,64.26,0,0,0,9.06.48l40.64,2.09,10.29.45Z" transform="translate(0 0)"/><path class="cls-1" d="M176.9,304c-.74-1.67,2.19-3.92,4-5.11l.82,1.25c-1.8,1.18-3.48,2.78-3.45,3.28Z" transform="translate(0 0)"/><path class="cls-1" d="M189.38,309.82c-1.43,0-2.78-.39-3.37-1.64-.69-1.57-5.28-4.28-8-5.62l.66-1.34c.77.38,7.59,3.78,8.71,6.34.67,1.43,4.48.55,6.22-.1l.52,1.4A15.28,15.28,0,0,1,189.38,309.82Z" transform="translate(0 0)"/><rect class="cls-1" x="188.11" y="295.55" width="1.49" height="18.51" transform="translate(-169.49 292.07) rotate(-56.18)"/><path class="cls-1" d="M199,311.34l-.76-1.28a3.6,3.6,0,0,0,1.94-2.28,2.73,2.73,0,0,0-.45-1.91L183.88,295l.84-1.23,16.14,11a4.27,4.27,0,0,1,.81,3.19A5,5,0,0,1,199,311.34Z" transform="translate(0 0)"/><path class="cls-1" d="M200,311.56l-1-1.13c1.41-1.23,2.13-2.36,2-3.19A1.9,1.9,0,0,0,200,306l.59-1.37a3.39,3.39,0,0,1,1.94,2.36C202.73,308.4,201.89,309.93,200,311.56Z" transform="translate(0 0)"/><path class="cls-1" d="M177.44,304.74a3.94,3.94,0,0,1-1.27-5l.12-.17,3.14-3.43,1.1,1-3.06,3.35a2.43,2.43,0,0,0,.86,3Z" transform="translate(0 0)"/><rect class="cls-1" x="205.5" y="308.09" width="14.48" height="1.49" transform="translate(-98.31 518.33) rotate(-89.4)"/><polygon class="cls-1" points="301.19 498.49 276.55 498.49 276.55 497 299.69 497 299.69 287.25 266.09 286.67 266.12 285.18 301.19 285.79 301.19 498.49"/><rect class="cls-1" x="238.79" y="262.93" width="1.49" height="45.09" transform="translate(-50.64 519.29) rotate(-88.86)"/><polygon class="cls-1" points="201.32 305.92 199.83 305.92 199.83 283.96 212.98 284.28 212.94 285.77 201.32 285.49 201.32 305.92"/><rect class="cls-1" x="199.6" y="311.75" width="1.49" height="51.95" transform="translate(-0.97 0.58) rotate(-0.16)"/><path class="cls-2" d="M300.44,497.74" transform="translate(0 0)"/><polygon class="cls-1" points="300.52 287.26 300.36 285.78 320.67 283.5 265.79 282.64 265.82 281.14 332.39 282.19 332.47 283.68 300.52 287.26"/><polygon class="cls-1" points="217.39 283.38 217.19 281.9 227.1 280.55 261.79 281.14 261.76 282.64 227.19 282.04 217.39 283.38"/><rect class="cls-1" x="200.53" y="283.23" width="12.48" height="1.49" transform="translate(-32.5 26.79) rotate(-6.87)"/><polygon class="cls-1" points="300.58 498.48 300.3 497.01 331.64 491 331.64 282.94 333.13 282.94 333.13 492.24 300.58 498.48"/><path class="cls-1" d="M259.46,400.13h-.28l-8.47-.15,0-1.49,8.61.16h0a1.22,1.22,0,0,0,.82-.22,1.41,1.41,0,0,0,.41-1l-.15-57.57h1.49l.15,57.62a2.84,2.84,0,0,1-1,2.16A2.62,2.62,0,0,1,259.46,400.13Z" transform="translate(0 0)"/><path class="cls-1" d="M421.47,320.41l-5.91-.91a2.82,2.82,0,0,1-2.42-2.83L411.95,89.12l-4.46-18.73c-.06-.23-6.44-24.84-8.65-32.36-2.08-7.07-5.48-8.45-5.52-8.47l.51-1.4c.17.06,4.11,1.56,6.43,9.45,2.22,7.54,8.6,32.17,8.66,32.42l4.5,19,1.19,227.65a1.35,1.35,0,0,0,1.15,1.35l5.74.88,82.17-6.26a1.82,1.82,0,0,0,1.85-1.94V270.1H507v40.6a3.29,3.29,0,0,1-3.28,3.43Z" transform="translate(0 0)"/><polygon class="cls-1" points="412.54 456.4 411.05 456.39 411.35 403.69 411.05 333.24 410.6 232.48 410.6 90.22 412.1 90.22 412.1 232.48 412.54 333.24 412.84 403.7 412.54 456.4"/><path class="cls-1" d="M421.39,393.34c-5.14,0-7.61-2.27-7.72-2.38l-.23-.22-1-68.38a1.92,1.92,0,0,1,1.94-2c2.18,0,5.08.2,5.08,1.94-.19,1.64,0,2.81.65,3.49a2.2,2.2,0,0,0,1.56.69l81.17-7.1a2.45,2.45,0,0,0-2.33-1.86h-1.79a2.57,2.57,0,0,1-2.54-2.54v-1h1.49v1a1.07,1.07,0,0,0,1,1h1.79a3.89,3.89,0,0,1,3.88,3.88v.38a3,3,0,0,1,2.09,2.9l-.15,51.05a3.73,3.73,0,0,1-3,3.56l-8.45,1.68c-21.71,4.32-66.9,13.32-71.66,13.71C422.57,393.31,422,393.34,421.39,393.34Zm-6.47-3.29c.76.55,3.41,2.17,8.14,1.71s51.51-9.71,71.5-13.69L503,376.4a2.26,2.26,0,0,0,1.79-2.1l.15-51.05a1.51,1.51,0,0,0-1.15-1.5l-.15,0-1.64-.6,0-.11-80.33,7a3.73,3.73,0,0,1-2.73-1.15,5.49,5.49,0,0,1-1.08-4.46c-.16-.12-.89-.51-3.57-.51a.44.44,0,0,0-.45.45Z" transform="translate(0 0)"/><rect class="cls-1" x="415.9" y="319.36" width="2.1" height="1.49" transform="translate(67.91 713.15) rotate(-85.91)"/><path class="cls-2" d="M420.16,328.76" transform="translate(0 0)"/><path class="cls-1" d="M420.69,493.59a11.83,11.83,0,0,1-1.7-.16l-.14,0a66.67,66.67,0,0,1-8.83-2.48,35.65,35.65,0,0,1-4.94-1.9l-53.85-19.39a3.83,3.83,0,0,1-2.43-3.54L349,325.48l-.6-84.48.3-118.38a4.32,4.32,0,0,1,2.53-4L418,86.12a6.55,6.55,0,0,1,4.74-.34C443,91.73,491.17,106.31,502.49,113a4.67,4.67,0,0,1,2.31,4.08c.15,18.73,1.48,136.73,1.49,137.92l-1.49,0c0-1.19-1.34-119.19-1.49-137.93a3.22,3.22,0,0,0-1.59-2.81c-11.47-6.8-63.66-22.45-79.38-27.08a5.07,5.07,0,0,0-3.67.26L351.82,120a2.84,2.84,0,0,0-1.67,2.61L349.85,241l.6,84.48L350.3,466.1a2.31,2.31,0,0,0,1.46,2.14l54.37,19.58v.06c.93.39,3.53,1.39,6.42,2.32l.14-30.52c0-2.33-.44-57.39-.15-62.14.15-2.26.7-3.74,1.66-4.4a1.94,1.94,0,0,1,1.34-.35,3.53,3.53,0,0,1,2.5.59,5.05,5.05,0,0,1,1.82,3.82,2.55,2.55,0,0,0,1.08,2.08c1.46.94,4.17.3,5.09,0l76.52-16.15a3,3,0,0,1,2.38.71,2.59,2.59,0,0,1,.91,2v73.74a3.89,3.89,0,0,1-2.24,3.52c-7.19,3.4-45,20.92-81.46,30.34A5.15,5.15,0,0,1,420.69,493.59ZM414,490.66a46,46,0,0,0,5.05,1.27l.11,0a5.75,5.75,0,0,0,2.54,0c36.34-9.39,74.05-26.85,81.24-30.26a2.44,2.44,0,0,0,1.36-2.16V385.79a1.14,1.14,0,0,0-.41-.84,1.47,1.47,0,0,0-1.14-.36L426.43,400.7c-.07,0-3.92,1.38-6.3-.15a4,4,0,0,1-1.76-3.2,3.68,3.68,0,0,0-1.2-2.75,2,2,0,0,0-1.47-.32l-.2,0-.19-.06a.59.59,0,0,0-.3.13c-.24.19-.82.89-1,3.23-.29,4.69.15,61.47.15,62Z" transform="translate(0 0)"/><path class="cls-1" d="M414.34,302.55,414,244.68l5.38-.83.15,55.15ZM415.53,246l.29,53.78,2.25-1.53-.15-52.62Z" transform="translate(0 0)"/><rect class="cls-1" x="394.33" y="472.44" width="34.78" height="1.49" transform="translate(-63.08 883.05) rotate(-89.78)"/><rect class="cls-1" x="419.78" y="421.46" width="1.49" height="71.5" transform="matrix(1, 0, 0, 1, -0.95, 0.88)"/><rect class="cls-1" x="502.93" y="376.83" width="1.49" height="7.02" transform="translate(-7.98 10.81) rotate(-1.22)"/><path class="cls-1" d="M419.71,212.49l-.45-33.74c0-.9.15-89,.15-90a5.31,5.31,0,0,0-.65-2l1.3-.72a6.72,6.72,0,0,1,.84,2.75c0,1-.15,89.12-.15,90l.45,33.73Z" transform="translate(0 0)"/><path class="cls-1" d="M471.89,168.16a2.15,2.15,0,0,1-.36,0l-4.33-.75a2.18,2.18,0,0,1-1.81-2.08l-.45-29.84a2.36,2.36,0,0,1,.95-1.93,2,2,0,0,1,1.8-.29l4.46,1.19a2.18,2.18,0,0,1,1.6,2.06l.3,29.4a2.3,2.3,0,0,1-.8,1.76A2.07,2.07,0,0,1,471.89,168.16Zm-4.81-33.52a.54.54,0,0,0-.31.11.86.86,0,0,0-.33.71l.45,29.84a.68.68,0,0,0,.59.62l4.31.74a.6.6,0,0,0,.49-.14.82.82,0,0,0,.28-.62l-.3-29.4a.69.69,0,0,0-.48-.63l-4.53-1.21Z" transform="translate(0 0)"/><path class="cls-1" d="M420.25,497.34A16.88,16.88,0,0,1,417,497a3,3,0,0,1-2.52-2.45,11.3,11.3,0,0,0-2.36-1C408,492,403,488.2,402.84,488l.91-1.19s5,3.83,8.91,5.27c2.53.89,3,1.12,3.29,2l0,.13a1.47,1.47,0,0,0,1.31,1.31c3.07.6,5.16.39,6.07-.62a2.85,2.85,0,0,0,.43-2.45l1.43-.44a4.3,4.3,0,0,1-.75,3.89A5.41,5.41,0,0,1,420.25,497.34Z" transform="translate(0 0)"/><path class="cls-1" d="M498.35,468a4.13,4.13,0,0,1-2.28-.6,2,2,0,0,1-1-1.64h1.49c0,.12.11.27.3.39.66.43,2.19.6,4.33-.33.5-.22.79-.5.86-.81a2.3,2.3,0,0,0-.66-1.58l1.09-1a3.69,3.69,0,0,1,1,2.89,2.67,2.67,0,0,1-1.72,1.88A8.85,8.85,0,0,1,498.35,468Z" transform="translate(0 0)"/><path class="cls-1" d="M260.43,500c-1,0-1.79-1.19-1.79-2.84s.75-2.84,1.79-2.84,1.79,1.19,1.79,2.84S261.47,500,260.43,500Zm0-4.1a2.85,2.85,0,0,0,0,2.54,2.85,2.85,0,0,0,0-2.54Z" transform="translate(0 0)"/><path class="cls-1" d="M275.21,494.76c-1,0-1.79-1.19-1.79-2.84s.75-2.84,1.79-2.84,1.79,1.19,1.79,2.84S276.25,494.76,275.21,494.76Zm0-4.1a2.85,2.85,0,0,0,0,2.54,2.85,2.85,0,0,0,0-2.54Z" transform="translate(0 0)"/><path class="cls-1" d="M267.6,466.4c-1,0-1.79-1.19-1.79-2.84s.75-2.84,1.79-2.84,1.79,1.19,1.79,2.84S268.64,466.4,267.6,466.4Zm0-4.1a2.85,2.85,0,0,0,0,2.54,2.85,2.85,0,0,0,0-2.54Z" transform="translate(0 0)"/><rect class="cls-1" x="274.91" y="490.95" width="1.49" height="1.8" transform="translate(-257.09 307.24) rotate(-41.62)"/><rect class="cls-1" x="260" y="496.4" width="1.61" height="1.49" transform="translate(-231.97 228.16) rotate(-33.69)"/><rect class="cls-1" x="266.31" y="463.19" width="2.28" height="1.49" transform="translate(-267.83 448.63) rotate(-58.4)"/><path class="cls-1" d="M267.75,488.94c-1.55,0-2.39-2.38-2.39-4.63s.84-4.63,2.39-4.63a1.5,1.5,0,0,1,1.13.52l-1.06,1.05a.64.64,0,0,0-.1-.09c-.23.1-.86,1.26-.86,3.15s.64,3.05.91,3.14c0,0-.06,0-.1.07l1.06,1.05A1.28,1.28,0,0,1,267.75,488.94Z" transform="translate(0 0)"/><path class="cls-1" d="M268.49,488.79c-1.45,0-2.24-2.31-2.24-4.48,0-2.72.88-4.48,2.24-4.48s1.92,2.13,2.07,2.82l-1.46.32c-.27-1.21-.58-1.61-.67-1.67s-.69,1.06-.69,3,.59,2.88.82,3a4.26,4.26,0,0,0,.55-1.26l1.44.41C270.11,488,269.42,488.79,268.49,488.79Z" transform="translate(0 0)"/><path class="cls-1" d="M269.84,487c-.89,0-1.49-1-1.49-2.54s.6-2.54,1.49-2.54,1.49,1,1.49,2.54S270.73,487,269.84,487Z" transform="translate(0 0)"/><path class="cls-1" d="M269.54,486.55h-.15c-1.11,0-1.79-1.16-1.79-2.24s.69-2.24,1.79-2.24h.15v1.49h-.15a.94.94,0,0,0-.3.75.92.92,0,0,0,.31.75h.14Z" transform="translate(0 0)"/><path class="cls-1" d="M271.78,113.51a1.68,1.68,0,0,1-1.27-.37l1.06-1.06a.32.32,0,0,0-.13-.08,2.27,2.27,0,0,0,.35,0c.8,0,1.49-.91,1.49-1.94s-.7-1.94-1.49-1.94a1.57,1.57,0,0,0-1.5,1.58l-1.48-.17a3,3,0,0,1,3-2.9,3.47,3.47,0,0,1,0,6.87Z" transform="translate(0 0)"/><path class="cls-1" d="M271.18,104.4a3.49,3.49,0,0,1-2.95-2.3l1.42-.47a2.05,2.05,0,0,0,1.53,1.28c.8,0,1.49-.91,1.49-1.94S272,99,271.18,99c-.26,0-.53.09-1,.53l-1.06-1.06a2.82,2.82,0,0,1,2-1,3.47,3.47,0,0,1,0,6.87Z" transform="translate(0 0)"/><rect class="cls-1" x="332.63" y="336.6" width="17.57" height="1.49" transform="translate(-35.21 39.82) rotate(-6.35)"/><rect class="cls-1" x="332.65" y="343.84" width="17.53" height="1.49" transform="translate(-28.07 30.28) rotate(-4.88)"/><rect class="cls-1" x="332.64" y="366.08" width="18" height="1.49" transform="translate(-34.78 35.79) rotate(-5.71)"/><rect class="cls-1" x="320.37" y="215.73" width="1.49" height="56.35" transform="translate(42.22 535.14) rotate(-83.46)"/><path class="cls-1" d="M520.2,340.39l-.95-1.15c5.64-4.66,6.29-16.51,6.3-16.63l1.49.07C527,323.19,526.35,335.31,520.2,340.39Z" transform="translate(0 0)"/><path class="cls-1" d="M472.4,127.69a.92.92,0,0,0-1.34.9,1.75,1.75,0,0,0,1.34,1.64c.6.15,1,0,1.19-.45l-.6-.3c-.15.15-.45.3-.6.15a1.53,1.53,0,0,1-.75-.9l2.09.6v-.15A2.14,2.14,0,0,0,472.4,127.69Zm-.75.9c.15-.3.45-.3.75-.3a1.8,1.8,0,0,1,.75.75Z" transform="translate(0 0)"/><polygon class="cls-1" points="469.87 129.48 470.61 129.63 470.76 127.24 470.01 127.09 469.87 129.48"/><path class="cls-1" d="M470.31,126.2c-.15,0-.45,0-.45.3s.15.45.3.45.45,0,.45-.3S470.61,126.2,470.31,126.2Z" transform="translate(0 0)"/><polygon class="cls-1" points="465.83 126.2 464.34 125.75 464.34 124.41 463.6 124.26 463.6 127.39 464.34 127.69 464.34 126.35 465.83 126.79 465.69 128.14 466.43 128.44 466.58 125.15 465.83 125 465.83 126.2"/><path class="cls-1" d="M469,126.79a3.26,3.26,0,0,0-.75-.45.92.92,0,0,0-1.34.9,1.75,1.75,0,0,0,1.34,1.64c.3.15.45.15.6,0V129l.6.15.15-2.39Zm-.75,1.64a1.12,1.12,0,0,1-.75-1c0-.45.3-.6.75-.45a1.12,1.12,0,0,1,.75,1A.52.52,0,0,1,468.22,128.44Z" transform="translate(0 0)"/><path class="cls-1" d="M475.09,128.44a1,1,0,0,0-1.19.9v1.34l.6.15v-1.34c0-.3.3-.45.6-.45Z" transform="translate(0 0)"/><path class="cls-1" d="M314.17,362.05a1.89,1.89,0,0,0,.9-.15,11.14,11.14,0,0,0,8.81-10.6c0-4.93-3.88-8.36-8.81-7.46a11.14,11.14,0,0,0-8.81,10.6,7.45,7.45,0,0,0,5.52,7.46l.75-4a4,4,0,0,1-2.69-3.88,6,6,0,0,1,4.33-5.67v13.73Zm6.12-10a6.18,6.18,0,0,1-3.28,5.22V348A4.17,4.17,0,0,1,320.29,352.05Z" transform="translate(0 0)"/><polygon class="cls-1" points="323.58 339.96 323.58 335.33 306.56 338.32 306.56 342.94 323.58 339.96"/><path class="cls-1" d="M330.44,336.38a2,2,0,0,0-2.54-2.09,3.33,3.33,0,0,0-2.54,3,2,2,0,0,0,2.54,2.09,3.06,3.06,0,0,0,2.54-3" transform="translate(0 0)"/><polygon class="cls-1" points="328.95 306.07 319.84 307.71 319.84 297.71 328.95 296.22 328.95 291.15 306.56 295.03 306.56 300.1 315.66 298.46 315.66 308.46 306.56 310.1 306.56 315.18 328.95 311.15 328.95 306.07"/><path class="cls-1" d="M323.58,327.87l-.9.15a11,11,0,0,0,1.34-4.78,7.16,7.16,0,0,0-8.81-7.31,11,11,0,0,0-8.81,10.45,8.16,8.16,0,0,0,1.19,4.33l-.9.15v4.48l17-3v-4.48ZM310,325.93a6.51,6.51,0,0,1,5.08-6.12,4.17,4.17,0,0,1,5.08,4.33,6.51,6.51,0,0,1-5.08,6.12A4.23,4.23,0,0,1,310,325.93Z" transform="translate(0 0)"/><path class="cls-1" d="M325.07,369.67c-.75-4.18-4.48-6.72-9-6l-9.7,1.64v4.48l9.85-1.79a3.44,3.44,0,0,1,4.33,3.13Z" transform="translate(0 0)"/></svg>