<svg id="Layer_3" data-name="Layer 3" xmlns="http://www.w3.org/2000/svg" width="20.5" height="24.25" viewBox="0 0 20.5 24.25"><title>geo</title><path d="M10.25,24.25A1,1,0,0,1,9.6,24C9.21,23.68,0,15.77,0,10.25a10.25,10.25,0,0,1,20.5,0c0,5.52-9.21,13.43-9.6,13.76A1,1,0,0,1,10.25,24.25Zm-5-6a47.57,47.57,0,0,0,4.86,4.88L9.92,23A53,53,0,0,1,5.27,18.26Zm10.08-.12A52.84,52.84,0,0,1,10.58,23l-.21.18A47.42,47.42,0,0,0,15.34,18.14ZM10.25,2A8.26,8.26,0,0,0,2,10.25c0,3.85,6.29,9.87,8.25,11.66,2-1.79,8.25-7.81,8.25-11.66A8.26,8.26,0,0,0,10.25,2ZM20,10.25h0Zm-19,0H1Z" transform="translate(0 0)"/><path d="M10.25,15.25a5,5,0,1,1,5-5A5,5,0,0,1,10.25,15.25Zm-4-5a4,4,0,0,0,8,0,4,4,0,0,1-8,0Zm4-3a3,3,0,1,0,3,3A3,3,0,0,0,10.25,7.25Z" transform="translate(0 0)"/></svg>