<svg xmlns="http://www.w3.org/2000/svg" width="23.17" height="18.63" viewBox="0 0 23.17 18.63"><title>headphone</title><g id="Layer_3" data-name="Layer 3"><path d="M292.75,454a.5.5,0,0,1-.5-.5V448a6.75,6.75,0,0,0-13.5,0v5.5a.5.5,0,0,1-1,0V448a7.75,7.75,0,0,1,15.5,0v5.5a.5.5,0,0,1-.5.5Z" transform="translate(-273.92 -440.04)"/><path d="M292.75,454.29a.75.75,0,0,1-.75-.75V448a6.5,6.5,0,0,0-13,0v5.5a.75.75,0,0,1-1.5,0V448a8,8,0,0,1,16,0v5.5A.75.75,0,0,1,292.75,454.29ZM285.5,441a7,7,0,0,1,7,7v5.5a.25.25,0,0,0,.5,0V448a7.5,7.5,0,0,0-15,0v5.5a.25.25,0,0,0,.5,0V448A7,7,0,0,1,285.5,441Z" transform="translate(-273.92 -440.04)"/><path d="M292.91,454a.5.5,0,0,1,0-1,2.68,2.68,0,1,0,0-5.33.5.5,0,1,1,0-1,3.67,3.67,0,1,1,0,7.33Z" transform="translate(-273.92 -440.04)"/><path d="M292.91,454.29a.75.75,0,0,1,0-1.5,2.43,2.43,0,1,0,0-4.83.75.75,0,0,1,0-1.5,3.92,3.92,0,1,1,0,7.83Zm0-7.33a.25.25,0,0,0,0,.5,2.93,2.93,0,1,1,0,5.83.25.25,0,0,0,0,.5,3.43,3.43,0,1,0,0-6.83Z" transform="translate(-273.92 -440.04)"/><path d="M278.08,454a3.67,3.67,0,1,1,0-7.33.5.5,0,1,1,0,1,2.68,2.68,0,1,0,0,5.33.5.5,0,0,1,0,1Z" transform="translate(-273.92 -440.04)"/><path d="M278.08,454.29a3.92,3.92,0,1,1,0-7.83.75.75,0,0,1,0,1.5,2.43,2.43,0,1,0,0,4.83.75.75,0,0,1,0,1.5Zm0-7.33a3.43,3.43,0,1,0,0,6.83.25.25,0,0,0,0-.5,2.93,2.93,0,1,1,0-5.83.25.25,0,0,0,0-.5Z" transform="translate(-273.92 -440.04)"/><path d="M289.21,457.39a.5.5,0,0,1,0-1c3.08-.24,3.08-2.44,3.08-2.54a.5.5,0,0,1,.49-.51h0a.5.5,0,0,1,.5.49s0,3.24-4,3.55Z" transform="translate(-273.92 -440.04)"/><path d="M289.21,457.64a.75.75,0,0,1-.57-1.24.74.74,0,0,1,.51-.26c2.85-.22,2.85-2.2,2.85-2.28a.75.75,0,1,1,1.5,0s0,3.47-4.23,3.8Zm3.54-4a.25.25,0,0,0-.25.25c0,.1,0,2.53-3.31,2.79a.25.25,0,0,0,0,.5v.25l0-.25c3.73-.29,3.77-3.17,3.77-3.3A.25.25,0,0,0,292.75,453.6Z" transform="translate(-273.92 -440.04)"/><path d="M288,456.22a.59.59,0,1,1-.59.59.59.59,0,0,1,.59-.59m0-1a1.59,1.59,0,1,0,1.59,1.59,1.59,1.59,0,0,0-1.59-1.59Z" transform="translate(-273.92 -440.04)"/><path d="M288,458.66a1.84,1.84,0,1,1,1.84-1.84A1.85,1.85,0,0,1,288,458.66Zm0-3.19a1.34,1.34,0,1,0,1.34,1.34A1.35,1.35,0,0,0,288,455.47Zm0,2.19a.84.84,0,1,1,.84-.84A.84.84,0,0,1,288,457.66Zm0-1.19a.34.34,0,1,0,.34.34A.34.34,0,0,0,288,456.47Z" transform="translate(-273.92 -440.04)"/></g></svg>