<svg id="Layer_3" data-name="Layer 3" xmlns="http://www.w3.org/2000/svg" width="23.92" height="23.81" viewBox="0 0 23.92 23.81"><title>square</title><path d="M826,814.94a.5.5,0,0,1-.5-.5v-4.21a.5.5,0,0,1,.5-.5h4.21a.5.5,0,0,1,0,1h-3.71v3.71a.5.5,0,0,1-.5.5Z" transform="translate(-824.96 -809.24)"/><path d="M826,815.44a1,1,0,0,1-1-1v-4.21a1,1,0,0,1,1-1h4.21a1,1,0,0,1,0,2H827v3.21A1,1,0,0,1,826,815.44Zm0-1v0Z" transform="translate(-824.96 -809.24)"/><path d="M847.88,814.94a.5.5,0,0,1-.5-.5v-3.71h-3.71a.5.5,0,0,1,0-1h4.21a.5.5,0,0,1,.5.5v4.21a.5.5,0,0,1-.5.5Z" transform="translate(-824.96 -809.24)"/><path d="M847.88,815.44a1,1,0,0,1-1-1v-3.21h-3.21a1,1,0,0,1,0-2h4.21a1,1,0,0,1,1,1v4.21A1,1,0,0,1,847.88,815.44Zm0-1v0Zm-4.21-4.21h0Z" transform="translate(-824.96 -809.24)"/><path d="M830.17,832.54H826a.5.5,0,0,1-.5-.5v-4.21a.5.5,0,1,1,1,0v3.71h3.71a.5.5,0,0,1,0,1Z" transform="translate(-824.96 -809.24)"/><path d="M830.17,833H826a1,1,0,0,1-1-1v-4.21a1,1,0,0,1,2,0V831h3.21a1,1,0,0,1,0,2Zm0-1v0ZM826,832h0Z" transform="translate(-824.96 -809.24)"/><path d="M847.88,832.54h-4.21a.5.5,0,0,1,0-1h3.71v-3.71a.5.5,0,0,1,1,0V832a.5.5,0,0,1-.5.5Z" transform="translate(-824.96 -809.24)"/><path d="M847.88,833h-4.21a1,1,0,0,1,0-2h3.21v-3.21a1,1,0,1,1,2,0V832A1,1,0,0,1,847.88,833Zm0-1v0Zm-4.21,0h0Z" transform="translate(-824.96 -809.24)"/><path d="M843.86,828.57H830a.5.5,0,0,1-.5-.5V814.2a.5.5,0,0,1,.5-.5h13.87a.5.5,0,0,1,.5.5v13.87a.5.5,0,0,1-.5.5Zm-13.37-1h12.87V814.7H830.49v12.87Z" transform="translate(-824.96 -809.24)"/><path d="M843.86,829.07H830a1,1,0,0,1-1-1V814.2a1,1,0,0,1,1-1h13.87a1,1,0,0,1,1,1v13.87A1,1,0,0,1,843.86,829.07Zm0-1v0Zm-13.87,0h0Zm1-1h11.87V815.2H831Z" transform="translate(-824.96 -809.24)"/></svg>