<svg id="Слой_1" data-name="Слой 1" xmlns="http://www.w3.org/2000/svg" width="1923.16" height="789.86" viewBox="0 0 1923.16 789.86"><defs><style>.cls-1,.cls-10,.cls-11,.cls-12,.cls-13,.cls-14,.cls-15,.cls-16,.cls-17,.cls-19,.cls-3,.cls-4{fill:none;}.cls-1,.cls-10,.cls-11,.cls-12,.cls-13,.cls-14,.cls-15,.cls-16,.cls-17,.cls-18,.cls-19,.cls-2,.cls-3,.cls-4,.cls-5,.cls-8,.cls-9{stroke:#005aaa;stroke-miterlimit:10;}.cls-1,.cls-2{stroke-width:1.64px;}.cls-2,.cls-5,.cls-8,.cls-9{fill:#fff;}.cls-3{stroke-width:1.4px;}.cls-4{stroke-width:1.5px;}.cls-5{stroke-width:1.67px;}.cls-18,.cls-6,.cls-7{fill:#005aaa;}.cls-6{fill-rule:evenodd;}.cls-10,.cls-8{stroke-width:1.69px;}.cls-17,.cls-9{stroke-width:1.13px;}.cls-11{stroke-width:1.69px;}.cls-12{stroke-width:1.71px;}.cls-13{stroke-width:1.69px;}.cls-14{stroke-width:1.69px;}.cls-15{stroke-width:1.69px;}.cls-16{stroke-width:1.68px;}.cls-18{stroke-width:0.28px;}.cls-19{stroke-width:1.55px;}</style></defs><title>big-bg</title><path class="cls-1" d="M992.32,725.86s7.17,19,16.39-.08" transform="translate(0.03)"/><path class="cls-1" d="M1186.34,727.15s7.36,18.83,16.58-.28" transform="translate(0.03)"/><path class="cls-2" d="M978.33,415.28V4.62a3.8,3.8,0,0,1,3.8-3.8h227.39a3.8,3.8,0,0,1,3.8,3.8V415.83a3.8,3.8,0,0,1-3.81,3.8l-227.41-.54A3.78,3.78,0,0,1,978.33,415.28Z" transform="translate(0.03)"/><line class="cls-1" x1="1208.53" y1="419.57" x2="1208.53" y2="422.94"/><line class="cls-1" x1="983.08" y1="419.11" x2="983.11" y2="422.88"/><path class="cls-1" d="M1345.67,260.4h47.58a4.53,4.53,0,0,1,4.53,4.53v19.6a4.53,4.53,0,0,1-4.53,4.53h-47.75a4.53,4.53,0,0,1-4.53-4.57l.17-19.6A4.53,4.53,0,0,1,1345.67,260.4Z" transform="translate(0.03)"/><ellipse class="cls-1" cx="1369.6" cy="571.56" rx="93.29" ry="93.6"/><path class="cls-1" d="M1260.34,732.37A4.32,4.32,0,0,1,1256,728c-.05-44.1-.43-412.5-.54-466.3a6.59,6.59,0,0,1,6.58-6.61c34-.16,188.4,0,216.23.06a4.3,4.3,0,0,1,4.28,4.33v469a4.33,4.33,0,0,1-4.34,4.34C1449.84,732.84,1290.63,732.5,1260.34,732.37Z" transform="translate(0.03)"/><circle class="cls-1" cx="1369.35" cy="374.24" r="75.05"/><circle class="cls-1" cx="1368.51" cy="366.65" r="52.28"/><circle class="cls-1" cx="1369.49" cy="374.1" r="71.26"/><ellipse class="cls-1" cx="1367.8" cy="364.26" rx="45.4" ry="44.83"/><path class="cls-1" d="M1328,361.87c0-20.18,17.49-36.54,39.07-36.54a40,40,0,0,1,30.6,13.82" transform="translate(0.03)"/><path class="cls-1" d="M1368.22,341.61s-30.16-3-30.73,21,27.09,37.83,27.09,37.83a7.13,7.13,0,0,0,6.64,0s25.71-14,25.15-38-28.26-20.85-28.26-20.85" transform="translate(0.03)"/><path class="cls-1" d="M1338.12,338.61s18.55,30.15,55.44,2.74c0,0,5.27,3.58-5.06,6.32,3.37,3.58,13.28,14.34,10.75,31s19.82-30.36-10.33-43.43" transform="translate(0.03)"/><path class="cls-1" d="M1332.22,345.78s19.61,18.55,56.29,6.54" transform="translate(0.03)"/><path class="cls-1" d="M1349.51,383.31s15.07-46.27,31.73-.53" transform="translate(0.03)"/><path class="cls-1" d="M1348.66,382.25s17.6-64.3,34-.84" transform="translate(0.03)"/><circle class="cls-1" cx="1365.56" cy="375.72" r="9.7"/><circle class="cls-1" cx="1365.13" cy="376.35" r="5.9"/><path class="cls-1" d="M1346.13,354.85s-11.28-3.37,7.48,13.7" transform="translate(0.03)"/><path class="cls-1" d="M1353.09,369.6S1324,343,1350.77,385.2" transform="translate(0.03)"/><path class="cls-1" d="M1378.28,367.6s20.77-18.24,6-12.33" transform="translate(0.03)"/><path class="cls-1" d="M1378.6,368.34s40.05-20.66-8.64,25.51" transform="translate(0.03)"/><path class="cls-1" d="M1334.12,376.14s-11-7-3,7.17,28.88,30.78,60.08,15.81" transform="translate(0.03)"/><circle class="cls-1" cx="1447.21" cy="705.92" r="22.49"/><path class="cls-1" d="M1391,549.64c-.29,13-10.57,23.61-23.61,23.61a23.61,23.61,0,1,1,0-47.22C1380.81,526.2,1391.26,536.72,1391,549.64Z" transform="translate(0.03)"/><circle class="cls-1" cx="1367.38" cy="549.64" r="21.36"/><circle class="cls-1" cx="1367.38" cy="549.64" r="3.37"/><path class="cls-1" d="M1377.55,568.47c-2.93-2.37-4-6.34-4-10.4a12.94,12.94,0,0,1,14.89-12.78" transform="translate(0.03)"/><path class="cls-1" d="M1378.11,531.23c0,6.83-5.61,12.79-12.44,12.79a12.37,12.37,0,0,1-12.27-10.82" transform="translate(0.03)"/><path class="cls-1" d="M1346.34,545.7a11.48,11.48,0,0,1,1.34,0,15.18,15.18,0,0,1,12.37,24" transform="translate(0.03)"/><ellipse class="cls-1" cx="1370.76" cy="562.85" rx="60.71" ry="63.24"/><circle class="cls-1" cx="1371.04" cy="560.6" r="57.06"/><ellipse class="cls-1" cx="1369.35" cy="571.56" rx="90.79" ry="90.51"/><path class="cls-1" d="M1395.56,524.08A44.75,44.75,0,0,1,1413,559.76c0,24.45-19.11,44.27-42.69,44.27s-42.69-19.82-42.69-44.27" transform="translate(0.03)"/><path class="cls-1" d="M1407.48,538s-27.93,24.77-29.62,65.25" transform="translate(0.03)"/><path class="cls-1" d="M1408.75,569.24s2.74-23.82-9.91,5.48c0,0-24.45,42.37,1.26,10.54" transform="translate(0.03)"/><path class="cls-1" d="M1328.21,538.47s32.36,38.37,32.57,64.3" transform="translate(0.03)"/><path class="cls-1" d="M1338.54,586.11s-20.45-46.7,14.55,14" transform="translate(0.03)"/><path class="cls-1" d="M1350.56,512.54s-32.25,14.12,29.72,9.7c20.87-1.9,11.38-11-2.11-14.12" transform="translate(0.03)"/><path class="cls-1" d="M1381.55,507.05s31.2,3.79,35.63,37.74" transform="translate(0.03)"/><path class="cls-1" d="M1359.42,602.34s10.54,25.93-22.35,1.9" transform="translate(0.03)"/><path class="cls-1" d="M1379.86,603s-8,26.14,28.46-3.37" transform="translate(0.03)"/><path class="cls-1" d="M1330.53,583.37s7.59,10.75,13.91,15.18,4.64,10.12,4.64,10.12" transform="translate(0.03)"/><path class="cls-1" d="M1406.85,587.16s-8.43,9.7-15.18,12.86-3.58,9.49-3.58,9.49" transform="translate(0.03)"/><path class="cls-1" d="M1367.64,567.77A18.34,18.34,0,1,1,1381.95,538" transform="translate(0.03)"/><path class="cls-1" d="M1261.53,732.49s6,4.92,13.63-.14" transform="translate(0.03)"/><path class="cls-1" d="M1466.58,733s5.2,4.92,12.79-.14" transform="translate(0.03)"/><path class="cls-1" d="M1264.26,257.87h209.2a5.27,5.27,0,0,1,5.27,5.27v27.39a5.27,5.27,0,0,1-5.28,5.27l-209.08-.27a5.27,5.27,0,0,1-5.27-5.25l-.12-27.13A5.27,5.27,0,0,1,1264.26,257.87Z" transform="translate(0.03)"/><rect class="cls-1" x="1357.9" y="260.4" width="13.07" height="28.67"/><rect class="cls-1" x="1370.95" y="260.41" width="13.07" height="28.67"/><rect class="cls-1" x="1360.07" y="268.31" width="8.57" height="6.87"/><path class="cls-1" d="M1341,288" transform="translate(0.03)"/><path class="cls-1" d="M1397.71,288" transform="translate(0.03)"/><line class="cls-1" x1="1341.06" y1="281.1" x2="1397.74" y2="281.1"/><rect class="cls-1" x="1373.29" y="268.31" width="8.57" height="6.87"/><rect class="cls-1" x="1386.5" y="268.31" width="8.57" height="6.87"/><rect class="cls-1" x="1562.67" y="268.2" width="70.83" height="23.47" rx="6.04" ry="6.04"/><path class="cls-1" d="M1534.81,726.46s6.85,19.42,15.67-.08" transform="translate(0.03)"/><path class="cls-1" d="M1849.49,726.69s6.8,16.51,15.55-.07" transform="translate(0.03)"/><path class="cls-1" d="M1534.71,719.4a4.44,4.44,0,0,1-4.46-4.46c.08-55,.92-598.76,1-635.44a1.93,1.93,0,0,1,1.94-1.95c16,0,122.54-.23,138.91,0a2,2,0,0,1,1.94,2V717.34a1.92,1.92,0,0,1-1.92,1.94C1657,719.29,1557.22,719.37,1534.71,719.4Z" transform="translate(0.03)"/><path class="cls-1" d="M1867,719.38l0,3.89a3.24,3.24,0,0,1-3.23,3.27c-32.32,0-295.68.07-327.9.06a3.22,3.22,0,0,1-3.23-3.23c0-1.17,0-2.58,0-4.09" transform="translate(0.03)"/><path class="cls-1" d="M1681.48,719.4a4.46,4.46,0,0,1-4.48-4.47c.11-54.9,1.22-597.18,1.3-635.28a2.09,2.09,0,0,1,2.11-2.11c19.69,0,167.28-.2,186.48,0a2,2,0,0,1,1.93,2V717.34a1.92,1.92,0,0,1-1.92,1.93C1848.82,719.29,1708.62,719.37,1681.48,719.4Z" transform="translate(0.03)"/><line class="cls-1" x1="1674.19" y1="99.06" x2="1678.41" y2="99.06"/><path class="cls-1" d="M1683,493l10.58,0s4.23-164.15,0-331.54h-10.1S1686,474,1683,493Z" transform="translate(0.03)"/><path class="cls-1" d="M1691,163.15s4.08,186.64.7,327" transform="translate(0.03)"/><path class="cls-1" d="M1691.87,215.5s-3.3-13-5.06-.49c-2.29,16.28-1.22,222.66.42,228.24-.17,2.75,4,15.33,5.43-3" transform="translate(0.03)"/><path class="cls-1" d="M1669.28,493l-10.58,0s-4.23-164.15,0-331.54h10.1S1666.28,474,1669.28,493Z" transform="translate(0.03)"/><path class="cls-1" d="M1661.22,163.15s-4.08,186.64-.7,327" transform="translate(0.03)"/><path class="cls-1" d="M1660.37,215.5s3.3-13,5.06-.49c2.29,16.28,1.22,222.66-.42,228.24.17,2.75-4,15.41-5.4-2.88" transform="translate(0.03)"/><rect class="cls-1" x="1570.75" y="271.68" width="19.96" height="16" rx="1.15" ry="1.15"/><rect class="cls-1" x="1599.84" y="271.78" width="9.21" height="16" rx="1.15" ry="1.15"/><rect class="cls-1" x="1613.02" y="271.78" width="9.21" height="16" rx="1.15" ry="1.15"/><polygon class="cls-2" points="948.56 735.3 1922.34 735.3 1922.34 774.93 949.33 774.64 948.56 735.3"/><polygon class="cls-2" points="954.75 774.58 1915.4 775 1915.31 787.65 954.86 788.14 954.75 774.58"/><path class="cls-3" d="M1291.52,276.31a2.27,2.27,0,0,0,0-.25,2.4,2.4,0,1,0-2.4,2.35,2.4,2.4,0,0,0,2.23-1.47l-1-.18a1.33,1.33,0,0,1-1.16.7,1.35,1.35,0,0,1-1.31-1.15Zm-2.35-1.63a1.34,1.34,0,0,1,1.24.87h-2.48A1.33,1.33,0,0,1,1289.16,274.68Z" transform="translate(0.03)"/><rect class="cls-3" x="1284.88" y="273.8" width="1.23" height="4.52"/><path class="cls-3" d="M1285.47,272a.68.68,0,1,0,.68.68.68.68,0,0,0-.68-.68" transform="translate(0.03)"/><polygon class="cls-3" points="1277.37 272.35 1277.37 274.78 1274.73 274.78 1274.73 272.35 1273.39 272.35 1273.39 278.31 1274.73 278.31 1274.73 275.88 1277.37 275.88 1277.37 278.31 1278.71 278.31 1278.71 272.35 1277.37 272.35"/><path class="cls-3" d="M1282.88,273.8V274a2.35,2.35,0,1,0,0,4v.24h1.2V273.8Zm-1.16,3.61a1.36,1.36,0,1,1,1.37-1.36A1.36,1.36,0,0,1,1281.72,277.41Z" transform="translate(0.03)"/><path class="cls-3" d="M1294.07,273.38a2.43,2.43,0,0,0-2,2.37v2.57h1.17V275.7a1.17,1.17,0,0,1,1-1.16Z" transform="translate(0.03)"/><path class="cls-3" d="M1848.1,112.46a2.27,2.27,0,0,0,0-.25,2.4,2.4,0,1,0-2.4,2.35,2.4,2.4,0,0,0,2.23-1.47l-1-.18a1.33,1.33,0,0,1-1.16.7,1.35,1.35,0,0,1-1.31-1.15Zm-2.35-1.63a1.34,1.34,0,0,1,1.24.87h-2.48A1.33,1.33,0,0,1,1845.74,110.83Z" transform="translate(0.03)"/><rect class="cls-3" x="1841.46" y="109.96" width="1.23" height="4.52"/><path class="cls-3" d="M1842,108.11a.68.68,0,1,0,.68.68.68.68,0,0,0-.68-.68" transform="translate(0.03)"/><polygon class="cls-3" points="1833.95 108.51 1833.95 110.94 1831.3 110.94 1831.3 108.51 1829.96 108.51 1829.96 114.47 1831.3 114.47 1831.3 112.04 1833.95 112.04 1833.95 114.47 1835.29 114.47 1835.29 108.51 1833.95 108.51"/><path class="cls-3" d="M1839.46,110v.24a2.35,2.35,0,1,0,0,4v.24h1.2V110Zm-1.16,3.61a1.36,1.36,0,1,1,1.37-1.36A1.36,1.36,0,0,1,1838.3,113.57Z" transform="translate(0.03)"/><path class="cls-3" d="M1850.65,109.54a2.43,2.43,0,0,0-2,2.37v2.57h1.17v-2.62a1.17,1.17,0,0,1,1-1.16Z" transform="translate(0.03)"/><rect class="cls-1" x="1085.73" y="70.25" width="18.97" height="64.09" rx="1.62" ry="1.62"/><rect class="cls-1" x="1088.83" y="76.99" width="13.07" height="21.92" rx="1.62" ry="1.62"/><rect class="cls-1" x="1088.83" y="102.61" width="13.07" height="3.79"/><rect class="cls-1" x="1088.83" y="108.72" width="13.07" height="3.79"/><rect class="cls-1" x="1088.83" y="114.83" width="13.07" height="3.79"/><circle class="cls-1" cx="1095.29" cy="127.03" r="3.37"/><path class="cls-4" d="M1103,61.93a2.27,2.27,0,0,0,0-.25,2.4,2.4,0,1,0-2.4,2.35,2.4,2.4,0,0,0,2.23-1.47l-1-.18a1.33,1.33,0,0,1-1.16.7,1.35,1.35,0,0,1-1.31-1.15Zm-2.35-1.63a1.34,1.34,0,0,1,1.24.87h-2.48A1.33,1.33,0,0,1,1100.61,60.3Z" transform="translate(0.03)"/><rect class="cls-4" x="1096.33" y="59.42" width="1.23" height="4.52"/><path class="cls-4" d="M1096.92,57.58a.68.68,0,1,0,.68.68.68.68,0,0,0-.68-.68" transform="translate(0.03)"/><polygon class="cls-4" points="1088.82 57.98 1088.82 60.41 1086.18 60.41 1086.18 57.98 1084.84 57.98 1084.84 63.94 1086.18 63.94 1086.18 61.51 1088.82 61.51 1088.82 63.94 1090.16 63.94 1090.16 57.98 1088.82 57.98"/><path class="cls-4" d="M1094.33,59.43v.24a2.35,2.35,0,1,0,0,4v.24h1.2V59.43ZM1093.17,63a1.36,1.36,0,1,1,1.37-1.36A1.36,1.36,0,0,1,1093.17,63Z" transform="translate(0.03)"/><path class="cls-4" d="M1105.52,59a2.43,2.43,0,0,0-2,2.37v2.57h1.17V61.32a1.17,1.17,0,0,1,1-1.16Z" transform="translate(0.03)"/><path class="cls-2" d="M984.38,725.93a3.78,3.78,0,0,1-3.8-3.8V425.29a2.28,2.28,0,0,1,2.28-2.28c22.07,0,196.68-.07,224.45,0a3.77,3.77,0,0,1,3.76,3.8V723.32a3.77,3.77,0,0,1-3.8,3.8C1179.81,726.92,1011.85,725.72,984.38,725.93Z" transform="translate(0.03)"/><polygon class="cls-5" points="421.02 733.74 896.25 733.74 896.25 780.87 421.39 780.52 421.02 733.74"/><polygon class="cls-5" points="411.14 780.14 906.14 780.42 906.09 788.7 411.19 789.02 411.14 780.14"/><polygon class="cls-5" points="447.04 684.62 870.23 684.62 870.23 726.58 447.37 726.27 447.04 684.62"/><polygon class="cls-5" points="450.76 726.05 866.52 726.29 866.48 733.46 450.81 733.74 450.76 726.05"/><polygon class="cls-5" points="478.28 635.5 838.7 635.5 838.7 677.46 478.56 677.15 478.28 635.5"/><polygon class="cls-5" points="481.59 676.93 835.68 677.17 835.65 684.34 481.63 684.62 481.59 676.93"/><path class="cls-6" d="M591.54,577.24c5.72,1.33,10.94,2.38,15.35,3.2l-1.15,2.42c-6.53-1.11-13.06-2.51-19.49-4.18-6.43,1.67-13,3.07-19.49,4.18l-1.15-2.42c4.41-.82,9.64-1.87,15.35-3.2a201.67,201.67,0,0,1-20.62-7.1c-1.38,3.13-7,5.84-13.54,6.93-5.46.92-11.91,1.06-15.51-.45,5.9-8,13.77-10.74,19.89-10.53-4.19-2-8.22-4.15-12-6.44-1.84,2.9-7.92,4.63-14.56,4.6-5.53,0-11.9-1-15.18-3.09,7.19-6.92,15.4-8.25,21.38-7a92.44,92.44,0,0,1-12.1-10.32,4.43,4.43,0,0,1,.29,1.38c-2.71,2.16-9.15,1.42-15.38-1.24-5.08-2.16-10.55-5.52-12.74-8.74,8.81-3.42,16.51-1.85,21.55,1.28a56.88,56.88,0,0,1-6.57-11.3c0,.11,0,.22-.06.34-3.21,1.31-9.16-1.2-14.37-5.51-4.24-3.5-8.54-8.26-9.72-12,10.33-.9,17.67,3.62,21.35,8.61l-.08-.32c-1-4.41-1.77-8.87-2.34-13.34-3.43.24-8.33-3.81-12.06-9.34-3.07-4.56-5.83-10.34-5.92-14.25,8.84,1.78,14.35,6.88,17,12a111.69,111.69,0,0,1,.32-14.11,4.25,4.25,0,0,1-.69.87c-3.07-.56-6.35-5.38-8.18-11.22-1.5-4.75-2.41-10.48-1.48-13.9,7.2,3.79,10.67,9.63,11.66,14.78A84.19,84.19,0,0,1,504.77,455c-2.85-1.09-5.13-6.31-5.85-12.26-.59-4.84-.45-10.53,1-13.66,6.63,5.23,8.8,11.94,8.55,17.24a72.17,72.17,0,0,1,6-9.78c-2.09-1.71-2.65-6.72-1.72-11.95.76-4.29,2.37-9.11,4.46-11.4,4.12,6,4.34,12,2.92,16.48a75.24,75.24,0,0,1,6.1-5.8c.1-2.51,2.92-6,6.74-8.75,3.33-2.4,7.57-4.61,10.46-4.78-1.86,10.43-10,14.9-14.82,14.53a5.14,5.14,0,0,1-2.37-.47c0-.06,0-.13,0-.2A85.38,85.38,0,0,0,519.7,431a12.24,12.24,0,0,1-2,3.3,17.18,17.18,0,0,1,14.26-1c-1.48,2.37-5.27,4.94-8.82,6.66-4.36,2.11-8.89,2.85-10.86,1.4,0-.12,0-.22,0-.32a75.57,75.57,0,0,0-3.95,7.18,11.9,11.9,0,0,1-1.68,4.63c-.39.59-.64,1-.86,1.27a81.4,81.4,0,0,0-4.23,15.7,12.68,12.68,0,0,1-.77,5.84c-.15,1.5-.26,3-.34,4.53,1.17-4.92,6.53-11.29,16.23-12.08-.46,3-3.16,7.16-6,10.37-3.45,4-7.67,6.64-10.25,6.05-.06-.16-.11-.3-.14-.43q-.07,4.6.25,9.35a13.87,13.87,0,0,1,1,6.42c-.08.69-.13,1.18-.2,1.56.08.6.16,1.2.25,1.8v-.33c-.19-5.26,5.12-14,16.66-15.54-.33,3.16-3,7.7-5.74,11.24-3.43,4.34-7.75,7.39-10.51,6.92l-.08-.2q.85,5.34,2.12,10.83a51.66,51.66,0,0,0,2.87,8.74c-.57-5.41,2.41-13.6,11.65-18.13.72,3.17-.34,8.43-1.89,12.77-1.81,5-4.76,9.22-7.48,10A61.81,61.81,0,0,0,520,543.68c-2.12-5-1.44-14,6.71-20.87,1.47,2.89,1.73,8.24,1.27,12.82-.5,5.07-2.21,9.61-4.49,11.29A98.75,98.75,0,0,0,539.29,558c-4-3.7-7-12.35-2.09-21.92,2.49,2.09,4.81,6.9,6.18,11.28,1.66,5.33,1.74,10.65-.23,12.76a155.72,155.72,0,0,0,15.52,7.08c-3.94-3.61-7.12-10.92-4.27-20,2.82,1.63,5.93,6,8,10,2.42,4.69,3.43,9.63,2.2,12.18,7.42,2.65,14.78,4.79,21.63,6.52" transform="translate(0.03)"/><path class="cls-6" d="M514.48,458.33c-4,3-8.46,4.67-10.75,3.6a5.12,5.12,0,0,1,.26-2.39c1.07-4.65,7.73-11.07,18.1-9.72C521.07,452.52,517.73,455.89,514.48,458.33Z" transform="translate(0.03)"/><path class="cls-6" d="M813.22,459.55a5.12,5.12,0,0,1,.26,2.39c-2.29,1.06-6.75-.6-10.74-3.6-3.25-2.44-6.59-5.81-7.62-8.5C805.5,448.48,812.15,454.9,813.22,459.55Z" transform="translate(0.03)"/><path class="cls-6" d="M731,576c6.84-1.73,14.2-3.87,21.63-6.52-1.23-2.55-.21-7.49,2.2-12.18,2.1-4.08,5.21-8.42,8-10,2.85,9.07-.33,16.38-4.27,20a155.75,155.75,0,0,0,15.52-7.08c-2-2.11-1.88-7.43-.22-12.76,1.36-4.38,3.68-9.2,6.18-11.28,4.92,9.57,1.9,18.21-2.09,21.92a98.73,98.73,0,0,0,15.77-11.07c-2.28-1.67-4-6.22-4.49-11.29-.45-4.58-.2-9.93,1.27-12.82,8.15,6.84,8.83,15.86,6.71,20.87A61.81,61.81,0,0,0,808,529.54c-2.72-.82-5.68-5-7.48-10-1.56-4.34-2.61-9.6-1.89-12.77,9.24,4.53,12.22,12.73,11.65,18.13a51.65,51.65,0,0,0,2.87-8.74q1.27-5.49,2.12-10.83l-.08.2c-2.76.48-7.08-2.57-10.51-6.92-2.79-3.54-5.42-8.08-5.74-11.24,11.54,1.53,16.85,10.27,16.66,15.54v.33q.13-.9.25-1.8c-.06-.38-.12-.87-.2-1.56a13.88,13.88,0,0,1,1-6.43q.32-4.75.25-9.35c0,.13-.08.27-.14.43-2.59.58-6.8-2.1-10.25-6.05-2.81-3.22-5.5-7.4-6-10.37,9.69.8,15.06,7.17,16.23,12.09-.08-1.52-.19-3-.34-4.53a12.68,12.68,0,0,1-.77-5.84,81.41,81.41,0,0,0-4.23-15.7c-.22-.29-.47-.68-.86-1.26a11.9,11.9,0,0,1-1.68-4.63,75.48,75.48,0,0,0-3.95-7.18c0,.1,0,.2,0,.32-2,1.45-6.51.7-10.86-1.4-3.54-1.72-7.34-4.29-8.82-6.66a17.18,17.18,0,0,1,14.26,1,12.24,12.24,0,0,1-2-3.3,85.36,85.36,0,0,0-6.59-6.76c0,.07,0,.13,0,.2a5.14,5.14,0,0,1-2.37.47c-4.79.38-13-4.1-14.82-14.53,2.89.17,7.13,2.38,10.46,4.78,3.82,2.75,6.65,6.24,6.74,8.75a75.17,75.17,0,0,1,6.1,5.8c-1.42-4.43-1.2-10.5,2.92-16.48,2.09,2.28,3.7,7.11,4.46,11.4.93,5.22.38,10.24-1.72,11.95a72.21,72.21,0,0,1,6,9.78c-.25-5.3,1.92-12,8.55-17.24,1.49,3.13,1.64,8.82,1,13.66-.72,5.95-3,11.17-5.85,12.26a84.21,84.21,0,0,1,3.47,12.85c1-5.15,4.46-11,11.66-14.77.92,3.42,0,9.15-1.48,13.9-1.84,5.84-5.11,10.66-8.18,11.22a4.23,4.23,0,0,1-.69-.87,111.64,111.64,0,0,1,.32,14.1c2.67-5.14,8.17-10.24,17-12-.09,3.9-2.85,9.69-5.92,14.25-3.72,5.53-8.62,9.58-12.06,9.34-.57,4.47-1.36,8.93-2.34,13.34l-.08.32c3.68-5,11-9.5,21.35-8.61-1.19,3.71-5.48,8.47-9.72,12-5.22,4.31-11.17,6.82-14.37,5.51,0-.12,0-.23-.06-.34a56.87,56.87,0,0,1-6.57,11.3c5-3.13,12.74-4.7,21.55-1.28-2.19,3.22-7.66,6.57-12.74,8.74-6.23,2.66-12.67,3.4-15.38,1.24a4.43,4.43,0,0,1,.29-1.38,92.47,92.47,0,0,1-12.1,10.32c6-1.25,14.2.08,21.38,7-3.28,2.11-9.65,3.07-15.18,3.09-6.63,0-12.72-1.7-14.56-4.6-3.82,2.29-7.85,4.44-12,6.44,6.12-.21,14,2.5,19.89,10.53-3.6,1.52-10,1.37-15.51.45-6.49-1.1-12.16-3.8-13.54-6.93a201.68,201.68,0,0,1-20.62,7.1c5.72,1.33,10.94,2.38,15.35,3.2l-1.15,2.42c-6.53-1.11-13.06-2.51-19.49-4.18-6.43,1.67-13,3.07-19.49,4.18l-1.15-2.42c4.41-.82,9.64-1.87,15.35-3.2" transform="translate(0.03)"/><path class="cls-7" d="M742.56,501.31a23.69,23.69,0,0,0,.15-2.65c0-13.54-11.22-24.51-25.07-24.51s-25.07,11-25.07,24.51,11.22,24.51,25.07,24.51a25.06,25.06,0,0,0,23.25-15.34l-10.8-1.89a13.83,13.83,0,0,1-12.1,7.33,14.08,14.08,0,0,1-13.71-12Zm-24.57-17a13.93,13.93,0,0,1,12.93,9.12H705.05A13.93,13.93,0,0,1,718,484.32Z" transform="translate(0.03)"/><rect class="cls-7" x="673.07" y="475.17" width="12.8" height="47.11"/><path class="cls-7" d="M679.44,456a7.14,7.14,0,1,0,7.14,7.14,7.14,7.14,0,0,0-7.14-7.14" transform="translate(0.03)"/><polygon class="cls-7" points="594.71 460.07 594.71 485.43 567.11 485.43 567.11 460.07 553.12 460.07 553.12 522.25 567.11 522.25 567.11 496.88 594.71 496.88 594.71 522.25 608.71 522.25 608.71 460.07 594.71 460.07"/><path class="cls-7" d="M652.46,475.19v2.53a24.5,24.5,0,1,0-.29,42.07v2.45h12.49V475.19Zm-12.13,37.65a14.17,14.17,0,1,1,14.33-14.16A14.24,14.24,0,0,1,640.33,512.84Z" transform="translate(0.03)"/><path class="cls-7" d="M769.18,470.79a25.33,25.33,0,0,0-20.89,24.69v26.81h12.26V495a12.25,12.25,0,0,1,10.74-12.15Z" transform="translate(0.03)"/><circle class="cls-7" cx="662.24" cy="580.88" r="8.82"/><circle class="cls-7" cx="631.71" cy="580.88" r="5.23"/><circle class="cls-7" cx="692.77" cy="580.88" r="5.23"/><polygon class="cls-8" points="105.21 728.53 367 728.53 367 788.28 105.42 787.84 105.21 728.53"/><polygon class="cls-9" points="215.01 775.32 240.44 758.95 228.65 742.64 228.62 742.62 104.86 742.05 104.86 775.32 216.02 775.32 215.01 775.32"/><rect class="cls-10" x="126.84" y="422.97" width="214.23" height="297.66" rx="3.92" ry="3.92"/><path class="cls-10" d="M294.71,682.3l34.46,0a4,4,0,0,1,4,4V711a4,4,0,0,1-4,4l-34.12.13a4,4,0,0,1-4-3.93c-.08-6.28-.23-18.49-.32-24.88A4,4,0,0,1,294.71,682.3Z" transform="translate(0.03)"/><path class="cls-10" d="M136.66,720.81s4.41,12.64,10.52,0" transform="translate(0.03)"/><path class="cls-10" d="M319.59,720.71s4.74,12.59,10.84-.05" transform="translate(0.03)"/><path class="cls-10" d="M127.17,471.56s104.83,10.08,214.38,0" transform="translate(0.03)"/><path class="cls-10" d="M127.23,458.7S232,469.05,341.55,459" transform="translate(0.03)"/><line class="cls-10" x1="202.39" y1="422.97" x2="202.39" y2="475.96"/><polygon class="cls-10" points="203.81 425.23 271.16 425.23 271.16 459.05 203.51 459.05 203.81 425.23"/><path class="cls-10" d="M141.44,447.78l45.13-.15v10.3H141.44C141.4,457,141.4,448.82,141.44,447.78Z" transform="translate(0.03)"/><line class="cls-10" x1="143.76" y1="451.16" x2="186.6" y2="451.16"/><circle class="cls-11" cx="220.43" cy="438.76" r="10.15"/><circle class="cls-12" cx="220.43" cy="438.76" r="6.77"/><ellipse class="cls-13" cx="232.83" cy="565.04" rx="81.18" ry="82.31"/><ellipse class="cls-14" cx="232.83" cy="555.45" rx="57.5" ry="58.07"/><ellipse class="cls-15" cx="232.83" cy="552.07" rx="50.74" ry="49.05"/><path class="cls-10" d="M256,595.53a41.19,41.19,0,0,1-.41-18.86c3.08-15.92,13.72-28.1,27.6-32.59" transform="translate(0.03)"/><path class="cls-10" d="M242.16,599.95c-4.22-12.13-3.17-26.47,3.68-40.12,7.53-15,20.07-25,33.7-28" transform="translate(0.03)"/><path class="cls-10" d="M182.44,549a43.45,43.45,0,0,1,16.95,8.81c12.2,10.25,17.36,25.61,14.7,39.54" transform="translate(0.03)"/><path class="cls-10" d="M185.43,534.86c12.56,2.23,25,10.17,33.6,22.74,9.43,13.83,12,29.66,8,42.94" transform="translate(0.03)"/><path class="cls-10" d="M184.26,537.63c11.93,2.12,23.78,9.67,31.93,21.61,9,13.14,11.5,28.2,7.77,40.81" transform="translate(0.03)"/><path class="cls-10" d="M250.93,558.48c-9,13.13-9.16,29.1-5.45,40.82" transform="translate(0.03)"/><path class="cls-10" d="M259,509.49A41.91,41.91,0,0,1,243.12,520c-15.15,5.79-31,3.11-42.11-6.31" transform="translate(0.03)"/><path class="cls-10" d="M270.44,518.48c-8.07,10-21.27,17.3-36.48,18.69-16.73,1.53-32.14-4.2-41.87-14.2" transform="translate(0.03)"/><circle class="cls-16" cx="233.39" cy="550.94" r="41.15"/><rect class="cls-10" x="237.34" y="437.63" width="10.15" height="2.26"/><rect class="cls-10" x="237.34" y="442.14" width="10.15" height="2.26"/><rect class="cls-10" x="237.34" y="446.65" width="10.15" height="2.26"/><rect class="cls-10" x="252" y="446.65" width="10.15" height="2.26"/><rect class="cls-10" x="237.34" y="450.03" width="10.15" height="2.26"/><rect class="cls-10" x="252" y="450.03" width="10.15" height="2.26"/><path class="cls-17" d="M161.06,437.13h0a2.49,2.49,0,1,0-2.47,2.17,2.48,2.48,0,0,0,2.3-1.52l-1.07-.19a1.37,1.37,0,0,1-1.2.73,1.4,1.4,0,0,1-1.36-1.18Zm-2.43-2a1.38,1.38,0,0,1,1.28.9h-2.56A1.38,1.38,0,0,1,158.63,435.1Z" transform="translate(0.03)"/><rect class="cls-17" x="154.29" y="434.87" width="1.13" height="4.51"/><path class="cls-17" d="M154.81,432.66a.71.71,0,1,0,.71.71.71.71,0,0,0-.71-.71" transform="translate(0.03)"/><polygon class="cls-17" points="146.4 433.75 146.4 436 143.01 436 143.01 433.75 141.89 433.75 141.89 439.38 143 439.38 142.96 437.13 146.4 437.13 146.4 439.38 147.53 439.38 147.53 433.75 146.4 433.75"/><path class="cls-17" d="M152,434.87v-.06a3.21,3.21,0,0,0-1.14-.35,2.43,2.43,0,1,0,0,4.86,21.77,21.77,0,0,0,2.27-.33v.4h0v-4.51Zm-1.08,3.42a1.4,1.4,0,1,1,1.42-1.4A1.41,1.41,0,0,1,150.93,438.29Z" transform="translate(0.03)"/><path class="cls-17" d="M164.08,434.28a2.46,2.46,0,0,0-1.92,2.45v2.66h1.13v-2.71a1.19,1.19,0,0,1,1-1.2Z" transform="translate(0.03)"/><path class="cls-18" d="M172.7,761.22l.75-.7a7.3,7.3,0,1,0-7.3,7.07,7.3,7.3,0,0,0,6.77-4.47l-3.14-.55a4,4,0,0,1-3.52,2.13,4.1,4.1,0,0,1-4-3.48Zm-6.45-4.91A4.06,4.06,0,0,1,170,759h-7.53A4.05,4.05,0,0,1,166.25,756.31Z" transform="translate(0.03)"/><rect class="cls-18" x="153.9" y="754.46" width="3.38" height="13.53"/><path class="cls-18" d="M155,748.22a2.08,2.08,0,1,0,2.08,2.08,2.08,2.08,0,0,0-2.08-2.08" transform="translate(0.03)"/><polygon class="cls-18" points="130.22 749.95 130.22 756.72 122.33 756.72 122.33 749.95 117.82 749.95 117.82 767.99 122.33 767.99 122.33 760.1 130.22 760.1 130.22 767.99 134.74 767.99 134.74 749.95 130.22 749.95"/><path class="cls-18" d="M147.11,754.46v.09a12.15,12.15,0,0,0-3.65-1,7.13,7.13,0,1,0,0,14.26,18,18,0,0,0,4.78-1V768h2.26V754.46Zm-3.47,10.32a4.13,4.13,0,1,1,4.17-4.12A4.15,4.15,0,0,1,143.64,764.78Z" transform="translate(0.03)"/><path class="cls-18" d="M181.06,753a7.27,7.27,0,0,0-5.76,7.19V768h3.38v-8a3.51,3.51,0,0,1,3-3.54Z" transform="translate(0.03)"/><polygon class="cls-19" points="81.56 775.39 81.56 737.3 0.78 737.3 0.78 775.37 81.56 775.39"/><polygon class="cls-19" points="73.95 787.61 74.05 775.45 0.78 775.42 0.78 787.64 73.95 787.61"/><path class="cls-19" d="M69.24,450.75a3.32,3.32,0,0,0,3.31-3.34l.33-408.54a6.58,6.58,0,0,0-6.58-6.59H.75v418.5C32.79,450.8,60.1,450.79,69.24,450.75Z" transform="translate(0.03)"/><path class="cls-19" d="M64.93,567.69a6.56,6.56,0,0,0,6.54-6.58v-94a6.58,6.58,0,0,0-6.58-6.58H.75V567.85C29.12,567.8,53.68,567.72,64.93,567.69Z" transform="translate(0.03)"/><path class="cls-19" d="M63.6,728.66a6.58,6.58,0,0,0,6.58-6.58V584.51a6.58,6.58,0,0,0-6.58-6.58H.75V728.66Z" transform="translate(0.03)"/></svg>