<svg id="Слой_1" data-name="Слой 1" xmlns="http://www.w3.org/2000/svg" width="1512.86" height="789.86" viewBox="0 0 1512.86 789.86"><defs><style>.cls-1,.cls-3,.cls-4{fill:none;}.cls-1,.cls-2,.cls-3,.cls-4,.cls-5{stroke:#005aaa;stroke-miterlimit:10;}.cls-1,.cls-2{stroke-width:1.64px;}.cls-2,.cls-5{fill:#fff;}.cls-3{stroke-width:1.4px;}.cls-4{stroke-width:1.5px;}.cls-5{stroke-width:1.67px;}.cls-6,.cls-7{fill:#005aaa;}.cls-6{fill-rule:evenodd;}</style></defs><title>big-bg-tablet</title><path class="cls-1" d="M659.54,259.3h47.58a4.53,4.53,0,0,1,4.53,4.53v19.6a4.53,4.53,0,0,1-4.53,4.53H659.37a4.53,4.53,0,0,1-4.53-4.57l.17-19.6A4.53,4.53,0,0,1,659.54,259.3Z"/><ellipse class="cls-1" cx="683.44" cy="570.46" rx="93.29" ry="93.6"/><path class="cls-1" d="M574.21,731.26a4.32,4.32,0,0,1-4.3-4.33c-.05-44.1-.43-412.5-.54-466.3a6.59,6.59,0,0,1,6.58-6.61c34-.16,188.4,0,216.23.06a4.3,4.3,0,0,1,4.28,4.33v469a4.33,4.33,0,0,1-4.34,4.34C763.71,731.73,604.5,731.39,574.21,731.26Z"/><circle class="cls-1" cx="683.19" cy="373.14" r="75.05"/><circle class="cls-1" cx="682.34" cy="365.55" r="52.28"/><circle class="cls-1" cx="683.33" cy="373" r="71.26"/><ellipse class="cls-1" cx="681.64" cy="363.16" rx="45.4" ry="44.83"/><path class="cls-1" d="M641.87,360.77c0-20.18,17.49-36.54,39.07-36.54A40,40,0,0,1,711.54,338"/><path class="cls-1" d="M682.08,340.51s-30.16-3-30.73,21,27.09,37.83,27.09,37.83a7.13,7.13,0,0,0,6.64,0s25.71-14,25.15-38S682,340.51,682,340.51"/><path class="cls-1" d="M652,337.51s18.55,30.15,55.44,2.74c0,0,5.27,3.58-5.06,6.32,3.37,3.58,13.28,14.34,10.75,31s19.82-30.36-10.33-43.43"/><path class="cls-1" d="M646.08,344.68s19.61,18.55,56.29,6.54"/><path class="cls-1" d="M663.37,382.2s15.07-46.27,31.73-.53"/><path class="cls-1" d="M662.53,381.15s17.6-64.3,34-.84"/><circle class="cls-1" cx="679.39" cy="374.61" r="9.7"/><circle class="cls-1" cx="678.97" cy="375.25" r="5.9"/><path class="cls-1" d="M660,353.74s-11.28-3.37,7.48,13.7"/><path class="cls-1" d="M667,368.5s-29.09-26.56-2.32,15.6"/><path class="cls-1" d="M692.15,366.5s20.77-18.24,6-12.33"/><path class="cls-1" d="M692.46,367.23s40.05-20.66-8.64,25.51"/><path class="cls-1" d="M648,375s-11-7-3,7.17S673.91,413,705.11,398"/><circle class="cls-1" cx="761.05" cy="704.82" r="22.49"/><path class="cls-1" d="M704.83,548.54c-.29,13-10.57,23.61-23.61,23.61a23.61,23.61,0,1,1,0-47.22C694.67,525.1,705.12,535.62,704.83,548.54Z"/><circle class="cls-1" cx="681.22" cy="548.54" r="21.36"/><circle class="cls-1" cx="681.22" cy="548.54" r="3.37"/><path class="cls-1" d="M691.41,567.37c-2.93-2.37-4-6.34-4-10.4a12.94,12.94,0,0,1,14.89-12.78"/><path class="cls-1" d="M692,530.12c0,6.83-5.61,12.79-12.44,12.79a12.37,12.37,0,0,1-12.27-10.82"/><path class="cls-1" d="M660.21,544.6a11.48,11.48,0,0,1,1.34,0,15.18,15.18,0,0,1,12.37,24"/><ellipse class="cls-1" cx="684.59" cy="561.75" rx="60.71" ry="63.24"/><circle class="cls-1" cx="684.87" cy="559.5" r="57.06"/><ellipse class="cls-1" cx="683.19" cy="570.46" rx="90.79" ry="90.51"/><path class="cls-1" d="M709.42,523a44.75,44.75,0,0,1,17.41,35.67c0,24.45-19.11,44.27-42.69,44.27s-42.69-19.82-42.69-44.27"/><path class="cls-1" d="M721.34,536.94s-27.93,24.77-29.62,65.25"/><path class="cls-1" d="M722.61,568.14s2.74-23.82-9.91,5.48c0,0-24.45,42.37,1.26,10.54"/><path class="cls-1" d="M642.08,537.36s32.36,38.37,32.57,64.3"/><path class="cls-1" d="M652.41,585S632,538.31,667,599"/><path class="cls-1" d="M664.42,511.43s-32.25,14.12,29.72,9.7c20.87-1.9,11.38-11-2.11-14.12"/><path class="cls-1" d="M695.41,506s31.2,3.79,35.63,37.74"/><path class="cls-1" d="M673.28,601.24s10.54,25.93-22.35,1.9"/><path class="cls-1" d="M693.73,601.87s-8,26.14,28.46-3.37"/><path class="cls-1" d="M644.4,582.27S652,593,658.31,597.44s4.64,10.12,4.64,10.12"/><path class="cls-1" d="M720.71,586.06s-8.43,9.7-15.18,12.86-3.58,9.49-3.58,9.49"/><path class="cls-1" d="M681.5,566.67a18.34,18.34,0,1,1,14.31-29.82"/><path class="cls-1" d="M575.39,731.38s6,4.92,13.63-.14"/><path class="cls-1" d="M780.44,731.94s5.2,4.92,12.79-.14"/><path class="cls-1" d="M578.12,256.77h209.2A5.27,5.27,0,0,1,792.6,262v27.39a5.27,5.27,0,0,1-5.28,5.27l-209.08-.27a5.27,5.27,0,0,1-5.27-5.25l-.12-27.13A5.27,5.27,0,0,1,578.12,256.77Z"/><rect class="cls-1" x="671.73" y="259.3" width="13.07" height="28.67"/><rect class="cls-1" x="684.79" y="259.31" width="13.07" height="28.67"/><rect class="cls-1" x="673.91" y="267.2" width="8.57" height="6.87"/><path class="cls-1" d="M654.9,286.87"/><path class="cls-1" d="M711.58,286.87"/><line class="cls-1" x1="654.9" y1="279.99" x2="711.58" y2="279.99"/><rect class="cls-1" x="687.12" y="267.2" width="8.57" height="6.87"/><rect class="cls-1" x="700.33" y="267.2" width="8.57" height="6.87"/><rect class="cls-1" x="1152.37" y="268.2" width="70.83" height="23.47" rx="6.04" ry="6.04"/><path class="cls-1" d="M1124.54,726.46s6.85,19.42,15.67-.08"/><path class="cls-1" d="M1439.22,726.69s6.8,16.51,15.55-.07"/><path class="cls-1" d="M1124.44,719.4a4.44,4.44,0,0,1-4.46-4.46c.08-55,.92-598.76,1-635.44a1.93,1.93,0,0,1,1.94-1.95c16,0,122.54-.23,138.91,0a2,2,0,0,1,1.94,2V717.34a1.92,1.92,0,0,1-1.92,1.94C1246.74,719.29,1146.95,719.37,1124.44,719.4Z"/><path class="cls-1" d="M1456.68,719.38l0,3.89a3.24,3.24,0,0,1-3.23,3.27c-32.32,0-295.68.07-327.9.06a3.22,3.22,0,0,1-3.23-3.23c0-1.17,0-2.58,0-4.09"/><path class="cls-1" d="M1271.21,719.4a4.46,4.46,0,0,1-4.48-4.47c.11-54.9,1.22-597.18,1.3-635.28a2.09,2.09,0,0,1,2.11-2.11c19.69,0,167.28-.2,186.48,0a2,2,0,0,1,1.93,2V717.34a1.92,1.92,0,0,1-1.92,1.93C1438.55,719.29,1298.35,719.37,1271.21,719.4Z"/><line class="cls-1" x1="1263.89" y1="99.06" x2="1268.11" y2="99.06"/><path class="cls-1" d="M1272.69,493l10.58,0s4.23-164.15,0-331.54h-10.1S1275.7,474,1272.69,493Z"/><path class="cls-1" d="M1280.76,163.15s4.08,186.64.7,327"/><path class="cls-1" d="M1281.6,215.5s-3.3-13-5.06-.49c-2.29,16.28-1.22,222.66.42,228.24-.17,2.75,4,15.33,5.43-3"/><path class="cls-1" d="M1259,493l-10.58,0s-4.23-164.15,0-331.54h10.1S1256,474,1259,493Z"/><path class="cls-1" d="M1250.95,163.15s-4.08,186.64-.7,327"/><path class="cls-1" d="M1250.1,215.5s3.3-13,5.06-.49c2.29,16.28,1.22,222.66-.42,228.24.17,2.75-4,15.41-5.4-2.88"/><rect class="cls-1" x="1160.45" y="271.68" width="19.96" height="16" rx="1.15" ry="1.15"/><rect class="cls-1" x="1189.54" y="271.78" width="9.21" height="16" rx="1.15" ry="1.15"/><rect class="cls-1" x="1202.72" y="271.78" width="9.21" height="16" rx="1.15" ry="1.15"/><polygon class="cls-2" points="538.27 735.3 1512.05 735.3 1512.05 774.93 539.03 774.64 538.27 735.3"/><polygon class="cls-2" points="544.45 774.58 1505.1 775 1505.02 787.65 544.56 788.14 544.45 774.58"/><path class="cls-3" d="M605.38,275.2a2.27,2.27,0,0,0,0-.25,2.4,2.4,0,1,0-2.4,2.35,2.4,2.4,0,0,0,2.23-1.47l-1-.18a1.33,1.33,0,0,1-1.16.7,1.35,1.35,0,0,1-1.31-1.15ZM603,273.57a1.34,1.34,0,0,1,1.24.87h-2.48A1.33,1.33,0,0,1,603,273.57Z"/><rect class="cls-3" x="598.72" y="272.7" width="1.23" height="4.52"/><path class="cls-3" d="M599.33,270.86a.68.68,0,1,0,.68.68.68.68,0,0,0-.68-.68"/><polygon class="cls-3" points="591.21 271.25 591.21 273.68 588.56 273.68 588.56 271.25 587.22 271.25 587.22 277.21 588.56 277.21 588.56 274.78 591.21 274.78 591.21 277.21 592.55 277.21 592.55 271.25 591.21 271.25"/><path class="cls-3" d="M596.75,272.7v.24a2.35,2.35,0,1,0,0,4v.24h1.2V272.7Zm-1.16,3.61a1.36,1.36,0,1,1,1.37-1.36A1.36,1.36,0,0,1,595.58,276.31Z"/><path class="cls-3" d="M607.93,272.28a2.43,2.43,0,0,0-2,2.37v2.57h1.17v-2.62a1.17,1.17,0,0,1,1-1.16Z"/><path class="cls-3" d="M1437.83,112.46a2.27,2.27,0,0,0,0-.25,2.4,2.4,0,1,0-2.4,2.35,2.4,2.4,0,0,0,2.23-1.47l-1-.18a1.33,1.33,0,0,1-1.16.7,1.35,1.35,0,0,1-1.31-1.15Zm-2.35-1.63a1.34,1.34,0,0,1,1.24.87h-2.48A1.33,1.33,0,0,1,1435.47,110.83Z"/><rect class="cls-3" x="1431.16" y="109.96" width="1.23" height="4.52"/><path class="cls-3" d="M1431.78,108.11a.68.68,0,1,0,.68.68.68.68,0,0,0-.68-.68"/><polygon class="cls-3" points="1423.65 108.51 1423.65 110.94 1421.01 110.94 1421.01 108.51 1419.67 108.51 1419.67 114.47 1421.01 114.47 1421.01 112.04 1423.65 112.04 1423.65 114.47 1424.99 114.47 1424.99 108.51 1423.65 108.51"/><path class="cls-3" d="M1429.19,110v.24a2.35,2.35,0,1,0,0,4v.24h1.2V110Zm-1.16,3.61a1.36,1.36,0,1,1,1.37-1.36A1.36,1.36,0,0,1,1428,113.57Z"/><path class="cls-3" d="M1440.38,109.54a2.43,2.43,0,0,0-2,2.37v2.57h1.17v-2.62a1.17,1.17,0,0,1,1-1.16Z"/><path class="cls-1" d="M859.45,725.86s7.17,19,16.39-.08"/><path class="cls-1" d="M1053.47,727.15s7.36,18.83,16.58-.28"/><path class="cls-2" d="M845.47,415.28V4.62a3.8,3.8,0,0,1,3.8-3.8h227.39a3.8,3.8,0,0,1,3.8,3.8V415.83a3.8,3.8,0,0,1-3.81,3.8l-227.41-.54A3.78,3.78,0,0,1,845.47,415.28Z"/><line class="cls-1" x1="1075.64" y1="419.57" x2="1075.64" y2="422.94"/><line class="cls-1" x1="850.18" y1="419.11" x2="850.22" y2="422.88"/><rect class="cls-1" x="952.84" y="70.25" width="18.97" height="64.09" rx="1.62" ry="1.62"/><rect class="cls-1" x="955.94" y="76.99" width="13.07" height="21.92" rx="1.62" ry="1.62"/><rect class="cls-1" x="955.94" y="102.61" width="13.07" height="3.79"/><rect class="cls-1" x="955.94" y="108.72" width="13.07" height="3.79"/><rect class="cls-1" x="955.94" y="114.83" width="13.07" height="3.79"/><circle class="cls-1" cx="962.4" cy="127.03" r="3.37"/><path class="cls-4" d="M970.1,61.93a2.27,2.27,0,0,0,0-.25,2.4,2.4,0,1,0-2.4,2.35,2.4,2.4,0,0,0,2.23-1.47l-1-.18a1.33,1.33,0,0,1-1.16.7,1.35,1.35,0,0,1-1.31-1.15Zm-2.35-1.63a1.34,1.34,0,0,1,1.24.87h-2.48A1.33,1.33,0,0,1,967.75,60.3Z"/><rect class="cls-4" x="963.44" y="59.42" width="1.23" height="4.52"/><path class="cls-4" d="M964.05,57.58a.68.68,0,1,0,.68.68.68.68,0,0,0-.68-.68"/><polygon class="cls-4" points="955.93 57.98 955.93 60.41 953.29 60.41 953.29 57.98 951.94 57.98 951.94 63.94 953.29 63.94 953.29 61.51 955.93 61.51 955.93 63.94 957.27 63.94 957.27 57.98 955.93 57.98"/><path class="cls-4" d="M961.47,59.43v.24a2.35,2.35,0,1,0,0,4v.24h1.2V59.43ZM960.31,63a1.36,1.36,0,1,1,1.37-1.36A1.36,1.36,0,0,1,960.31,63Z"/><path class="cls-4" d="M972.66,59a2.43,2.43,0,0,0-2,2.37v2.57h1.17V61.32a1.17,1.17,0,0,1,1-1.16Z"/><path class="cls-2" d="M851.52,725.93a3.78,3.78,0,0,1-3.8-3.8V425.29A2.28,2.28,0,0,1,850,423c22.07,0,196.68-.07,224.45,0a3.77,3.77,0,0,1,3.76,3.8V723.32a3.77,3.77,0,0,1-3.8,3.8C1046.94,726.92,879,725.72,851.52,725.93Z"/><polygon class="cls-5" points="10.72 733.74 485.96 733.74 485.96 780.87 11.1 780.52 10.72 733.74"/><polygon class="cls-5" points="0.84 780.14 495.84 780.42 495.8 788.7 0.9 789.02 0.84 780.14"/><polygon class="cls-5" points="36.74 684.62 459.94 684.62 459.94 726.58 37.08 726.27 36.74 684.62"/><polygon class="cls-5" points="40.46 726.05 456.22 726.29 456.18 733.46 40.51 733.74 40.46 726.05"/><polygon class="cls-5" points="67.98 635.5 428.41 635.5 428.41 677.46 68.27 677.15 67.98 635.5"/><polygon class="cls-5" points="71.3 676.93 425.38 677.17 425.35 684.34 71.34 684.62 71.3 676.93"/><path class="cls-6" d="M181.27,577.24c5.72,1.33,10.94,2.38,15.35,3.2l-1.15,2.42c-6.53-1.11-13.06-2.51-19.49-4.18-6.43,1.67-13,3.07-19.49,4.18l-1.15-2.42c4.41-.82,9.64-1.87,15.35-3.2a201.67,201.67,0,0,1-20.62-7.1c-1.38,3.13-7,5.84-13.54,6.93-5.46.92-11.91,1.06-15.51-.45,5.9-8,13.77-10.74,19.89-10.53-4.19-2-8.22-4.15-12-6.44-1.84,2.9-7.92,4.63-14.56,4.6-5.53,0-11.9-1-15.18-3.09,7.19-6.92,15.4-8.25,21.38-7a92.44,92.44,0,0,1-12.1-10.32,4.43,4.43,0,0,1,.29,1.38c-2.71,2.16-9.15,1.42-15.38-1.24-5.08-2.16-10.55-5.52-12.74-8.74,8.81-3.42,16.51-1.85,21.55,1.28a56.88,56.88,0,0,1-6.57-11.3c0,.11,0,.22-.06.34-3.21,1.31-9.16-1.2-14.37-5.51-4.24-3.5-8.54-8.26-9.72-12,10.33-.9,17.67,3.62,21.35,8.61l-.08-.32c-1-4.41-1.77-8.87-2.34-13.34-3.43.24-8.33-3.81-12.06-9.34-3.07-4.56-5.83-10.34-5.92-14.25,8.84,1.78,14.35,6.88,17,12a111.69,111.69,0,0,1,.32-14.11,4.25,4.25,0,0,1-.69.87c-3.07-.56-6.35-5.38-8.18-11.22-1.5-4.75-2.41-10.48-1.48-13.9C86.57,456.9,90,462.73,91,467.88A84.19,84.19,0,0,1,94.5,455c-2.85-1.09-5.13-6.31-5.85-12.26-.59-4.84-.45-10.53,1-13.66,6.63,5.23,8.8,11.94,8.55,17.24a72.17,72.17,0,0,1,6-9.78c-2.09-1.71-2.65-6.72-1.72-11.95.76-4.29,2.37-9.11,4.46-11.4,4.12,6,4.34,12,2.92,16.48a75.24,75.24,0,0,1,6.1-5.8c.1-2.51,2.92-6,6.74-8.75,3.33-2.4,7.57-4.61,10.46-4.78-1.86,10.43-10,14.9-14.82,14.53a5.14,5.14,0,0,1-2.37-.47c0-.06,0-.13,0-.2a85.38,85.38,0,0,0-6.59,6.76,12.24,12.24,0,0,1-2,3.3,17.18,17.18,0,0,1,14.26-1c-1.48,2.37-5.27,4.94-8.82,6.66-4.36,2.11-8.89,2.85-10.86,1.4,0-.12,0-.22,0-.32a75.57,75.57,0,0,0-3.95,7.18,11.9,11.9,0,0,1-1.68,4.63c-.39.59-.64,1-.86,1.27a81.4,81.4,0,0,0-4.23,15.7,12.68,12.68,0,0,1-.77,5.84c-.15,1.5-.26,3-.34,4.53,1.17-4.92,6.53-11.29,16.23-12.08-.46,3-3.16,7.16-6,10.37-3.45,4-7.67,6.64-10.25,6.05-.06-.16-.11-.3-.14-.43q-.07,4.6.25,9.35a13.87,13.87,0,0,1,1,6.42c-.08.69-.13,1.18-.2,1.56.08.6.16,1.2.25,1.8v-.33c-.19-5.26,5.12-14,16.66-15.54-.33,3.16-3,7.7-5.74,11.24-3.43,4.34-7.75,7.39-10.51,6.92l-.08-.2q.85,5.34,2.12,10.83a51.66,51.66,0,0,0,2.87,8.74c-.57-5.41,2.41-13.6,11.65-18.13.72,3.17-.34,8.43-1.89,12.77-1.81,5-4.76,9.22-7.48,10a61.81,61.81,0,0,0,10.86,14.14c-2.12-5-1.44-14,6.71-20.87,1.47,2.89,1.73,8.24,1.27,12.82-.5,5.07-2.21,9.61-4.49,11.29A98.75,98.75,0,0,0,129,558c-4-3.7-7-12.35-2.09-21.92,2.49,2.09,4.81,6.9,6.18,11.28,1.66,5.33,1.74,10.65-.23,12.76a155.72,155.72,0,0,0,15.52,7.08c-3.94-3.61-7.12-10.92-4.27-20,2.82,1.63,5.93,6,8,10,2.42,4.69,3.43,9.63,2.2,12.18,7.42,2.65,14.78,4.79,21.63,6.52"/><path class="cls-6" d="M104.21,458.33c-4,3-8.46,4.67-10.75,3.6a5.12,5.12,0,0,1,.26-2.39c1.07-4.65,7.73-11.07,18.1-9.72C110.8,452.52,107.46,455.89,104.21,458.33Z"/><path class="cls-6" d="M403,459.55a5.12,5.12,0,0,1,.26,2.39c-2.29,1.06-6.75-.6-10.74-3.6-3.25-2.44-6.59-5.81-7.62-8.5C395.23,448.48,401.88,454.9,403,459.55Z"/><path class="cls-6" d="M320.69,576c6.84-1.73,14.2-3.87,21.63-6.52-1.23-2.55-.21-7.49,2.2-12.18,2.1-4.08,5.21-8.42,8-10,2.85,9.07-.33,16.38-4.27,20a155.75,155.75,0,0,0,15.52-7.08c-2-2.11-1.88-7.43-.22-12.76,1.36-4.38,3.68-9.2,6.18-11.28,4.92,9.57,1.9,18.21-2.09,21.92a98.73,98.73,0,0,0,15.77-11.07c-2.28-1.67-4-6.22-4.49-11.29-.45-4.58-.2-9.93,1.27-12.82,8.15,6.84,8.83,15.86,6.71,20.87a61.81,61.81,0,0,0,10.86-14.14c-2.72-.82-5.68-5-7.48-10-1.56-4.34-2.61-9.6-1.89-12.77,9.24,4.53,12.22,12.73,11.65,18.13a51.65,51.65,0,0,0,2.87-8.74q1.27-5.49,2.12-10.83l-.08.2c-2.76.48-7.08-2.57-10.51-6.92-2.79-3.54-5.42-8.08-5.74-11.24,11.54,1.53,16.85,10.27,16.66,15.54v.33q.13-.9.25-1.8c-.06-.38-.12-.87-.2-1.56a13.88,13.88,0,0,1,1-6.43q.32-4.75.25-9.35c0,.13-.08.27-.14.43-2.59.58-6.8-2.1-10.25-6.05-2.81-3.22-5.5-7.4-6-10.37,9.69.8,15.06,7.17,16.23,12.09-.08-1.52-.19-3-.34-4.53a12.68,12.68,0,0,1-.77-5.84,81.41,81.41,0,0,0-4.23-15.7c-.22-.29-.47-.68-.86-1.26a11.9,11.9,0,0,1-1.68-4.63,75.48,75.48,0,0,0-3.95-7.18c0,.1,0,.2,0,.32-2,1.45-6.51.7-10.86-1.4-3.54-1.72-7.34-4.29-8.82-6.66a17.18,17.18,0,0,1,14.26,1,12.24,12.24,0,0,1-2-3.3,85.36,85.36,0,0,0-6.59-6.76c0,.07,0,.13,0,.2a5.14,5.14,0,0,1-2.37.47c-4.79.38-13-4.1-14.82-14.53,2.89.17,7.13,2.38,10.46,4.78,3.82,2.75,6.65,6.24,6.74,8.75a75.17,75.17,0,0,1,6.1,5.8c-1.42-4.43-1.2-10.5,2.92-16.48,2.09,2.28,3.7,7.11,4.46,11.4.93,5.22.38,10.24-1.72,11.95a72.21,72.21,0,0,1,6,9.78c-.25-5.3,1.92-12,8.55-17.24,1.49,3.13,1.64,8.82,1,13.66-.72,5.95-3,11.17-5.85,12.26a84.21,84.21,0,0,1,3.47,12.85c1-5.15,4.46-11,11.66-14.77.92,3.42,0,9.15-1.48,13.9-1.84,5.84-5.11,10.66-8.18,11.22a4.23,4.23,0,0,1-.69-.87,111.64,111.64,0,0,1,.32,14.1c2.67-5.14,8.17-10.24,17-12-.09,3.9-2.85,9.69-5.92,14.25-3.72,5.53-8.62,9.58-12.06,9.34-.57,4.47-1.36,8.93-2.34,13.34l-.08.32c3.68-5,11-9.5,21.35-8.61-1.19,3.71-5.48,8.47-9.72,12-5.22,4.31-11.17,6.82-14.37,5.51,0-.12,0-.23-.06-.34a56.87,56.87,0,0,1-6.57,11.3c5-3.13,12.74-4.7,21.55-1.28-2.19,3.22-7.66,6.57-12.74,8.74-6.23,2.66-12.67,3.4-15.38,1.24a4.43,4.43,0,0,1,.29-1.38,92.47,92.47,0,0,1-12.1,10.32c6-1.25,14.2.08,21.38,7-3.28,2.11-9.65,3.07-15.18,3.09-6.63,0-12.72-1.7-14.56-4.6-3.82,2.29-7.85,4.44-12,6.44,6.12-.21,14,2.5,19.89,10.53-3.6,1.52-10,1.37-15.51.45-6.49-1.1-12.16-3.8-13.54-6.93a201.68,201.68,0,0,1-20.62,7.1c5.72,1.33,10.94,2.38,15.35,3.2l-1.15,2.42c-6.53-1.11-13.06-2.51-19.49-4.18-6.43,1.67-13,3.07-19.49,4.18l-1.15-2.42c4.41-.82,9.64-1.87,15.35-3.2"/><path class="cls-7" d="M332.29,501.31a23.69,23.69,0,0,0,.15-2.65c0-13.54-11.22-24.51-25.07-24.51s-25.07,11-25.07,24.51,11.22,24.51,25.07,24.51a25.06,25.06,0,0,0,23.25-15.34l-10.8-1.89a13.83,13.83,0,0,1-12.1,7.33,14.08,14.08,0,0,1-13.71-12Zm-24.57-17a13.93,13.93,0,0,1,12.93,9.12H294.78A13.93,13.93,0,0,1,307.72,484.32Z"/><rect class="cls-7" x="262.77" y="475.17" width="12.8" height="47.11"/><path class="cls-7" d="M269.17,456a7.14,7.14,0,1,0,7.14,7.14,7.14,7.14,0,0,0-7.14-7.14"/><polygon class="cls-7" points="184.41 460.07 184.41 485.43 156.81 485.43 156.81 460.07 142.82 460.07 142.82 522.25 156.81 522.25 156.81 496.88 184.41 496.88 184.41 522.25 198.41 522.25 198.41 460.07 184.41 460.07"/><path class="cls-7" d="M242.19,475.19v2.53a24.5,24.5,0,1,0-.29,42.07v2.45h12.49V475.19Zm-12.13,37.65a14.17,14.17,0,1,1,14.33-14.16A14.24,14.24,0,0,1,230.06,512.84Z"/><path class="cls-7" d="M358.91,470.79A25.33,25.33,0,0,0,338,495.48v26.81h12.26V495A12.25,12.25,0,0,1,361,482.82Z"/><circle class="cls-7" cx="251.94" cy="580.88" r="8.82"/><circle class="cls-7" cx="221.41" cy="580.88" r="5.23"/><circle class="cls-7" cx="282.47" cy="580.88" r="5.23"/></svg>