<svg id="Layer_4" data-name="Layer 4" xmlns="http://www.w3.org/2000/svg" width="65" height="62.19" viewBox="0 0 65 62.19"><defs><style>.cls-1{fill:#005aaa;}</style></defs><title>geo</title><rect class="cls-1" x="25.16" y="31.82" width="1.27" height="1.91"/><path class="cls-1" d="M30.89,44.55H29V42.64h1.91Zm-3.82,0H25.16V42.64h1.91Zm-3.82,0H21.34V42.64h1.91Zm-3.82,0H17.52V42.64h1.91Zm-3.82,0H13.7V42.64h1.91Zm-3.82,0H9.88V42.64h1.91ZM8,44.55H6.06V42.64H8Zm-3.92-.38a6.15,6.15,0,0,1-1.92-1.1l1.23-1.46a4.24,4.24,0,0,0,1.33.76ZM.72,41.37A6.16,6.16,0,0,1,0,39.28L1.89,39a4.24,4.24,0,0,0,.5,1.44Zm1.2-3.91L.05,37.07A6.12,6.12,0,0,1,.89,35L2.5,36A4.25,4.25,0,0,0,1.92,37.45Zm1.61-2.54L2.38,33.39a6.15,6.15,0,0,1,2-1l.54,1.83A4.26,4.26,0,0,0,3.54,34.91Zm19.72-1.18H21.34V31.82h1.91Zm-3.82,0H17.52V31.82h1.91Zm-3.82,0H13.7V31.82h1.91Zm-3.18,0H10.52V31.82h1.91Zm-3.82,0H6.7V31.82H8.61Z"/><rect class="cls-1" x="32.16" y="42.64" width="1.27" height="1.91"/><rect class="cls-1" x="22.61" y="31.82" width="1.27" height="1.91"/><path class="cls-1" d="M27.07,33.73H25.16V31.82h1.91ZM29,34V32.12a1.93,1.93,0,0,0,1.14-.38l1.14,1.54A3.83,3.83,0,0,1,29,34Zm3.75-2.7-1.82-.57a2,2,0,0,0,0-1.2l1.81-.61a3.86,3.86,0,0,1,0,2.38Zm-2.58-3A1.92,1.92,0,0,0,29,28h0l0-1v-1h0a3.85,3.85,0,0,1,2.26.71ZM27.07,28H25.16V26.09h1.91Zm-3.18,0H22V26.09h1.91Zm-3.82,0H18.16V26.09h1.91Zm-3.82,0H14.34V26.09h1.91Z"/><rect class="cls-1" x="11.16" y="26.09" width="1.27" height="1.91"/><path class="cls-1" d="M12,24.45l-.62-.53C11,23.59,1.76,15.69,1.76,10.2a10.2,10.2,0,0,1,20.41,0c0,5.49-9.19,13.39-9.58,13.72ZM12,1.91A8.3,8.3,0,0,0,3.67,10.2c0,3.54,5.51,9.22,8.29,11.73,2.79-2.51,8.29-8.19,8.29-11.73A8.3,8.3,0,0,0,12,1.91Zm0,13.84a5.55,5.55,0,1,1,5.54-5.55A5.55,5.55,0,0,1,12,15.75Zm0-9.18A3.64,3.64,0,1,0,15.6,10.2,3.64,3.64,0,0,0,12,6.57Z"/><path class="cls-1" d="M12,15.75a5.55,5.55,0,1,1,5.54-5.55A5.55,5.55,0,0,1,12,15.75Zm0-9.18A3.64,3.64,0,1,0,15.6,10.2,3.64,3.64,0,0,0,12,6.57Z"/><path class="cls-1" d="M49.56,62.19l-.62-.53c-.61-.52-14.83-12.73-14.83-21.09a15.44,15.44,0,0,1,30.89,0c0,8.35-14.22,20.57-14.82,21.09Zm0-35.15A13.55,13.55,0,0,0,36,40.58c0,6.56,10.81,16.64,13.54,19.09,2.73-2.44,13.53-12.52,13.53-19.09A13.55,13.55,0,0,0,49.56,27Zm0,21.68a8.15,8.15,0,1,1,8.14-8.15A8.16,8.16,0,0,1,49.56,48.73Zm0-14.38a6.24,6.24,0,1,0,6.23,6.24A6.25,6.25,0,0,0,49.56,34.34Z"/><path class="cls-1" d="M49.56,48.73a8.15,8.15,0,1,1,8.14-8.15A8.16,8.16,0,0,1,49.56,48.73Zm0-14.38a6.24,6.24,0,1,0,6.23,6.24A6.25,6.25,0,0,0,49.56,34.34Z"/></svg>