<svg id="Layer_4" data-name="Layer 4" xmlns="http://www.w3.org/2000/svg" width="52" height="65.93" viewBox="0 0 52 65.93"><defs><style>.cls-1{fill:#005aaa;}</style></defs><title>medal</title><path class="cls-1" d="M128.36,885.53l-13-6.4-13,6.4v-19a1,1,0,0,1,2,0v15.91l11-5.42,11,5.42V866.49a1,1,0,0,1,2,0Z" transform="translate(-89.38 -819.6)"/><path class="cls-1" d="M107.36,882.78a1,1,0,0,1-1-1V869.21a1,1,0,0,1,2,0v12.57A1,1,0,0,1,107.36,882.78Z" transform="translate(-89.38 -819.6)"/><path class="cls-1" d="M123.36,882.78a1,1,0,0,1-1-1V869.21a1,1,0,0,1,2,0v12.57A1,1,0,0,1,123.36,882.78Z" transform="translate(-89.38 -819.6)"/><path class="cls-1" d="M115.38,871.59a3.88,3.88,0,0,1-2.6-1.57c-.35-.36-.87-.9-1.12-.94a3.55,3.55,0,0,0-1.42.56,3.82,3.82,0,0,1-2.9.69c-1-.33-1.53-1.37-2-2.29a3.81,3.81,0,0,0-.79-1.26,3.71,3.71,0,0,0-1.5.1,2.89,2.89,0,0,1-4.14-3,3.81,3.81,0,0,0-.37-1.45,3.8,3.8,0,0,0-1.45-.37,2.89,2.89,0,0,1-3-4.15,3.74,3.74,0,0,0,.1-1.5,3.82,3.82,0,0,0-1.26-.79c-.92-.44-2-.95-2.29-2a3.82,3.82,0,0,1,.69-2.9,3.73,3.73,0,0,0,.56-1.41c0-.25-.58-.78-.94-1.12A2.93,2.93,0,0,1,91,843c.36-.35.9-.87.94-1.12a3.74,3.74,0,0,0-.56-1.41,3.82,3.82,0,0,1-.69-2.9c.33-1,1.37-1.52,2.29-2a3.82,3.82,0,0,0,1.26-.79,3.74,3.74,0,0,0-.1-1.5,2.89,2.89,0,0,1,3-4.14,3.82,3.82,0,0,0,1.45-.37,3.8,3.8,0,0,0,.37-1.45,2.89,2.89,0,0,1,4.15-3,3.75,3.75,0,0,0,1.5.1,3.82,3.82,0,0,0,.79-1.26c.44-.92.95-2,2-2.29a3.82,3.82,0,0,1,2.9.69,3.74,3.74,0,0,0,1.42.56c.25,0,.78-.58,1.12-.94a2.93,2.93,0,0,1,5.19,0c.35.36.87.91,1.12.95a3.71,3.71,0,0,0,1.41-.56,3.82,3.82,0,0,1,2.9-.69c1,.33,1.53,1.37,2,2.29a3.81,3.81,0,0,0,.79,1.26,3.75,3.75,0,0,0,1.51-.1,2.89,2.89,0,0,1,4.15,3,3.73,3.73,0,0,0,.37,1.45,3.83,3.83,0,0,0,1.45.36,2.89,2.89,0,0,1,3,4.15,3.74,3.74,0,0,0-.1,1.51,3.82,3.82,0,0,0,1.26.79c.92.44,2,.95,2.29,2a3.82,3.82,0,0,1-.69,2.9,3.73,3.73,0,0,0-.56,1.41c0,.25.58.78.94,1.12a2.93,2.93,0,0,1,0,5.19c-.36.35-.9.87-.95,1.12a3.74,3.74,0,0,0,.56,1.41,3.82,3.82,0,0,1,.69,2.9c-.33,1-1.37,1.53-2.29,2a3.81,3.81,0,0,0-1.26.79,3.74,3.74,0,0,0,.1,1.51,2.89,2.89,0,0,1-3,4.14,3.82,3.82,0,0,0-1.45.37,3.82,3.82,0,0,0-.36,1.45,2.89,2.89,0,0,1-4.14,3,3.75,3.75,0,0,0-1.5-.1,3.81,3.81,0,0,0-.79,1.26c-.44.92-.95,2-2,2.29a3.81,3.81,0,0,1-2.9-.69,3.74,3.74,0,0,0-1.41-.56c-.26,0-.78.58-1.13.95A3.87,3.87,0,0,1,115.38,871.59Zm-3.76-4.46.34,0a4.24,4.24,0,0,1,2.22,1.52c.35.37.94,1,1.19,1s.84-.61,1.19-1a4.25,4.25,0,0,1,2.23-1.52,4.41,4.41,0,0,1,2.63.77c.41.22,1.17.62,1.38.55s.6-.83.82-1.29A3.18,3.18,0,0,1,128,865a3.63,3.63,0,0,0,1.5.09c.19-.14.31-1,.38-1.47a3.18,3.18,0,0,1,3.48-3.48c.46-.06,1.33-.18,1.47-.38a3.67,3.67,0,0,0-.09-1.5,3.18,3.18,0,0,1,2.23-4.38c.45-.22,1.21-.59,1.29-.82s-.33-1-.55-1.39a4.4,4.4,0,0,1-.77-2.63,4.25,4.25,0,0,1,1.52-2.22c.37-.35,1-.94,1-1.19s-.61-.84-1-1.19a4.25,4.25,0,0,1-1.52-2.22,4.4,4.4,0,0,1,.77-2.63c.22-.41.62-1.17.55-1.38s-.83-.6-1.29-.82a3.18,3.18,0,0,1-2.23-4.38,3.67,3.67,0,0,0,.09-1.5c-.14-.2-1-.31-1.47-.38a3.18,3.18,0,0,1-3.48-3.48c-.06-.46-.18-1.33-.38-1.47a3.66,3.66,0,0,0-1.5.09,3.18,3.18,0,0,1-4.38-2.23c-.22-.45-.59-1.21-.82-1.29s-1,.33-1.38.55a4.37,4.37,0,0,1-2.63.77,4.25,4.25,0,0,1-2.22-1.52c-.35-.37-.94-1-1.19-1s-.84.61-1.19,1A4.25,4.25,0,0,1,112,824a4.39,4.39,0,0,1-2.63-.77c-.41-.22-1.16-.63-1.38-.55s-.6.83-.82,1.29a3.18,3.18,0,0,1-4.38,2.23,3.66,3.66,0,0,0-1.5-.09c-.2.14-.31,1-.38,1.47a3.18,3.18,0,0,1-3.48,3.48c-.46.06-1.33.18-1.47.38A3.69,3.69,0,0,0,96,833a3.18,3.18,0,0,1-2.23,4.38c-.45.22-1.21.59-1.28.82s.33,1,.55,1.39a4.4,4.4,0,0,1,.77,2.63,4.25,4.25,0,0,1-1.52,2.22c-.37.35-1,.94-1,1.19s.61.84,1,1.19A4.25,4.25,0,0,1,93.82,849a4.4,4.4,0,0,1-.77,2.63c-.22.41-.62,1.17-.55,1.38s.83.6,1.29.82A3.18,3.18,0,0,1,96,858.23a3.67,3.67,0,0,0-.09,1.5c.14.2,1,.31,1.47.38a3.18,3.18,0,0,1,3.48,3.48c.06.46.18,1.32.38,1.47a3.73,3.73,0,0,0,1.5-.09,3.18,3.18,0,0,1,4.38,2.23c.22.45.59,1.21.82,1.29s1-.33,1.38-.55A5.13,5.13,0,0,1,111.62,867.13Z" transform="translate(-89.38 -819.6)"/><path class="cls-1" d="M115.38,863.87a18.28,18.28,0,1,1,18.27-18.28A18.3,18.3,0,0,1,115.38,863.87Zm0-34.61a16.33,16.33,0,1,0,16.33,16.33A16.35,16.35,0,0,0,115.38,829.26Z" transform="translate(-89.38 -819.6)"/><polygon class="cls-1" points="29.98 16.69 29.98 24.69 21.98 24.69 21.98 16.69 17.98 16.69 17.98 34.69 21.98 34.69 21.98 27.69 29.98 27.69 29.98 34.69 33.98 34.69 33.98 16.69 29.98 16.69"/></svg>