<svg id="Layer_4" data-name="Layer 4" xmlns="http://www.w3.org/2000/svg" width="65" height="61.38" viewBox="0 0 65 61.38"><defs><style>.cls-1{fill:#005aaa;}</style></defs><title>price</title><rect class="cls-1" x="40.35" y="13.75" width="1.92" height="4.53"/><rect class="cls-1" x="45.04" y="13.75" width="1.92" height="4.53"/><path class="cls-1" d="M61.48,61.38h-58A3.52,3.52,0,0,1,0,57.86V29.73H1.92V57.86a1.6,1.6,0,0,0,1.6,1.6h58a1.6,1.6,0,0,0,1.6-1.6V29.73H65V57.86A3.52,3.52,0,0,1,61.48,61.38Z"/><path class="cls-1" d="M61.48,52h-58A3.52,3.52,0,0,1,0,48.48V20.35a3.52,3.52,0,0,1,3.52-3.52H8.13v1.92H3.52a1.6,1.6,0,0,0-1.6,1.6V48.48a1.6,1.6,0,0,0,1.6,1.6h58a1.6,1.6,0,0,0,1.6-1.6V20.35a1.6,1.6,0,0,0-1.6-1.6H21.39V16.84H61.48A3.52,3.52,0,0,1,65,20.35V48.48A3.52,3.52,0,0,1,61.48,52Z"/><path class="cls-1" d="M32.5,58a2.24,2.24,0,1,1,2.24-2.24A2.24,2.24,0,0,1,32.5,58Zm0-2.56a.32.32,0,1,0,.32.32A.32.32,0,0,0,32.5,55.41Z"/><path class="cls-1" d="M22.37,27.3H7.18V3.95L9.8,6.6l1.66-1.68L13.11,6.6l1.66-1.68L16.43,6.6l1.66-1.68L19.75,6.6,22.37,4ZM9.1,25.38H20.45V8.62l-.7.71L18.09,7.65,16.43,9.34,14.77,7.65,13.11,9.34,11.46,7.65,9.8,9.34l-.7-.71Z"/><path class="cls-1" d="M59.53,30.9H27.78V21.1H59.53ZM29.69,29H57.61V23H29.69Z"/><path class="cls-1" d="M59.53,14.92H27.78V0H59.53ZM29.69,13H57.61V1.92H29.69Z"/><path class="cls-1" d="M54.1,5.43v4H33.21v-4H54.1M56,3.52H31.29V11.4H56V3.52Z"/><rect class="cls-1" x="27.88" y="33.67" width="6.09" height="1.92"/><rect class="cls-1" x="36.3" y="33.67" width="6.09" height="1.92"/><rect class="cls-1" x="44.71" y="33.67" width="6.09" height="1.92"/><rect class="cls-1" x="53.12" y="33.67" width="6.09" height="1.92"/><rect class="cls-1" x="27.88" y="37.93" width="6.09" height="1.92"/><rect class="cls-1" x="36.3" y="37.93" width="6.09" height="1.92"/><rect class="cls-1" x="44.71" y="37.93" width="6.09" height="1.92"/><rect class="cls-1" x="53.12" y="37.93" width="6.09" height="1.92"/><rect class="cls-1" x="27.88" y="42.2" width="6.09" height="1.92"/><rect class="cls-1" x="36.3" y="42.2" width="6.09" height="1.92"/><rect class="cls-1" x="7.64" y="33.67" width="6.09" height="1.92"/><rect class="cls-1" x="16.05" y="33.67" width="6.09" height="1.92"/><rect class="cls-1" x="7.64" y="37.93" width="6.09" height="1.92"/><rect class="cls-1" x="16.05" y="37.93" width="6.09" height="1.92"/><rect class="cls-1" x="7.64" y="42.2" width="6.09" height="1.92"/><rect class="cls-1" x="16.05" y="42.2" width="6.09" height="1.92"/><rect class="cls-1" x="44.71" y="42.2" width="6.09" height="1.92"/><rect class="cls-1" x="53.12" y="42.2" width="6.09" height="1.92"/><polygon class="cls-1" points="25.43 30.9 4.12 30.9 4.12 21.1 7.9 21.1 7.9 23.02 6.04 23.02 6.04 28.98 23.51 28.98 23.51 23.02 21.84 23.02 21.84 21.1 25.43 21.1 25.43 30.9"/></svg>