<svg id="Layer_4" data-name="Layer 4" xmlns="http://www.w3.org/2000/svg" width="57" height="63.89" viewBox="0 0 57 63.89"><defs><style>.cls-1{fill:#005aaa;}</style></defs><title>team</title><path class="cls-1" d="M37.58,60.76H27.38a6.9,6.9,0,0,1-5.33-2.51H19.42V56.37H23l.28.39a5.07,5.07,0,0,0,4.13,2.12h10.2Z"/><path class="cls-1" d="M21.29,43.22H19.42V41.34h.84a7.1,7.1,0,0,1,1.57-2.49L27,33.33l1.18-1.62v-6l1,0h1.53a4.41,4.41,0,0,1,4.41,4.41v4.1l-.68,2.14h2.92c.07.23.14.23.22.24l.08.39h2.48v1.25H31.91l1.29-4.28V30.09a2.53,2.53,0,0,0-2.53-2.53h-.6v4.73l-1.73,2.26-5.47,5.58a5.14,5.14,0,0,0-1.39,2.37Z"/><polygon class="cls-1" points="47.6 34.01 47.6 28.81 35.08 28.81 35.08 23.18 36.96 23.18 36.96 26.93 49.48 26.93 49.48 29.44 51.92 26.93 55.12 26.93 55.12 14.41 41.97 14.41 41.97 12.53 57 12.53 57 28.81 52.72 28.81 47.6 34.01"/><path class="cls-1" d="M23.18,30.94,16,23.8H9.4V0h33.2V23.8H23.18Zm-11.9-9h5.46l4.56,4.56V21.92H40.71v-20H11.27Z"/><path class="cls-1" d="M25.33,50.79a7.35,7.35,0,0,1-2-.28l.51-1.81c3.42,1,7.13-1.53,8.27-5.57A8.49,8.49,0,0,0,32,38l1.77-.63a10.38,10.38,0,0,1,.16,6.25C32.71,47.92,29.1,50.79,25.33,50.79Z"/><path class="cls-1" d="M44.54,43.85H36.7a3.76,3.76,0,1,1,0-7.52h7.83a3.76,3.76,0,1,1,0,7.52Zm-7.94-5.64a1.89,1.89,0,0,0-1.69,2.74,1.84,1.84,0,0,0,1.69,1h8a1.84,1.84,0,0,0,1.69-1,1.89,1.89,0,0,0-1.69-2.74Z"/><path class="cls-1" d="M43.06,49.48H35.23a3.76,3.76,0,1,1,0-7.52H43a3.76,3.76,0,1,1,0,7.52Zm-7.94-5.64a1.89,1.89,0,0,0-1.69,2.74,1.84,1.84,0,0,0,1.69,1h8a1.84,1.84,0,0,0,1.69-1,1.89,1.89,0,0,0-1.69-2.74Z"/><path class="cls-1" d="M42.32,55.12H34.49a3.76,3.76,0,1,1,0-7.52h7.83a3.76,3.76,0,1,1,0,7.52Zm-7.94-5.64a1.89,1.89,0,0,0-1.69,2.74,1.84,1.84,0,0,0,1.69,1h8a1.84,1.84,0,0,0,1.69-1,1.89,1.89,0,0,0-1.7-2.74Z"/><path class="cls-1" d="M40.09,60.76H34.51a3.76,3.76,0,1,1,0-7.52H40a3.76,3.76,0,1,1,0,7.52Zm-5.67-5.64a1.89,1.89,0,0,0-1.69,2.74,1.84,1.84,0,0,0,1.69,1h5.73a1.84,1.84,0,0,0,1.69-1,1.89,1.89,0,0,0-1.69-2.74Z"/><polygon class="cls-1" points="20.67 61.38 16.91 61.38 16.91 59.51 18.79 59.51 18.79 41.97 3.13 41.97 3.13 40.09 20.67 40.09 20.67 61.38"/><path class="cls-1" d="M12.45,61.28a2.48,2.48,0,1,1,2.48-2.48A2.48,2.48,0,0,1,12.45,61.28Zm0-3.08a.6.6,0,1,0,.6.6A.6.6,0,0,0,12.45,58.2Z"/><polygon class="cls-1" points="17.54 63.89 0 63.89 0 62.01 15.66 62.01 15.66 41.97 0 41.97 0 40.09 17.54 40.09 17.54 63.89"/><rect class="cls-1" x="16.91" y="7.52" width="18.79" height="1.88"/><rect class="cls-1" x="16.91" y="11.27" width="18.79" height="1.88"/><rect class="cls-1" x="16.91" y="14.41" width="18.79" height="1.88"/></svg>