<svg id="Layer_1" data-name="Layer 1" xmlns="http://www.w3.org/2000/svg" width="27.19mm" height="8.37mm" viewBox="0 0 77.06 23.74"><defs><style>.cls-1{fill:#005aaa;}</style></defs><title>logo-top</title><path class="cls-1" d="M66.91,16a8.37,8.37,0,0,0,.05-.94,8.86,8.86,0,0,0-17.71,0,8.76,8.76,0,0,0,8.85,8.66,8.85,8.85,0,0,0,8.21-5.42l-3.81-.67a4.88,4.88,0,0,1-4.27,2.59A5,5,0,0,1,53.4,16Zm-8.68-6a4.92,4.92,0,0,1,4.57,3.22H53.67A4.92,4.92,0,0,1,58.24,10Z"/><rect class="cls-1" x="42.36" y="6.78" width="4.52" height="16.64"/><path class="cls-1" d="M44.62,0a2.52,2.52,0,1,0,2.52,2.52A2.52,2.52,0,0,0,44.62,0"/><polygon class="cls-1" points="14.69 1.45 14.69 10.41 4.94 10.41 4.94 1.45 0 1.45 0 23.41 4.94 23.41 4.94 14.45 14.69 14.45 14.69 23.41 19.63 23.41 19.63 1.45 14.69 1.45"/><path class="cls-1" d="M35.09,6.79v.89A8.65,8.65,0,1,0,35,22.54v.87H39.4V6.79Zm-4.28,13.3a5,5,0,1,1,5.06-5A5,5,0,0,1,30.81,20.09Z"/><path class="cls-1" d="M76.32,5.24A9,9,0,0,0,68.94,14v9.47h4.33V13.78a4.33,4.33,0,0,1,3.79-4.29Z"/></svg>